<?xml version="1.0" standalone="no"?>
<!DOCTYPE svg PUBLIC "-//W3C//DTD SVG 1.1//EN" "http://www.w3.org/Graphics/SVG/1.1/DTD/svg11.dtd">
<svg width="650mm" height="300mm" viewBox="-150 -200 650 300" xmlns="http://www.w3.org/2000/svg" version="1.1">
<title>OpenSCAD Model</title>
<path d="
M 500,-200 L -150,-200 L -150,100 L 500,100 z
M -21.4634,-106.077 L -24.3262,-106.685 L -27,-107.876 L -29.3678,-109.596 L -31.3262,-111.771 L -32.7896,-114.306
 L -33.6941,-117.089 L -34,-120 L -33.6941,-122.911 L -32.7896,-125.694 L -31.3262,-128.229 L -29.3678,-130.404
 L -27,-132.124 L -24.3262,-133.315 L -21.4634,-133.923 L -18.5366,-133.923 L -15.6738,-133.315 L -13,-132.124
 L -10.6322,-130.404 L -8.67375,-128.229 L -7.21036,-125.694 L -6.30592,-122.911 L -6,-120 L -6.30592,-117.089
 L -7.21036,-114.306 L -8.67375,-111.771 L -10.6322,-109.596 L -13,-107.876 L -15.6738,-106.685 L -18.5366,-106.077
 z
M 17.5366,-106.077 L 14.6738,-106.685 L 12,-107.876 L 9.63216,-109.596 L 7.67375,-111.771 L 6.21036,-114.306
 L 5.30592,-117.089 L 5,-120 L 5.30592,-122.911 L 6.21036,-125.694 L 7.67375,-128.229 L 9.63216,-130.404
 L 12,-132.124 L 14.6738,-133.315 L 17.5366,-133.923 L 20.4634,-133.923 L 23.3262,-133.315 L 26,-132.124
 L 28.3678,-130.404 L 30.3262,-128.229 L 31.7896,-125.694 L 32.6941,-122.911 L 33,-120 L 32.6941,-117.089
 L 31.7896,-114.306 L 30.3262,-111.771 L 28.3678,-109.596 L 26,-107.876 L 23.3262,-106.685 L 20.4634,-106.077
 z
M 328.537,-106.077 L 325.674,-106.685 L 323,-107.876 L 320.632,-109.596 L 318.674,-111.771 L 317.21,-114.306
 L 316.306,-117.089 L 316,-120 L 316.306,-122.911 L 317.21,-125.694 L 318.674,-128.229 L 320.632,-130.404
 L 323,-132.124 L 325.674,-133.315 L 328.537,-133.923 L 331.463,-133.923 L 334.326,-133.315 L 337,-132.124
 L 339.368,-130.404 L 341.326,-128.229 L 342.79,-125.694 L 343.694,-122.911 L 344,-120 L 343.694,-117.089
 L 342.79,-114.306 L 341.326,-111.771 L 339.368,-109.596 L 337,-107.876 L 334.326,-106.685 L 331.463,-106.077
 z
M 367.537,-106.077 L 364.674,-106.685 L 362,-107.876 L 359.632,-109.596 L 357.674,-111.771 L 356.21,-114.306
 L 355.306,-117.089 L 355,-120 L 355.306,-122.911 L 356.21,-125.694 L 357.674,-128.229 L 359.632,-130.404
 L 362,-132.124 L 364.674,-133.315 L 367.537,-133.923 L 370.463,-133.923 L 373.326,-133.315 L 376,-132.124
 L 378.368,-130.404 L 380.326,-128.229 L 381.79,-125.694 L 382.694,-122.911 L 383,-120 L 382.694,-117.089
 L 381.79,-114.306 L 380.326,-111.771 L 378.368,-109.596 L 376,-107.876 L 373.326,-106.685 L 370.463,-106.077
 z
M 64.7866,-52.0767 L 61.9238,-52.6852 L 59.25,-53.8756 L 56.8822,-55.596 L 54.9238,-57.771 L 53.4604,-60.3057
 L 52.5559,-63.0892 L 52.25,-66 L 52.5559,-68.9108 L 53.4604,-71.6943 L 54.9238,-74.229 L 56.8822,-76.404
 L 59.25,-78.1243 L 61.9238,-79.3148 L 64.7866,-79.9233 L 67.7134,-79.9233 L 70.5762,-79.3148 L 73.25,-78.1243
 L 75.6178,-76.404 L 77.5762,-74.229 L 79.0396,-71.6943 L 79.9441,-68.9108 L 80.25,-66 L 79.9441,-63.0892
 L 79.0396,-60.3057 L 77.5762,-57.771 L 75.6178,-55.596 L 73.25,-53.8756 L 70.5762,-52.6852 L 67.7134,-52.0767
 z
M 100.787,-52.0767 L 97.9238,-52.6852 L 95.25,-53.8756 L 92.8822,-55.596 L 90.9238,-57.771 L 89.4604,-60.3057
 L 88.5559,-63.0892 L 88.25,-66 L 88.5559,-68.9108 L 89.4604,-71.6943 L 90.9238,-74.229 L 92.8822,-76.404
 L 95.25,-78.1243 L 97.9238,-79.3148 L 100.787,-79.9233 L 103.713,-79.9233 L 106.576,-79.3148 L 109.25,-78.1243
 L 111.618,-76.404 L 113.576,-74.229 L 115.04,-71.6943 L 115.944,-68.9108 L 116.25,-66 L 115.944,-63.0892
 L 115.04,-60.3057 L 113.576,-57.771 L 111.618,-55.596 L 109.25,-53.8756 L 106.576,-52.6852 L 103.713,-52.0767
 z
M 414.787,-52.0767 L 411.924,-52.6852 L 409.25,-53.8756 L 406.882,-55.596 L 404.924,-57.771 L 403.46,-60.3057
 L 402.556,-63.0892 L 402.25,-66 L 402.556,-68.9108 L 403.46,-71.6943 L 404.924,-74.229 L 406.882,-76.404
 L 409.25,-78.1243 L 411.924,-79.3148 L 414.787,-79.9233 L 417.713,-79.9233 L 420.576,-79.3148 L 423.25,-78.1243
 L 425.618,-76.404 L 427.576,-74.229 L 429.04,-71.6943 L 429.944,-68.9108 L 430.25,-66 L 429.944,-63.0892
 L 429.04,-60.3057 L 427.576,-57.771 L 425.618,-55.596 L 423.25,-53.8756 L 420.576,-52.6852 L 417.713,-52.0767
 z
M 450.787,-52.0767 L 447.924,-52.6852 L 445.25,-53.8756 L 442.882,-55.596 L 440.924,-57.771 L 439.46,-60.3057
 L 438.556,-63.0892 L 438.25,-66 L 438.556,-68.9108 L 439.46,-71.6943 L 440.924,-74.229 L 442.882,-76.404
 L 445.25,-78.1243 L 447.924,-79.3148 L 450.787,-79.9233 L 453.713,-79.9233 L 456.576,-79.3148 L 459.25,-78.1243
 L 461.618,-76.404 L 463.576,-74.229 L 465.04,-71.6943 L 465.944,-68.9108 L 466.25,-66 L 465.944,-63.0892
 L 465.04,-60.3057 L 463.576,-57.771 L 461.618,-55.596 L 459.25,-53.8756 L 456.576,-52.6852 L 453.713,-52.0767
 z
M 29.7866,-43.0767 L 26.9238,-43.6852 L 24.25,-44.8756 L 21.8822,-46.596 L 19.9238,-48.771 L 18.4604,-51.3057
 L 17.5559,-54.0892 L 17.25,-57 L 17.5559,-59.9108 L 18.4604,-62.6943 L 19.9238,-65.229 L 21.8822,-67.404
 L 24.25,-69.1243 L 26.9238,-70.3148 L 29.7866,-70.9233 L 32.7134,-70.9233 L 35.5762,-70.3148 L 38.25,-69.1243
 L 40.6178,-67.404 L 42.5762,-65.229 L 44.0396,-62.6943 L 44.9441,-59.9108 L 45.25,-57 L 44.9441,-54.0892
 L 44.0396,-51.3057 L 42.5762,-48.771 L 40.6178,-46.596 L 38.25,-44.8756 L 35.5762,-43.6852 L 32.7134,-43.0767
 z
M 379.787,-43.0767 L 376.924,-43.6852 L 374.25,-44.8756 L 371.882,-46.596 L 369.924,-48.771 L 368.46,-51.3057
 L 367.556,-54.0892 L 367.25,-57 L 367.556,-59.9108 L 368.46,-62.6943 L 369.924,-65.229 L 371.882,-67.404
 L 374.25,-69.1243 L 376.924,-70.3148 L 379.787,-70.9233 L 382.713,-70.9233 L 385.576,-70.3148 L 388.25,-69.1243
 L 390.618,-67.404 L 392.576,-65.229 L 394.04,-62.6943 L 394.944,-59.9108 L 395.25,-57 L 394.944,-54.0892
 L 394.04,-51.3057 L 392.576,-48.771 L 390.618,-46.596 L 388.25,-44.8756 L 385.576,-43.6852 L 382.713,-43.0767
 z
M -45.5678,-66.2822 L -46.3,-68.05 L -45.5678,-69.8178 L -43.8,-70.55 L -42.0322,-69.8178 L -41.3,-68.05
 L -42.0322,-66.2822 L -43.8,-65.55 z
M -85.4678,-66.2822 L -86.2,-68.05 L -85.4678,-69.8178 L -83.7,-70.55 L -81.9322,-69.8178 L -81.2,-68.05
 L -81.9322,-66.2822 L -83.7,-65.55 z
M 304.432,-66.2822 L 303.7,-68.05 L 304.432,-69.8178 L 306.2,-70.55 L 307.968,-69.8178 L 308.7,-68.05
 L 307.968,-66.2822 L 306.2,-65.55 z
M 264.532,-66.2822 L 263.8,-68.05 L 264.532,-69.8178 L 266.3,-70.55 L 268.068,-69.8178 L 268.8,-68.05
 L 268.068,-66.2822 L 266.3,-65.55 z
M -1.46339,-25.0767 L -4.32623,-25.6852 L -7,-26.8756 L -9.36783,-28.596 L -11.3262,-30.771 L -12.7896,-33.3057
 L -13.6941,-36.0892 L -14,-39 L -13.6941,-41.9108 L -12.7896,-44.6943 L -11.3262,-47.229 L -9.36783,-49.404
 L -7,-51.1243 L -4.32623,-52.3148 L -1.46339,-52.9233 L 1.46339,-52.9233 L 4.32623,-52.3148 L 7,-51.1243
 L 9.36783,-49.404 L 11.3262,-47.229 L 12.7896,-44.6943 L 13.6941,-41.9108 L 14,-39 L 13.6941,-36.0892
 L 12.7896,-33.3057 L 11.3262,-30.771 L 9.36783,-28.596 L 7,-26.8756 L 4.32623,-25.6852 L 1.46339,-25.0767
 z
M 348.537,-25.0767 L 345.674,-25.6852 L 343,-26.8756 L 340.632,-28.596 L 338.674,-30.771 L 337.21,-33.3057
 L 336.306,-36.0892 L 336,-39 L 336.306,-41.9108 L 337.21,-44.6943 L 338.674,-47.229 L 340.632,-49.404
 L 343,-51.1243 L 345.674,-52.3148 L 348.537,-52.9233 L 351.463,-52.9233 L 354.326,-52.3148 L 357,-51.1243
 L 359.368,-49.404 L 361.326,-47.229 L 362.79,-44.6943 L 363.694,-41.9108 L 364,-39 L 363.694,-36.0892
 L 362.79,-33.3057 L 361.326,-30.771 L 359.368,-28.596 L 357,-26.8756 L 354.326,-25.6852 L 351.463,-25.0767
 z
M 64.7866,-13.0767 L 61.9238,-13.6852 L 59.25,-14.8756 L 56.8822,-16.596 L 54.9238,-18.771 L 53.4604,-21.3057
 L 52.5559,-24.0892 L 52.25,-27 L 52.5559,-29.9108 L 53.4604,-32.6943 L 54.9238,-35.229 L 56.8822,-37.404
 L 59.25,-39.1243 L 61.9238,-40.3148 L 64.7866,-40.9233 L 67.7134,-40.9233 L 70.5762,-40.3148 L 73.25,-39.1243
 L 75.6178,-37.404 L 77.5762,-35.229 L 79.0396,-32.6943 L 79.9441,-29.9108 L 80.25,-27 L 79.9441,-24.0892
 L 79.0396,-21.3057 L 77.5762,-18.771 L 75.6178,-16.596 L 73.25,-14.8756 L 70.5762,-13.6852 L 67.7134,-13.0767
 z
M 100.787,-13.0767 L 97.9238,-13.6852 L 95.25,-14.8756 L 92.8822,-16.596 L 90.9238,-18.771 L 89.4604,-21.3057
 L 88.5559,-24.0892 L 88.25,-27 L 88.5559,-29.9108 L 89.4604,-32.6943 L 90.9238,-35.229 L 92.8822,-37.404
 L 95.25,-39.1243 L 97.9238,-40.3148 L 100.787,-40.9233 L 103.713,-40.9233 L 106.576,-40.3148 L 109.25,-39.1243
 L 111.618,-37.404 L 113.576,-35.229 L 115.04,-32.6943 L 115.944,-29.9108 L 116.25,-27 L 115.944,-24.0892
 L 115.04,-21.3057 L 113.576,-18.771 L 111.618,-16.596 L 109.25,-14.8756 L 106.576,-13.6852 L 103.713,-13.0767
 z
M 414.787,-13.0767 L 411.924,-13.6852 L 409.25,-14.8756 L 406.882,-16.596 L 404.924,-18.771 L 403.46,-21.3057
 L 402.556,-24.0892 L 402.25,-27 L 402.556,-29.9108 L 403.46,-32.6943 L 404.924,-35.229 L 406.882,-37.404
 L 409.25,-39.1243 L 411.924,-40.3148 L 414.787,-40.9233 L 417.713,-40.9233 L 420.576,-40.3148 L 423.25,-39.1243
 L 425.618,-37.404 L 427.576,-35.229 L 429.04,-32.6943 L 429.944,-29.9108 L 430.25,-27 L 429.944,-24.0892
 L 429.04,-21.3057 L 427.576,-18.771 L 425.618,-16.596 L 423.25,-14.8756 L 420.576,-13.6852 L 417.713,-13.0767
 z
M 450.787,-13.0767 L 447.924,-13.6852 L 445.25,-14.8756 L 442.882,-16.596 L 440.924,-18.771 L 439.46,-21.3057
 L 438.556,-24.0892 L 438.25,-27 L 438.556,-29.9108 L 439.46,-32.6943 L 440.924,-35.229 L 442.882,-37.404
 L 445.25,-39.1243 L 447.924,-40.3148 L 450.787,-40.9233 L 453.713,-40.9233 L 456.576,-40.3148 L 459.25,-39.1243
 L 461.618,-37.404 L 463.576,-35.229 L 465.04,-32.6943 L 465.944,-29.9108 L 466.25,-27 L 465.944,-24.0892
 L 465.04,-21.3057 L 463.576,-18.771 L 461.618,-16.596 L 459.25,-14.8756 L 456.576,-13.6852 L 453.713,-13.0767
 z
M -65.206,-18.1186 L -67.0812,-18.6392 L -68.8007,-19.5508 L -70.284,-20.8107 L -71.4617,-22.36 L -72.2789,-24.1263
 L -72.6972,-26.0269 L -72.6972,-27.9731 L -72.2789,-29.8737 L -71.4617,-31.64 L -70.284,-33.1893 L -68.8007,-34.4492
 L -67.0812,-35.3608 L -65.206,-35.8814 L -63.2628,-35.9868 L -61.3423,-35.6719 L -59.5343,-34.9516 L -57.9235,-33.8595
 L -56.5852,-32.4466 L -55.5818,-30.779 L -54.9604,-28.9347 L -54.75,-27 L -54.9604,-25.0653 L -55.5818,-23.221
 L -56.5852,-21.5534 L -57.9235,-20.1405 L -59.5343,-19.0484 L -61.3423,-18.3281 L -63.2628,-18.0132 z
M 284.794,-18.1186 L 282.919,-18.6392 L 281.199,-19.5508 L 279.716,-20.8107 L 278.538,-22.36 L 277.721,-24.1263
 L 277.303,-26.0269 L 277.303,-27.9731 L 277.721,-29.8737 L 278.538,-31.64 L 279.716,-33.1893 L 281.199,-34.4492
 L 282.919,-35.3608 L 284.794,-35.8814 L 286.737,-35.9868 L 288.658,-35.6719 L 290.466,-34.9516 L 292.076,-33.8595
 L 293.415,-32.4466 L 294.418,-30.779 L 295.04,-28.9347 L 295.25,-27 L 295.04,-25.0653 L 294.418,-23.221
 L 293.415,-21.5534 L 292.076,-20.1405 L 290.466,-19.0484 L 288.658,-18.3281 L 286.737,-18.0132 z
M 29.7866,-4.07669 L 26.9238,-4.6852 L 24.25,-5.87564 L 21.8822,-7.59596 L 19.9238,-9.771 L 18.4604,-12.3057
 L 17.5559,-15.0892 L 17.25,-18 L 17.5559,-20.9108 L 18.4604,-23.6943 L 19.9238,-26.229 L 21.8822,-28.404
 L 24.25,-30.1243 L 26.9238,-31.3148 L 29.7866,-31.9233 L 32.7134,-31.9233 L 35.5762,-31.3148 L 38.25,-30.1243
 L 40.6178,-28.404 L 42.5762,-26.229 L 44.0396,-23.6943 L 44.9441,-20.9108 L 45.25,-18 L 44.9441,-15.0892
 L 44.0396,-12.3057 L 42.5762,-9.771 L 40.6178,-7.59596 L 38.25,-5.87564 L 35.5762,-4.6852 L 32.7134,-4.07669
 z
M 379.787,-4.07669 L 376.924,-4.6852 L 374.25,-5.87564 L 371.882,-7.59596 L 369.924,-9.771 L 368.46,-12.3057
 L 367.556,-15.0892 L 367.25,-18 L 367.556,-20.9108 L 368.46,-23.6943 L 369.924,-26.229 L 371.882,-28.404
 L 374.25,-30.1243 L 376.924,-31.3148 L 379.787,-31.9233 L 382.713,-31.9233 L 385.576,-31.3148 L 388.25,-30.1243
 L 390.618,-28.404 L 392.576,-26.229 L 394.04,-23.6943 L 394.944,-20.9108 L 395.25,-18 L 394.944,-15.0892
 L 394.04,-12.3057 L 392.576,-9.771 L 390.618,-7.59596 L 388.25,-5.87564 L 385.576,-4.6852 L 382.713,-4.07669
 z
M -1.46339,13.9233 L -4.32623,13.3148 L -7,12.1243 L -9.36783,10.404 L -11.3262,8.22899 L -12.7896,5.69431
 L -13.6941,2.91075 L -14,-0 L -13.6941,-2.91075 L -12.7896,-5.69431 L -11.3262,-8.22899 L -9.36783,-10.404
 L -7,-12.1243 L -4.32623,-13.3148 L -1.46339,-13.9233 L 1.46339,-13.9233 L 4.32623,-13.3148 L 7,-12.1243
 L 9.36783,-10.404 L 11.3262,-8.22899 L 12.7896,-5.69431 L 13.6941,-2.91075 L 14,-0 L 13.6941,2.91075
 L 12.7896,5.69431 L 11.3262,8.22899 L 9.36783,10.404 L 7,12.1243 L 4.32623,13.3148 L 1.46339,13.9233
 z
M 348.537,13.9233 L 345.674,13.3148 L 343,12.1243 L 340.632,10.404 L 338.674,8.22899 L 337.21,5.69431
 L 336.306,2.91075 L 336,-0 L 336.306,-2.91075 L 337.21,-5.69431 L 338.674,-8.22899 L 340.632,-10.404
 L 343,-12.1243 L 345.674,-13.3148 L 348.537,-13.9233 L 351.463,-13.9233 L 354.326,-13.3148 L 357,-12.1243
 L 359.368,-10.404 L 361.326,-8.22899 L 362.79,-5.69431 L 363.694,-2.91075 L 364,-0 L 363.694,2.91075
 L 362.79,5.69431 L 361.326,8.22899 L 359.368,10.404 L 357,12.1243 L 354.326,13.3148 L 351.463,13.9233
 z
M -85.4678,15.8178 L -86.2,14.05 L -85.4678,12.2822 L -83.7,11.55 L -81.9322,12.2822 L -81.2,14.05
 L -81.9322,15.8178 L -83.7,16.55 z
M -45.5678,15.8178 L -46.3,14.05 L -45.5678,12.2822 L -43.8,11.55 L -42.0322,12.2822 L -41.3,14.05
 L -42.0322,15.8178 L -43.8,16.55 z
M 304.432,15.8178 L 303.7,14.05 L 304.432,12.2822 L 306.2,11.55 L 307.968,12.2822 L 308.7,14.05
 L 307.968,15.8178 L 306.2,16.55 z
M 264.532,15.8178 L 263.8,14.05 L 264.532,12.2822 L 266.3,11.55 L 268.068,12.2822 L 268.8,14.05
 L 268.068,15.8178 L 266.3,16.55 z
" stroke="black" fill="lightgray" stroke-width="0.5"/>
</svg>
