  0
SECTION
  2
BLOCKS
  0
ENDSEC
  0
SECTION
  2
ENTITIES
  0
LINE
  8
0
 10
500
 20
200
 11
-150
 21
200
  0
LINE
  8
0
 10
-150
 20
200
 11
-150
 21
-100
  0
LINE
  8
0
 10
-150
 20
-100
 11
500
 21
-100
  0
LINE
  8
0
 10
500
 20
-100
 11
500
 21
200
  0
LINE
  8
0
 10
-21.4634
 20
106.077
 11
-22.9108
 21
106.306
  0
LINE
  8
0
 10
-22.9108
 20
106.306
 11
-24.3262
 21
106.685
  0
LINE
  8
0
 10
-24.3262
 20
106.685
 11
-25.6943
 21
107.21
  0
LINE
  8
0
 10
-25.6943
 20
107.21
 11
-27
 21
107.876
  0
LINE
  8
0
 10
-27
 20
107.876
 11
-28.229
 21
108.674
  0
LINE
  8
0
 10
-28.229
 20
108.674
 11
-29.3678
 21
109.596
  0
LINE
  8
0
 10
-29.3678
 20
109.596
 11
-30.404
 21
110.632
  0
LINE
  8
0
 10
-30.404
 20
110.632
 11
-31.3262
 21
111.771
  0
LINE
  8
0
 10
-31.3262
 20
111.771
 11
-32.1243
 21
113
  0
LINE
  8
0
 10
-32.1243
 20
113
 11
-32.7896
 21
114.306
  0
LINE
  8
0
 10
-32.7896
 20
114.306
 11
-33.3148
 21
115.674
  0
LINE
  8
0
 10
-33.3148
 20
115.674
 11
-33.6941
 21
117.089
  0
LINE
  8
0
 10
-33.6941
 20
117.089
 11
-33.9233
 21
118.537
  0
LINE
  8
0
 10
-33.9233
 20
118.537
 11
-34
 21
120
  0
LINE
  8
0
 10
-34
 20
120
 11
-33.9233
 21
121.463
  0
LINE
  8
0
 10
-33.9233
 20
121.463
 11
-33.6941
 21
122.911
  0
LINE
  8
0
 10
-33.6941
 20
122.911
 11
-33.3148
 21
124.326
  0
LINE
  8
0
 10
-33.3148
 20
124.326
 11
-32.7896
 21
125.694
  0
LINE
  8
0
 10
-32.7896
 20
125.694
 11
-32.1243
 21
127
  0
LINE
  8
0
 10
-32.1243
 20
127
 11
-31.3262
 21
128.229
  0
LINE
  8
0
 10
-31.3262
 20
128.229
 11
-30.404
 21
129.368
  0
LINE
  8
0
 10
-30.404
 20
129.368
 11
-29.3678
 21
130.404
  0
LINE
  8
0
 10
-29.3678
 20
130.404
 11
-28.229
 21
131.326
  0
LINE
  8
0
 10
-28.229
 20
131.326
 11
-27
 21
132.124
  0
LINE
  8
0
 10
-27
 20
132.124
 11
-25.6943
 21
132.79
  0
LINE
  8
0
 10
-25.6943
 20
132.79
 11
-24.3262
 21
133.315
  0
LINE
  8
0
 10
-24.3262
 20
133.315
 11
-22.9108
 21
133.694
  0
LINE
  8
0
 10
-22.9108
 20
133.694
 11
-21.4634
 21
133.923
  0
LINE
  8
0
 10
-21.4634
 20
133.923
 11
-20
 21
134
  0
LINE
  8
0
 10
-20
 20
134
 11
-18.5366
 21
133.923
  0
LINE
  8
0
 10
-18.5366
 20
133.923
 11
-17.0892
 21
133.694
  0
LINE
  8
0
 10
-17.0892
 20
133.694
 11
-15.6738
 21
133.315
  0
LINE
  8
0
 10
-15.6738
 20
133.315
 11
-14.3057
 21
132.79
  0
LINE
  8
0
 10
-14.3057
 20
132.79
 11
-13
 21
132.124
  0
LINE
  8
0
 10
-13
 20
132.124
 11
-11.771
 21
131.326
  0
LINE
  8
0
 10
-11.771
 20
131.326
 11
-10.6322
 21
130.404
  0
LINE
  8
0
 10
-10.6322
 20
130.404
 11
-9.59596
 21
129.368
  0
LINE
  8
0
 10
-9.59596
 20
129.368
 11
-8.67375
 21
128.229
  0
LINE
  8
0
 10
-8.67375
 20
128.229
 11
-7.87564
 21
127
  0
LINE
  8
0
 10
-7.87564
 20
127
 11
-7.21036
 21
125.694
  0
LINE
  8
0
 10
-7.21036
 20
125.694
 11
-6.6852
 21
124.326
  0
LINE
  8
0
 10
-6.6852
 20
124.326
 11
-6.30592
 21
122.911
  0
LINE
  8
0
 10
-6.30592
 20
122.911
 11
-6.07669
 21
121.463
  0
LINE
  8
0
 10
-6.07669
 20
121.463
 11
-6
 21
120
  0
LINE
  8
0
 10
-6
 20
120
 11
-6.07669
 21
118.537
  0
LINE
  8
0
 10
-6.07669
 20
118.537
 11
-6.30592
 21
117.089
  0
LINE
  8
0
 10
-6.30592
 20
117.089
 11
-6.6852
 21
115.674
  0
LINE
  8
0
 10
-6.6852
 20
115.674
 11
-7.21036
 21
114.306
  0
LINE
  8
0
 10
-7.21036
 20
114.306
 11
-7.87564
 21
113
  0
LINE
  8
0
 10
-7.87564
 20
113
 11
-8.67375
 21
111.771
  0
LINE
  8
0
 10
-8.67375
 20
111.771
 11
-9.59596
 21
110.632
  0
LINE
  8
0
 10
-9.59596
 20
110.632
 11
-10.6322
 21
109.596
  0
LINE
  8
0
 10
-10.6322
 20
109.596
 11
-11.771
 21
108.674
  0
LINE
  8
0
 10
-11.771
 20
108.674
 11
-13
 21
107.876
  0
LINE
  8
0
 10
-13
 20
107.876
 11
-14.3057
 21
107.21
  0
LINE
  8
0
 10
-14.3057
 20
107.21
 11
-15.6738
 21
106.685
  0
LINE
  8
0
 10
-15.6738
 20
106.685
 11
-17.0892
 21
106.306
  0
LINE
  8
0
 10
-17.0892
 20
106.306
 11
-18.5366
 21
106.077
  0
LINE
  8
0
 10
-18.5366
 20
106.077
 11
-20
 21
106
  0
LINE
  8
0
 10
-20
 20
106
 11
-21.4634
 21
106.077
  0
LINE
  8
0
 10
17.5366
 20
106.077
 11
16.0892
 21
106.306
  0
LINE
  8
0
 10
16.0892
 20
106.306
 11
14.6738
 21
106.685
  0
LINE
  8
0
 10
14.6738
 20
106.685
 11
13.3057
 21
107.21
  0
LINE
  8
0
 10
13.3057
 20
107.21
 11
12
 21
107.876
  0
LINE
  8
0
 10
12
 20
107.876
 11
10.771
 21
108.674
  0
LINE
  8
0
 10
10.771
 20
108.674
 11
9.63216
 21
109.596
  0
LINE
  8
0
 10
9.63216
 20
109.596
 11
8.59596
 21
110.632
  0
LINE
  8
0
 10
8.59596
 20
110.632
 11
7.67375
 21
111.771
  0
LINE
  8
0
 10
7.67375
 20
111.771
 11
6.87564
 21
113
  0
LINE
  8
0
 10
6.87564
 20
113
 11
6.21036
 21
114.306
  0
LINE
  8
0
 10
6.21036
 20
114.306
 11
5.6852
 21
115.674
  0
LINE
  8
0
 10
5.6852
 20
115.674
 11
5.30592
 21
117.089
  0
LINE
  8
0
 10
5.30592
 20
117.089
 11
5.07669
 21
118.537
  0
LINE
  8
0
 10
5.07669
 20
118.537
 11
5
 21
120
  0
LINE
  8
0
 10
5
 20
120
 11
5.07669
 21
121.463
  0
LINE
  8
0
 10
5.07669
 20
121.463
 11
5.30592
 21
122.911
  0
LINE
  8
0
 10
5.30592
 20
122.911
 11
5.6852
 21
124.326
  0
LINE
  8
0
 10
5.6852
 20
124.326
 11
6.21036
 21
125.694
  0
LINE
  8
0
 10
6.21036
 20
125.694
 11
6.87564
 21
127
  0
LINE
  8
0
 10
6.87564
 20
127
 11
7.67375
 21
128.229
  0
LINE
  8
0
 10
7.67375
 20
128.229
 11
8.59596
 21
129.368
  0
LINE
  8
0
 10
8.59596
 20
129.368
 11
9.63216
 21
130.404
  0
LINE
  8
0
 10
9.63216
 20
130.404
 11
10.771
 21
131.326
  0
LINE
  8
0
 10
10.771
 20
131.326
 11
12
 21
132.124
  0
LINE
  8
0
 10
12
 20
132.124
 11
13.3057
 21
132.79
  0
LINE
  8
0
 10
13.3057
 20
132.79
 11
14.6738
 21
133.315
  0
LINE
  8
0
 10
14.6738
 20
133.315
 11
16.0892
 21
133.694
  0
LINE
  8
0
 10
16.0892
 20
133.694
 11
17.5366
 21
133.923
  0
LINE
  8
0
 10
17.5366
 20
133.923
 11
19
 21
134
  0
LINE
  8
0
 10
19
 20
134
 11
20.4634
 21
133.923
  0
LINE
  8
0
 10
20.4634
 20
133.923
 11
21.9108
 21
133.694
  0
LINE
  8
0
 10
21.9108
 20
133.694
 11
23.3262
 21
133.315
  0
LINE
  8
0
 10
23.3262
 20
133.315
 11
24.6943
 21
132.79
  0
LINE
  8
0
 10
24.6943
 20
132.79
 11
26
 21
132.124
  0
LINE
  8
0
 10
26
 20
132.124
 11
27.229
 21
131.326
  0
LINE
  8
0
 10
27.229
 20
131.326
 11
28.3678
 21
130.404
  0
LINE
  8
0
 10
28.3678
 20
130.404
 11
29.404
 21
129.368
  0
LINE
  8
0
 10
29.404
 20
129.368
 11
30.3262
 21
128.229
  0
LINE
  8
0
 10
30.3262
 20
128.229
 11
31.1243
 21
127
  0
LINE
  8
0
 10
31.1243
 20
127
 11
31.7896
 21
125.694
  0
LINE
  8
0
 10
31.7896
 20
125.694
 11
32.3148
 21
124.326
  0
LINE
  8
0
 10
32.3148
 20
124.326
 11
32.6941
 21
122.911
  0
LINE
  8
0
 10
32.6941
 20
122.911
 11
32.9233
 21
121.463
  0
LINE
  8
0
 10
32.9233
 20
121.463
 11
33
 21
120
  0
LINE
  8
0
 10
33
 20
120
 11
32.9233
 21
118.537
  0
LINE
  8
0
 10
32.9233
 20
118.537
 11
32.6941
 21
117.089
  0
LINE
  8
0
 10
32.6941
 20
117.089
 11
32.3148
 21
115.674
  0
LINE
  8
0
 10
32.3148
 20
115.674
 11
31.7896
 21
114.306
  0
LINE
  8
0
 10
31.7896
 20
114.306
 11
31.1243
 21
113
  0
LINE
  8
0
 10
31.1243
 20
113
 11
30.3262
 21
111.771
  0
LINE
  8
0
 10
30.3262
 20
111.771
 11
29.404
 21
110.632
  0
LINE
  8
0
 10
29.404
 20
110.632
 11
28.3678
 21
109.596
  0
LINE
  8
0
 10
28.3678
 20
109.596
 11
27.229
 21
108.674
  0
LINE
  8
0
 10
27.229
 20
108.674
 11
26
 21
107.876
  0
LINE
  8
0
 10
26
 20
107.876
 11
24.6943
 21
107.21
  0
LINE
  8
0
 10
24.6943
 20
107.21
 11
23.3262
 21
106.685
  0
LINE
  8
0
 10
23.3262
 20
106.685
 11
21.9108
 21
106.306
  0
LINE
  8
0
 10
21.9108
 20
106.306
 11
20.4634
 21
106.077
  0
LINE
  8
0
 10
20.4634
 20
106.077
 11
19
 21
106
  0
LINE
  8
0
 10
19
 20
106
 11
17.5366
 21
106.077
  0
LINE
  8
0
 10
328.537
 20
106.077
 11
327.089
 21
106.306
  0
LINE
  8
0
 10
327.089
 20
106.306
 11
325.674
 21
106.685
  0
LINE
  8
0
 10
325.674
 20
106.685
 11
324.306
 21
107.21
  0
LINE
  8
0
 10
324.306
 20
107.21
 11
323
 21
107.876
  0
LINE
  8
0
 10
323
 20
107.876
 11
321.771
 21
108.674
  0
LINE
  8
0
 10
321.771
 20
108.674
 11
320.632
 21
109.596
  0
LINE
  8
0
 10
320.632
 20
109.596
 11
319.596
 21
110.632
  0
LINE
  8
0
 10
319.596
 20
110.632
 11
318.674
 21
111.771
  0
LINE
  8
0
 10
318.674
 20
111.771
 11
317.876
 21
113
  0
LINE
  8
0
 10
317.876
 20
113
 11
317.21
 21
114.306
  0
LINE
  8
0
 10
317.21
 20
114.306
 11
316.685
 21
115.674
  0
LINE
  8
0
 10
316.685
 20
115.674
 11
316.306
 21
117.089
  0
LINE
  8
0
 10
316.306
 20
117.089
 11
316.077
 21
118.537
  0
LINE
  8
0
 10
316.077
 20
118.537
 11
316
 21
120
  0
LINE
  8
0
 10
316
 20
120
 11
316.077
 21
121.463
  0
LINE
  8
0
 10
316.077
 20
121.463
 11
316.306
 21
122.911
  0
LINE
  8
0
 10
316.306
 20
122.911
 11
316.685
 21
124.326
  0
LINE
  8
0
 10
316.685
 20
124.326
 11
317.21
 21
125.694
  0
LINE
  8
0
 10
317.21
 20
125.694
 11
317.876
 21
127
  0
LINE
  8
0
 10
317.876
 20
127
 11
318.674
 21
128.229
  0
LINE
  8
0
 10
318.674
 20
128.229
 11
319.596
 21
129.368
  0
LINE
  8
0
 10
319.596
 20
129.368
 11
320.632
 21
130.404
  0
LINE
  8
0
 10
320.632
 20
130.404
 11
321.771
 21
131.326
  0
LINE
  8
0
 10
321.771
 20
131.326
 11
323
 21
132.124
  0
LINE
  8
0
 10
323
 20
132.124
 11
324.306
 21
132.79
  0
LINE
  8
0
 10
324.306
 20
132.79
 11
325.674
 21
133.315
  0
LINE
  8
0
 10
325.674
 20
133.315
 11
327.089
 21
133.694
  0
LINE
  8
0
 10
327.089
 20
133.694
 11
328.537
 21
133.923
  0
LINE
  8
0
 10
328.537
 20
133.923
 11
330
 21
134
  0
LINE
  8
0
 10
330
 20
134
 11
331.463
 21
133.923
  0
LINE
  8
0
 10
331.463
 20
133.923
 11
332.911
 21
133.694
  0
LINE
  8
0
 10
332.911
 20
133.694
 11
334.326
 21
133.315
  0
LINE
  8
0
 10
334.326
 20
133.315
 11
335.694
 21
132.79
  0
LINE
  8
0
 10
335.694
 20
132.79
 11
337
 21
132.124
  0
LINE
  8
0
 10
337
 20
132.124
 11
338.229
 21
131.326
  0
LINE
  8
0
 10
338.229
 20
131.326
 11
339.368
 21
130.404
  0
LINE
  8
0
 10
339.368
 20
130.404
 11
340.404
 21
129.368
  0
LINE
  8
0
 10
340.404
 20
129.368
 11
341.326
 21
128.229
  0
LINE
  8
0
 10
341.326
 20
128.229
 11
342.124
 21
127
  0
LINE
  8
0
 10
342.124
 20
127
 11
342.79
 21
125.694
  0
LINE
  8
0
 10
342.79
 20
125.694
 11
343.315
 21
124.326
  0
LINE
  8
0
 10
343.315
 20
124.326
 11
343.694
 21
122.911
  0
LINE
  8
0
 10
343.694
 20
122.911
 11
343.923
 21
121.463
  0
LINE
  8
0
 10
343.923
 20
121.463
 11
344
 21
120
  0
LINE
  8
0
 10
344
 20
120
 11
343.923
 21
118.537
  0
LINE
  8
0
 10
343.923
 20
118.537
 11
343.694
 21
117.089
  0
LINE
  8
0
 10
343.694
 20
117.089
 11
343.315
 21
115.674
  0
LINE
  8
0
 10
343.315
 20
115.674
 11
342.79
 21
114.306
  0
LINE
  8
0
 10
342.79
 20
114.306
 11
342.124
 21
113
  0
LINE
  8
0
 10
342.124
 20
113
 11
341.326
 21
111.771
  0
LINE
  8
0
 10
341.326
 20
111.771
 11
340.404
 21
110.632
  0
LINE
  8
0
 10
340.404
 20
110.632
 11
339.368
 21
109.596
  0
LINE
  8
0
 10
339.368
 20
109.596
 11
338.229
 21
108.674
  0
LINE
  8
0
 10
338.229
 20
108.674
 11
337
 21
107.876
  0
LINE
  8
0
 10
337
 20
107.876
 11
335.694
 21
107.21
  0
LINE
  8
0
 10
335.694
 20
107.21
 11
334.326
 21
106.685
  0
LINE
  8
0
 10
334.326
 20
106.685
 11
332.911
 21
106.306
  0
LINE
  8
0
 10
332.911
 20
106.306
 11
331.463
 21
106.077
  0
LINE
  8
0
 10
331.463
 20
106.077
 11
330
 21
106
  0
LINE
  8
0
 10
330
 20
106
 11
328.537
 21
106.077
  0
LINE
  8
0
 10
367.537
 20
106.077
 11
366.089
 21
106.306
  0
LINE
  8
0
 10
366.089
 20
106.306
 11
364.674
 21
106.685
  0
LINE
  8
0
 10
364.674
 20
106.685
 11
363.306
 21
107.21
  0
LINE
  8
0
 10
363.306
 20
107.21
 11
362
 21
107.876
  0
LINE
  8
0
 10
362
 20
107.876
 11
360.771
 21
108.674
  0
LINE
  8
0
 10
360.771
 20
108.674
 11
359.632
 21
109.596
  0
LINE
  8
0
 10
359.632
 20
109.596
 11
358.596
 21
110.632
  0
LINE
  8
0
 10
358.596
 20
110.632
 11
357.674
 21
111.771
  0
LINE
  8
0
 10
357.674
 20
111.771
 11
356.876
 21
113
  0
LINE
  8
0
 10
356.876
 20
113
 11
356.21
 21
114.306
  0
LINE
  8
0
 10
356.21
 20
114.306
 11
355.685
 21
115.674
  0
LINE
  8
0
 10
355.685
 20
115.674
 11
355.306
 21
117.089
  0
LINE
  8
0
 10
355.306
 20
117.089
 11
355.077
 21
118.537
  0
LINE
  8
0
 10
355.077
 20
118.537
 11
355
 21
120
  0
LINE
  8
0
 10
355
 20
120
 11
355.077
 21
121.463
  0
LINE
  8
0
 10
355.077
 20
121.463
 11
355.306
 21
122.911
  0
LINE
  8
0
 10
355.306
 20
122.911
 11
355.685
 21
124.326
  0
LINE
  8
0
 10
355.685
 20
124.326
 11
356.21
 21
125.694
  0
LINE
  8
0
 10
356.21
 20
125.694
 11
356.876
 21
127
  0
LINE
  8
0
 10
356.876
 20
127
 11
357.674
 21
128.229
  0
LINE
  8
0
 10
357.674
 20
128.229
 11
358.596
 21
129.368
  0
LINE
  8
0
 10
358.596
 20
129.368
 11
359.632
 21
130.404
  0
LINE
  8
0
 10
359.632
 20
130.404
 11
360.771
 21
131.326
  0
LINE
  8
0
 10
360.771
 20
131.326
 11
362
 21
132.124
  0
LINE
  8
0
 10
362
 20
132.124
 11
363.306
 21
132.79
  0
LINE
  8
0
 10
363.306
 20
132.79
 11
364.674
 21
133.315
  0
LINE
  8
0
 10
364.674
 20
133.315
 11
366.089
 21
133.694
  0
LINE
  8
0
 10
366.089
 20
133.694
 11
367.537
 21
133.923
  0
LINE
  8
0
 10
367.537
 20
133.923
 11
369
 21
134
  0
LINE
  8
0
 10
369
 20
134
 11
370.463
 21
133.923
  0
LINE
  8
0
 10
370.463
 20
133.923
 11
371.911
 21
133.694
  0
LINE
  8
0
 10
371.911
 20
133.694
 11
373.326
 21
133.315
  0
LINE
  8
0
 10
373.326
 20
133.315
 11
374.694
 21
132.79
  0
LINE
  8
0
 10
374.694
 20
132.79
 11
376
 21
132.124
  0
LINE
  8
0
 10
376
 20
132.124
 11
377.229
 21
131.326
  0
LINE
  8
0
 10
377.229
 20
131.326
 11
378.368
 21
130.404
  0
LINE
  8
0
 10
378.368
 20
130.404
 11
379.404
 21
129.368
  0
LINE
  8
0
 10
379.404
 20
129.368
 11
380.326
 21
128.229
  0
LINE
  8
0
 10
380.326
 20
128.229
 11
381.124
 21
127
  0
LINE
  8
0
 10
381.124
 20
127
 11
381.79
 21
125.694
  0
LINE
  8
0
 10
381.79
 20
125.694
 11
382.315
 21
124.326
  0
LINE
  8
0
 10
382.315
 20
124.326
 11
382.694
 21
122.911
  0
LINE
  8
0
 10
382.694
 20
122.911
 11
382.923
 21
121.463
  0
LINE
  8
0
 10
382.923
 20
121.463
 11
383
 21
120
  0
LINE
  8
0
 10
383
 20
120
 11
382.923
 21
118.537
  0
LINE
  8
0
 10
382.923
 20
118.537
 11
382.694
 21
117.089
  0
LINE
  8
0
 10
382.694
 20
117.089
 11
382.315
 21
115.674
  0
LINE
  8
0
 10
382.315
 20
115.674
 11
381.79
 21
114.306
  0
LINE
  8
0
 10
381.79
 20
114.306
 11
381.124
 21
113
  0
LINE
  8
0
 10
381.124
 20
113
 11
380.326
 21
111.771
  0
LINE
  8
0
 10
380.326
 20
111.771
 11
379.404
 21
110.632
  0
LINE
  8
0
 10
379.404
 20
110.632
 11
378.368
 21
109.596
  0
LINE
  8
0
 10
378.368
 20
109.596
 11
377.229
 21
108.674
  0
LINE
  8
0
 10
377.229
 20
108.674
 11
376
 21
107.876
  0
LINE
  8
0
 10
376
 20
107.876
 11
374.694
 21
107.21
  0
LINE
  8
0
 10
374.694
 20
107.21
 11
373.326
 21
106.685
  0
LINE
  8
0
 10
373.326
 20
106.685
 11
371.911
 21
106.306
  0
LINE
  8
0
 10
371.911
 20
106.306
 11
370.463
 21
106.077
  0
LINE
  8
0
 10
370.463
 20
106.077
 11
369
 21
106
  0
LINE
  8
0
 10
369
 20
106
 11
367.537
 21
106.077
  0
LINE
  8
0
 10
64.7866
 20
52.0767
 11
63.3392
 21
52.3059
  0
LINE
  8
0
 10
63.3392
 20
52.3059
 11
61.9238
 21
52.6852
  0
LINE
  8
0
 10
61.9238
 20
52.6852
 11
60.5557
 21
53.2104
  0
LINE
  8
0
 10
60.5557
 20
53.2104
 11
59.25
 21
53.8756
  0
LINE
  8
0
 10
59.25
 20
53.8756
 11
58.021
 21
54.6738
  0
LINE
  8
0
 10
58.021
 20
54.6738
 11
56.8822
 21
55.596
  0
LINE
  8
0
 10
56.8822
 20
55.596
 11
55.846
 21
56.6322
  0
LINE
  8
0
 10
55.846
 20
56.6322
 11
54.9238
 21
57.771
  0
LINE
  8
0
 10
54.9238
 20
57.771
 11
54.1256
 21
59
  0
LINE
  8
0
 10
54.1256
 20
59
 11
53.4604
 21
60.3057
  0
LINE
  8
0
 10
53.4604
 20
60.3057
 11
52.9352
 21
61.6738
  0
LINE
  8
0
 10
52.9352
 20
61.6738
 11
52.5559
 21
63.0892
  0
LINE
  8
0
 10
52.5559
 20
63.0892
 11
52.3267
 21
64.5366
  0
LINE
  8
0
 10
52.3267
 20
64.5366
 11
52.25
 21
66
  0
LINE
  8
0
 10
52.25
 20
66
 11
52.3267
 21
67.4634
  0
LINE
  8
0
 10
52.3267
 20
67.4634
 11
52.5559
 21
68.9108
  0
LINE
  8
0
 10
52.5559
 20
68.9108
 11
52.9352
 21
70.3262
  0
LINE
  8
0
 10
52.9352
 20
70.3262
 11
53.4604
 21
71.6943
  0
LINE
  8
0
 10
53.4604
 20
71.6943
 11
54.1256
 21
73
  0
LINE
  8
0
 10
54.1256
 20
73
 11
54.9238
 21
74.229
  0
LINE
  8
0
 10
54.9238
 20
74.229
 11
55.846
 21
75.3678
  0
LINE
  8
0
 10
55.846
 20
75.3678
 11
56.8822
 21
76.404
  0
LINE
  8
0
 10
56.8822
 20
76.404
 11
58.021
 21
77.3262
  0
LINE
  8
0
 10
58.021
 20
77.3262
 11
59.25
 21
78.1243
  0
LINE
  8
0
 10
59.25
 20
78.1243
 11
60.5557
 21
78.7896
  0
LINE
  8
0
 10
60.5557
 20
78.7896
 11
61.9238
 21
79.3148
  0
LINE
  8
0
 10
61.9238
 20
79.3148
 11
63.3392
 21
79.6941
  0
LINE
  8
0
 10
63.3392
 20
79.6941
 11
64.7866
 21
79.9233
  0
LINE
  8
0
 10
64.7866
 20
79.9233
 11
66.25
 21
80
  0
LINE
  8
0
 10
66.25
 20
80
 11
67.7134
 21
79.9233
  0
LINE
  8
0
 10
67.7134
 20
79.9233
 11
69.1608
 21
79.6941
  0
LINE
  8
0
 10
69.1608
 20
79.6941
 11
70.5762
 21
79.3148
  0
LINE
  8
0
 10
70.5762
 20
79.3148
 11
71.9443
 21
78.7896
  0
LINE
  8
0
 10
71.9443
 20
78.7896
 11
73.25
 21
78.1243
  0
LINE
  8
0
 10
73.25
 20
78.1243
 11
74.479
 21
77.3262
  0
LINE
  8
0
 10
74.479
 20
77.3262
 11
75.6178
 21
76.404
  0
LINE
  8
0
 10
75.6178
 20
76.404
 11
76.654
 21
75.3678
  0
LINE
  8
0
 10
76.654
 20
75.3678
 11
77.5762
 21
74.229
  0
LINE
  8
0
 10
77.5762
 20
74.229
 11
78.3743
 21
73
  0
LINE
  8
0
 10
78.3743
 20
73
 11
79.0396
 21
71.6943
  0
LINE
  8
0
 10
79.0396
 20
71.6943
 11
79.5648
 21
70.3262
  0
LINE
  8
0
 10
79.5648
 20
70.3262
 11
79.9441
 21
68.9108
  0
LINE
  8
0
 10
79.9441
 20
68.9108
 11
80.1733
 21
67.4634
  0
LINE
  8
0
 10
80.1733
 20
67.4634
 11
80.25
 21
66
  0
LINE
  8
0
 10
80.25
 20
66
 11
80.1733
 21
64.5366
  0
LINE
  8
0
 10
80.1733
 20
64.5366
 11
79.9441
 21
63.0892
  0
LINE
  8
0
 10
79.9441
 20
63.0892
 11
79.5648
 21
61.6738
  0
LINE
  8
0
 10
79.5648
 20
61.6738
 11
79.0396
 21
60.3057
  0
LINE
  8
0
 10
79.0396
 20
60.3057
 11
78.3743
 21
59
  0
LINE
  8
0
 10
78.3743
 20
59
 11
77.5762
 21
57.771
  0
LINE
  8
0
 10
77.5762
 20
57.771
 11
76.654
 21
56.6322
  0
LINE
  8
0
 10
76.654
 20
56.6322
 11
75.6178
 21
55.596
  0
LINE
  8
0
 10
75.6178
 20
55.596
 11
74.479
 21
54.6738
  0
LINE
  8
0
 10
74.479
 20
54.6738
 11
73.25
 21
53.8756
  0
LINE
  8
0
 10
73.25
 20
53.8756
 11
71.9443
 21
53.2104
  0
LINE
  8
0
 10
71.9443
 20
53.2104
 11
70.5762
 21
52.6852
  0
LINE
  8
0
 10
70.5762
 20
52.6852
 11
69.1608
 21
52.3059
  0
LINE
  8
0
 10
69.1608
 20
52.3059
 11
67.7134
 21
52.0767
  0
LINE
  8
0
 10
67.7134
 20
52.0767
 11
66.25
 21
52
  0
LINE
  8
0
 10
66.25
 20
52
 11
64.7866
 21
52.0767
  0
LINE
  8
0
 10
100.787
 20
52.0767
 11
99.3392
 21
52.3059
  0
LINE
  8
0
 10
99.3392
 20
52.3059
 11
97.9238
 21
52.6852
  0
LINE
  8
0
 10
97.9238
 20
52.6852
 11
96.5557
 21
53.2104
  0
LINE
  8
0
 10
96.5557
 20
53.2104
 11
95.25
 21
53.8756
  0
LINE
  8
0
 10
95.25
 20
53.8756
 11
94.021
 21
54.6738
  0
LINE
  8
0
 10
94.021
 20
54.6738
 11
92.8822
 21
55.596
  0
LINE
  8
0
 10
92.8822
 20
55.596
 11
91.846
 21
56.6322
  0
LINE
  8
0
 10
91.846
 20
56.6322
 11
90.9238
 21
57.771
  0
LINE
  8
0
 10
90.9238
 20
57.771
 11
90.1256
 21
59
  0
LINE
  8
0
 10
90.1256
 20
59
 11
89.4604
 21
60.3057
  0
LINE
  8
0
 10
89.4604
 20
60.3057
 11
88.9352
 21
61.6738
  0
LINE
  8
0
 10
88.9352
 20
61.6738
 11
88.5559
 21
63.0892
  0
LINE
  8
0
 10
88.5559
 20
63.0892
 11
88.3267
 21
64.5366
  0
LINE
  8
0
 10
88.3267
 20
64.5366
 11
88.25
 21
66
  0
LINE
  8
0
 10
88.25
 20
66
 11
88.3267
 21
67.4634
  0
LINE
  8
0
 10
88.3267
 20
67.4634
 11
88.5559
 21
68.9108
  0
LINE
  8
0
 10
88.5559
 20
68.9108
 11
88.9352
 21
70.3262
  0
LINE
  8
0
 10
88.9352
 20
70.3262
 11
89.4604
 21
71.6943
  0
LINE
  8
0
 10
89.4604
 20
71.6943
 11
90.1256
 21
73
  0
LINE
  8
0
 10
90.1256
 20
73
 11
90.9238
 21
74.229
  0
LINE
  8
0
 10
90.9238
 20
74.229
 11
91.846
 21
75.3678
  0
LINE
  8
0
 10
91.846
 20
75.3678
 11
92.8822
 21
76.404
  0
LINE
  8
0
 10
92.8822
 20
76.404
 11
94.021
 21
77.3262
  0
LINE
  8
0
 10
94.021
 20
77.3262
 11
95.25
 21
78.1243
  0
LINE
  8
0
 10
95.25
 20
78.1243
 11
96.5557
 21
78.7896
  0
LINE
  8
0
 10
96.5557
 20
78.7896
 11
97.9238
 21
79.3148
  0
LINE
  8
0
 10
97.9238
 20
79.3148
 11
99.3392
 21
79.6941
  0
LINE
  8
0
 10
99.3392
 20
79.6941
 11
100.787
 21
79.9233
  0
LINE
  8
0
 10
100.787
 20
79.9233
 11
102.25
 21
80
  0
LINE
  8
0
 10
102.25
 20
80
 11
103.713
 21
79.9233
  0
LINE
  8
0
 10
103.713
 20
79.9233
 11
105.161
 21
79.6941
  0
LINE
  8
0
 10
105.161
 20
79.6941
 11
106.576
 21
79.3148
  0
LINE
  8
0
 10
106.576
 20
79.3148
 11
107.944
 21
78.7896
  0
LINE
  8
0
 10
107.944
 20
78.7896
 11
109.25
 21
78.1243
  0
LINE
  8
0
 10
109.25
 20
78.1243
 11
110.479
 21
77.3262
  0
LINE
  8
0
 10
110.479
 20
77.3262
 11
111.618
 21
76.404
  0
LINE
  8
0
 10
111.618
 20
76.404
 11
112.654
 21
75.3678
  0
LINE
  8
0
 10
112.654
 20
75.3678
 11
113.576
 21
74.229
  0
LINE
  8
0
 10
113.576
 20
74.229
 11
114.374
 21
73
  0
LINE
  8
0
 10
114.374
 20
73
 11
115.04
 21
71.6943
  0
LINE
  8
0
 10
115.04
 20
71.6943
 11
115.565
 21
70.3262
  0
LINE
  8
0
 10
115.565
 20
70.3262
 11
115.944
 21
68.9108
  0
LINE
  8
0
 10
115.944
 20
68.9108
 11
116.173
 21
67.4634
  0
LINE
  8
0
 10
116.173
 20
67.4634
 11
116.25
 21
66
  0
LINE
  8
0
 10
116.25
 20
66
 11
116.173
 21
64.5366
  0
LINE
  8
0
 10
116.173
 20
64.5366
 11
115.944
 21
63.0892
  0
LINE
  8
0
 10
115.944
 20
63.0892
 11
115.565
 21
61.6738
  0
LINE
  8
0
 10
115.565
 20
61.6738
 11
115.04
 21
60.3057
  0
LINE
  8
0
 10
115.04
 20
60.3057
 11
114.374
 21
59
  0
LINE
  8
0
 10
114.374
 20
59
 11
113.576
 21
57.771
  0
LINE
  8
0
 10
113.576
 20
57.771
 11
112.654
 21
56.6322
  0
LINE
  8
0
 10
112.654
 20
56.6322
 11
111.618
 21
55.596
  0
LINE
  8
0
 10
111.618
 20
55.596
 11
110.479
 21
54.6738
  0
LINE
  8
0
 10
110.479
 20
54.6738
 11
109.25
 21
53.8756
  0
LINE
  8
0
 10
109.25
 20
53.8756
 11
107.944
 21
53.2104
  0
LINE
  8
0
 10
107.944
 20
53.2104
 11
106.576
 21
52.6852
  0
LINE
  8
0
 10
106.576
 20
52.6852
 11
105.161
 21
52.3059
  0
LINE
  8
0
 10
105.161
 20
52.3059
 11
103.713
 21
52.0767
  0
LINE
  8
0
 10
103.713
 20
52.0767
 11
102.25
 21
52
  0
LINE
  8
0
 10
102.25
 20
52
 11
100.787
 21
52.0767
  0
LINE
  8
0
 10
414.787
 20
52.0767
 11
413.339
 21
52.3059
  0
LINE
  8
0
 10
413.339
 20
52.3059
 11
411.924
 21
52.6852
  0
LINE
  8
0
 10
411.924
 20
52.6852
 11
410.556
 21
53.2104
  0
LINE
  8
0
 10
410.556
 20
53.2104
 11
409.25
 21
53.8756
  0
LINE
  8
0
 10
409.25
 20
53.8756
 11
408.021
 21
54.6738
  0
LINE
  8
0
 10
408.021
 20
54.6738
 11
406.882
 21
55.596
  0
LINE
  8
0
 10
406.882
 20
55.596
 11
405.846
 21
56.6322
  0
LINE
  8
0
 10
405.846
 20
56.6322
 11
404.924
 21
57.771
  0
LINE
  8
0
 10
404.924
 20
57.771
 11
404.126
 21
59
  0
LINE
  8
0
 10
404.126
 20
59
 11
403.46
 21
60.3057
  0
LINE
  8
0
 10
403.46
 20
60.3057
 11
402.935
 21
61.6738
  0
LINE
  8
0
 10
402.935
 20
61.6738
 11
402.556
 21
63.0892
  0
LINE
  8
0
 10
402.556
 20
63.0892
 11
402.327
 21
64.5366
  0
LINE
  8
0
 10
402.327
 20
64.5366
 11
402.25
 21
66
  0
LINE
  8
0
 10
402.25
 20
66
 11
402.327
 21
67.4634
  0
LINE
  8
0
 10
402.327
 20
67.4634
 11
402.556
 21
68.9108
  0
LINE
  8
0
 10
402.556
 20
68.9108
 11
402.935
 21
70.3262
  0
LINE
  8
0
 10
402.935
 20
70.3262
 11
403.46
 21
71.6943
  0
LINE
  8
0
 10
403.46
 20
71.6943
 11
404.126
 21
73
  0
LINE
  8
0
 10
404.126
 20
73
 11
404.924
 21
74.229
  0
LINE
  8
0
 10
404.924
 20
74.229
 11
405.846
 21
75.3678
  0
LINE
  8
0
 10
405.846
 20
75.3678
 11
406.882
 21
76.404
  0
LINE
  8
0
 10
406.882
 20
76.404
 11
408.021
 21
77.3262
  0
LINE
  8
0
 10
408.021
 20
77.3262
 11
409.25
 21
78.1243
  0
LINE
  8
0
 10
409.25
 20
78.1243
 11
410.556
 21
78.7896
  0
LINE
  8
0
 10
410.556
 20
78.7896
 11
411.924
 21
79.3148
  0
LINE
  8
0
 10
411.924
 20
79.3148
 11
413.339
 21
79.6941
  0
LINE
  8
0
 10
413.339
 20
79.6941
 11
414.787
 21
79.9233
  0
LINE
  8
0
 10
414.787
 20
79.9233
 11
416.25
 21
80
  0
LINE
  8
0
 10
416.25
 20
80
 11
417.713
 21
79.9233
  0
LINE
  8
0
 10
417.713
 20
79.9233
 11
419.161
 21
79.6941
  0
LINE
  8
0
 10
419.161
 20
79.6941
 11
420.576
 21
79.3148
  0
LINE
  8
0
 10
420.576
 20
79.3148
 11
421.944
 21
78.7896
  0
LINE
  8
0
 10
421.944
 20
78.7896
 11
423.25
 21
78.1243
  0
LINE
  8
0
 10
423.25
 20
78.1243
 11
424.479
 21
77.3262
  0
LINE
  8
0
 10
424.479
 20
77.3262
 11
425.618
 21
76.404
  0
LINE
  8
0
 10
425.618
 20
76.404
 11
426.654
 21
75.3678
  0
LINE
  8
0
 10
426.654
 20
75.3678
 11
427.576
 21
74.229
  0
LINE
  8
0
 10
427.576
 20
74.229
 11
428.374
 21
73
  0
LINE
  8
0
 10
428.374
 20
73
 11
429.04
 21
71.6943
  0
LINE
  8
0
 10
429.04
 20
71.6943
 11
429.565
 21
70.3262
  0
LINE
  8
0
 10
429.565
 20
70.3262
 11
429.944
 21
68.9108
  0
LINE
  8
0
 10
429.944
 20
68.9108
 11
430.173
 21
67.4634
  0
LINE
  8
0
 10
430.173
 20
67.4634
 11
430.25
 21
66
  0
LINE
  8
0
 10
430.25
 20
66
 11
430.173
 21
64.5366
  0
LINE
  8
0
 10
430.173
 20
64.5366
 11
429.944
 21
63.0892
  0
LINE
  8
0
 10
429.944
 20
63.0892
 11
429.565
 21
61.6738
  0
LINE
  8
0
 10
429.565
 20
61.6738
 11
429.04
 21
60.3057
  0
LINE
  8
0
 10
429.04
 20
60.3057
 11
428.374
 21
59
  0
LINE
  8
0
 10
428.374
 20
59
 11
427.576
 21
57.771
  0
LINE
  8
0
 10
427.576
 20
57.771
 11
426.654
 21
56.6322
  0
LINE
  8
0
 10
426.654
 20
56.6322
 11
425.618
 21
55.596
  0
LINE
  8
0
 10
425.618
 20
55.596
 11
424.479
 21
54.6738
  0
LINE
  8
0
 10
424.479
 20
54.6738
 11
423.25
 21
53.8756
  0
LINE
  8
0
 10
423.25
 20
53.8756
 11
421.944
 21
53.2104
  0
LINE
  8
0
 10
421.944
 20
53.2104
 11
420.576
 21
52.6852
  0
LINE
  8
0
 10
420.576
 20
52.6852
 11
419.161
 21
52.3059
  0
LINE
  8
0
 10
419.161
 20
52.3059
 11
417.713
 21
52.0767
  0
LINE
  8
0
 10
417.713
 20
52.0767
 11
416.25
 21
52
  0
LINE
  8
0
 10
416.25
 20
52
 11
414.787
 21
52.0767
  0
LINE
  8
0
 10
450.787
 20
52.0767
 11
449.339
 21
52.3059
  0
LINE
  8
0
 10
449.339
 20
52.3059
 11
447.924
 21
52.6852
  0
LINE
  8
0
 10
447.924
 20
52.6852
 11
446.556
 21
53.2104
  0
LINE
  8
0
 10
446.556
 20
53.2104
 11
445.25
 21
53.8756
  0
LINE
  8
0
 10
445.25
 20
53.8756
 11
444.021
 21
54.6738
  0
LINE
  8
0
 10
444.021
 20
54.6738
 11
442.882
 21
55.596
  0
LINE
  8
0
 10
442.882
 20
55.596
 11
441.846
 21
56.6322
  0
LINE
  8
0
 10
441.846
 20
56.6322
 11
440.924
 21
57.771
  0
LINE
  8
0
 10
440.924
 20
57.771
 11
440.126
 21
59
  0
LINE
  8
0
 10
440.126
 20
59
 11
439.46
 21
60.3057
  0
LINE
  8
0
 10
439.46
 20
60.3057
 11
438.935
 21
61.6738
  0
LINE
  8
0
 10
438.935
 20
61.6738
 11
438.556
 21
63.0892
  0
LINE
  8
0
 10
438.556
 20
63.0892
 11
438.327
 21
64.5366
  0
LINE
  8
0
 10
438.327
 20
64.5366
 11
438.25
 21
66
  0
LINE
  8
0
 10
438.25
 20
66
 11
438.327
 21
67.4634
  0
LINE
  8
0
 10
438.327
 20
67.4634
 11
438.556
 21
68.9108
  0
LINE
  8
0
 10
438.556
 20
68.9108
 11
438.935
 21
70.3262
  0
LINE
  8
0
 10
438.935
 20
70.3262
 11
439.46
 21
71.6943
  0
LINE
  8
0
 10
439.46
 20
71.6943
 11
440.126
 21
73
  0
LINE
  8
0
 10
440.126
 20
73
 11
440.924
 21
74.229
  0
LINE
  8
0
 10
440.924
 20
74.229
 11
441.846
 21
75.3678
  0
LINE
  8
0
 10
441.846
 20
75.3678
 11
442.882
 21
76.404
  0
LINE
  8
0
 10
442.882
 20
76.404
 11
444.021
 21
77.3262
  0
LINE
  8
0
 10
444.021
 20
77.3262
 11
445.25
 21
78.1243
  0
LINE
  8
0
 10
445.25
 20
78.1243
 11
446.556
 21
78.7896
  0
LINE
  8
0
 10
446.556
 20
78.7896
 11
447.924
 21
79.3148
  0
LINE
  8
0
 10
447.924
 20
79.3148
 11
449.339
 21
79.6941
  0
LINE
  8
0
 10
449.339
 20
79.6941
 11
450.787
 21
79.9233
  0
LINE
  8
0
 10
450.787
 20
79.9233
 11
452.25
 21
80
  0
LINE
  8
0
 10
452.25
 20
80
 11
453.713
 21
79.9233
  0
LINE
  8
0
 10
453.713
 20
79.9233
 11
455.161
 21
79.6941
  0
LINE
  8
0
 10
455.161
 20
79.6941
 11
456.576
 21
79.3148
  0
LINE
  8
0
 10
456.576
 20
79.3148
 11
457.944
 21
78.7896
  0
LINE
  8
0
 10
457.944
 20
78.7896
 11
459.25
 21
78.1243
  0
LINE
  8
0
 10
459.25
 20
78.1243
 11
460.479
 21
77.3262
  0
LINE
  8
0
 10
460.479
 20
77.3262
 11
461.618
 21
76.404
  0
LINE
  8
0
 10
461.618
 20
76.404
 11
462.654
 21
75.3678
  0
LINE
  8
0
 10
462.654
 20
75.3678
 11
463.576
 21
74.229
  0
LINE
  8
0
 10
463.576
 20
74.229
 11
464.374
 21
73
  0
LINE
  8
0
 10
464.374
 20
73
 11
465.04
 21
71.6943
  0
LINE
  8
0
 10
465.04
 20
71.6943
 11
465.565
 21
70.3262
  0
LINE
  8
0
 10
465.565
 20
70.3262
 11
465.944
 21
68.9108
  0
LINE
  8
0
 10
465.944
 20
68.9108
 11
466.173
 21
67.4634
  0
LINE
  8
0
 10
466.173
 20
67.4634
 11
466.25
 21
66
  0
LINE
  8
0
 10
466.25
 20
66
 11
466.173
 21
64.5366
  0
LINE
  8
0
 10
466.173
 20
64.5366
 11
465.944
 21
63.0892
  0
LINE
  8
0
 10
465.944
 20
63.0892
 11
465.565
 21
61.6738
  0
LINE
  8
0
 10
465.565
 20
61.6738
 11
465.04
 21
60.3057
  0
LINE
  8
0
 10
465.04
 20
60.3057
 11
464.374
 21
59
  0
LINE
  8
0
 10
464.374
 20
59
 11
463.576
 21
57.771
  0
LINE
  8
0
 10
463.576
 20
57.771
 11
462.654
 21
56.6322
  0
LINE
  8
0
 10
462.654
 20
56.6322
 11
461.618
 21
55.596
  0
LINE
  8
0
 10
461.618
 20
55.596
 11
460.479
 21
54.6738
  0
LINE
  8
0
 10
460.479
 20
54.6738
 11
459.25
 21
53.8756
  0
LINE
  8
0
 10
459.25
 20
53.8756
 11
457.944
 21
53.2104
  0
LINE
  8
0
 10
457.944
 20
53.2104
 11
456.576
 21
52.6852
  0
LINE
  8
0
 10
456.576
 20
52.6852
 11
455.161
 21
52.3059
  0
LINE
  8
0
 10
455.161
 20
52.3059
 11
453.713
 21
52.0767
  0
LINE
  8
0
 10
453.713
 20
52.0767
 11
452.25
 21
52
  0
LINE
  8
0
 10
452.25
 20
52
 11
450.787
 21
52.0767
  0
LINE
  8
0
 10
29.7866
 20
43.0767
 11
28.3392
 21
43.3059
  0
LINE
  8
0
 10
28.3392
 20
43.3059
 11
26.9238
 21
43.6852
  0
LINE
  8
0
 10
26.9238
 20
43.6852
 11
25.5557
 21
44.2104
  0
LINE
  8
0
 10
25.5557
 20
44.2104
 11
24.25
 21
44.8756
  0
LINE
  8
0
 10
24.25
 20
44.8756
 11
23.021
 21
45.6738
  0
LINE
  8
0
 10
23.021
 20
45.6738
 11
21.8822
 21
46.596
  0
LINE
  8
0
 10
21.8822
 20
46.596
 11
20.846
 21
47.6322
  0
LINE
  8
0
 10
20.846
 20
47.6322
 11
19.9238
 21
48.771
  0
LINE
  8
0
 10
19.9238
 20
48.771
 11
19.1256
 21
50
  0
LINE
  8
0
 10
19.1256
 20
50
 11
18.4604
 21
51.3057
  0
LINE
  8
0
 10
18.4604
 20
51.3057
 11
17.9352
 21
52.6738
  0
LINE
  8
0
 10
17.9352
 20
52.6738
 11
17.5559
 21
54.0892
  0
LINE
  8
0
 10
17.5559
 20
54.0892
 11
17.3267
 21
55.5366
  0
LINE
  8
0
 10
17.3267
 20
55.5366
 11
17.25
 21
57
  0
LINE
  8
0
 10
17.25
 20
57
 11
17.3267
 21
58.4634
  0
LINE
  8
0
 10
17.3267
 20
58.4634
 11
17.5559
 21
59.9108
  0
LINE
  8
0
 10
17.5559
 20
59.9108
 11
17.9352
 21
61.3262
  0
LINE
  8
0
 10
17.9352
 20
61.3262
 11
18.4604
 21
62.6943
  0
LINE
  8
0
 10
18.4604
 20
62.6943
 11
19.1256
 21
64
  0
LINE
  8
0
 10
19.1256
 20
64
 11
19.9238
 21
65.229
  0
LINE
  8
0
 10
19.9238
 20
65.229
 11
20.846
 21
66.3678
  0
LINE
  8
0
 10
20.846
 20
66.3678
 11
21.8822
 21
67.404
  0
LINE
  8
0
 10
21.8822
 20
67.404
 11
23.021
 21
68.3262
  0
LINE
  8
0
 10
23.021
 20
68.3262
 11
24.25
 21
69.1243
  0
LINE
  8
0
 10
24.25
 20
69.1243
 11
25.5557
 21
69.7896
  0
LINE
  8
0
 10
25.5557
 20
69.7896
 11
26.9238
 21
70.3148
  0
LINE
  8
0
 10
26.9238
 20
70.3148
 11
28.3392
 21
70.6941
  0
LINE
  8
0
 10
28.3392
 20
70.6941
 11
29.7866
 21
70.9233
  0
LINE
  8
0
 10
29.7866
 20
70.9233
 11
31.25
 21
71
  0
LINE
  8
0
 10
31.25
 20
71
 11
32.7134
 21
70.9233
  0
LINE
  8
0
 10
32.7134
 20
70.9233
 11
34.1608
 21
70.6941
  0
LINE
  8
0
 10
34.1608
 20
70.6941
 11
35.5762
 21
70.3148
  0
LINE
  8
0
 10
35.5762
 20
70.3148
 11
36.9443
 21
69.7896
  0
LINE
  8
0
 10
36.9443
 20
69.7896
 11
38.25
 21
69.1243
  0
LINE
  8
0
 10
38.25
 20
69.1243
 11
39.479
 21
68.3262
  0
LINE
  8
0
 10
39.479
 20
68.3262
 11
40.6178
 21
67.404
  0
LINE
  8
0
 10
40.6178
 20
67.404
 11
41.654
 21
66.3678
  0
LINE
  8
0
 10
41.654
 20
66.3678
 11
42.5762
 21
65.229
  0
LINE
  8
0
 10
42.5762
 20
65.229
 11
43.3743
 21
64
  0
LINE
  8
0
 10
43.3743
 20
64
 11
44.0396
 21
62.6943
  0
LINE
  8
0
 10
44.0396
 20
62.6943
 11
44.5648
 21
61.3262
  0
LINE
  8
0
 10
44.5648
 20
61.3262
 11
44.9441
 21
59.9108
  0
LINE
  8
0
 10
44.9441
 20
59.9108
 11
45.1733
 21
58.4634
  0
LINE
  8
0
 10
45.1733
 20
58.4634
 11
45.25
 21
57
  0
LINE
  8
0
 10
45.25
 20
57
 11
45.1733
 21
55.5366
  0
LINE
  8
0
 10
45.1733
 20
55.5366
 11
44.9441
 21
54.0892
  0
LINE
  8
0
 10
44.9441
 20
54.0892
 11
44.5648
 21
52.6738
  0
LINE
  8
0
 10
44.5648
 20
52.6738
 11
44.0396
 21
51.3057
  0
LINE
  8
0
 10
44.0396
 20
51.3057
 11
43.3743
 21
50
  0
LINE
  8
0
 10
43.3743
 20
50
 11
42.5762
 21
48.771
  0
LINE
  8
0
 10
42.5762
 20
48.771
 11
41.654
 21
47.6322
  0
LINE
  8
0
 10
41.654
 20
47.6322
 11
40.6178
 21
46.596
  0
LINE
  8
0
 10
40.6178
 20
46.596
 11
39.479
 21
45.6738
  0
LINE
  8
0
 10
39.479
 20
45.6738
 11
38.25
 21
44.8756
  0
LINE
  8
0
 10
38.25
 20
44.8756
 11
36.9443
 21
44.2104
  0
LINE
  8
0
 10
36.9443
 20
44.2104
 11
35.5762
 21
43.6852
  0
LINE
  8
0
 10
35.5762
 20
43.6852
 11
34.1608
 21
43.3059
  0
LINE
  8
0
 10
34.1608
 20
43.3059
 11
32.7134
 21
43.0767
  0
LINE
  8
0
 10
32.7134
 20
43.0767
 11
31.25
 21
43
  0
LINE
  8
0
 10
31.25
 20
43
 11
29.7866
 21
43.0767
  0
LINE
  8
0
 10
379.787
 20
43.0767
 11
378.339
 21
43.3059
  0
LINE
  8
0
 10
378.339
 20
43.3059
 11
376.924
 21
43.6852
  0
LINE
  8
0
 10
376.924
 20
43.6852
 11
375.556
 21
44.2104
  0
LINE
  8
0
 10
375.556
 20
44.2104
 11
374.25
 21
44.8756
  0
LINE
  8
0
 10
374.25
 20
44.8756
 11
373.021
 21
45.6738
  0
LINE
  8
0
 10
373.021
 20
45.6738
 11
371.882
 21
46.596
  0
LINE
  8
0
 10
371.882
 20
46.596
 11
370.846
 21
47.6322
  0
LINE
  8
0
 10
370.846
 20
47.6322
 11
369.924
 21
48.771
  0
LINE
  8
0
 10
369.924
 20
48.771
 11
369.126
 21
50
  0
LINE
  8
0
 10
369.126
 20
50
 11
368.46
 21
51.3057
  0
LINE
  8
0
 10
368.46
 20
51.3057
 11
367.935
 21
52.6738
  0
LINE
  8
0
 10
367.935
 20
52.6738
 11
367.556
 21
54.0892
  0
LINE
  8
0
 10
367.556
 20
54.0892
 11
367.327
 21
55.5366
  0
LINE
  8
0
 10
367.327
 20
55.5366
 11
367.25
 21
57
  0
LINE
  8
0
 10
367.25
 20
57
 11
367.327
 21
58.4634
  0
LINE
  8
0
 10
367.327
 20
58.4634
 11
367.556
 21
59.9108
  0
LINE
  8
0
 10
367.556
 20
59.9108
 11
367.935
 21
61.3262
  0
LINE
  8
0
 10
367.935
 20
61.3262
 11
368.46
 21
62.6943
  0
LINE
  8
0
 10
368.46
 20
62.6943
 11
369.126
 21
64
  0
LINE
  8
0
 10
369.126
 20
64
 11
369.924
 21
65.229
  0
LINE
  8
0
 10
369.924
 20
65.229
 11
370.846
 21
66.3678
  0
LINE
  8
0
 10
370.846
 20
66.3678
 11
371.882
 21
67.404
  0
LINE
  8
0
 10
371.882
 20
67.404
 11
373.021
 21
68.3262
  0
LINE
  8
0
 10
373.021
 20
68.3262
 11
374.25
 21
69.1243
  0
LINE
  8
0
 10
374.25
 20
69.1243
 11
375.556
 21
69.7896
  0
LINE
  8
0
 10
375.556
 20
69.7896
 11
376.924
 21
70.3148
  0
LINE
  8
0
 10
376.924
 20
70.3148
 11
378.339
 21
70.6941
  0
LINE
  8
0
 10
378.339
 20
70.6941
 11
379.787
 21
70.9233
  0
LINE
  8
0
 10
379.787
 20
70.9233
 11
381.25
 21
71
  0
LINE
  8
0
 10
381.25
 20
71
 11
382.713
 21
70.9233
  0
LINE
  8
0
 10
382.713
 20
70.9233
 11
384.161
 21
70.6941
  0
LINE
  8
0
 10
384.161
 20
70.6941
 11
385.576
 21
70.3148
  0
LINE
  8
0
 10
385.576
 20
70.3148
 11
386.944
 21
69.7896
  0
LINE
  8
0
 10
386.944
 20
69.7896
 11
388.25
 21
69.1243
  0
LINE
  8
0
 10
388.25
 20
69.1243
 11
389.479
 21
68.3262
  0
LINE
  8
0
 10
389.479
 20
68.3262
 11
390.618
 21
67.404
  0
LINE
  8
0
 10
390.618
 20
67.404
 11
391.654
 21
66.3678
  0
LINE
  8
0
 10
391.654
 20
66.3678
 11
392.576
 21
65.229
  0
LINE
  8
0
 10
392.576
 20
65.229
 11
393.374
 21
64
  0
LINE
  8
0
 10
393.374
 20
64
 11
394.04
 21
62.6943
  0
LINE
  8
0
 10
394.04
 20
62.6943
 11
394.565
 21
61.3262
  0
LINE
  8
0
 10
394.565
 20
61.3262
 11
394.944
 21
59.9108
  0
LINE
  8
0
 10
394.944
 20
59.9108
 11
395.173
 21
58.4634
  0
LINE
  8
0
 10
395.173
 20
58.4634
 11
395.25
 21
57
  0
LINE
  8
0
 10
395.25
 20
57
 11
395.173
 21
55.5366
  0
LINE
  8
0
 10
395.173
 20
55.5366
 11
394.944
 21
54.0892
  0
LINE
  8
0
 10
394.944
 20
54.0892
 11
394.565
 21
52.6738
  0
LINE
  8
0
 10
394.565
 20
52.6738
 11
394.04
 21
51.3057
  0
LINE
  8
0
 10
394.04
 20
51.3057
 11
393.374
 21
50
  0
LINE
  8
0
 10
393.374
 20
50
 11
392.576
 21
48.771
  0
LINE
  8
0
 10
392.576
 20
48.771
 11
391.654
 21
47.6322
  0
LINE
  8
0
 10
391.654
 20
47.6322
 11
390.618
 21
46.596
  0
LINE
  8
0
 10
390.618
 20
46.596
 11
389.479
 21
45.6738
  0
LINE
  8
0
 10
389.479
 20
45.6738
 11
388.25
 21
44.8756
  0
LINE
  8
0
 10
388.25
 20
44.8756
 11
386.944
 21
44.2104
  0
LINE
  8
0
 10
386.944
 20
44.2104
 11
385.576
 21
43.6852
  0
LINE
  8
0
 10
385.576
 20
43.6852
 11
384.161
 21
43.3059
  0
LINE
  8
0
 10
384.161
 20
43.3059
 11
382.713
 21
43.0767
  0
LINE
  8
0
 10
382.713
 20
43.0767
 11
381.25
 21
43
  0
LINE
  8
0
 10
381.25
 20
43
 11
379.787
 21
43.0767
  0
LINE
  8
0
 10
-44.0613
 20
65.5637
 11
-44.3198
 21
65.6046
  0
LINE
  8
0
 10
-44.3198
 20
65.6046
 11
-44.5726
 21
65.6723
  0
LINE
  8
0
 10
-44.5726
 20
65.6723
 11
-44.8168
 21
65.7661
  0
LINE
  8
0
 10
-44.8168
 20
65.7661
 11
-45.05
 21
65.8849
  0
LINE
  8
0
 10
-45.05
 20
65.8849
 11
-45.2695
 21
66.0275
  0
LINE
  8
0
 10
-45.2695
 20
66.0275
 11
-45.4728
 21
66.1921
  0
LINE
  8
0
 10
-45.4728
 20
66.1921
 11
-45.6579
 21
66.3772
  0
LINE
  8
0
 10
-45.6579
 20
66.3772
 11
-45.8226
 21
66.5805
  0
LINE
  8
0
 10
-45.8226
 20
66.5805
 11
-45.9651
 21
66.8
  0
LINE
  8
0
 10
-45.9651
 20
66.8
 11
-46.0839
 21
67.0332
  0
LINE
  8
0
 10
-46.0839
 20
67.0332
 11
-46.1776
 21
67.2775
  0
LINE
  8
0
 10
-46.1776
 20
67.2775
 11
-46.2454
 21
67.5302
  0
LINE
  8
0
 10
-46.2454
 20
67.5302
 11
-46.2863
 21
67.7887
  0
LINE
  8
0
 10
-46.2863
 20
67.7887
 11
-46.3
 21
68.05
  0
LINE
  8
0
 10
-46.3
 20
68.05
 11
-46.2863
 21
68.3113
  0
LINE
  8
0
 10
-46.2863
 20
68.3113
 11
-46.2454
 21
68.5698
  0
LINE
  8
0
 10
-46.2454
 20
68.5698
 11
-46.1776
 21
68.8225
  0
LINE
  8
0
 10
-46.1776
 20
68.8225
 11
-46.0839
 21
69.0668
  0
LINE
  8
0
 10
-46.0839
 20
69.0668
 11
-45.9651
 21
69.3
  0
LINE
  8
0
 10
-45.9651
 20
69.3
 11
-45.8226
 21
69.5195
  0
LINE
  8
0
 10
-45.8226
 20
69.5195
 11
-45.6579
 21
69.7228
  0
LINE
  8
0
 10
-45.6579
 20
69.7228
 11
-45.4728
 21
69.9079
  0
LINE
  8
0
 10
-45.4728
 20
69.9079
 11
-45.2695
 21
70.0725
  0
LINE
  8
0
 10
-45.2695
 20
70.0725
 11
-45.05
 21
70.2151
  0
LINE
  8
0
 10
-45.05
 20
70.2151
 11
-44.8168
 21
70.3339
  0
LINE
  8
0
 10
-44.8168
 20
70.3339
 11
-44.5726
 21
70.4276
  0
LINE
  8
0
 10
-44.5726
 20
70.4276
 11
-44.3198
 21
70.4954
  0
LINE
  8
0
 10
-44.3198
 20
70.4954
 11
-44.0613
 21
70.5363
  0
LINE
  8
0
 10
-44.0613
 20
70.5363
 11
-43.8
 21
70.55
  0
LINE
  8
0
 10
-43.8
 20
70.55
 11
-43.5387
 21
70.5363
  0
LINE
  8
0
 10
-43.5387
 20
70.5363
 11
-43.2802
 21
70.4954
  0
LINE
  8
0
 10
-43.2802
 20
70.4954
 11
-43.0275
 21
70.4276
  0
LINE
  8
0
 10
-43.0275
 20
70.4276
 11
-42.7832
 21
70.3339
  0
LINE
  8
0
 10
-42.7832
 20
70.3339
 11
-42.55
 21
70.2151
  0
LINE
  8
0
 10
-42.55
 20
70.2151
 11
-42.3306
 21
70.0725
  0
LINE
  8
0
 10
-42.3306
 20
70.0725
 11
-42.1272
 21
69.9079
  0
LINE
  8
0
 10
-42.1272
 20
69.9079
 11
-41.9421
 21
69.7228
  0
LINE
  8
0
 10
-41.9421
 20
69.7228
 11
-41.7775
 21
69.5195
  0
LINE
  8
0
 10
-41.7775
 20
69.5195
 11
-41.6349
 21
69.3
  0
LINE
  8
0
 10
-41.6349
 20
69.3
 11
-41.5161
 21
69.0668
  0
LINE
  8
0
 10
-41.5161
 20
69.0668
 11
-41.4224
 21
68.8225
  0
LINE
  8
0
 10
-41.4224
 20
68.8225
 11
-41.3546
 21
68.5698
  0
LINE
  8
0
 10
-41.3546
 20
68.5698
 11
-41.3137
 21
68.3113
  0
LINE
  8
0
 10
-41.3137
 20
68.3113
 11
-41.3
 21
68.05
  0
LINE
  8
0
 10
-41.3
 20
68.05
 11
-41.3137
 21
67.7887
  0
LINE
  8
0
 10
-41.3137
 20
67.7887
 11
-41.3546
 21
67.5302
  0
LINE
  8
0
 10
-41.3546
 20
67.5302
 11
-41.4224
 21
67.2775
  0
LINE
  8
0
 10
-41.4224
 20
67.2775
 11
-41.5161
 21
67.0332
  0
LINE
  8
0
 10
-41.5161
 20
67.0332
 11
-41.6349
 21
66.8
  0
LINE
  8
0
 10
-41.6349
 20
66.8
 11
-41.7775
 21
66.5805
  0
LINE
  8
0
 10
-41.7775
 20
66.5805
 11
-41.9421
 21
66.3772
  0
LINE
  8
0
 10
-41.9421
 20
66.3772
 11
-42.1272
 21
66.1921
  0
LINE
  8
0
 10
-42.1272
 20
66.1921
 11
-42.3306
 21
66.0275
  0
LINE
  8
0
 10
-42.3306
 20
66.0275
 11
-42.55
 21
65.8849
  0
LINE
  8
0
 10
-42.55
 20
65.8849
 11
-42.7832
 21
65.7661
  0
LINE
  8
0
 10
-42.7832
 20
65.7661
 11
-43.0275
 21
65.6723
  0
LINE
  8
0
 10
-43.0275
 20
65.6723
 11
-43.2802
 21
65.6046
  0
LINE
  8
0
 10
-43.2802
 20
65.6046
 11
-43.5387
 21
65.5637
  0
LINE
  8
0
 10
-43.5387
 20
65.5637
 11
-43.8
 21
65.55
  0
LINE
  8
0
 10
-43.8
 20
65.55
 11
-44.0613
 21
65.5637
  0
LINE
  8
0
 10
-83.9613
 20
65.5637
 11
-84.2198
 21
65.6046
  0
LINE
  8
0
 10
-84.2198
 20
65.6046
 11
-84.4725
 21
65.6723
  0
LINE
  8
0
 10
-84.4725
 20
65.6723
 11
-84.7168
 21
65.7661
  0
LINE
  8
0
 10
-84.7168
 20
65.7661
 11
-84.95
 21
65.8849
  0
LINE
  8
0
 10
-84.95
 20
65.8849
 11
-85.1694
 21
66.0275
  0
LINE
  8
0
 10
-85.1694
 20
66.0275
 11
-85.3728
 21
66.1921
  0
LINE
  8
0
 10
-85.3728
 20
66.1921
 11
-85.5579
 21
66.3772
  0
LINE
  8
0
 10
-85.5579
 20
66.3772
 11
-85.7225
 21
66.5805
  0
LINE
  8
0
 10
-85.7225
 20
66.5805
 11
-85.8651
 21
66.8
  0
LINE
  8
0
 10
-85.8651
 20
66.8
 11
-85.9839
 21
67.0332
  0
LINE
  8
0
 10
-85.9839
 20
67.0332
 11
-86.0776
 21
67.2775
  0
LINE
  8
0
 10
-86.0776
 20
67.2775
 11
-86.1454
 21
67.5302
  0
LINE
  8
0
 10
-86.1454
 20
67.5302
 11
-86.1863
 21
67.7887
  0
LINE
  8
0
 10
-86.1863
 20
67.7887
 11
-86.2
 21
68.05
  0
LINE
  8
0
 10
-86.2
 20
68.05
 11
-86.1863
 21
68.3113
  0
LINE
  8
0
 10
-86.1863
 20
68.3113
 11
-86.1454
 21
68.5698
  0
LINE
  8
0
 10
-86.1454
 20
68.5698
 11
-86.0776
 21
68.8225
  0
LINE
  8
0
 10
-86.0776
 20
68.8225
 11
-85.9839
 21
69.0668
  0
LINE
  8
0
 10
-85.9839
 20
69.0668
 11
-85.8651
 21
69.3
  0
LINE
  8
0
 10
-85.8651
 20
69.3
 11
-85.7225
 21
69.5195
  0
LINE
  8
0
 10
-85.7225
 20
69.5195
 11
-85.5579
 21
69.7228
  0
LINE
  8
0
 10
-85.5579
 20
69.7228
 11
-85.3728
 21
69.9079
  0
LINE
  8
0
 10
-85.3728
 20
69.9079
 11
-85.1694
 21
70.0725
  0
LINE
  8
0
 10
-85.1694
 20
70.0725
 11
-84.95
 21
70.2151
  0
LINE
  8
0
 10
-84.95
 20
70.2151
 11
-84.7168
 21
70.3339
  0
LINE
  8
0
 10
-84.7168
 20
70.3339
 11
-84.4725
 21
70.4276
  0
LINE
  8
0
 10
-84.4725
 20
70.4276
 11
-84.2198
 21
70.4954
  0
LINE
  8
0
 10
-84.2198
 20
70.4954
 11
-83.9613
 21
70.5363
  0
LINE
  8
0
 10
-83.9613
 20
70.5363
 11
-83.7
 21
70.55
  0
LINE
  8
0
 10
-83.7
 20
70.55
 11
-83.4387
 21
70.5363
  0
LINE
  8
0
 10
-83.4387
 20
70.5363
 11
-83.1802
 21
70.4954
  0
LINE
  8
0
 10
-83.1802
 20
70.4954
 11
-82.9274
 21
70.4276
  0
LINE
  8
0
 10
-82.9274
 20
70.4276
 11
-82.6832
 21
70.3339
  0
LINE
  8
0
 10
-82.6832
 20
70.3339
 11
-82.45
 21
70.2151
  0
LINE
  8
0
 10
-82.45
 20
70.2151
 11
-82.2305
 21
70.0725
  0
LINE
  8
0
 10
-82.2305
 20
70.0725
 11
-82.0272
 21
69.9079
  0
LINE
  8
0
 10
-82.0272
 20
69.9079
 11
-81.8421
 21
69.7228
  0
LINE
  8
0
 10
-81.8421
 20
69.7228
 11
-81.6774
 21
69.5195
  0
LINE
  8
0
 10
-81.6774
 20
69.5195
 11
-81.5349
 21
69.3
  0
LINE
  8
0
 10
-81.5349
 20
69.3
 11
-81.4161
 21
69.0668
  0
LINE
  8
0
 10
-81.4161
 20
69.0668
 11
-81.3224
 21
68.8225
  0
LINE
  8
0
 10
-81.3224
 20
68.8225
 11
-81.2546
 21
68.5698
  0
LINE
  8
0
 10
-81.2546
 20
68.5698
 11
-81.2137
 21
68.3113
  0
LINE
  8
0
 10
-81.2137
 20
68.3113
 11
-81.2
 21
68.05
  0
LINE
  8
0
 10
-81.2
 20
68.05
 11
-81.2137
 21
67.7887
  0
LINE
  8
0
 10
-81.2137
 20
67.7887
 11
-81.2546
 21
67.5302
  0
LINE
  8
0
 10
-81.2546
 20
67.5302
 11
-81.3224
 21
67.2775
  0
LINE
  8
0
 10
-81.3224
 20
67.2775
 11
-81.4161
 21
67.0332
  0
LINE
  8
0
 10
-81.4161
 20
67.0332
 11
-81.5349
 21
66.8
  0
LINE
  8
0
 10
-81.5349
 20
66.8
 11
-81.6774
 21
66.5805
  0
LINE
  8
0
 10
-81.6774
 20
66.5805
 11
-81.8421
 21
66.3772
  0
LINE
  8
0
 10
-81.8421
 20
66.3772
 11
-82.0272
 21
66.1921
  0
LINE
  8
0
 10
-82.0272
 20
66.1921
 11
-82.2305
 21
66.0275
  0
LINE
  8
0
 10
-82.2305
 20
66.0275
 11
-82.45
 21
65.8849
  0
LINE
  8
0
 10
-82.45
 20
65.8849
 11
-82.6832
 21
65.7661
  0
LINE
  8
0
 10
-82.6832
 20
65.7661
 11
-82.9274
 21
65.6723
  0
LINE
  8
0
 10
-82.9274
 20
65.6723
 11
-83.1802
 21
65.6046
  0
LINE
  8
0
 10
-83.1802
 20
65.6046
 11
-83.4387
 21
65.5637
  0
LINE
  8
0
 10
-83.4387
 20
65.5637
 11
-83.7
 21
65.55
  0
LINE
  8
0
 10
-83.7
 20
65.55
 11
-83.9613
 21
65.5637
  0
LINE
  8
0
 10
305.939
 20
65.5637
 11
305.68
 21
65.6046
  0
LINE
  8
0
 10
305.68
 20
65.6046
 11
305.427
 21
65.6723
  0
LINE
  8
0
 10
305.427
 20
65.6723
 11
305.183
 21
65.7661
  0
LINE
  8
0
 10
305.183
 20
65.7661
 11
304.95
 21
65.8849
  0
LINE
  8
0
 10
304.95
 20
65.8849
 11
304.731
 21
66.0275
  0
LINE
  8
0
 10
304.731
 20
66.0275
 11
304.527
 21
66.1921
  0
LINE
  8
0
 10
304.527
 20
66.1921
 11
304.342
 21
66.3772
  0
LINE
  8
0
 10
304.342
 20
66.3772
 11
304.177
 21
66.5805
  0
LINE
  8
0
 10
304.177
 20
66.5805
 11
304.035
 21
66.8
  0
LINE
  8
0
 10
304.035
 20
66.8
 11
303.916
 21
67.0332
  0
LINE
  8
0
 10
303.916
 20
67.0332
 11
303.822
 21
67.2775
  0
LINE
  8
0
 10
303.822
 20
67.2775
 11
303.755
 21
67.5302
  0
LINE
  8
0
 10
303.755
 20
67.5302
 11
303.714
 21
67.7887
  0
LINE
  8
0
 10
303.714
 20
67.7887
 11
303.7
 21
68.05
  0
LINE
  8
0
 10
303.7
 20
68.05
 11
303.714
 21
68.3113
  0
LINE
  8
0
 10
303.714
 20
68.3113
 11
303.755
 21
68.5698
  0
LINE
  8
0
 10
303.755
 20
68.5698
 11
303.822
 21
68.8225
  0
LINE
  8
0
 10
303.822
 20
68.8225
 11
303.916
 21
69.0668
  0
LINE
  8
0
 10
303.916
 20
69.0668
 11
304.035
 21
69.3
  0
LINE
  8
0
 10
304.035
 20
69.3
 11
304.177
 21
69.5195
  0
LINE
  8
0
 10
304.177
 20
69.5195
 11
304.342
 21
69.7228
  0
LINE
  8
0
 10
304.342
 20
69.7228
 11
304.527
 21
69.9079
  0
LINE
  8
0
 10
304.527
 20
69.9079
 11
304.731
 21
70.0725
  0
LINE
  8
0
 10
304.731
 20
70.0725
 11
304.95
 21
70.2151
  0
LINE
  8
0
 10
304.95
 20
70.2151
 11
305.183
 21
70.3339
  0
LINE
  8
0
 10
305.183
 20
70.3339
 11
305.427
 21
70.4276
  0
LINE
  8
0
 10
305.427
 20
70.4276
 11
305.68
 21
70.4954
  0
LINE
  8
0
 10
305.68
 20
70.4954
 11
305.939
 21
70.5363
  0
LINE
  8
0
 10
305.939
 20
70.5363
 11
306.2
 21
70.55
  0
LINE
  8
0
 10
306.2
 20
70.55
 11
306.461
 21
70.5363
  0
LINE
  8
0
 10
306.461
 20
70.5363
 11
306.72
 21
70.4954
  0
LINE
  8
0
 10
306.72
 20
70.4954
 11
306.973
 21
70.4276
  0
LINE
  8
0
 10
306.973
 20
70.4276
 11
307.217
 21
70.3339
  0
LINE
  8
0
 10
307.217
 20
70.3339
 11
307.45
 21
70.2151
  0
LINE
  8
0
 10
307.45
 20
70.2151
 11
307.669
 21
70.0725
  0
LINE
  8
0
 10
307.669
 20
70.0725
 11
307.873
 21
69.9079
  0
LINE
  8
0
 10
307.873
 20
69.9079
 11
308.058
 21
69.7228
  0
LINE
  8
0
 10
308.058
 20
69.7228
 11
308.223
 21
69.5195
  0
LINE
  8
0
 10
308.223
 20
69.5195
 11
308.365
 21
69.3
  0
LINE
  8
0
 10
308.365
 20
69.3
 11
308.484
 21
69.0668
  0
LINE
  8
0
 10
308.484
 20
69.0668
 11
308.578
 21
68.8225
  0
LINE
  8
0
 10
308.578
 20
68.8225
 11
308.645
 21
68.5698
  0
LINE
  8
0
 10
308.645
 20
68.5698
 11
308.686
 21
68.3113
  0
LINE
  8
0
 10
308.686
 20
68.3113
 11
308.7
 21
68.05
  0
LINE
  8
0
 10
308.7
 20
68.05
 11
308.686
 21
67.7887
  0
LINE
  8
0
 10
308.686
 20
67.7887
 11
308.645
 21
67.5302
  0
LINE
  8
0
 10
308.645
 20
67.5302
 11
308.578
 21
67.2775
  0
LINE
  8
0
 10
308.578
 20
67.2775
 11
308.484
 21
67.0332
  0
LINE
  8
0
 10
308.484
 20
67.0332
 11
308.365
 21
66.8
  0
LINE
  8
0
 10
308.365
 20
66.8
 11
308.223
 21
66.5805
  0
LINE
  8
0
 10
308.223
 20
66.5805
 11
308.058
 21
66.3772
  0
LINE
  8
0
 10
308.058
 20
66.3772
 11
307.873
 21
66.1921
  0
LINE
  8
0
 10
307.873
 20
66.1921
 11
307.669
 21
66.0275
  0
LINE
  8
0
 10
307.669
 20
66.0275
 11
307.45
 21
65.8849
  0
LINE
  8
0
 10
307.45
 20
65.8849
 11
307.217
 21
65.7661
  0
LINE
  8
0
 10
307.217
 20
65.7661
 11
306.973
 21
65.6723
  0
LINE
  8
0
 10
306.973
 20
65.6723
 11
306.72
 21
65.6046
  0
LINE
  8
0
 10
306.72
 20
65.6046
 11
306.461
 21
65.5637
  0
LINE
  8
0
 10
306.461
 20
65.5637
 11
306.2
 21
65.55
  0
LINE
  8
0
 10
306.2
 20
65.55
 11
305.939
 21
65.5637
  0
LINE
  8
0
 10
266.039
 20
65.5637
 11
265.78
 21
65.6046
  0
LINE
  8
0
 10
265.78
 20
65.6046
 11
265.527
 21
65.6723
  0
LINE
  8
0
 10
265.527
 20
65.6723
 11
265.283
 21
65.7661
  0
LINE
  8
0
 10
265.283
 20
65.7661
 11
265.05
 21
65.8849
  0
LINE
  8
0
 10
265.05
 20
65.8849
 11
264.831
 21
66.0275
  0
LINE
  8
0
 10
264.831
 20
66.0275
 11
264.627
 21
66.1921
  0
LINE
  8
0
 10
264.627
 20
66.1921
 11
264.442
 21
66.3772
  0
LINE
  8
0
 10
264.442
 20
66.3772
 11
264.277
 21
66.5805
  0
LINE
  8
0
 10
264.277
 20
66.5805
 11
264.135
 21
66.8
  0
LINE
  8
0
 10
264.135
 20
66.8
 11
264.016
 21
67.0332
  0
LINE
  8
0
 10
264.016
 20
67.0332
 11
263.922
 21
67.2775
  0
LINE
  8
0
 10
263.922
 20
67.2775
 11
263.855
 21
67.5302
  0
LINE
  8
0
 10
263.855
 20
67.5302
 11
263.814
 21
67.7887
  0
LINE
  8
0
 10
263.814
 20
67.7887
 11
263.8
 21
68.05
  0
LINE
  8
0
 10
263.8
 20
68.05
 11
263.814
 21
68.3113
  0
LINE
  8
0
 10
263.814
 20
68.3113
 11
263.855
 21
68.5698
  0
LINE
  8
0
 10
263.855
 20
68.5698
 11
263.922
 21
68.8225
  0
LINE
  8
0
 10
263.922
 20
68.8225
 11
264.016
 21
69.0668
  0
LINE
  8
0
 10
264.016
 20
69.0668
 11
264.135
 21
69.3
  0
LINE
  8
0
 10
264.135
 20
69.3
 11
264.277
 21
69.5195
  0
LINE
  8
0
 10
264.277
 20
69.5195
 11
264.442
 21
69.7228
  0
LINE
  8
0
 10
264.442
 20
69.7228
 11
264.627
 21
69.9079
  0
LINE
  8
0
 10
264.627
 20
69.9079
 11
264.831
 21
70.0725
  0
LINE
  8
0
 10
264.831
 20
70.0725
 11
265.05
 21
70.2151
  0
LINE
  8
0
 10
265.05
 20
70.2151
 11
265.283
 21
70.3339
  0
LINE
  8
0
 10
265.283
 20
70.3339
 11
265.527
 21
70.4276
  0
LINE
  8
0
 10
265.527
 20
70.4276
 11
265.78
 21
70.4954
  0
LINE
  8
0
 10
265.78
 20
70.4954
 11
266.039
 21
70.5363
  0
LINE
  8
0
 10
266.039
 20
70.5363
 11
266.3
 21
70.55
  0
LINE
  8
0
 10
266.3
 20
70.55
 11
266.561
 21
70.5363
  0
LINE
  8
0
 10
266.561
 20
70.5363
 11
266.82
 21
70.4954
  0
LINE
  8
0
 10
266.82
 20
70.4954
 11
267.073
 21
70.4276
  0
LINE
  8
0
 10
267.073
 20
70.4276
 11
267.317
 21
70.3339
  0
LINE
  8
0
 10
267.317
 20
70.3339
 11
267.55
 21
70.2151
  0
LINE
  8
0
 10
267.55
 20
70.2151
 11
267.769
 21
70.0725
  0
LINE
  8
0
 10
267.769
 20
70.0725
 11
267.973
 21
69.9079
  0
LINE
  8
0
 10
267.973
 20
69.9079
 11
268.158
 21
69.7228
  0
LINE
  8
0
 10
268.158
 20
69.7228
 11
268.323
 21
69.5195
  0
LINE
  8
0
 10
268.323
 20
69.5195
 11
268.465
 21
69.3
  0
LINE
  8
0
 10
268.465
 20
69.3
 11
268.584
 21
69.0668
  0
LINE
  8
0
 10
268.584
 20
69.0668
 11
268.678
 21
68.8225
  0
LINE
  8
0
 10
268.678
 20
68.8225
 11
268.745
 21
68.5698
  0
LINE
  8
0
 10
268.745
 20
68.5698
 11
268.786
 21
68.3113
  0
LINE
  8
0
 10
268.786
 20
68.3113
 11
268.8
 21
68.05
  0
LINE
  8
0
 10
268.8
 20
68.05
 11
268.786
 21
67.7887
  0
LINE
  8
0
 10
268.786
 20
67.7887
 11
268.745
 21
67.5302
  0
LINE
  8
0
 10
268.745
 20
67.5302
 11
268.678
 21
67.2775
  0
LINE
  8
0
 10
268.678
 20
67.2775
 11
268.584
 21
67.0332
  0
LINE
  8
0
 10
268.584
 20
67.0332
 11
268.465
 21
66.8
  0
LINE
  8
0
 10
268.465
 20
66.8
 11
268.323
 21
66.5805
  0
LINE
  8
0
 10
268.323
 20
66.5805
 11
268.158
 21
66.3772
  0
LINE
  8
0
 10
268.158
 20
66.3772
 11
267.973
 21
66.1921
  0
LINE
  8
0
 10
267.973
 20
66.1921
 11
267.769
 21
66.0275
  0
LINE
  8
0
 10
267.769
 20
66.0275
 11
267.55
 21
65.8849
  0
LINE
  8
0
 10
267.55
 20
65.8849
 11
267.317
 21
65.7661
  0
LINE
  8
0
 10
267.317
 20
65.7661
 11
267.073
 21
65.6723
  0
LINE
  8
0
 10
267.073
 20
65.6723
 11
266.82
 21
65.6046
  0
LINE
  8
0
 10
266.82
 20
65.6046
 11
266.561
 21
65.5637
  0
LINE
  8
0
 10
266.561
 20
65.5637
 11
266.3
 21
65.55
  0
LINE
  8
0
 10
266.3
 20
65.55
 11
266.039
 21
65.5637
  0
LINE
  8
0
 10
-1.46339
 20
25.0767
 11
-2.91075
 21
25.3059
  0
LINE
  8
0
 10
-2.91075
 20
25.3059
 11
-4.32623
 21
25.6852
  0
LINE
  8
0
 10
-4.32623
 20
25.6852
 11
-5.69431
 21
26.2104
  0
LINE
  8
0
 10
-5.69431
 20
26.2104
 11
-7
 21
26.8756
  0
LINE
  8
0
 10
-7
 20
26.8756
 11
-8.22899
 21
27.6738
  0
LINE
  8
0
 10
-8.22899
 20
27.6738
 11
-9.36783
 21
28.596
  0
LINE
  8
0
 10
-9.36783
 20
28.596
 11
-10.404
 21
29.6322
  0
LINE
  8
0
 10
-10.404
 20
29.6322
 11
-11.3262
 21
30.771
  0
LINE
  8
0
 10
-11.3262
 20
30.771
 11
-12.1243
 21
32
  0
LINE
  8
0
 10
-12.1243
 20
32
 11
-12.7896
 21
33.3057
  0
LINE
  8
0
 10
-12.7896
 20
33.3057
 11
-13.3148
 21
34.6738
  0
LINE
  8
0
 10
-13.3148
 20
34.6738
 11
-13.6941
 21
36.0892
  0
LINE
  8
0
 10
-13.6941
 20
36.0892
 11
-13.9233
 21
37.5366
  0
LINE
  8
0
 10
-13.9233
 20
37.5366
 11
-14
 21
39
  0
LINE
  8
0
 10
-14
 20
39
 11
-13.9233
 21
40.4634
  0
LINE
  8
0
 10
-13.9233
 20
40.4634
 11
-13.6941
 21
41.9108
  0
LINE
  8
0
 10
-13.6941
 20
41.9108
 11
-13.3148
 21
43.3262
  0
LINE
  8
0
 10
-13.3148
 20
43.3262
 11
-12.7896
 21
44.6943
  0
LINE
  8
0
 10
-12.7896
 20
44.6943
 11
-12.1243
 21
46
  0
LINE
  8
0
 10
-12.1243
 20
46
 11
-11.3262
 21
47.229
  0
LINE
  8
0
 10
-11.3262
 20
47.229
 11
-10.404
 21
48.3678
  0
LINE
  8
0
 10
-10.404
 20
48.3678
 11
-9.36783
 21
49.404
  0
LINE
  8
0
 10
-9.36783
 20
49.404
 11
-8.22899
 21
50.3262
  0
LINE
  8
0
 10
-8.22899
 20
50.3262
 11
-7
 21
51.1243
  0
LINE
  8
0
 10
-7
 20
51.1243
 11
-5.69431
 21
51.7896
  0
LINE
  8
0
 10
-5.69431
 20
51.7896
 11
-4.32623
 21
52.3148
  0
LINE
  8
0
 10
-4.32623
 20
52.3148
 11
-2.91075
 21
52.6941
  0
LINE
  8
0
 10
-2.91075
 20
52.6941
 11
-1.46339
 21
52.9233
  0
LINE
  8
0
 10
-1.46339
 20
52.9233
 11
0
 21
53
  0
LINE
  8
0
 10
0
 20
53
 11
1.46339
 21
52.9233
  0
LINE
  8
0
 10
1.46339
 20
52.9233
 11
2.91075
 21
52.6941
  0
LINE
  8
0
 10
2.91075
 20
52.6941
 11
4.32623
 21
52.3148
  0
LINE
  8
0
 10
4.32623
 20
52.3148
 11
5.69431
 21
51.7896
  0
LINE
  8
0
 10
5.69431
 20
51.7896
 11
7
 21
51.1243
  0
LINE
  8
0
 10
7
 20
51.1243
 11
8.22899
 21
50.3262
  0
LINE
  8
0
 10
8.22899
 20
50.3262
 11
9.36783
 21
49.404
  0
LINE
  8
0
 10
9.36783
 20
49.404
 11
10.404
 21
48.3678
  0
LINE
  8
0
 10
10.404
 20
48.3678
 11
11.3262
 21
47.229
  0
LINE
  8
0
 10
11.3262
 20
47.229
 11
12.1243
 21
46
  0
LINE
  8
0
 10
12.1243
 20
46
 11
12.7896
 21
44.6943
  0
LINE
  8
0
 10
12.7896
 20
44.6943
 11
13.3148
 21
43.3262
  0
LINE
  8
0
 10
13.3148
 20
43.3262
 11
13.6941
 21
41.9108
  0
LINE
  8
0
 10
13.6941
 20
41.9108
 11
13.9233
 21
40.4634
  0
LINE
  8
0
 10
13.9233
 20
40.4634
 11
14
 21
39
  0
LINE
  8
0
 10
14
 20
39
 11
13.9233
 21
37.5366
  0
LINE
  8
0
 10
13.9233
 20
37.5366
 11
13.6941
 21
36.0892
  0
LINE
  8
0
 10
13.6941
 20
36.0892
 11
13.3148
 21
34.6738
  0
LINE
  8
0
 10
13.3148
 20
34.6738
 11
12.7896
 21
33.3057
  0
LINE
  8
0
 10
12.7896
 20
33.3057
 11
12.1243
 21
32
  0
LINE
  8
0
 10
12.1243
 20
32
 11
11.3262
 21
30.771
  0
LINE
  8
0
 10
11.3262
 20
30.771
 11
10.404
 21
29.6322
  0
LINE
  8
0
 10
10.404
 20
29.6322
 11
9.36783
 21
28.596
  0
LINE
  8
0
 10
9.36783
 20
28.596
 11
8.22899
 21
27.6738
  0
LINE
  8
0
 10
8.22899
 20
27.6738
 11
7
 21
26.8756
  0
LINE
  8
0
 10
7
 20
26.8756
 11
5.69431
 21
26.2104
  0
LINE
  8
0
 10
5.69431
 20
26.2104
 11
4.32623
 21
25.6852
  0
LINE
  8
0
 10
4.32623
 20
25.6852
 11
2.91075
 21
25.3059
  0
LINE
  8
0
 10
2.91075
 20
25.3059
 11
1.46339
 21
25.0767
  0
LINE
  8
0
 10
1.46339
 20
25.0767
 11
0
 21
25
  0
LINE
  8
0
 10
0
 20
25
 11
-1.46339
 21
25.0767
  0
LINE
  8
0
 10
348.537
 20
25.0767
 11
347.089
 21
25.3059
  0
LINE
  8
0
 10
347.089
 20
25.3059
 11
345.674
 21
25.6852
  0
LINE
  8
0
 10
345.674
 20
25.6852
 11
344.306
 21
26.2104
  0
LINE
  8
0
 10
344.306
 20
26.2104
 11
343
 21
26.8756
  0
LINE
  8
0
 10
343
 20
26.8756
 11
341.771
 21
27.6738
  0
LINE
  8
0
 10
341.771
 20
27.6738
 11
340.632
 21
28.596
  0
LINE
  8
0
 10
340.632
 20
28.596
 11
339.596
 21
29.6322
  0
LINE
  8
0
 10
339.596
 20
29.6322
 11
338.674
 21
30.771
  0
LINE
  8
0
 10
338.674
 20
30.771
 11
337.876
 21
32
  0
LINE
  8
0
 10
337.876
 20
32
 11
337.21
 21
33.3057
  0
LINE
  8
0
 10
337.21
 20
33.3057
 11
336.685
 21
34.6738
  0
LINE
  8
0
 10
336.685
 20
34.6738
 11
336.306
 21
36.0892
  0
LINE
  8
0
 10
336.306
 20
36.0892
 11
336.077
 21
37.5366
  0
LINE
  8
0
 10
336.077
 20
37.5366
 11
336
 21
39
  0
LINE
  8
0
 10
336
 20
39
 11
336.077
 21
40.4634
  0
LINE
  8
0
 10
336.077
 20
40.4634
 11
336.306
 21
41.9108
  0
LINE
  8
0
 10
336.306
 20
41.9108
 11
336.685
 21
43.3262
  0
LINE
  8
0
 10
336.685
 20
43.3262
 11
337.21
 21
44.6943
  0
LINE
  8
0
 10
337.21
 20
44.6943
 11
337.876
 21
46
  0
LINE
  8
0
 10
337.876
 20
46
 11
338.674
 21
47.229
  0
LINE
  8
0
 10
338.674
 20
47.229
 11
339.596
 21
48.3678
  0
LINE
  8
0
 10
339.596
 20
48.3678
 11
340.632
 21
49.404
  0
LINE
  8
0
 10
340.632
 20
49.404
 11
341.771
 21
50.3262
  0
LINE
  8
0
 10
341.771
 20
50.3262
 11
343
 21
51.1243
  0
LINE
  8
0
 10
343
 20
51.1243
 11
344.306
 21
51.7896
  0
LINE
  8
0
 10
344.306
 20
51.7896
 11
345.674
 21
52.3148
  0
LINE
  8
0
 10
345.674
 20
52.3148
 11
347.089
 21
52.6941
  0
LINE
  8
0
 10
347.089
 20
52.6941
 11
348.537
 21
52.9233
  0
LINE
  8
0
 10
348.537
 20
52.9233
 11
350
 21
53
  0
LINE
  8
0
 10
350
 20
53
 11
351.463
 21
52.9233
  0
LINE
  8
0
 10
351.463
 20
52.9233
 11
352.911
 21
52.6941
  0
LINE
  8
0
 10
352.911
 20
52.6941
 11
354.326
 21
52.3148
  0
LINE
  8
0
 10
354.326
 20
52.3148
 11
355.694
 21
51.7896
  0
LINE
  8
0
 10
355.694
 20
51.7896
 11
357
 21
51.1243
  0
LINE
  8
0
 10
357
 20
51.1243
 11
358.229
 21
50.3262
  0
LINE
  8
0
 10
358.229
 20
50.3262
 11
359.368
 21
49.404
  0
LINE
  8
0
 10
359.368
 20
49.404
 11
360.404
 21
48.3678
  0
LINE
  8
0
 10
360.404
 20
48.3678
 11
361.326
 21
47.229
  0
LINE
  8
0
 10
361.326
 20
47.229
 11
362.124
 21
46
  0
LINE
  8
0
 10
362.124
 20
46
 11
362.79
 21
44.6943
  0
LINE
  8
0
 10
362.79
 20
44.6943
 11
363.315
 21
43.3262
  0
LINE
  8
0
 10
363.315
 20
43.3262
 11
363.694
 21
41.9108
  0
LINE
  8
0
 10
363.694
 20
41.9108
 11
363.923
 21
40.4634
  0
LINE
  8
0
 10
363.923
 20
40.4634
 11
364
 21
39
  0
LINE
  8
0
 10
364
 20
39
 11
363.923
 21
37.5366
  0
LINE
  8
0
 10
363.923
 20
37.5366
 11
363.694
 21
36.0892
  0
LINE
  8
0
 10
363.694
 20
36.0892
 11
363.315
 21
34.6738
  0
LINE
  8
0
 10
363.315
 20
34.6738
 11
362.79
 21
33.3057
  0
LINE
  8
0
 10
362.79
 20
33.3057
 11
362.124
 21
32
  0
LINE
  8
0
 10
362.124
 20
32
 11
361.326
 21
30.771
  0
LINE
  8
0
 10
361.326
 20
30.771
 11
360.404
 21
29.6322
  0
LINE
  8
0
 10
360.404
 20
29.6322
 11
359.368
 21
28.596
  0
LINE
  8
0
 10
359.368
 20
28.596
 11
358.229
 21
27.6738
  0
LINE
  8
0
 10
358.229
 20
27.6738
 11
357
 21
26.8756
  0
LINE
  8
0
 10
357
 20
26.8756
 11
355.694
 21
26.2104
  0
LINE
  8
0
 10
355.694
 20
26.2104
 11
354.326
 21
25.6852
  0
LINE
  8
0
 10
354.326
 20
25.6852
 11
352.911
 21
25.3059
  0
LINE
  8
0
 10
352.911
 20
25.3059
 11
351.463
 21
25.0767
  0
LINE
  8
0
 10
351.463
 20
25.0767
 11
350
 21
25
  0
LINE
  8
0
 10
350
 20
25
 11
348.537
 21
25.0767
  0
LINE
  8
0
 10
64.7866
 20
13.0767
 11
63.3392
 21
13.3059
  0
LINE
  8
0
 10
63.3392
 20
13.3059
 11
61.9238
 21
13.6852
  0
LINE
  8
0
 10
61.9238
 20
13.6852
 11
60.5557
 21
14.2104
  0
LINE
  8
0
 10
60.5557
 20
14.2104
 11
59.25
 21
14.8756
  0
LINE
  8
0
 10
59.25
 20
14.8756
 11
58.021
 21
15.6738
  0
LINE
  8
0
 10
58.021
 20
15.6738
 11
56.8822
 21
16.596
  0
LINE
  8
0
 10
56.8822
 20
16.596
 11
55.846
 21
17.6322
  0
LINE
  8
0
 10
55.846
 20
17.6322
 11
54.9238
 21
18.771
  0
LINE
  8
0
 10
54.9238
 20
18.771
 11
54.1256
 21
20
  0
LINE
  8
0
 10
54.1256
 20
20
 11
53.4604
 21
21.3057
  0
LINE
  8
0
 10
53.4604
 20
21.3057
 11
52.9352
 21
22.6738
  0
LINE
  8
0
 10
52.9352
 20
22.6738
 11
52.5559
 21
24.0892
  0
LINE
  8
0
 10
52.5559
 20
24.0892
 11
52.3267
 21
25.5366
  0
LINE
  8
0
 10
52.3267
 20
25.5366
 11
52.25
 21
27
  0
LINE
  8
0
 10
52.25
 20
27
 11
52.3267
 21
28.4634
  0
LINE
  8
0
 10
52.3267
 20
28.4634
 11
52.5559
 21
29.9108
  0
LINE
  8
0
 10
52.5559
 20
29.9108
 11
52.9352
 21
31.3262
  0
LINE
  8
0
 10
52.9352
 20
31.3262
 11
53.4604
 21
32.6943
  0
LINE
  8
0
 10
53.4604
 20
32.6943
 11
54.1256
 21
34
  0
LINE
  8
0
 10
54.1256
 20
34
 11
54.9238
 21
35.229
  0
LINE
  8
0
 10
54.9238
 20
35.229
 11
55.846
 21
36.3678
  0
LINE
  8
0
 10
55.846
 20
36.3678
 11
56.8822
 21
37.404
  0
LINE
  8
0
 10
56.8822
 20
37.404
 11
58.021
 21
38.3262
  0
LINE
  8
0
 10
58.021
 20
38.3262
 11
59.25
 21
39.1243
  0
LINE
  8
0
 10
59.25
 20
39.1243
 11
60.5557
 21
39.7896
  0
LINE
  8
0
 10
60.5557
 20
39.7896
 11
61.9238
 21
40.3148
  0
LINE
  8
0
 10
61.9238
 20
40.3148
 11
63.3392
 21
40.6941
  0
LINE
  8
0
 10
63.3392
 20
40.6941
 11
64.7866
 21
40.9233
  0
LINE
  8
0
 10
64.7866
 20
40.9233
 11
66.25
 21
41
  0
LINE
  8
0
 10
66.25
 20
41
 11
67.7134
 21
40.9233
  0
LINE
  8
0
 10
67.7134
 20
40.9233
 11
69.1608
 21
40.6941
  0
LINE
  8
0
 10
69.1608
 20
40.6941
 11
70.5762
 21
40.3148
  0
LINE
  8
0
 10
70.5762
 20
40.3148
 11
71.9443
 21
39.7896
  0
LINE
  8
0
 10
71.9443
 20
39.7896
 11
73.25
 21
39.1243
  0
LINE
  8
0
 10
73.25
 20
39.1243
 11
74.479
 21
38.3262
  0
LINE
  8
0
 10
74.479
 20
38.3262
 11
75.6178
 21
37.404
  0
LINE
  8
0
 10
75.6178
 20
37.404
 11
76.654
 21
36.3678
  0
LINE
  8
0
 10
76.654
 20
36.3678
 11
77.5762
 21
35.229
  0
LINE
  8
0
 10
77.5762
 20
35.229
 11
78.3743
 21
34
  0
LINE
  8
0
 10
78.3743
 20
34
 11
79.0396
 21
32.6943
  0
LINE
  8
0
 10
79.0396
 20
32.6943
 11
79.5648
 21
31.3262
  0
LINE
  8
0
 10
79.5648
 20
31.3262
 11
79.9441
 21
29.9108
  0
LINE
  8
0
 10
79.9441
 20
29.9108
 11
80.1733
 21
28.4634
  0
LINE
  8
0
 10
80.1733
 20
28.4634
 11
80.25
 21
27
  0
LINE
  8
0
 10
80.25
 20
27
 11
80.1733
 21
25.5366
  0
LINE
  8
0
 10
80.1733
 20
25.5366
 11
79.9441
 21
24.0892
  0
LINE
  8
0
 10
79.9441
 20
24.0892
 11
79.5648
 21
22.6738
  0
LINE
  8
0
 10
79.5648
 20
22.6738
 11
79.0396
 21
21.3057
  0
LINE
  8
0
 10
79.0396
 20
21.3057
 11
78.3743
 21
20
  0
LINE
  8
0
 10
78.3743
 20
20
 11
77.5762
 21
18.771
  0
LINE
  8
0
 10
77.5762
 20
18.771
 11
76.654
 21
17.6322
  0
LINE
  8
0
 10
76.654
 20
17.6322
 11
75.6178
 21
16.596
  0
LINE
  8
0
 10
75.6178
 20
16.596
 11
74.479
 21
15.6738
  0
LINE
  8
0
 10
74.479
 20
15.6738
 11
73.25
 21
14.8756
  0
LINE
  8
0
 10
73.25
 20
14.8756
 11
71.9443
 21
14.2104
  0
LINE
  8
0
 10
71.9443
 20
14.2104
 11
70.5762
 21
13.6852
  0
LINE
  8
0
 10
70.5762
 20
13.6852
 11
69.1608
 21
13.3059
  0
LINE
  8
0
 10
69.1608
 20
13.3059
 11
67.7134
 21
13.0767
  0
LINE
  8
0
 10
67.7134
 20
13.0767
 11
66.25
 21
13
  0
LINE
  8
0
 10
66.25
 20
13
 11
64.7866
 21
13.0767
  0
LINE
  8
0
 10
100.787
 20
13.0767
 11
99.3392
 21
13.3059
  0
LINE
  8
0
 10
99.3392
 20
13.3059
 11
97.9238
 21
13.6852
  0
LINE
  8
0
 10
97.9238
 20
13.6852
 11
96.5557
 21
14.2104
  0
LINE
  8
0
 10
96.5557
 20
14.2104
 11
95.25
 21
14.8756
  0
LINE
  8
0
 10
95.25
 20
14.8756
 11
94.021
 21
15.6738
  0
LINE
  8
0
 10
94.021
 20
15.6738
 11
92.8822
 21
16.596
  0
LINE
  8
0
 10
92.8822
 20
16.596
 11
91.846
 21
17.6322
  0
LINE
  8
0
 10
91.846
 20
17.6322
 11
90.9238
 21
18.771
  0
LINE
  8
0
 10
90.9238
 20
18.771
 11
90.1256
 21
20
  0
LINE
  8
0
 10
90.1256
 20
20
 11
89.4604
 21
21.3057
  0
LINE
  8
0
 10
89.4604
 20
21.3057
 11
88.9352
 21
22.6738
  0
LINE
  8
0
 10
88.9352
 20
22.6738
 11
88.5559
 21
24.0892
  0
LINE
  8
0
 10
88.5559
 20
24.0892
 11
88.3267
 21
25.5366
  0
LINE
  8
0
 10
88.3267
 20
25.5366
 11
88.25
 21
27
  0
LINE
  8
0
 10
88.25
 20
27
 11
88.3267
 21
28.4634
  0
LINE
  8
0
 10
88.3267
 20
28.4634
 11
88.5559
 21
29.9108
  0
LINE
  8
0
 10
88.5559
 20
29.9108
 11
88.9352
 21
31.3262
  0
LINE
  8
0
 10
88.9352
 20
31.3262
 11
89.4604
 21
32.6943
  0
LINE
  8
0
 10
89.4604
 20
32.6943
 11
90.1256
 21
34
  0
LINE
  8
0
 10
90.1256
 20
34
 11
90.9238
 21
35.229
  0
LINE
  8
0
 10
90.9238
 20
35.229
 11
91.846
 21
36.3678
  0
LINE
  8
0
 10
91.846
 20
36.3678
 11
92.8822
 21
37.404
  0
LINE
  8
0
 10
92.8822
 20
37.404
 11
94.021
 21
38.3262
  0
LINE
  8
0
 10
94.021
 20
38.3262
 11
95.25
 21
39.1243
  0
LINE
  8
0
 10
95.25
 20
39.1243
 11
96.5557
 21
39.7896
  0
LINE
  8
0
 10
96.5557
 20
39.7896
 11
97.9238
 21
40.3148
  0
LINE
  8
0
 10
97.9238
 20
40.3148
 11
99.3392
 21
40.6941
  0
LINE
  8
0
 10
99.3392
 20
40.6941
 11
100.787
 21
40.9233
  0
LINE
  8
0
 10
100.787
 20
40.9233
 11
102.25
 21
41
  0
LINE
  8
0
 10
102.25
 20
41
 11
103.713
 21
40.9233
  0
LINE
  8
0
 10
103.713
 20
40.9233
 11
105.161
 21
40.6941
  0
LINE
  8
0
 10
105.161
 20
40.6941
 11
106.576
 21
40.3148
  0
LINE
  8
0
 10
106.576
 20
40.3148
 11
107.944
 21
39.7896
  0
LINE
  8
0
 10
107.944
 20
39.7896
 11
109.25
 21
39.1243
  0
LINE
  8
0
 10
109.25
 20
39.1243
 11
110.479
 21
38.3262
  0
LINE
  8
0
 10
110.479
 20
38.3262
 11
111.618
 21
37.404
  0
LINE
  8
0
 10
111.618
 20
37.404
 11
112.654
 21
36.3678
  0
LINE
  8
0
 10
112.654
 20
36.3678
 11
113.576
 21
35.229
  0
LINE
  8
0
 10
113.576
 20
35.229
 11
114.374
 21
34
  0
LINE
  8
0
 10
114.374
 20
34
 11
115.04
 21
32.6943
  0
LINE
  8
0
 10
115.04
 20
32.6943
 11
115.565
 21
31.3262
  0
LINE
  8
0
 10
115.565
 20
31.3262
 11
115.944
 21
29.9108
  0
LINE
  8
0
 10
115.944
 20
29.9108
 11
116.173
 21
28.4634
  0
LINE
  8
0
 10
116.173
 20
28.4634
 11
116.25
 21
27
  0
LINE
  8
0
 10
116.25
 20
27
 11
116.173
 21
25.5366
  0
LINE
  8
0
 10
116.173
 20
25.5366
 11
115.944
 21
24.0892
  0
LINE
  8
0
 10
115.944
 20
24.0892
 11
115.565
 21
22.6738
  0
LINE
  8
0
 10
115.565
 20
22.6738
 11
115.04
 21
21.3057
  0
LINE
  8
0
 10
115.04
 20
21.3057
 11
114.374
 21
20
  0
LINE
  8
0
 10
114.374
 20
20
 11
113.576
 21
18.771
  0
LINE
  8
0
 10
113.576
 20
18.771
 11
112.654
 21
17.6322
  0
LINE
  8
0
 10
112.654
 20
17.6322
 11
111.618
 21
16.596
  0
LINE
  8
0
 10
111.618
 20
16.596
 11
110.479
 21
15.6738
  0
LINE
  8
0
 10
110.479
 20
15.6738
 11
109.25
 21
14.8756
  0
LINE
  8
0
 10
109.25
 20
14.8756
 11
107.944
 21
14.2104
  0
LINE
  8
0
 10
107.944
 20
14.2104
 11
106.576
 21
13.6852
  0
LINE
  8
0
 10
106.576
 20
13.6852
 11
105.161
 21
13.3059
  0
LINE
  8
0
 10
105.161
 20
13.3059
 11
103.713
 21
13.0767
  0
LINE
  8
0
 10
103.713
 20
13.0767
 11
102.25
 21
13
  0
LINE
  8
0
 10
102.25
 20
13
 11
100.787
 21
13.0767
  0
LINE
  8
0
 10
414.787
 20
13.0767
 11
413.339
 21
13.3059
  0
LINE
  8
0
 10
413.339
 20
13.3059
 11
411.924
 21
13.6852
  0
LINE
  8
0
 10
411.924
 20
13.6852
 11
410.556
 21
14.2104
  0
LINE
  8
0
 10
410.556
 20
14.2104
 11
409.25
 21
14.8756
  0
LINE
  8
0
 10
409.25
 20
14.8756
 11
408.021
 21
15.6738
  0
LINE
  8
0
 10
408.021
 20
15.6738
 11
406.882
 21
16.596
  0
LINE
  8
0
 10
406.882
 20
16.596
 11
405.846
 21
17.6322
  0
LINE
  8
0
 10
405.846
 20
17.6322
 11
404.924
 21
18.771
  0
LINE
  8
0
 10
404.924
 20
18.771
 11
404.126
 21
20
  0
LINE
  8
0
 10
404.126
 20
20
 11
403.46
 21
21.3057
  0
LINE
  8
0
 10
403.46
 20
21.3057
 11
402.935
 21
22.6738
  0
LINE
  8
0
 10
402.935
 20
22.6738
 11
402.556
 21
24.0892
  0
LINE
  8
0
 10
402.556
 20
24.0892
 11
402.327
 21
25.5366
  0
LINE
  8
0
 10
402.327
 20
25.5366
 11
402.25
 21
27
  0
LINE
  8
0
 10
402.25
 20
27
 11
402.327
 21
28.4634
  0
LINE
  8
0
 10
402.327
 20
28.4634
 11
402.556
 21
29.9108
  0
LINE
  8
0
 10
402.556
 20
29.9108
 11
402.935
 21
31.3262
  0
LINE
  8
0
 10
402.935
 20
31.3262
 11
403.46
 21
32.6943
  0
LINE
  8
0
 10
403.46
 20
32.6943
 11
404.126
 21
34
  0
LINE
  8
0
 10
404.126
 20
34
 11
404.924
 21
35.229
  0
LINE
  8
0
 10
404.924
 20
35.229
 11
405.846
 21
36.3678
  0
LINE
  8
0
 10
405.846
 20
36.3678
 11
406.882
 21
37.404
  0
LINE
  8
0
 10
406.882
 20
37.404
 11
408.021
 21
38.3262
  0
LINE
  8
0
 10
408.021
 20
38.3262
 11
409.25
 21
39.1243
  0
LINE
  8
0
 10
409.25
 20
39.1243
 11
410.556
 21
39.7896
  0
LINE
  8
0
 10
410.556
 20
39.7896
 11
411.924
 21
40.3148
  0
LINE
  8
0
 10
411.924
 20
40.3148
 11
413.339
 21
40.6941
  0
LINE
  8
0
 10
413.339
 20
40.6941
 11
414.787
 21
40.9233
  0
LINE
  8
0
 10
414.787
 20
40.9233
 11
416.25
 21
41
  0
LINE
  8
0
 10
416.25
 20
41
 11
417.713
 21
40.9233
  0
LINE
  8
0
 10
417.713
 20
40.9233
 11
419.161
 21
40.6941
  0
LINE
  8
0
 10
419.161
 20
40.6941
 11
420.576
 21
40.3148
  0
LINE
  8
0
 10
420.576
 20
40.3148
 11
421.944
 21
39.7896
  0
LINE
  8
0
 10
421.944
 20
39.7896
 11
423.25
 21
39.1243
  0
LINE
  8
0
 10
423.25
 20
39.1243
 11
424.479
 21
38.3262
  0
LINE
  8
0
 10
424.479
 20
38.3262
 11
425.618
 21
37.404
  0
LINE
  8
0
 10
425.618
 20
37.404
 11
426.654
 21
36.3678
  0
LINE
  8
0
 10
426.654
 20
36.3678
 11
427.576
 21
35.229
  0
LINE
  8
0
 10
427.576
 20
35.229
 11
428.374
 21
34
  0
LINE
  8
0
 10
428.374
 20
34
 11
429.04
 21
32.6943
  0
LINE
  8
0
 10
429.04
 20
32.6943
 11
429.565
 21
31.3262
  0
LINE
  8
0
 10
429.565
 20
31.3262
 11
429.944
 21
29.9108
  0
LINE
  8
0
 10
429.944
 20
29.9108
 11
430.173
 21
28.4634
  0
LINE
  8
0
 10
430.173
 20
28.4634
 11
430.25
 21
27
  0
LINE
  8
0
 10
430.25
 20
27
 11
430.173
 21
25.5366
  0
LINE
  8
0
 10
430.173
 20
25.5366
 11
429.944
 21
24.0892
  0
LINE
  8
0
 10
429.944
 20
24.0892
 11
429.565
 21
22.6738
  0
LINE
  8
0
 10
429.565
 20
22.6738
 11
429.04
 21
21.3057
  0
LINE
  8
0
 10
429.04
 20
21.3057
 11
428.374
 21
20
  0
LINE
  8
0
 10
428.374
 20
20
 11
427.576
 21
18.771
  0
LINE
  8
0
 10
427.576
 20
18.771
 11
426.654
 21
17.6322
  0
LINE
  8
0
 10
426.654
 20
17.6322
 11
425.618
 21
16.596
  0
LINE
  8
0
 10
425.618
 20
16.596
 11
424.479
 21
15.6738
  0
LINE
  8
0
 10
424.479
 20
15.6738
 11
423.25
 21
14.8756
  0
LINE
  8
0
 10
423.25
 20
14.8756
 11
421.944
 21
14.2104
  0
LINE
  8
0
 10
421.944
 20
14.2104
 11
420.576
 21
13.6852
  0
LINE
  8
0
 10
420.576
 20
13.6852
 11
419.161
 21
13.3059
  0
LINE
  8
0
 10
419.161
 20
13.3059
 11
417.713
 21
13.0767
  0
LINE
  8
0
 10
417.713
 20
13.0767
 11
416.25
 21
13
  0
LINE
  8
0
 10
416.25
 20
13
 11
414.787
 21
13.0767
  0
LINE
  8
0
 10
450.787
 20
13.0767
 11
449.339
 21
13.3059
  0
LINE
  8
0
 10
449.339
 20
13.3059
 11
447.924
 21
13.6852
  0
LINE
  8
0
 10
447.924
 20
13.6852
 11
446.556
 21
14.2104
  0
LINE
  8
0
 10
446.556
 20
14.2104
 11
445.25
 21
14.8756
  0
LINE
  8
0
 10
445.25
 20
14.8756
 11
444.021
 21
15.6738
  0
LINE
  8
0
 10
444.021
 20
15.6738
 11
442.882
 21
16.596
  0
LINE
  8
0
 10
442.882
 20
16.596
 11
441.846
 21
17.6322
  0
LINE
  8
0
 10
441.846
 20
17.6322
 11
440.924
 21
18.771
  0
LINE
  8
0
 10
440.924
 20
18.771
 11
440.126
 21
20
  0
LINE
  8
0
 10
440.126
 20
20
 11
439.46
 21
21.3057
  0
LINE
  8
0
 10
439.46
 20
21.3057
 11
438.935
 21
22.6738
  0
LINE
  8
0
 10
438.935
 20
22.6738
 11
438.556
 21
24.0892
  0
LINE
  8
0
 10
438.556
 20
24.0892
 11
438.327
 21
25.5366
  0
LINE
  8
0
 10
438.327
 20
25.5366
 11
438.25
 21
27
  0
LINE
  8
0
 10
438.25
 20
27
 11
438.327
 21
28.4634
  0
LINE
  8
0
 10
438.327
 20
28.4634
 11
438.556
 21
29.9108
  0
LINE
  8
0
 10
438.556
 20
29.9108
 11
438.935
 21
31.3262
  0
LINE
  8
0
 10
438.935
 20
31.3262
 11
439.46
 21
32.6943
  0
LINE
  8
0
 10
439.46
 20
32.6943
 11
440.126
 21
34
  0
LINE
  8
0
 10
440.126
 20
34
 11
440.924
 21
35.229
  0
LINE
  8
0
 10
440.924
 20
35.229
 11
441.846
 21
36.3678
  0
LINE
  8
0
 10
441.846
 20
36.3678
 11
442.882
 21
37.404
  0
LINE
  8
0
 10
442.882
 20
37.404
 11
444.021
 21
38.3262
  0
LINE
  8
0
 10
444.021
 20
38.3262
 11
445.25
 21
39.1243
  0
LINE
  8
0
 10
445.25
 20
39.1243
 11
446.556
 21
39.7896
  0
LINE
  8
0
 10
446.556
 20
39.7896
 11
447.924
 21
40.3148
  0
LINE
  8
0
 10
447.924
 20
40.3148
 11
449.339
 21
40.6941
  0
LINE
  8
0
 10
449.339
 20
40.6941
 11
450.787
 21
40.9233
  0
LINE
  8
0
 10
450.787
 20
40.9233
 11
452.25
 21
41
  0
LINE
  8
0
 10
452.25
 20
41
 11
453.713
 21
40.9233
  0
LINE
  8
0
 10
453.713
 20
40.9233
 11
455.161
 21
40.6941
  0
LINE
  8
0
 10
455.161
 20
40.6941
 11
456.576
 21
40.3148
  0
LINE
  8
0
 10
456.576
 20
40.3148
 11
457.944
 21
39.7896
  0
LINE
  8
0
 10
457.944
 20
39.7896
 11
459.25
 21
39.1243
  0
LINE
  8
0
 10
459.25
 20
39.1243
 11
460.479
 21
38.3262
  0
LINE
  8
0
 10
460.479
 20
38.3262
 11
461.618
 21
37.404
  0
LINE
  8
0
 10
461.618
 20
37.404
 11
462.654
 21
36.3678
  0
LINE
  8
0
 10
462.654
 20
36.3678
 11
463.576
 21
35.229
  0
LINE
  8
0
 10
463.576
 20
35.229
 11
464.374
 21
34
  0
LINE
  8
0
 10
464.374
 20
34
 11
465.04
 21
32.6943
  0
LINE
  8
0
 10
465.04
 20
32.6943
 11
465.565
 21
31.3262
  0
LINE
  8
0
 10
465.565
 20
31.3262
 11
465.944
 21
29.9108
  0
LINE
  8
0
 10
465.944
 20
29.9108
 11
466.173
 21
28.4634
  0
LINE
  8
0
 10
466.173
 20
28.4634
 11
466.25
 21
27
  0
LINE
  8
0
 10
466.25
 20
27
 11
466.173
 21
25.5366
  0
LINE
  8
0
 10
466.173
 20
25.5366
 11
465.944
 21
24.0892
  0
LINE
  8
0
 10
465.944
 20
24.0892
 11
465.565
 21
22.6738
  0
LINE
  8
0
 10
465.565
 20
22.6738
 11
465.04
 21
21.3057
  0
LINE
  8
0
 10
465.04
 20
21.3057
 11
464.374
 21
20
  0
LINE
  8
0
 10
464.374
 20
20
 11
463.576
 21
18.771
  0
LINE
  8
0
 10
463.576
 20
18.771
 11
462.654
 21
17.6322
  0
LINE
  8
0
 10
462.654
 20
17.6322
 11
461.618
 21
16.596
  0
LINE
  8
0
 10
461.618
 20
16.596
 11
460.479
 21
15.6738
  0
LINE
  8
0
 10
460.479
 20
15.6738
 11
459.25
 21
14.8756
  0
LINE
  8
0
 10
459.25
 20
14.8756
 11
457.944
 21
14.2104
  0
LINE
  8
0
 10
457.944
 20
14.2104
 11
456.576
 21
13.6852
  0
LINE
  8
0
 10
456.576
 20
13.6852
 11
455.161
 21
13.3059
  0
LINE
  8
0
 10
455.161
 20
13.3059
 11
453.713
 21
13.0767
  0
LINE
  8
0
 10
453.713
 20
13.0767
 11
452.25
 21
13
  0
LINE
  8
0
 10
452.25
 20
13
 11
450.787
 21
13.0767
  0
LINE
  8
0
 10
-64.6908
 20
18.0493
 11
-65.6212
 21
18.1967
  0
LINE
  8
0
 10
-65.6212
 20
18.1967
 11
-66.5311
 21
18.4405
  0
LINE
  8
0
 10
-66.5311
 20
18.4405
 11
-67.4106
 21
18.7781
  0
LINE
  8
0
 10
-67.4106
 20
18.7781
 11
-68.25
 21
19.2058
  0
LINE
  8
0
 10
-68.25
 20
19.2058
 11
-69.0401
 21
19.7189
  0
LINE
  8
0
 10
-69.0401
 20
19.7189
 11
-69.7722
 21
20.3117
  0
LINE
  8
0
 10
-69.7722
 20
20.3117
 11
-70.4383
 21
20.9778
  0
LINE
  8
0
 10
-70.4383
 20
20.9778
 11
-71.0311
 21
21.7099
  0
LINE
  8
0
 10
-71.0311
 20
21.7099
 11
-71.5442
 21
22.5
  0
LINE
  8
0
 10
-71.5442
 20
22.5
 11
-71.9719
 21
23.3394
  0
LINE
  8
0
 10
-71.9719
 20
23.3394
 11
-72.3095
 21
24.2189
  0
LINE
  8
0
 10
-72.3095
 20
24.2189
 11
-72.5533
 21
25.1288
  0
LINE
  8
0
 10
-72.5533
 20
25.1288
 11
-72.7007
 21
26.0592
  0
LINE
  8
0
 10
-72.7007
 20
26.0592
 11
-72.75
 21
27
  0
LINE
  8
0
 10
-72.75
 20
27
 11
-72.7007
 21
27.9408
  0
LINE
  8
0
 10
-72.7007
 20
27.9408
 11
-72.5533
 21
28.8712
  0
LINE
  8
0
 10
-72.5533
 20
28.8712
 11
-72.3095
 21
29.7811
  0
LINE
  8
0
 10
-72.3095
 20
29.7811
 11
-71.9719
 21
30.6606
  0
LINE
  8
0
 10
-71.9719
 20
30.6606
 11
-71.5442
 21
31.5
  0
LINE
  8
0
 10
-71.5442
 20
31.5
 11
-71.0311
 21
32.2901
  0
LINE
  8
0
 10
-71.0311
 20
32.2901
 11
-70.4383
 21
33.0222
  0
LINE
  8
0
 10
-70.4383
 20
33.0222
 11
-69.7722
 21
33.6883
  0
LINE
  8
0
 10
-69.7722
 20
33.6883
 11
-69.0401
 21
34.2811
  0
LINE
  8
0
 10
-69.0401
 20
34.2811
 11
-68.25
 21
34.7942
  0
LINE
  8
0
 10
-68.25
 20
34.7942
 11
-67.4106
 21
35.2219
  0
LINE
  8
0
 10
-67.4106
 20
35.2219
 11
-66.5311
 21
35.5595
  0
LINE
  8
0
 10
-66.5311
 20
35.5595
 11
-65.6212
 21
35.8033
  0
LINE
  8
0
 10
-65.6212
 20
35.8033
 11
-64.6908
 21
35.9507
  0
LINE
  8
0
 10
-64.6908
 20
35.9507
 11
-63.75
 21
36
  0
LINE
  8
0
 10
-63.75
 20
36
 11
-62.8092
 21
35.9507
  0
LINE
  8
0
 10
-62.8092
 20
35.9507
 11
-61.8788
 21
35.8033
  0
LINE
  8
0
 10
-61.8788
 20
35.8033
 11
-60.9689
 21
35.5595
  0
LINE
  8
0
 10
-60.9689
 20
35.5595
 11
-60.0894
 21
35.2219
  0
LINE
  8
0
 10
-60.0894
 20
35.2219
 11
-59.25
 21
34.7942
  0
LINE
  8
0
 10
-59.25
 20
34.7942
 11
-58.4599
 21
34.2811
  0
LINE
  8
0
 10
-58.4599
 20
34.2811
 11
-57.7278
 21
33.6883
  0
LINE
  8
0
 10
-57.7278
 20
33.6883
 11
-57.0617
 21
33.0222
  0
LINE
  8
0
 10
-57.0617
 20
33.0222
 11
-56.4689
 21
32.2901
  0
LINE
  8
0
 10
-56.4689
 20
32.2901
 11
-55.9558
 21
31.5
  0
LINE
  8
0
 10
-55.9558
 20
31.5
 11
-55.5281
 21
30.6606
  0
LINE
  8
0
 10
-55.5281
 20
30.6606
 11
-55.1905
 21
29.7811
  0
LINE
  8
0
 10
-55.1905
 20
29.7811
 11
-54.9467
 21
28.8712
  0
LINE
  8
0
 10
-54.9467
 20
28.8712
 11
-54.7993
 21
27.9408
  0
LINE
  8
0
 10
-54.7993
 20
27.9408
 11
-54.75
 21
27
  0
LINE
  8
0
 10
-54.75
 20
27
 11
-54.7993
 21
26.0592
  0
LINE
  8
0
 10
-54.7993
 20
26.0592
 11
-54.9467
 21
25.1288
  0
LINE
  8
0
 10
-54.9467
 20
25.1288
 11
-55.1905
 21
24.2189
  0
LINE
  8
0
 10
-55.1905
 20
24.2189
 11
-55.5281
 21
23.3394
  0
LINE
  8
0
 10
-55.5281
 20
23.3394
 11
-55.9558
 21
22.5
  0
LINE
  8
0
 10
-55.9558
 20
22.5
 11
-56.4689
 21
21.7099
  0
LINE
  8
0
 10
-56.4689
 20
21.7099
 11
-57.0617
 21
20.9778
  0
LINE
  8
0
 10
-57.0617
 20
20.9778
 11
-57.7278
 21
20.3117
  0
LINE
  8
0
 10
-57.7278
 20
20.3117
 11
-58.4599
 21
19.7189
  0
LINE
  8
0
 10
-58.4599
 20
19.7189
 11
-59.25
 21
19.2058
  0
LINE
  8
0
 10
-59.25
 20
19.2058
 11
-60.0894
 21
18.7781
  0
LINE
  8
0
 10
-60.0894
 20
18.7781
 11
-60.9689
 21
18.4405
  0
LINE
  8
0
 10
-60.9689
 20
18.4405
 11
-61.8788
 21
18.1967
  0
LINE
  8
0
 10
-61.8788
 20
18.1967
 11
-62.8092
 21
18.0493
  0
LINE
  8
0
 10
-62.8092
 20
18.0493
 11
-63.75
 21
18
  0
LINE
  8
0
 10
-63.75
 20
18
 11
-64.6908
 21
18.0493
  0
LINE
  8
0
 10
285.309
 20
18.0493
 11
284.379
 21
18.1967
  0
LINE
  8
0
 10
284.379
 20
18.1967
 11
283.469
 21
18.4405
  0
LINE
  8
0
 10
283.469
 20
18.4405
 11
282.589
 21
18.7781
  0
LINE
  8
0
 10
282.589
 20
18.7781
 11
281.75
 21
19.2058
  0
LINE
  8
0
 10
281.75
 20
19.2058
 11
280.96
 21
19.7189
  0
LINE
  8
0
 10
280.96
 20
19.7189
 11
280.228
 21
20.3117
  0
LINE
  8
0
 10
280.228
 20
20.3117
 11
279.562
 21
20.9778
  0
LINE
  8
0
 10
279.562
 20
20.9778
 11
278.969
 21
21.7099
  0
LINE
  8
0
 10
278.969
 20
21.7099
 11
278.456
 21
22.5
  0
LINE
  8
0
 10
278.456
 20
22.5
 11
278.028
 21
23.3394
  0
LINE
  8
0
 10
278.028
 20
23.3394
 11
277.691
 21
24.2189
  0
LINE
  8
0
 10
277.691
 20
24.2189
 11
277.447
 21
25.1288
  0
LINE
  8
0
 10
277.447
 20
25.1288
 11
277.299
 21
26.0592
  0
LINE
  8
0
 10
277.299
 20
26.0592
 11
277.25
 21
27
  0
LINE
  8
0
 10
277.25
 20
27
 11
277.299
 21
27.9408
  0
LINE
  8
0
 10
277.299
 20
27.9408
 11
277.447
 21
28.8712
  0
LINE
  8
0
 10
277.447
 20
28.8712
 11
277.691
 21
29.7811
  0
LINE
  8
0
 10
277.691
 20
29.7811
 11
278.028
 21
30.6606
  0
LINE
  8
0
 10
278.028
 20
30.6606
 11
278.456
 21
31.5
  0
LINE
  8
0
 10
278.456
 20
31.5
 11
278.969
 21
32.2901
  0
LINE
  8
0
 10
278.969
 20
32.2901
 11
279.562
 21
33.0222
  0
LINE
  8
0
 10
279.562
 20
33.0222
 11
280.228
 21
33.6883
  0
LINE
  8
0
 10
280.228
 20
33.6883
 11
280.96
 21
34.2811
  0
LINE
  8
0
 10
280.96
 20
34.2811
 11
281.75
 21
34.7942
  0
LINE
  8
0
 10
281.75
 20
34.7942
 11
282.589
 21
35.2219
  0
LINE
  8
0
 10
282.589
 20
35.2219
 11
283.469
 21
35.5595
  0
LINE
  8
0
 10
283.469
 20
35.5595
 11
284.379
 21
35.8033
  0
LINE
  8
0
 10
284.379
 20
35.8033
 11
285.309
 21
35.9507
  0
LINE
  8
0
 10
285.309
 20
35.9507
 11
286.25
 21
36
  0
LINE
  8
0
 10
286.25
 20
36
 11
287.191
 21
35.9507
  0
LINE
  8
0
 10
287.191
 20
35.9507
 11
288.121
 21
35.8033
  0
LINE
  8
0
 10
288.121
 20
35.8033
 11
289.031
 21
35.5595
  0
LINE
  8
0
 10
289.031
 20
35.5595
 11
289.911
 21
35.2219
  0
LINE
  8
0
 10
289.911
 20
35.2219
 11
290.75
 21
34.7942
  0
LINE
  8
0
 10
290.75
 20
34.7942
 11
291.54
 21
34.2811
  0
LINE
  8
0
 10
291.54
 20
34.2811
 11
292.272
 21
33.6883
  0
LINE
  8
0
 10
292.272
 20
33.6883
 11
292.938
 21
33.0222
  0
LINE
  8
0
 10
292.938
 20
33.0222
 11
293.531
 21
32.2901
  0
LINE
  8
0
 10
293.531
 20
32.2901
 11
294.044
 21
31.5
  0
LINE
  8
0
 10
294.044
 20
31.5
 11
294.472
 21
30.6606
  0
LINE
  8
0
 10
294.472
 20
30.6606
 11
294.809
 21
29.7811
  0
LINE
  8
0
 10
294.809
 20
29.7811
 11
295.053
 21
28.8712
  0
LINE
  8
0
 10
295.053
 20
28.8712
 11
295.201
 21
27.9408
  0
LINE
  8
0
 10
295.201
 20
27.9408
 11
295.25
 21
27
  0
LINE
  8
0
 10
295.25
 20
27
 11
295.201
 21
26.0592
  0
LINE
  8
0
 10
295.201
 20
26.0592
 11
295.053
 21
25.1288
  0
LINE
  8
0
 10
295.053
 20
25.1288
 11
294.809
 21
24.2189
  0
LINE
  8
0
 10
294.809
 20
24.2189
 11
294.472
 21
23.3394
  0
LINE
  8
0
 10
294.472
 20
23.3394
 11
294.044
 21
22.5
  0
LINE
  8
0
 10
294.044
 20
22.5
 11
293.531
 21
21.7099
  0
LINE
  8
0
 10
293.531
 20
21.7099
 11
292.938
 21
20.9778
  0
LINE
  8
0
 10
292.938
 20
20.9778
 11
292.272
 21
20.3117
  0
LINE
  8
0
 10
292.272
 20
20.3117
 11
291.54
 21
19.7189
  0
LINE
  8
0
 10
291.54
 20
19.7189
 11
290.75
 21
19.2058
  0
LINE
  8
0
 10
290.75
 20
19.2058
 11
289.911
 21
18.7781
  0
LINE
  8
0
 10
289.911
 20
18.7781
 11
289.031
 21
18.4405
  0
LINE
  8
0
 10
289.031
 20
18.4405
 11
288.121
 21
18.1967
  0
LINE
  8
0
 10
288.121
 20
18.1967
 11
287.191
 21
18.0493
  0
LINE
  8
0
 10
287.191
 20
18.0493
 11
286.25
 21
18
  0
LINE
  8
0
 10
286.25
 20
18
 11
285.309
 21
18.0493
  0
LINE
  8
0
 10
29.7866
 20
4.07669
 11
28.3392
 21
4.30592
  0
LINE
  8
0
 10
28.3392
 20
4.30592
 11
26.9238
 21
4.6852
  0
LINE
  8
0
 10
26.9238
 20
4.6852
 11
25.5557
 21
5.21036
  0
LINE
  8
0
 10
25.5557
 20
5.21036
 11
24.25
 21
5.87564
  0
LINE
  8
0
 10
24.25
 20
5.87564
 11
23.021
 21
6.67375
  0
LINE
  8
0
 10
23.021
 20
6.67375
 11
21.8822
 21
7.59596
  0
LINE
  8
0
 10
21.8822
 20
7.59596
 11
20.846
 21
8.63216
  0
LINE
  8
0
 10
20.846
 20
8.63216
 11
19.9238
 21
9.771
  0
LINE
  8
0
 10
19.9238
 20
9.771
 11
19.1256
 21
11
  0
LINE
  8
0
 10
19.1256
 20
11
 11
18.4604
 21
12.3057
  0
LINE
  8
0
 10
18.4604
 20
12.3057
 11
17.9352
 21
13.6738
  0
LINE
  8
0
 10
17.9352
 20
13.6738
 11
17.5559
 21
15.0892
  0
LINE
  8
0
 10
17.5559
 20
15.0892
 11
17.3267
 21
16.5366
  0
LINE
  8
0
 10
17.3267
 20
16.5366
 11
17.25
 21
18
  0
LINE
  8
0
 10
17.25
 20
18
 11
17.3267
 21
19.4634
  0
LINE
  8
0
 10
17.3267
 20
19.4634
 11
17.5559
 21
20.9108
  0
LINE
  8
0
 10
17.5559
 20
20.9108
 11
17.9352
 21
22.3262
  0
LINE
  8
0
 10
17.9352
 20
22.3262
 11
18.4604
 21
23.6943
  0
LINE
  8
0
 10
18.4604
 20
23.6943
 11
19.1256
 21
25
  0
LINE
  8
0
 10
19.1256
 20
25
 11
19.9238
 21
26.229
  0
LINE
  8
0
 10
19.9238
 20
26.229
 11
20.846
 21
27.3678
  0
LINE
  8
0
 10
20.846
 20
27.3678
 11
21.8822
 21
28.404
  0
LINE
  8
0
 10
21.8822
 20
28.404
 11
23.021
 21
29.3262
  0
LINE
  8
0
 10
23.021
 20
29.3262
 11
24.25
 21
30.1243
  0
LINE
  8
0
 10
24.25
 20
30.1243
 11
25.5557
 21
30.7896
  0
LINE
  8
0
 10
25.5557
 20
30.7896
 11
26.9238
 21
31.3148
  0
LINE
  8
0
 10
26.9238
 20
31.3148
 11
28.3392
 21
31.6941
  0
LINE
  8
0
 10
28.3392
 20
31.6941
 11
29.7866
 21
31.9233
  0
LINE
  8
0
 10
29.7866
 20
31.9233
 11
31.25
 21
32
  0
LINE
  8
0
 10
31.25
 20
32
 11
32.7134
 21
31.9233
  0
LINE
  8
0
 10
32.7134
 20
31.9233
 11
34.1608
 21
31.6941
  0
LINE
  8
0
 10
34.1608
 20
31.6941
 11
35.5762
 21
31.3148
  0
LINE
  8
0
 10
35.5762
 20
31.3148
 11
36.9443
 21
30.7896
  0
LINE
  8
0
 10
36.9443
 20
30.7896
 11
38.25
 21
30.1243
  0
LINE
  8
0
 10
38.25
 20
30.1243
 11
39.479
 21
29.3262
  0
LINE
  8
0
 10
39.479
 20
29.3262
 11
40.6178
 21
28.404
  0
LINE
  8
0
 10
40.6178
 20
28.404
 11
41.654
 21
27.3678
  0
LINE
  8
0
 10
41.654
 20
27.3678
 11
42.5762
 21
26.229
  0
LINE
  8
0
 10
42.5762
 20
26.229
 11
43.3743
 21
25
  0
LINE
  8
0
 10
43.3743
 20
25
 11
44.0396
 21
23.6943
  0
LINE
  8
0
 10
44.0396
 20
23.6943
 11
44.5648
 21
22.3262
  0
LINE
  8
0
 10
44.5648
 20
22.3262
 11
44.9441
 21
20.9108
  0
LINE
  8
0
 10
44.9441
 20
20.9108
 11
45.1733
 21
19.4634
  0
LINE
  8
0
 10
45.1733
 20
19.4634
 11
45.25
 21
18
  0
LINE
  8
0
 10
45.25
 20
18
 11
45.1733
 21
16.5366
  0
LINE
  8
0
 10
45.1733
 20
16.5366
 11
44.9441
 21
15.0892
  0
LINE
  8
0
 10
44.9441
 20
15.0892
 11
44.5648
 21
13.6738
  0
LINE
  8
0
 10
44.5648
 20
13.6738
 11
44.0396
 21
12.3057
  0
LINE
  8
0
 10
44.0396
 20
12.3057
 11
43.3743
 21
11
  0
LINE
  8
0
 10
43.3743
 20
11
 11
42.5762
 21
9.771
  0
LINE
  8
0
 10
42.5762
 20
9.771
 11
41.654
 21
8.63216
  0
LINE
  8
0
 10
41.654
 20
8.63216
 11
40.6178
 21
7.59596
  0
LINE
  8
0
 10
40.6178
 20
7.59596
 11
39.479
 21
6.67375
  0
LINE
  8
0
 10
39.479
 20
6.67375
 11
38.25
 21
5.87564
  0
LINE
  8
0
 10
38.25
 20
5.87564
 11
36.9443
 21
5.21036
  0
LINE
  8
0
 10
36.9443
 20
5.21036
 11
35.5762
 21
4.6852
  0
LINE
  8
0
 10
35.5762
 20
4.6852
 11
34.1608
 21
4.30592
  0
LINE
  8
0
 10
34.1608
 20
4.30592
 11
32.7134
 21
4.07669
  0
LINE
  8
0
 10
32.7134
 20
4.07669
 11
31.25
 21
4
  0
LINE
  8
0
 10
31.25
 20
4
 11
29.7866
 21
4.07669
  0
LINE
  8
0
 10
379.787
 20
4.07669
 11
378.339
 21
4.30592
  0
LINE
  8
0
 10
378.339
 20
4.30592
 11
376.924
 21
4.6852
  0
LINE
  8
0
 10
376.924
 20
4.6852
 11
375.556
 21
5.21036
  0
LINE
  8
0
 10
375.556
 20
5.21036
 11
374.25
 21
5.87564
  0
LINE
  8
0
 10
374.25
 20
5.87564
 11
373.021
 21
6.67375
  0
LINE
  8
0
 10
373.021
 20
6.67375
 11
371.882
 21
7.59596
  0
LINE
  8
0
 10
371.882
 20
7.59596
 11
370.846
 21
8.63216
  0
LINE
  8
0
 10
370.846
 20
8.63216
 11
369.924
 21
9.771
  0
LINE
  8
0
 10
369.924
 20
9.771
 11
369.126
 21
11
  0
LINE
  8
0
 10
369.126
 20
11
 11
368.46
 21
12.3057
  0
LINE
  8
0
 10
368.46
 20
12.3057
 11
367.935
 21
13.6738
  0
LINE
  8
0
 10
367.935
 20
13.6738
 11
367.556
 21
15.0892
  0
LINE
  8
0
 10
367.556
 20
15.0892
 11
367.327
 21
16.5366
  0
LINE
  8
0
 10
367.327
 20
16.5366
 11
367.25
 21
18
  0
LINE
  8
0
 10
367.25
 20
18
 11
367.327
 21
19.4634
  0
LINE
  8
0
 10
367.327
 20
19.4634
 11
367.556
 21
20.9108
  0
LINE
  8
0
 10
367.556
 20
20.9108
 11
367.935
 21
22.3262
  0
LINE
  8
0
 10
367.935
 20
22.3262
 11
368.46
 21
23.6943
  0
LINE
  8
0
 10
368.46
 20
23.6943
 11
369.126
 21
25
  0
LINE
  8
0
 10
369.126
 20
25
 11
369.924
 21
26.229
  0
LINE
  8
0
 10
369.924
 20
26.229
 11
370.846
 21
27.3678
  0
LINE
  8
0
 10
370.846
 20
27.3678
 11
371.882
 21
28.404
  0
LINE
  8
0
 10
371.882
 20
28.404
 11
373.021
 21
29.3262
  0
LINE
  8
0
 10
373.021
 20
29.3262
 11
374.25
 21
30.1243
  0
LINE
  8
0
 10
374.25
 20
30.1243
 11
375.556
 21
30.7896
  0
LINE
  8
0
 10
375.556
 20
30.7896
 11
376.924
 21
31.3148
  0
LINE
  8
0
 10
376.924
 20
31.3148
 11
378.339
 21
31.6941
  0
LINE
  8
0
 10
378.339
 20
31.6941
 11
379.787
 21
31.9233
  0
LINE
  8
0
 10
379.787
 20
31.9233
 11
381.25
 21
32
  0
LINE
  8
0
 10
381.25
 20
32
 11
382.713
 21
31.9233
  0
LINE
  8
0
 10
382.713
 20
31.9233
 11
384.161
 21
31.6941
  0
LINE
  8
0
 10
384.161
 20
31.6941
 11
385.576
 21
31.3148
  0
LINE
  8
0
 10
385.576
 20
31.3148
 11
386.944
 21
30.7896
  0
LINE
  8
0
 10
386.944
 20
30.7896
 11
388.25
 21
30.1243
  0
LINE
  8
0
 10
388.25
 20
30.1243
 11
389.479
 21
29.3262
  0
LINE
  8
0
 10
389.479
 20
29.3262
 11
390.618
 21
28.404
  0
LINE
  8
0
 10
390.618
 20
28.404
 11
391.654
 21
27.3678
  0
LINE
  8
0
 10
391.654
 20
27.3678
 11
392.576
 21
26.229
  0
LINE
  8
0
 10
392.576
 20
26.229
 11
393.374
 21
25
  0
LINE
  8
0
 10
393.374
 20
25
 11
394.04
 21
23.6943
  0
LINE
  8
0
 10
394.04
 20
23.6943
 11
394.565
 21
22.3262
  0
LINE
  8
0
 10
394.565
 20
22.3262
 11
394.944
 21
20.9108
  0
LINE
  8
0
 10
394.944
 20
20.9108
 11
395.173
 21
19.4634
  0
LINE
  8
0
 10
395.173
 20
19.4634
 11
395.25
 21
18
  0
LINE
  8
0
 10
395.25
 20
18
 11
395.173
 21
16.5366
  0
LINE
  8
0
 10
395.173
 20
16.5366
 11
394.944
 21
15.0892
  0
LINE
  8
0
 10
394.944
 20
15.0892
 11
394.565
 21
13.6738
  0
LINE
  8
0
 10
394.565
 20
13.6738
 11
394.04
 21
12.3057
  0
LINE
  8
0
 10
394.04
 20
12.3057
 11
393.374
 21
11
  0
LINE
  8
0
 10
393.374
 20
11
 11
392.576
 21
9.771
  0
LINE
  8
0
 10
392.576
 20
9.771
 11
391.654
 21
8.63216
  0
LINE
  8
0
 10
391.654
 20
8.63216
 11
390.618
 21
7.59596
  0
LINE
  8
0
 10
390.618
 20
7.59596
 11
389.479
 21
6.67375
  0
LINE
  8
0
 10
389.479
 20
6.67375
 11
388.25
 21
5.87564
  0
LINE
  8
0
 10
388.25
 20
5.87564
 11
386.944
 21
5.21036
  0
LINE
  8
0
 10
386.944
 20
5.21036
 11
385.576
 21
4.6852
  0
LINE
  8
0
 10
385.576
 20
4.6852
 11
384.161
 21
4.30592
  0
LINE
  8
0
 10
384.161
 20
4.30592
 11
382.713
 21
4.07669
  0
LINE
  8
0
 10
382.713
 20
4.07669
 11
381.25
 21
4
  0
LINE
  8
0
 10
381.25
 20
4
 11
379.787
 21
4.07669
  0
LINE
  8
0
 10
-1.46339
 20
-13.9233
 11
-2.91075
 21
-13.6941
  0
LINE
  8
0
 10
-2.91075
 20
-13.6941
 11
-4.32623
 21
-13.3148
  0
LINE
  8
0
 10
-4.32623
 20
-13.3148
 11
-5.69431
 21
-12.7896
  0
LINE
  8
0
 10
-5.69431
 20
-12.7896
 11
-7
 21
-12.1243
  0
LINE
  8
0
 10
-7
 20
-12.1243
 11
-8.22899
 21
-11.3262
  0
LINE
  8
0
 10
-8.22899
 20
-11.3262
 11
-9.36783
 21
-10.404
  0
LINE
  8
0
 10
-9.36783
 20
-10.404
 11
-10.404
 21
-9.36783
  0
LINE
  8
0
 10
-10.404
 20
-9.36783
 11
-11.3262
 21
-8.22899
  0
LINE
  8
0
 10
-11.3262
 20
-8.22899
 11
-12.1243
 21
-7
  0
LINE
  8
0
 10
-12.1243
 20
-7
 11
-12.7896
 21
-5.69431
  0
LINE
  8
0
 10
-12.7896
 20
-5.69431
 11
-13.3148
 21
-4.32623
  0
LINE
  8
0
 10
-13.3148
 20
-4.32623
 11
-13.6941
 21
-2.91075
  0
LINE
  8
0
 10
-13.6941
 20
-2.91075
 11
-13.9233
 21
-1.46339
  0
LINE
  8
0
 10
-13.9233
 20
-1.46339
 11
-14
 21
0
  0
LINE
  8
0
 10
-14
 20
0
 11
-13.9233
 21
1.46339
  0
LINE
  8
0
 10
-13.9233
 20
1.46339
 11
-13.6941
 21
2.91075
  0
LINE
  8
0
 10
-13.6941
 20
2.91075
 11
-13.3148
 21
4.32623
  0
LINE
  8
0
 10
-13.3148
 20
4.32623
 11
-12.7896
 21
5.69431
  0
LINE
  8
0
 10
-12.7896
 20
5.69431
 11
-12.1243
 21
7
  0
LINE
  8
0
 10
-12.1243
 20
7
 11
-11.3262
 21
8.22899
  0
LINE
  8
0
 10
-11.3262
 20
8.22899
 11
-10.404
 21
9.36783
  0
LINE
  8
0
 10
-10.404
 20
9.36783
 11
-9.36783
 21
10.404
  0
LINE
  8
0
 10
-9.36783
 20
10.404
 11
-8.22899
 21
11.3262
  0
LINE
  8
0
 10
-8.22899
 20
11.3262
 11
-7
 21
12.1243
  0
LINE
  8
0
 10
-7
 20
12.1243
 11
-5.69431
 21
12.7896
  0
LINE
  8
0
 10
-5.69431
 20
12.7896
 11
-4.32623
 21
13.3148
  0
LINE
  8
0
 10
-4.32623
 20
13.3148
 11
-2.91075
 21
13.6941
  0
LINE
  8
0
 10
-2.91075
 20
13.6941
 11
-1.46339
 21
13.9233
  0
LINE
  8
0
 10
-1.46339
 20
13.9233
 11
0
 21
14
  0
LINE
  8
0
 10
0
 20
14
 11
1.46339
 21
13.9233
  0
LINE
  8
0
 10
1.46339
 20
13.9233
 11
2.91075
 21
13.6941
  0
LINE
  8
0
 10
2.91075
 20
13.6941
 11
4.32623
 21
13.3148
  0
LINE
  8
0
 10
4.32623
 20
13.3148
 11
5.69431
 21
12.7896
  0
LINE
  8
0
 10
5.69431
 20
12.7896
 11
7
 21
12.1243
  0
LINE
  8
0
 10
7
 20
12.1243
 11
8.22899
 21
11.3262
  0
LINE
  8
0
 10
8.22899
 20
11.3262
 11
9.36783
 21
10.404
  0
LINE
  8
0
 10
9.36783
 20
10.404
 11
10.404
 21
9.36783
  0
LINE
  8
0
 10
10.404
 20
9.36783
 11
11.3262
 21
8.22899
  0
LINE
  8
0
 10
11.3262
 20
8.22899
 11
12.1243
 21
7
  0
LINE
  8
0
 10
12.1243
 20
7
 11
12.7896
 21
5.69431
  0
LINE
  8
0
 10
12.7896
 20
5.69431
 11
13.3148
 21
4.32623
  0
LINE
  8
0
 10
13.3148
 20
4.32623
 11
13.6941
 21
2.91075
  0
LINE
  8
0
 10
13.6941
 20
2.91075
 11
13.9233
 21
1.46339
  0
LINE
  8
0
 10
13.9233
 20
1.46339
 11
14
 21
0
  0
LINE
  8
0
 10
14
 20
0
 11
13.9233
 21
-1.46339
  0
LINE
  8
0
 10
13.9233
 20
-1.46339
 11
13.6941
 21
-2.91075
  0
LINE
  8
0
 10
13.6941
 20
-2.91075
 11
13.3148
 21
-4.32623
  0
LINE
  8
0
 10
13.3148
 20
-4.32623
 11
12.7896
 21
-5.69431
  0
LINE
  8
0
 10
12.7896
 20
-5.69431
 11
12.1243
 21
-7
  0
LINE
  8
0
 10
12.1243
 20
-7
 11
11.3262
 21
-8.22899
  0
LINE
  8
0
 10
11.3262
 20
-8.22899
 11
10.404
 21
-9.36783
  0
LINE
  8
0
 10
10.404
 20
-9.36783
 11
9.36783
 21
-10.404
  0
LINE
  8
0
 10
9.36783
 20
-10.404
 11
8.22899
 21
-11.3262
  0
LINE
  8
0
 10
8.22899
 20
-11.3262
 11
7
 21
-12.1243
  0
LINE
  8
0
 10
7
 20
-12.1243
 11
5.69431
 21
-12.7896
  0
LINE
  8
0
 10
5.69431
 20
-12.7896
 11
4.32623
 21
-13.3148
  0
LINE
  8
0
 10
4.32623
 20
-13.3148
 11
2.91075
 21
-13.6941
  0
LINE
  8
0
 10
2.91075
 20
-13.6941
 11
1.46339
 21
-13.9233
  0
LINE
  8
0
 10
1.46339
 20
-13.9233
 11
0
 21
-14
  0
LINE
  8
0
 10
0
 20
-14
 11
-1.46339
 21
-13.9233
  0
LINE
  8
0
 10
348.537
 20
-13.9233
 11
347.089
 21
-13.6941
  0
LINE
  8
0
 10
347.089
 20
-13.6941
 11
345.674
 21
-13.3148
  0
LINE
  8
0
 10
345.674
 20
-13.3148
 11
344.306
 21
-12.7896
  0
LINE
  8
0
 10
344.306
 20
-12.7896
 11
343
 21
-12.1243
  0
LINE
  8
0
 10
343
 20
-12.1243
 11
341.771
 21
-11.3262
  0
LINE
  8
0
 10
341.771
 20
-11.3262
 11
340.632
 21
-10.404
  0
LINE
  8
0
 10
340.632
 20
-10.404
 11
339.596
 21
-9.36783
  0
LINE
  8
0
 10
339.596
 20
-9.36783
 11
338.674
 21
-8.22899
  0
LINE
  8
0
 10
338.674
 20
-8.22899
 11
337.876
 21
-7
  0
LINE
  8
0
 10
337.876
 20
-7
 11
337.21
 21
-5.69431
  0
LINE
  8
0
 10
337.21
 20
-5.69431
 11
336.685
 21
-4.32623
  0
LINE
  8
0
 10
336.685
 20
-4.32623
 11
336.306
 21
-2.91075
  0
LINE
  8
0
 10
336.306
 20
-2.91075
 11
336.077
 21
-1.46339
  0
LINE
  8
0
 10
336.077
 20
-1.46339
 11
336
 21
0
  0
LINE
  8
0
 10
336
 20
0
 11
336.077
 21
1.46339
  0
LINE
  8
0
 10
336.077
 20
1.46339
 11
336.306
 21
2.91075
  0
LINE
  8
0
 10
336.306
 20
2.91075
 11
336.685
 21
4.32623
  0
LINE
  8
0
 10
336.685
 20
4.32623
 11
337.21
 21
5.69431
  0
LINE
  8
0
 10
337.21
 20
5.69431
 11
337.876
 21
7
  0
LINE
  8
0
 10
337.876
 20
7
 11
338.674
 21
8.22899
  0
LINE
  8
0
 10
338.674
 20
8.22899
 11
339.596
 21
9.36783
  0
LINE
  8
0
 10
339.596
 20
9.36783
 11
340.632
 21
10.404
  0
LINE
  8
0
 10
340.632
 20
10.404
 11
341.771
 21
11.3262
  0
LINE
  8
0
 10
341.771
 20
11.3262
 11
343
 21
12.1243
  0
LINE
  8
0
 10
343
 20
12.1243
 11
344.306
 21
12.7896
  0
LINE
  8
0
 10
344.306
 20
12.7896
 11
345.674
 21
13.3148
  0
LINE
  8
0
 10
345.674
 20
13.3148
 11
347.089
 21
13.6941
  0
LINE
  8
0
 10
347.089
 20
13.6941
 11
348.537
 21
13.9233
  0
LINE
  8
0
 10
348.537
 20
13.9233
 11
350
 21
14
  0
LINE
  8
0
 10
350
 20
14
 11
351.463
 21
13.9233
  0
LINE
  8
0
 10
351.463
 20
13.9233
 11
352.911
 21
13.6941
  0
LINE
  8
0
 10
352.911
 20
13.6941
 11
354.326
 21
13.3148
  0
LINE
  8
0
 10
354.326
 20
13.3148
 11
355.694
 21
12.7896
  0
LINE
  8
0
 10
355.694
 20
12.7896
 11
357
 21
12.1243
  0
LINE
  8
0
 10
357
 20
12.1243
 11
358.229
 21
11.3262
  0
LINE
  8
0
 10
358.229
 20
11.3262
 11
359.368
 21
10.404
  0
LINE
  8
0
 10
359.368
 20
10.404
 11
360.404
 21
9.36783
  0
LINE
  8
0
 10
360.404
 20
9.36783
 11
361.326
 21
8.22899
  0
LINE
  8
0
 10
361.326
 20
8.22899
 11
362.124
 21
7
  0
LINE
  8
0
 10
362.124
 20
7
 11
362.79
 21
5.69431
  0
LINE
  8
0
 10
362.79
 20
5.69431
 11
363.315
 21
4.32623
  0
LINE
  8
0
 10
363.315
 20
4.32623
 11
363.694
 21
2.91075
  0
LINE
  8
0
 10
363.694
 20
2.91075
 11
363.923
 21
1.46339
  0
LINE
  8
0
 10
363.923
 20
1.46339
 11
364
 21
0
  0
LINE
  8
0
 10
364
 20
0
 11
363.923
 21
-1.46339
  0
LINE
  8
0
 10
363.923
 20
-1.46339
 11
363.694
 21
-2.91075
  0
LINE
  8
0
 10
363.694
 20
-2.91075
 11
363.315
 21
-4.32623
  0
LINE
  8
0
 10
363.315
 20
-4.32623
 11
362.79
 21
-5.69431
  0
LINE
  8
0
 10
362.79
 20
-5.69431
 11
362.124
 21
-7
  0
LINE
  8
0
 10
362.124
 20
-7
 11
361.326
 21
-8.22899
  0
LINE
  8
0
 10
361.326
 20
-8.22899
 11
360.404
 21
-9.36783
  0
LINE
  8
0
 10
360.404
 20
-9.36783
 11
359.368
 21
-10.404
  0
LINE
  8
0
 10
359.368
 20
-10.404
 11
358.229
 21
-11.3262
  0
LINE
  8
0
 10
358.229
 20
-11.3262
 11
357
 21
-12.1243
  0
LINE
  8
0
 10
357
 20
-12.1243
 11
355.694
 21
-12.7896
  0
LINE
  8
0
 10
355.694
 20
-12.7896
 11
354.326
 21
-13.3148
  0
LINE
  8
0
 10
354.326
 20
-13.3148
 11
352.911
 21
-13.6941
  0
LINE
  8
0
 10
352.911
 20
-13.6941
 11
351.463
 21
-13.9233
  0
LINE
  8
0
 10
351.463
 20
-13.9233
 11
350
 21
-14
  0
LINE
  8
0
 10
350
 20
-14
 11
348.537
 21
-13.9233
  0
LINE
  8
0
 10
-83.9613
 20
-16.5363
 11
-84.2198
 21
-16.4954
  0
LINE
  8
0
 10
-84.2198
 20
-16.4954
 11
-84.4725
 21
-16.4276
  0
LINE
  8
0
 10
-84.4725
 20
-16.4276
 11
-84.7168
 21
-16.3339
  0
LINE
  8
0
 10
-84.7168
 20
-16.3339
 11
-84.95
 21
-16.2151
  0
LINE
  8
0
 10
-84.95
 20
-16.2151
 11
-85.1694
 21
-16.0725
  0
LINE
  8
0
 10
-85.1694
 20
-16.0725
 11
-85.3728
 21
-15.9079
  0
LINE
  8
0
 10
-85.3728
 20
-15.9079
 11
-85.5579
 21
-15.7228
  0
LINE
  8
0
 10
-85.5579
 20
-15.7228
 11
-85.7225
 21
-15.5195
  0
LINE
  8
0
 10
-85.7225
 20
-15.5195
 11
-85.8651
 21
-15.3
  0
LINE
  8
0
 10
-85.8651
 20
-15.3
 11
-85.9839
 21
-15.0668
  0
LINE
  8
0
 10
-85.9839
 20
-15.0668
 11
-86.0776
 21
-14.8225
  0
LINE
  8
0
 10
-86.0776
 20
-14.8225
 11
-86.1454
 21
-14.5698
  0
LINE
  8
0
 10
-86.1454
 20
-14.5698
 11
-86.1863
 21
-14.3113
  0
LINE
  8
0
 10
-86.1863
 20
-14.3113
 11
-86.2
 21
-14.05
  0
LINE
  8
0
 10
-86.2
 20
-14.05
 11
-86.1863
 21
-13.7887
  0
LINE
  8
0
 10
-86.1863
 20
-13.7887
 11
-86.1454
 21
-13.5302
  0
LINE
  8
0
 10
-86.1454
 20
-13.5302
 11
-86.0776
 21
-13.2775
  0
LINE
  8
0
 10
-86.0776
 20
-13.2775
 11
-85.9839
 21
-13.0332
  0
LINE
  8
0
 10
-85.9839
 20
-13.0332
 11
-85.8651
 21
-12.8
  0
LINE
  8
0
 10
-85.8651
 20
-12.8
 11
-85.7225
 21
-12.5805
  0
LINE
  8
0
 10
-85.7225
 20
-12.5805
 11
-85.5579
 21
-12.3772
  0
LINE
  8
0
 10
-85.5579
 20
-12.3772
 11
-85.3728
 21
-12.1921
  0
LINE
  8
0
 10
-85.3728
 20
-12.1921
 11
-85.1694
 21
-12.0275
  0
LINE
  8
0
 10
-85.1694
 20
-12.0275
 11
-84.95
 21
-11.8849
  0
LINE
  8
0
 10
-84.95
 20
-11.8849
 11
-84.7168
 21
-11.7661
  0
LINE
  8
0
 10
-84.7168
 20
-11.7661
 11
-84.4725
 21
-11.6723
  0
LINE
  8
0
 10
-84.4725
 20
-11.6723
 11
-84.2198
 21
-11.6046
  0
LINE
  8
0
 10
-84.2198
 20
-11.6046
 11
-83.9613
 21
-11.5637
  0
LINE
  8
0
 10
-83.9613
 20
-11.5637
 11
-83.7
 21
-11.55
  0
LINE
  8
0
 10
-83.7
 20
-11.55
 11
-83.4387
 21
-11.5637
  0
LINE
  8
0
 10
-83.4387
 20
-11.5637
 11
-83.1802
 21
-11.6046
  0
LINE
  8
0
 10
-83.1802
 20
-11.6046
 11
-82.9274
 21
-11.6723
  0
LINE
  8
0
 10
-82.9274
 20
-11.6723
 11
-82.6832
 21
-11.7661
  0
LINE
  8
0
 10
-82.6832
 20
-11.7661
 11
-82.45
 21
-11.8849
  0
LINE
  8
0
 10
-82.45
 20
-11.8849
 11
-82.2305
 21
-12.0275
  0
LINE
  8
0
 10
-82.2305
 20
-12.0275
 11
-82.0272
 21
-12.1921
  0
LINE
  8
0
 10
-82.0272
 20
-12.1921
 11
-81.8421
 21
-12.3772
  0
LINE
  8
0
 10
-81.8421
 20
-12.3772
 11
-81.6774
 21
-12.5805
  0
LINE
  8
0
 10
-81.6774
 20
-12.5805
 11
-81.5349
 21
-12.8
  0
LINE
  8
0
 10
-81.5349
 20
-12.8
 11
-81.4161
 21
-13.0332
  0
LINE
  8
0
 10
-81.4161
 20
-13.0332
 11
-81.3224
 21
-13.2775
  0
LINE
  8
0
 10
-81.3224
 20
-13.2775
 11
-81.2546
 21
-13.5302
  0
LINE
  8
0
 10
-81.2546
 20
-13.5302
 11
-81.2137
 21
-13.7887
  0
LINE
  8
0
 10
-81.2137
 20
-13.7887
 11
-81.2
 21
-14.05
  0
LINE
  8
0
 10
-81.2
 20
-14.05
 11
-81.2137
 21
-14.3113
  0
LINE
  8
0
 10
-81.2137
 20
-14.3113
 11
-81.2546
 21
-14.5698
  0
LINE
  8
0
 10
-81.2546
 20
-14.5698
 11
-81.3224
 21
-14.8225
  0
LINE
  8
0
 10
-81.3224
 20
-14.8225
 11
-81.4161
 21
-15.0668
  0
LINE
  8
0
 10
-81.4161
 20
-15.0668
 11
-81.5349
 21
-15.3
  0
LINE
  8
0
 10
-81.5349
 20
-15.3
 11
-81.6774
 21
-15.5195
  0
LINE
  8
0
 10
-81.6774
 20
-15.5195
 11
-81.8421
 21
-15.7228
  0
LINE
  8
0
 10
-81.8421
 20
-15.7228
 11
-82.0272
 21
-15.9079
  0
LINE
  8
0
 10
-82.0272
 20
-15.9079
 11
-82.2305
 21
-16.0725
  0
LINE
  8
0
 10
-82.2305
 20
-16.0725
 11
-82.45
 21
-16.2151
  0
LINE
  8
0
 10
-82.45
 20
-16.2151
 11
-82.6832
 21
-16.3339
  0
LINE
  8
0
 10
-82.6832
 20
-16.3339
 11
-82.9274
 21
-16.4276
  0
LINE
  8
0
 10
-82.9274
 20
-16.4276
 11
-83.1802
 21
-16.4954
  0
LINE
  8
0
 10
-83.1802
 20
-16.4954
 11
-83.4387
 21
-16.5363
  0
LINE
  8
0
 10
-83.4387
 20
-16.5363
 11
-83.7
 21
-16.55
  0
LINE
  8
0
 10
-83.7
 20
-16.55
 11
-83.9613
 21
-16.5363
  0
LINE
  8
0
 10
-44.0613
 20
-16.5363
 11
-44.3198
 21
-16.4954
  0
LINE
  8
0
 10
-44.3198
 20
-16.4954
 11
-44.5726
 21
-16.4276
  0
LINE
  8
0
 10
-44.5726
 20
-16.4276
 11
-44.8168
 21
-16.3339
  0
LINE
  8
0
 10
-44.8168
 20
-16.3339
 11
-45.05
 21
-16.2151
  0
LINE
  8
0
 10
-45.05
 20
-16.2151
 11
-45.2695
 21
-16.0725
  0
LINE
  8
0
 10
-45.2695
 20
-16.0725
 11
-45.4728
 21
-15.9079
  0
LINE
  8
0
 10
-45.4728
 20
-15.9079
 11
-45.6579
 21
-15.7228
  0
LINE
  8
0
 10
-45.6579
 20
-15.7228
 11
-45.8226
 21
-15.5195
  0
LINE
  8
0
 10
-45.8226
 20
-15.5195
 11
-45.9651
 21
-15.3
  0
LINE
  8
0
 10
-45.9651
 20
-15.3
 11
-46.0839
 21
-15.0668
  0
LINE
  8
0
 10
-46.0839
 20
-15.0668
 11
-46.1776
 21
-14.8225
  0
LINE
  8
0
 10
-46.1776
 20
-14.8225
 11
-46.2454
 21
-14.5698
  0
LINE
  8
0
 10
-46.2454
 20
-14.5698
 11
-46.2863
 21
-14.3113
  0
LINE
  8
0
 10
-46.2863
 20
-14.3113
 11
-46.3
 21
-14.05
  0
LINE
  8
0
 10
-46.3
 20
-14.05
 11
-46.2863
 21
-13.7887
  0
LINE
  8
0
 10
-46.2863
 20
-13.7887
 11
-46.2454
 21
-13.5302
  0
LINE
  8
0
 10
-46.2454
 20
-13.5302
 11
-46.1776
 21
-13.2775
  0
LINE
  8
0
 10
-46.1776
 20
-13.2775
 11
-46.0839
 21
-13.0332
  0
LINE
  8
0
 10
-46.0839
 20
-13.0332
 11
-45.9651
 21
-12.8
  0
LINE
  8
0
 10
-45.9651
 20
-12.8
 11
-45.8226
 21
-12.5805
  0
LINE
  8
0
 10
-45.8226
 20
-12.5805
 11
-45.6579
 21
-12.3772
  0
LINE
  8
0
 10
-45.6579
 20
-12.3772
 11
-45.4728
 21
-12.1921
  0
LINE
  8
0
 10
-45.4728
 20
-12.1921
 11
-45.2695
 21
-12.0275
  0
LINE
  8
0
 10
-45.2695
 20
-12.0275
 11
-45.05
 21
-11.8849
  0
LINE
  8
0
 10
-45.05
 20
-11.8849
 11
-44.8168
 21
-11.7661
  0
LINE
  8
0
 10
-44.8168
 20
-11.7661
 11
-44.5726
 21
-11.6723
  0
LINE
  8
0
 10
-44.5726
 20
-11.6723
 11
-44.3198
 21
-11.6046
  0
LINE
  8
0
 10
-44.3198
 20
-11.6046
 11
-44.0613
 21
-11.5637
  0
LINE
  8
0
 10
-44.0613
 20
-11.5637
 11
-43.8
 21
-11.55
  0
LINE
  8
0
 10
-43.8
 20
-11.55
 11
-43.5387
 21
-11.5637
  0
LINE
  8
0
 10
-43.5387
 20
-11.5637
 11
-43.2802
 21
-11.6046
  0
LINE
  8
0
 10
-43.2802
 20
-11.6046
 11
-43.0275
 21
-11.6723
  0
LINE
  8
0
 10
-43.0275
 20
-11.6723
 11
-42.7832
 21
-11.7661
  0
LINE
  8
0
 10
-42.7832
 20
-11.7661
 11
-42.55
 21
-11.8849
  0
LINE
  8
0
 10
-42.55
 20
-11.8849
 11
-42.3306
 21
-12.0275
  0
LINE
  8
0
 10
-42.3306
 20
-12.0275
 11
-42.1272
 21
-12.1921
  0
LINE
  8
0
 10
-42.1272
 20
-12.1921
 11
-41.9421
 21
-12.3772
  0
LINE
  8
0
 10
-41.9421
 20
-12.3772
 11
-41.7775
 21
-12.5805
  0
LINE
  8
0
 10
-41.7775
 20
-12.5805
 11
-41.6349
 21
-12.8
  0
LINE
  8
0
 10
-41.6349
 20
-12.8
 11
-41.5161
 21
-13.0332
  0
LINE
  8
0
 10
-41.5161
 20
-13.0332
 11
-41.4224
 21
-13.2775
  0
LINE
  8
0
 10
-41.4224
 20
-13.2775
 11
-41.3546
 21
-13.5302
  0
LINE
  8
0
 10
-41.3546
 20
-13.5302
 11
-41.3137
 21
-13.7887
  0
LINE
  8
0
 10
-41.3137
 20
-13.7887
 11
-41.3
 21
-14.05
  0
LINE
  8
0
 10
-41.3
 20
-14.05
 11
-41.3137
 21
-14.3113
  0
LINE
  8
0
 10
-41.3137
 20
-14.3113
 11
-41.3546
 21
-14.5698
  0
LINE
  8
0
 10
-41.3546
 20
-14.5698
 11
-41.4224
 21
-14.8225
  0
LINE
  8
0
 10
-41.4224
 20
-14.8225
 11
-41.5161
 21
-15.0668
  0
LINE
  8
0
 10
-41.5161
 20
-15.0668
 11
-41.6349
 21
-15.3
  0
LINE
  8
0
 10
-41.6349
 20
-15.3
 11
-41.7775
 21
-15.5195
  0
LINE
  8
0
 10
-41.7775
 20
-15.5195
 11
-41.9421
 21
-15.7228
  0
LINE
  8
0
 10
-41.9421
 20
-15.7228
 11
-42.1272
 21
-15.9079
  0
LINE
  8
0
 10
-42.1272
 20
-15.9079
 11
-42.3306
 21
-16.0725
  0
LINE
  8
0
 10
-42.3306
 20
-16.0725
 11
-42.55
 21
-16.2151
  0
LINE
  8
0
 10
-42.55
 20
-16.2151
 11
-42.7832
 21
-16.3339
  0
LINE
  8
0
 10
-42.7832
 20
-16.3339
 11
-43.0275
 21
-16.4276
  0
LINE
  8
0
 10
-43.0275
 20
-16.4276
 11
-43.2802
 21
-16.4954
  0
LINE
  8
0
 10
-43.2802
 20
-16.4954
 11
-43.5387
 21
-16.5363
  0
LINE
  8
0
 10
-43.5387
 20
-16.5363
 11
-43.8
 21
-16.55
  0
LINE
  8
0
 10
-43.8
 20
-16.55
 11
-44.0613
 21
-16.5363
  0
LINE
  8
0
 10
305.939
 20
-16.5363
 11
305.68
 21
-16.4954
  0
LINE
  8
0
 10
305.68
 20
-16.4954
 11
305.427
 21
-16.4276
  0
LINE
  8
0
 10
305.427
 20
-16.4276
 11
305.183
 21
-16.3339
  0
LINE
  8
0
 10
305.183
 20
-16.3339
 11
304.95
 21
-16.2151
  0
LINE
  8
0
 10
304.95
 20
-16.2151
 11
304.731
 21
-16.0725
  0
LINE
  8
0
 10
304.731
 20
-16.0725
 11
304.527
 21
-15.9079
  0
LINE
  8
0
 10
304.527
 20
-15.9079
 11
304.342
 21
-15.7228
  0
LINE
  8
0
 10
304.342
 20
-15.7228
 11
304.177
 21
-15.5195
  0
LINE
  8
0
 10
304.177
 20
-15.5195
 11
304.035
 21
-15.3
  0
LINE
  8
0
 10
304.035
 20
-15.3
 11
303.916
 21
-15.0668
  0
LINE
  8
0
 10
303.916
 20
-15.0668
 11
303.822
 21
-14.8225
  0
LINE
  8
0
 10
303.822
 20
-14.8225
 11
303.755
 21
-14.5698
  0
LINE
  8
0
 10
303.755
 20
-14.5698
 11
303.714
 21
-14.3113
  0
LINE
  8
0
 10
303.714
 20
-14.3113
 11
303.7
 21
-14.05
  0
LINE
  8
0
 10
303.7
 20
-14.05
 11
303.714
 21
-13.7887
  0
LINE
  8
0
 10
303.714
 20
-13.7887
 11
303.755
 21
-13.5302
  0
LINE
  8
0
 10
303.755
 20
-13.5302
 11
303.822
 21
-13.2775
  0
LINE
  8
0
 10
303.822
 20
-13.2775
 11
303.916
 21
-13.0332
  0
LINE
  8
0
 10
303.916
 20
-13.0332
 11
304.035
 21
-12.8
  0
LINE
  8
0
 10
304.035
 20
-12.8
 11
304.177
 21
-12.5805
  0
LINE
  8
0
 10
304.177
 20
-12.5805
 11
304.342
 21
-12.3772
  0
LINE
  8
0
 10
304.342
 20
-12.3772
 11
304.527
 21
-12.1921
  0
LINE
  8
0
 10
304.527
 20
-12.1921
 11
304.731
 21
-12.0275
  0
LINE
  8
0
 10
304.731
 20
-12.0275
 11
304.95
 21
-11.8849
  0
LINE
  8
0
 10
304.95
 20
-11.8849
 11
305.183
 21
-11.7661
  0
LINE
  8
0
 10
305.183
 20
-11.7661
 11
305.427
 21
-11.6723
  0
LINE
  8
0
 10
305.427
 20
-11.6723
 11
305.68
 21
-11.6046
  0
LINE
  8
0
 10
305.68
 20
-11.6046
 11
305.939
 21
-11.5637
  0
LINE
  8
0
 10
305.939
 20
-11.5637
 11
306.2
 21
-11.55
  0
LINE
  8
0
 10
306.2
 20
-11.55
 11
306.461
 21
-11.5637
  0
LINE
  8
0
 10
306.461
 20
-11.5637
 11
306.72
 21
-11.6046
  0
LINE
  8
0
 10
306.72
 20
-11.6046
 11
306.973
 21
-11.6723
  0
LINE
  8
0
 10
306.973
 20
-11.6723
 11
307.217
 21
-11.7661
  0
LINE
  8
0
 10
307.217
 20
-11.7661
 11
307.45
 21
-11.8849
  0
LINE
  8
0
 10
307.45
 20
-11.8849
 11
307.669
 21
-12.0275
  0
LINE
  8
0
 10
307.669
 20
-12.0275
 11
307.873
 21
-12.1921
  0
LINE
  8
0
 10
307.873
 20
-12.1921
 11
308.058
 21
-12.3772
  0
LINE
  8
0
 10
308.058
 20
-12.3772
 11
308.223
 21
-12.5805
  0
LINE
  8
0
 10
308.223
 20
-12.5805
 11
308.365
 21
-12.8
  0
LINE
  8
0
 10
308.365
 20
-12.8
 11
308.484
 21
-13.0332
  0
LINE
  8
0
 10
308.484
 20
-13.0332
 11
308.578
 21
-13.2775
  0
LINE
  8
0
 10
308.578
 20
-13.2775
 11
308.645
 21
-13.5302
  0
LINE
  8
0
 10
308.645
 20
-13.5302
 11
308.686
 21
-13.7887
  0
LINE
  8
0
 10
308.686
 20
-13.7887
 11
308.7
 21
-14.05
  0
LINE
  8
0
 10
308.7
 20
-14.05
 11
308.686
 21
-14.3113
  0
LINE
  8
0
 10
308.686
 20
-14.3113
 11
308.645
 21
-14.5698
  0
LINE
  8
0
 10
308.645
 20
-14.5698
 11
308.578
 21
-14.8225
  0
LINE
  8
0
 10
308.578
 20
-14.8225
 11
308.484
 21
-15.0668
  0
LINE
  8
0
 10
308.484
 20
-15.0668
 11
308.365
 21
-15.3
  0
LINE
  8
0
 10
308.365
 20
-15.3
 11
308.223
 21
-15.5195
  0
LINE
  8
0
 10
308.223
 20
-15.5195
 11
308.058
 21
-15.7228
  0
LINE
  8
0
 10
308.058
 20
-15.7228
 11
307.873
 21
-15.9079
  0
LINE
  8
0
 10
307.873
 20
-15.9079
 11
307.669
 21
-16.0725
  0
LINE
  8
0
 10
307.669
 20
-16.0725
 11
307.45
 21
-16.2151
  0
LINE
  8
0
 10
307.45
 20
-16.2151
 11
307.217
 21
-16.3339
  0
LINE
  8
0
 10
307.217
 20
-16.3339
 11
306.973
 21
-16.4276
  0
LINE
  8
0
 10
306.973
 20
-16.4276
 11
306.72
 21
-16.4954
  0
LINE
  8
0
 10
306.72
 20
-16.4954
 11
306.461
 21
-16.5363
  0
LINE
  8
0
 10
306.461
 20
-16.5363
 11
306.2
 21
-16.55
  0
LINE
  8
0
 10
306.2
 20
-16.55
 11
305.939
 21
-16.5363
  0
LINE
  8
0
 10
266.039
 20
-16.5363
 11
265.78
 21
-16.4954
  0
LINE
  8
0
 10
265.78
 20
-16.4954
 11
265.527
 21
-16.4276
  0
LINE
  8
0
 10
265.527
 20
-16.4276
 11
265.283
 21
-16.3339
  0
LINE
  8
0
 10
265.283
 20
-16.3339
 11
265.05
 21
-16.2151
  0
LINE
  8
0
 10
265.05
 20
-16.2151
 11
264.831
 21
-16.0725
  0
LINE
  8
0
 10
264.831
 20
-16.0725
 11
264.627
 21
-15.9079
  0
LINE
  8
0
 10
264.627
 20
-15.9079
 11
264.442
 21
-15.7228
  0
LINE
  8
0
 10
264.442
 20
-15.7228
 11
264.277
 21
-15.5195
  0
LINE
  8
0
 10
264.277
 20
-15.5195
 11
264.135
 21
-15.3
  0
LINE
  8
0
 10
264.135
 20
-15.3
 11
264.016
 21
-15.0668
  0
LINE
  8
0
 10
264.016
 20
-15.0668
 11
263.922
 21
-14.8225
  0
LINE
  8
0
 10
263.922
 20
-14.8225
 11
263.855
 21
-14.5698
  0
LINE
  8
0
 10
263.855
 20
-14.5698
 11
263.814
 21
-14.3113
  0
LINE
  8
0
 10
263.814
 20
-14.3113
 11
263.8
 21
-14.05
  0
LINE
  8
0
 10
263.8
 20
-14.05
 11
263.814
 21
-13.7887
  0
LINE
  8
0
 10
263.814
 20
-13.7887
 11
263.855
 21
-13.5302
  0
LINE
  8
0
 10
263.855
 20
-13.5302
 11
263.922
 21
-13.2775
  0
LINE
  8
0
 10
263.922
 20
-13.2775
 11
264.016
 21
-13.0332
  0
LINE
  8
0
 10
264.016
 20
-13.0332
 11
264.135
 21
-12.8
  0
LINE
  8
0
 10
264.135
 20
-12.8
 11
264.277
 21
-12.5805
  0
LINE
  8
0
 10
264.277
 20
-12.5805
 11
264.442
 21
-12.3772
  0
LINE
  8
0
 10
264.442
 20
-12.3772
 11
264.627
 21
-12.1921
  0
LINE
  8
0
 10
264.627
 20
-12.1921
 11
264.831
 21
-12.0275
  0
LINE
  8
0
 10
264.831
 20
-12.0275
 11
265.05
 21
-11.8849
  0
LINE
  8
0
 10
265.05
 20
-11.8849
 11
265.283
 21
-11.7661
  0
LINE
  8
0
 10
265.283
 20
-11.7661
 11
265.527
 21
-11.6723
  0
LINE
  8
0
 10
265.527
 20
-11.6723
 11
265.78
 21
-11.6046
  0
LINE
  8
0
 10
265.78
 20
-11.6046
 11
266.039
 21
-11.5637
  0
LINE
  8
0
 10
266.039
 20
-11.5637
 11
266.3
 21
-11.55
  0
LINE
  8
0
 10
266.3
 20
-11.55
 11
266.561
 21
-11.5637
  0
LINE
  8
0
 10
266.561
 20
-11.5637
 11
266.82
 21
-11.6046
  0
LINE
  8
0
 10
266.82
 20
-11.6046
 11
267.073
 21
-11.6723
  0
LINE
  8
0
 10
267.073
 20
-11.6723
 11
267.317
 21
-11.7661
  0
LINE
  8
0
 10
267.317
 20
-11.7661
 11
267.55
 21
-11.8849
  0
LINE
  8
0
 10
267.55
 20
-11.8849
 11
267.769
 21
-12.0275
  0
LINE
  8
0
 10
267.769
 20
-12.0275
 11
267.973
 21
-12.1921
  0
LINE
  8
0
 10
267.973
 20
-12.1921
 11
268.158
 21
-12.3772
  0
LINE
  8
0
 10
268.158
 20
-12.3772
 11
268.323
 21
-12.5805
  0
LINE
  8
0
 10
268.323
 20
-12.5805
 11
268.465
 21
-12.8
  0
LINE
  8
0
 10
268.465
 20
-12.8
 11
268.584
 21
-13.0332
  0
LINE
  8
0
 10
268.584
 20
-13.0332
 11
268.678
 21
-13.2775
  0
LINE
  8
0
 10
268.678
 20
-13.2775
 11
268.745
 21
-13.5302
  0
LINE
  8
0
 10
268.745
 20
-13.5302
 11
268.786
 21
-13.7887
  0
LINE
  8
0
 10
268.786
 20
-13.7887
 11
268.8
 21
-14.05
  0
LINE
  8
0
 10
268.8
 20
-14.05
 11
268.786
 21
-14.3113
  0
LINE
  8
0
 10
268.786
 20
-14.3113
 11
268.745
 21
-14.5698
  0
LINE
  8
0
 10
268.745
 20
-14.5698
 11
268.678
 21
-14.8225
  0
LINE
  8
0
 10
268.678
 20
-14.8225
 11
268.584
 21
-15.0668
  0
LINE
  8
0
 10
268.584
 20
-15.0668
 11
268.465
 21
-15.3
  0
LINE
  8
0
 10
268.465
 20
-15.3
 11
268.323
 21
-15.5195
  0
LINE
  8
0
 10
268.323
 20
-15.5195
 11
268.158
 21
-15.7228
  0
LINE
  8
0
 10
268.158
 20
-15.7228
 11
267.973
 21
-15.9079
  0
LINE
  8
0
 10
267.973
 20
-15.9079
 11
267.769
 21
-16.0725
  0
LINE
  8
0
 10
267.769
 20
-16.0725
 11
267.55
 21
-16.2151
  0
LINE
  8
0
 10
267.55
 20
-16.2151
 11
267.317
 21
-16.3339
  0
LINE
  8
0
 10
267.317
 20
-16.3339
 11
267.073
 21
-16.4276
  0
LINE
  8
0
 10
267.073
 20
-16.4276
 11
266.82
 21
-16.4954
  0
LINE
  8
0
 10
266.82
 20
-16.4954
 11
266.561
 21
-16.5363
  0
LINE
  8
0
 10
266.561
 20
-16.5363
 11
266.3
 21
-16.55
  0
LINE
  8
0
 10
266.3
 20
-16.55
 11
266.039
 21
-16.5363
  0
ENDSEC
  0
SECTION
  2
OBJECTS
  0
DICTIONARY
  0
ENDSEC
  0
EOF
