  0
SECTION
  2
BLOCKS
  0
ENDSEC
  0
SECTION
  2
ENTITIES
  0
LINE
  8
0
 10
563.333
 20
1166.67
 11
0
 21
1166.67
  0
LINE
  8
0
 10
0
 20
1166.67
 11
0
 21
603.333
  0
LINE
  8
0
 10
0
 20
603.333
 11
563.333
 21
603.333
  0
LINE
  8
0
 10
563.333
 20
603.333
 11
563.333
 21
1166.67
  0
LINE
  8
0
 10
530.166
 20
1161.67
 11
530.166
 21
1163.67
  0
LINE
  8
0
 10
530.166
 20
1163.67
 11
540.166
 21
1163.67
  0
LINE
  8
0
 10
540.166
 20
1163.67
 11
540.166
 21
1161.67
  0
LINE
  8
0
 10
540.166
 20
1161.67
 11
530.166
 21
1161.67
  0
LINE
  8
0
 10
23.1666
 20
1161.67
 11
23.1666
 21
1163.67
  0
LINE
  8
0
 10
23.1666
 20
1163.67
 11
33.1666
 21
1163.67
  0
LINE
  8
0
 10
33.1666
 20
1163.67
 11
33.1666
 21
1161.67
  0
LINE
  8
0
 10
33.1666
 20
1161.67
 11
23.1666
 21
1161.67
  0
LINE
  8
0
 10
473.833
 20
1161.67
 11
473.833
 21
1163.67
  0
LINE
  8
0
 10
473.833
 20
1163.67
 11
483.833
 21
1163.67
  0
LINE
  8
0
 10
483.833
 20
1163.67
 11
483.833
 21
1161.67
  0
LINE
  8
0
 10
483.833
 20
1161.67
 11
473.833
 21
1161.67
  0
LINE
  8
0
 10
79.4999
 20
1161.67
 11
79.4999
 21
1163.67
  0
LINE
  8
0
 10
79.4999
 20
1163.67
 11
89.4999
 21
1163.67
  0
LINE
  8
0
 10
89.4999
 20
1163.67
 11
89.4999
 21
1161.67
  0
LINE
  8
0
 10
89.4999
 20
1161.67
 11
79.4999
 21
1161.67
  0
LINE
  8
0
 10
417.5
 20
1161.67
 11
417.5
 21
1163.67
  0
LINE
  8
0
 10
417.5
 20
1163.67
 11
427.5
 21
1163.67
  0
LINE
  8
0
 10
427.5
 20
1163.67
 11
427.5
 21
1161.67
  0
LINE
  8
0
 10
427.5
 20
1161.67
 11
417.5
 21
1161.67
  0
LINE
  8
0
 10
135.833
 20
1161.67
 11
135.833
 21
1163.67
  0
LINE
  8
0
 10
135.833
 20
1163.67
 11
145.833
 21
1163.67
  0
LINE
  8
0
 10
145.833
 20
1163.67
 11
145.833
 21
1161.67
  0
LINE
  8
0
 10
145.833
 20
1161.67
 11
135.833
 21
1161.67
  0
LINE
  8
0
 10
361.166
 20
1161.67
 11
361.166
 21
1163.67
  0
LINE
  8
0
 10
361.166
 20
1163.67
 11
371.166
 21
1163.67
  0
LINE
  8
0
 10
371.166
 20
1163.67
 11
371.166
 21
1161.67
  0
LINE
  8
0
 10
371.166
 20
1161.67
 11
361.166
 21
1161.67
  0
LINE
  8
0
 10
192.166
 20
1161.67
 11
192.166
 21
1163.67
  0
LINE
  8
0
 10
192.166
 20
1163.67
 11
202.166
 21
1163.67
  0
LINE
  8
0
 10
202.166
 20
1163.67
 11
202.166
 21
1161.67
  0
LINE
  8
0
 10
202.166
 20
1161.67
 11
192.166
 21
1161.67
  0
LINE
  8
0
 10
304.833
 20
1161.67
 11
304.833
 21
1163.67
  0
LINE
  8
0
 10
304.833
 20
1163.67
 11
314.833
 21
1163.67
  0
LINE
  8
0
 10
314.833
 20
1163.67
 11
314.833
 21
1161.67
  0
LINE
  8
0
 10
314.833
 20
1161.67
 11
304.833
 21
1161.67
  0
LINE
  8
0
 10
248.5
 20
1161.67
 11
248.5
 21
1163.67
  0
LINE
  8
0
 10
248.5
 20
1163.67
 11
258.5
 21
1163.67
  0
LINE
  8
0
 10
258.5
 20
1163.67
 11
258.5
 21
1161.67
  0
LINE
  8
0
 10
258.5
 20
1161.67
 11
248.5
 21
1161.67
  0
LINE
  8
0
 10
10
 20
1125
 11
10
 21
1145
  0
LINE
  8
0
 10
10
 20
1145
 11
20
 21
1145
  0
LINE
  8
0
 10
20
 20
1145
 11
20
 21
1125
  0
LINE
  8
0
 10
20
 20
1125
 11
10
 21
1125
  0
LINE
  8
0
 10
558.333
 20
1133.5
 11
558.333
 21
1143.5
  0
LINE
  8
0
 10
558.333
 20
1143.5
 11
560.333
 21
1143.5
  0
LINE
  8
0
 10
560.333
 20
1143.5
 11
560.333
 21
1133.5
  0
LINE
  8
0
 10
560.333
 20
1133.5
 11
558.333
 21
1133.5
  0
LINE
  8
0
 10
3
 20
1133.5
 11
3
 21
1143.5
  0
LINE
  8
0
 10
3
 20
1143.5
 11
5
 21
1143.5
  0
LINE
  8
0
 10
5
 20
1143.5
 11
5
 21
1133.5
  0
LINE
  8
0
 10
5
 20
1133.5
 11
3
 21
1133.5
  0
LINE
  8
0
 10
558.333
 20
1077.17
 11
558.333
 21
1087.17
  0
LINE
  8
0
 10
558.333
 20
1087.17
 11
560.333
 21
1087.17
  0
LINE
  8
0
 10
560.333
 20
1087.17
 11
560.333
 21
1077.17
  0
LINE
  8
0
 10
560.333
 20
1077.17
 11
558.333
 21
1077.17
  0
LINE
  8
0
 10
3
 20
1077.17
 11
3
 21
1087.17
  0
LINE
  8
0
 10
3
 20
1087.17
 11
5
 21
1087.17
  0
LINE
  8
0
 10
5
 20
1087.17
 11
5
 21
1077.17
  0
LINE
  8
0
 10
5
 20
1077.17
 11
3
 21
1077.17
  0
LINE
  8
0
 10
558.333
 20
1020.83
 11
558.333
 21
1030.83
  0
LINE
  8
0
 10
558.333
 20
1030.83
 11
560.333
 21
1030.83
  0
LINE
  8
0
 10
560.333
 20
1030.83
 11
560.333
 21
1020.83
  0
LINE
  8
0
 10
560.333
 20
1020.83
 11
558.333
 21
1020.83
  0
LINE
  8
0
 10
3
 20
1020.83
 11
3
 21
1030.83
  0
LINE
  8
0
 10
3
 20
1030.83
 11
5
 21
1030.83
  0
LINE
  8
0
 10
5
 20
1030.83
 11
5
 21
1020.83
  0
LINE
  8
0
 10
5
 20
1020.83
 11
3
 21
1020.83
  0
LINE
  8
0
 10
558.333
 20
964.499
 11
558.333
 21
974.499
  0
LINE
  8
0
 10
558.333
 20
974.499
 11
560.333
 21
974.499
  0
LINE
  8
0
 10
560.333
 20
974.499
 11
560.333
 21
964.499
  0
LINE
  8
0
 10
560.333
 20
964.499
 11
558.333
 21
964.499
  0
LINE
  8
0
 10
3
 20
964.499
 11
3
 21
974.499
  0
LINE
  8
0
 10
3
 20
974.499
 11
5
 21
974.499
  0
LINE
  8
0
 10
5
 20
974.499
 11
5
 21
964.499
  0
LINE
  8
0
 10
5
 20
964.499
 11
3
 21
964.499
  0
LINE
  8
0
 10
558.333
 20
908.166
 11
558.333
 21
918.166
  0
LINE
  8
0
 10
558.333
 20
918.166
 11
560.333
 21
918.166
  0
LINE
  8
0
 10
560.333
 20
918.166
 11
560.333
 21
908.166
  0
LINE
  8
0
 10
560.333
 20
908.166
 11
558.333
 21
908.166
  0
LINE
  8
0
 10
3
 20
908.166
 11
3
 21
918.166
  0
LINE
  8
0
 10
3
 20
918.166
 11
5
 21
918.166
  0
LINE
  8
0
 10
5
 20
918.166
 11
5
 21
908.166
  0
LINE
  8
0
 10
5
 20
908.166
 11
3
 21
908.166
  0
LINE
  8
0
 10
558.333
 20
851.833
 11
558.333
 21
861.833
  0
LINE
  8
0
 10
558.333
 20
861.833
 11
560.333
 21
861.833
  0
LINE
  8
0
 10
560.333
 20
861.833
 11
560.333
 21
851.833
  0
LINE
  8
0
 10
560.333
 20
851.833
 11
558.333
 21
851.833
  0
LINE
  8
0
 10
3
 20
851.833
 11
3
 21
861.833
  0
LINE
  8
0
 10
3
 20
861.833
 11
5
 21
861.833
  0
LINE
  8
0
 10
5
 20
861.833
 11
5
 21
851.833
  0
LINE
  8
0
 10
5
 20
851.833
 11
3
 21
851.833
  0
LINE
  8
0
 10
558.333
 20
795.499
 11
558.333
 21
805.499
  0
LINE
  8
0
 10
558.333
 20
805.499
 11
560.333
 21
805.499
  0
LINE
  8
0
 10
560.333
 20
805.499
 11
560.333
 21
795.499
  0
LINE
  8
0
 10
560.333
 20
795.499
 11
558.333
 21
795.499
  0
LINE
  8
0
 10
3
 20
795.499
 11
3
 21
805.499
  0
LINE
  8
0
 10
3
 20
805.499
 11
5
 21
805.499
  0
LINE
  8
0
 10
5
 20
805.499
 11
5
 21
795.499
  0
LINE
  8
0
 10
5
 20
795.499
 11
3
 21
795.499
  0
LINE
  8
0
 10
558.333
 20
739.166
 11
558.333
 21
749.166
  0
LINE
  8
0
 10
558.333
 20
749.166
 11
560.333
 21
749.166
  0
LINE
  8
0
 10
560.333
 20
749.166
 11
560.333
 21
739.166
  0
LINE
  8
0
 10
560.333
 20
739.166
 11
558.333
 21
739.166
  0
LINE
  8
0
 10
3
 20
739.166
 11
3
 21
749.166
  0
LINE
  8
0
 10
3
 20
749.166
 11
5
 21
749.166
  0
LINE
  8
0
 10
5
 20
749.166
 11
5
 21
739.166
  0
LINE
  8
0
 10
5
 20
739.166
 11
3
 21
739.166
  0
LINE
  8
0
 10
558.333
 20
682.833
 11
558.333
 21
692.833
  0
LINE
  8
0
 10
558.333
 20
692.833
 11
560.333
 21
692.833
  0
LINE
  8
0
 10
560.333
 20
692.833
 11
560.333
 21
682.833
  0
LINE
  8
0
 10
560.333
 20
682.833
 11
558.333
 21
682.833
  0
LINE
  8
0
 10
3
 20
682.833
 11
3
 21
692.833
  0
LINE
  8
0
 10
3
 20
692.833
 11
5
 21
692.833
  0
LINE
  8
0
 10
5
 20
692.833
 11
5
 21
682.833
  0
LINE
  8
0
 10
5
 20
682.833
 11
3
 21
682.833
  0
LINE
  8
0
 10
558.333
 20
626.499
 11
558.333
 21
636.499
  0
LINE
  8
0
 10
558.333
 20
636.499
 11
560.333
 21
636.499
  0
LINE
  8
0
 10
560.333
 20
636.499
 11
560.333
 21
626.499
  0
LINE
  8
0
 10
560.333
 20
626.499
 11
558.333
 21
626.499
  0
LINE
  8
0
 10
3
 20
626.499
 11
3
 21
636.499
  0
LINE
  8
0
 10
3
 20
636.499
 11
5
 21
636.499
  0
LINE
  8
0
 10
5
 20
636.499
 11
5
 21
626.499
  0
LINE
  8
0
 10
5
 20
626.499
 11
3
 21
626.499
  0
LINE
  8
0
 10
248.5
 20
606.333
 11
248.5
 21
608.333
  0
LINE
  8
0
 10
248.5
 20
608.333
 11
258.5
 21
608.333
  0
LINE
  8
0
 10
258.5
 20
608.333
 11
258.5
 21
606.333
  0
LINE
  8
0
 10
258.5
 20
606.333
 11
248.5
 21
606.333
  0
LINE
  8
0
 10
304.833
 20
606.333
 11
304.833
 21
608.333
  0
LINE
  8
0
 10
304.833
 20
608.333
 11
314.833
 21
608.333
  0
LINE
  8
0
 10
314.833
 20
608.333
 11
314.833
 21
606.333
  0
LINE
  8
0
 10
314.833
 20
606.333
 11
304.833
 21
606.333
  0
LINE
  8
0
 10
192.166
 20
606.333
 11
192.166
 21
608.333
  0
LINE
  8
0
 10
192.166
 20
608.333
 11
202.166
 21
608.333
  0
LINE
  8
0
 10
202.166
 20
608.333
 11
202.166
 21
606.333
  0
LINE
  8
0
 10
202.166
 20
606.333
 11
192.166
 21
606.333
  0
LINE
  8
0
 10
361.166
 20
606.333
 11
361.166
 21
608.333
  0
LINE
  8
0
 10
361.166
 20
608.333
 11
371.166
 21
608.333
  0
LINE
  8
0
 10
371.166
 20
608.333
 11
371.166
 21
606.333
  0
LINE
  8
0
 10
371.166
 20
606.333
 11
361.166
 21
606.333
  0
LINE
  8
0
 10
135.833
 20
606.333
 11
135.833
 21
608.333
  0
LINE
  8
0
 10
135.833
 20
608.333
 11
145.833
 21
608.333
  0
LINE
  8
0
 10
145.833
 20
608.333
 11
145.833
 21
606.333
  0
LINE
  8
0
 10
145.833
 20
606.333
 11
135.833
 21
606.333
  0
LINE
  8
0
 10
417.5
 20
606.333
 11
417.5
 21
608.333
  0
LINE
  8
0
 10
417.5
 20
608.333
 11
427.5
 21
608.333
  0
LINE
  8
0
 10
427.5
 20
608.333
 11
427.5
 21
606.333
  0
LINE
  8
0
 10
427.5
 20
606.333
 11
417.5
 21
606.333
  0
LINE
  8
0
 10
79.4999
 20
606.333
 11
79.4999
 21
608.333
  0
LINE
  8
0
 10
79.4999
 20
608.333
 11
89.4999
 21
608.333
  0
LINE
  8
0
 10
89.4999
 20
608.333
 11
89.4999
 21
606.333
  0
LINE
  8
0
 10
89.4999
 20
606.333
 11
79.4999
 21
606.333
  0
LINE
  8
0
 10
473.833
 20
606.333
 11
473.833
 21
608.333
  0
LINE
  8
0
 10
473.833
 20
608.333
 11
483.833
 21
608.333
  0
LINE
  8
0
 10
483.833
 20
608.333
 11
483.833
 21
606.333
  0
LINE
  8
0
 10
483.833
 20
606.333
 11
473.833
 21
606.333
  0
LINE
  8
0
 10
23.1666
 20
606.333
 11
23.1666
 21
608.333
  0
LINE
  8
0
 10
23.1666
 20
608.333
 11
33.1666
 21
608.333
  0
LINE
  8
0
 10
33.1666
 20
608.333
 11
33.1666
 21
606.333
  0
LINE
  8
0
 10
33.1666
 20
606.333
 11
23.1666
 21
606.333
  0
LINE
  8
0
 10
530.166
 20
606.333
 11
530.166
 21
608.333
  0
LINE
  8
0
 10
530.166
 20
608.333
 11
540.166
 21
608.333
  0
LINE
  8
0
 10
540.166
 20
608.333
 11
540.166
 21
606.333
  0
LINE
  8
0
 10
540.166
 20
606.333
 11
530.166
 21
606.333
  0
LINE
  8
0
 10
543.333
 20
41.6666
 11
545.333
 21
41.6666
  0
LINE
  8
0
 10
545.333
 20
41.6666
 11
545.333
 21
74.9999
  0
LINE
  8
0
 10
545.333
 20
74.9999
 11
551.333
 21
74.9999
  0
LINE
  8
0
 10
551.333
 20
74.9999
 11
551.333
 21
41.6666
  0
LINE
  8
0
 10
551.333
 20
41.6666
 11
553.333
 21
41.6666
  0
LINE
  8
0
 10
553.333
 20
41.6666
 11
553.333
 21
0
  0
LINE
  8
0
 10
553.333
 20
0
 11
563.333
 21
0
  0
LINE
  8
0
 10
563.333
 20
0
 11
563.333
 21
563.333
  0
LINE
  8
0
 10
563.333
 20
563.333
 11
0
 21
563.333
  0
LINE
  8
0
 10
0
 20
563.333
 11
0
 21
0
  0
LINE
  8
0
 10
0
 20
0
 11
543.333
 21
0
  0
LINE
  8
0
 10
543.333
 20
0
 11
543.333
 21
41.6666
  0
LINE
  8
0
 10
10
 20
521.666
 11
10
 21
541.666
  0
LINE
  8
0
 10
10
 20
541.666
 11
20
 21
541.666
  0
LINE
  8
0
 10
20
 20
541.666
 11
20
 21
521.666
  0
LINE
  8
0
 10
20
 20
521.666
 11
10
 21
521.666
  0
LINE
  8
0
 10
545.333
 20
488.333
 11
545.333
 21
541.666
  0
LINE
  8
0
 10
545.333
 20
541.666
 11
551.333
 21
541.666
  0
LINE
  8
0
 10
551.333
 20
541.666
 11
551.333
 21
488.333
  0
LINE
  8
0
 10
551.333
 20
488.333
 11
545.333
 21
488.333
  0
LINE
  8
0
 10
43.3333
 20
488.333
 11
43.3333
 21
541.666
  0
LINE
  8
0
 10
43.3333
 20
541.666
 11
53.3333
 21
541.666
  0
LINE
  8
0
 10
53.3333
 20
541.666
 11
53.3333
 21
488.333
  0
LINE
  8
0
 10
53.3333
 20
488.333
 11
43.3333
 21
488.333
  0
LINE
  8
0
 10
26.5716
 20
526.571
 11
26.5716
 21
536.761
  0
LINE
  8
0
 10
26.5716
 20
536.761
 11
36.7616
 21
536.761
  0
LINE
  8
0
 10
36.7616
 20
536.761
 11
36.7616
 21
526.571
  0
LINE
  8
0
 10
36.7616
 20
526.571
 11
26.5716
 21
526.571
  0
LINE
  8
0
 10
93.2382
 20
526.571
 11
93.2382
 21
536.761
  0
LINE
  8
0
 10
93.2382
 20
536.761
 11
103.428
 21
536.761
  0
LINE
  8
0
 10
103.428
 20
536.761
 11
103.428
 21
526.571
  0
LINE
  8
0
 10
103.428
 20
526.571
 11
93.2382
 21
526.571
  0
LINE
  8
0
 10
126.572
 20
526.571
 11
126.572
 21
536.761
  0
LINE
  8
0
 10
126.572
 20
536.761
 11
136.762
 21
536.761
  0
LINE
  8
0
 10
136.762
 20
536.761
 11
136.762
 21
526.571
  0
LINE
  8
0
 10
136.762
 20
526.571
 11
126.572
 21
526.571
  0
LINE
  8
0
 10
159.905
 20
526.571
 11
159.905
 21
536.761
  0
LINE
  8
0
 10
159.905
 20
536.761
 11
170.095
 21
536.761
  0
LINE
  8
0
 10
170.095
 20
536.761
 11
170.095
 21
526.571
  0
LINE
  8
0
 10
170.095
 20
526.571
 11
159.905
 21
526.571
  0
LINE
  8
0
 10
193.238
 20
526.571
 11
193.238
 21
536.761
  0
LINE
  8
0
 10
193.238
 20
536.761
 11
203.428
 21
536.761
  0
LINE
  8
0
 10
203.428
 20
536.761
 11
203.428
 21
526.571
  0
LINE
  8
0
 10
203.428
 20
526.571
 11
193.238
 21
526.571
  0
LINE
  8
0
 10
226.571
 20
526.571
 11
226.571
 21
536.761
  0
LINE
  8
0
 10
226.571
 20
536.761
 11
236.761
 21
536.761
  0
LINE
  8
0
 10
236.761
 20
536.761
 11
236.761
 21
526.571
  0
LINE
  8
0
 10
236.761
 20
526.571
 11
226.571
 21
526.571
  0
LINE
  8
0
 10
259.905
 20
526.571
 11
259.905
 21
536.761
  0
LINE
  8
0
 10
259.905
 20
536.761
 11
270.095
 21
536.761
  0
LINE
  8
0
 10
270.095
 20
536.761
 11
270.095
 21
526.571
  0
LINE
  8
0
 10
270.095
 20
526.571
 11
259.905
 21
526.571
  0
LINE
  8
0
 10
293.238
 20
526.571
 11
293.238
 21
536.761
  0
LINE
  8
0
 10
293.238
 20
536.761
 11
303.428
 21
536.761
  0
LINE
  8
0
 10
303.428
 20
536.761
 11
303.428
 21
526.571
  0
LINE
  8
0
 10
303.428
 20
526.571
 11
293.238
 21
526.571
  0
LINE
  8
0
 10
326.571
 20
526.571
 11
326.571
 21
536.761
  0
LINE
  8
0
 10
326.571
 20
536.761
 11
336.761
 21
536.761
  0
LINE
  8
0
 10
336.761
 20
536.761
 11
336.761
 21
526.571
  0
LINE
  8
0
 10
336.761
 20
526.571
 11
326.571
 21
526.571
  0
LINE
  8
0
 10
359.905
 20
526.571
 11
359.905
 21
536.761
  0
LINE
  8
0
 10
359.905
 20
536.761
 11
370.095
 21
536.761
  0
LINE
  8
0
 10
370.095
 20
536.761
 11
370.095
 21
526.571
  0
LINE
  8
0
 10
370.095
 20
526.571
 11
359.905
 21
526.571
  0
LINE
  8
0
 10
393.238
 20
526.571
 11
393.238
 21
536.761
  0
LINE
  8
0
 10
393.238
 20
536.761
 11
403.428
 21
536.761
  0
LINE
  8
0
 10
403.428
 20
536.761
 11
403.428
 21
526.571
  0
LINE
  8
0
 10
403.428
 20
526.571
 11
393.238
 21
526.571
  0
LINE
  8
0
 10
426.571
 20
526.571
 11
426.571
 21
536.761
  0
LINE
  8
0
 10
426.571
 20
536.761
 11
436.761
 21
536.761
  0
LINE
  8
0
 10
436.761
 20
536.761
 11
436.761
 21
526.571
  0
LINE
  8
0
 10
436.761
 20
526.571
 11
426.571
 21
526.571
  0
LINE
  8
0
 10
459.905
 20
526.571
 11
459.905
 21
536.761
  0
LINE
  8
0
 10
459.905
 20
536.761
 11
470.095
 21
536.761
  0
LINE
  8
0
 10
470.095
 20
536.761
 11
470.095
 21
526.571
  0
LINE
  8
0
 10
470.095
 20
526.571
 11
459.905
 21
526.571
  0
LINE
  8
0
 10
493.238
 20
526.571
 11
493.238
 21
536.761
  0
LINE
  8
0
 10
493.238
 20
536.761
 11
503.428
 21
536.761
  0
LINE
  8
0
 10
503.428
 20
536.761
 11
503.428
 21
526.571
  0
LINE
  8
0
 10
503.428
 20
526.571
 11
493.238
 21
526.571
  0
LINE
  8
0
 10
526.571
 20
526.571
 11
526.571
 21
536.761
  0
LINE
  8
0
 10
526.571
 20
536.761
 11
536.761
 21
536.761
  0
LINE
  8
0
 10
536.761
 20
536.761
 11
536.761
 21
526.571
  0
LINE
  8
0
 10
536.761
 20
526.571
 11
526.571
 21
526.571
  0
LINE
  8
0
 10
59.9049
 20
526.571
 11
59.9049
 21
536.761
  0
LINE
  8
0
 10
59.9049
 20
536.761
 11
70.0949
 21
536.761
  0
LINE
  8
0
 10
70.0949
 20
536.761
 11
70.0949
 21
526.571
  0
LINE
  8
0
 10
70.0949
 20
526.571
 11
59.9049
 21
526.571
  0
LINE
  8
0
 10
12
 20
455
 11
12
 21
508.333
  0
LINE
  8
0
 10
12
 20
508.333
 11
18
 21
508.333
  0
LINE
  8
0
 10
18
 20
508.333
 11
18
 21
455
  0
LINE
  8
0
 10
18
 20
455
 11
12
 21
455
  0
LINE
  8
0
 10
76.6666
 20
455
 11
76.6666
 21
508.333
  0
LINE
  8
0
 10
76.6666
 20
508.333
 11
86.6666
 21
508.333
  0
LINE
  8
0
 10
86.6666
 20
508.333
 11
86.6666
 21
455
  0
LINE
  8
0
 10
86.6666
 20
455
 11
76.6666
 21
455
  0
LINE
  8
0
 10
259.905
 20
493.238
 11
259.905
 21
503.428
  0
LINE
  8
0
 10
259.905
 20
503.428
 11
270.095
 21
503.428
  0
LINE
  8
0
 10
270.095
 20
503.428
 11
270.095
 21
493.238
  0
LINE
  8
0
 10
270.095
 20
493.238
 11
259.905
 21
493.238
  0
LINE
  8
0
 10
526.571
 20
493.238
 11
526.571
 21
503.428
  0
LINE
  8
0
 10
526.571
 20
503.428
 11
536.761
 21
503.428
  0
LINE
  8
0
 10
536.761
 20
503.428
 11
536.761
 21
493.238
  0
LINE
  8
0
 10
536.761
 20
493.238
 11
526.571
 21
493.238
  0
LINE
  8
0
 10
26.5716
 20
493.238
 11
26.5716
 21
503.428
  0
LINE
  8
0
 10
26.5716
 20
503.428
 11
36.7616
 21
503.428
  0
LINE
  8
0
 10
36.7616
 20
503.428
 11
36.7616
 21
493.238
  0
LINE
  8
0
 10
36.7616
 20
493.238
 11
26.5716
 21
493.238
  0
LINE
  8
0
 10
226.571
 20
493.238
 11
226.571
 21
503.428
  0
LINE
  8
0
 10
226.571
 20
503.428
 11
236.761
 21
503.428
  0
LINE
  8
0
 10
236.761
 20
503.428
 11
236.761
 21
493.238
  0
LINE
  8
0
 10
236.761
 20
493.238
 11
226.571
 21
493.238
  0
LINE
  8
0
 10
493.238
 20
493.238
 11
493.238
 21
503.428
  0
LINE
  8
0
 10
493.238
 20
503.428
 11
503.428
 21
503.428
  0
LINE
  8
0
 10
503.428
 20
503.428
 11
503.428
 21
493.238
  0
LINE
  8
0
 10
503.428
 20
493.238
 11
493.238
 21
493.238
  0
LINE
  8
0
 10
93.2382
 20
493.238
 11
93.2382
 21
503.428
  0
LINE
  8
0
 10
93.2382
 20
503.428
 11
103.428
 21
503.428
  0
LINE
  8
0
 10
103.428
 20
503.428
 11
103.428
 21
493.238
  0
LINE
  8
0
 10
103.428
 20
493.238
 11
93.2382
 21
493.238
  0
LINE
  8
0
 10
459.905
 20
493.238
 11
459.905
 21
503.428
  0
LINE
  8
0
 10
459.905
 20
503.428
 11
470.095
 21
503.428
  0
LINE
  8
0
 10
470.095
 20
503.428
 11
470.095
 21
493.238
  0
LINE
  8
0
 10
470.095
 20
493.238
 11
459.905
 21
493.238
  0
LINE
  8
0
 10
126.572
 20
493.238
 11
126.572
 21
503.428
  0
LINE
  8
0
 10
126.572
 20
503.428
 11
136.762
 21
503.428
  0
LINE
  8
0
 10
136.762
 20
503.428
 11
136.762
 21
493.238
  0
LINE
  8
0
 10
136.762
 20
493.238
 11
126.572
 21
493.238
  0
LINE
  8
0
 10
426.571
 20
493.238
 11
426.571
 21
503.428
  0
LINE
  8
0
 10
426.571
 20
503.428
 11
436.761
 21
503.428
  0
LINE
  8
0
 10
436.761
 20
503.428
 11
436.761
 21
493.238
  0
LINE
  8
0
 10
436.761
 20
493.238
 11
426.571
 21
493.238
  0
LINE
  8
0
 10
159.905
 20
493.238
 11
159.905
 21
503.428
  0
LINE
  8
0
 10
159.905
 20
503.428
 11
170.095
 21
503.428
  0
LINE
  8
0
 10
170.095
 20
503.428
 11
170.095
 21
493.238
  0
LINE
  8
0
 10
170.095
 20
493.238
 11
159.905
 21
493.238
  0
LINE
  8
0
 10
293.238
 20
493.238
 11
293.238
 21
503.428
  0
LINE
  8
0
 10
293.238
 20
503.428
 11
303.428
 21
503.428
  0
LINE
  8
0
 10
303.428
 20
503.428
 11
303.428
 21
493.238
  0
LINE
  8
0
 10
303.428
 20
493.238
 11
293.238
 21
493.238
  0
LINE
  8
0
 10
393.238
 20
493.238
 11
393.238
 21
503.428
  0
LINE
  8
0
 10
393.238
 20
503.428
 11
403.428
 21
503.428
  0
LINE
  8
0
 10
403.428
 20
503.428
 11
403.428
 21
493.238
  0
LINE
  8
0
 10
403.428
 20
493.238
 11
393.238
 21
493.238
  0
LINE
  8
0
 10
193.238
 20
493.238
 11
193.238
 21
503.428
  0
LINE
  8
0
 10
193.238
 20
503.428
 11
203.428
 21
503.428
  0
LINE
  8
0
 10
203.428
 20
503.428
 11
203.428
 21
493.238
  0
LINE
  8
0
 10
203.428
 20
493.238
 11
193.238
 21
493.238
  0
LINE
  8
0
 10
359.905
 20
493.238
 11
359.905
 21
503.428
  0
LINE
  8
0
 10
359.905
 20
503.428
 11
370.095
 21
503.428
  0
LINE
  8
0
 10
370.095
 20
503.428
 11
370.095
 21
493.238
  0
LINE
  8
0
 10
370.095
 20
493.238
 11
359.905
 21
493.238
  0
LINE
  8
0
 10
326.571
 20
493.238
 11
326.571
 21
503.428
  0
LINE
  8
0
 10
326.571
 20
503.428
 11
336.761
 21
503.428
  0
LINE
  8
0
 10
336.761
 20
503.428
 11
336.761
 21
493.238
  0
LINE
  8
0
 10
336.761
 20
493.238
 11
326.571
 21
493.238
  0
LINE
  8
0
 10
59.9049
 20
493.238
 11
59.9049
 21
503.428
  0
LINE
  8
0
 10
59.9049
 20
503.428
 11
70.0949
 21
503.428
  0
LINE
  8
0
 10
70.0949
 20
503.428
 11
70.0949
 21
493.238
  0
LINE
  8
0
 10
70.0949
 20
493.238
 11
59.9049
 21
493.238
  0
LINE
  8
0
 10
110
 20
421.666
 11
110
 21
475
  0
LINE
  8
0
 10
110
 20
475
 11
120
 21
475
  0
LINE
  8
0
 10
120
 20
475
 11
120
 21
421.666
  0
LINE
  8
0
 10
120
 20
421.666
 11
110
 21
421.666
  0
LINE
  8
0
 10
545.333
 20
421.666
 11
545.333
 21
475
  0
LINE
  8
0
 10
545.333
 20
475
 11
551.333
 21
475
  0
LINE
  8
0
 10
551.333
 20
475
 11
551.333
 21
421.666
  0
LINE
  8
0
 10
551.333
 20
421.666
 11
545.333
 21
421.666
  0
LINE
  8
0
 10
193.238
 20
459.905
 11
193.238
 21
470.095
  0
LINE
  8
0
 10
193.238
 20
470.095
 11
203.428
 21
470.095
  0
LINE
  8
0
 10
203.428
 20
470.095
 11
203.428
 21
459.905
  0
LINE
  8
0
 10
203.428
 20
459.905
 11
193.238
 21
459.905
  0
LINE
  8
0
 10
59.9049
 20
459.905
 11
59.9049
 21
470.095
  0
LINE
  8
0
 10
59.9049
 20
470.095
 11
70.0949
 21
470.095
  0
LINE
  8
0
 10
70.0949
 20
470.095
 11
70.0949
 21
459.905
  0
LINE
  8
0
 10
70.0949
 20
459.905
 11
59.9049
 21
459.905
  0
LINE
  8
0
 10
326.571
 20
459.905
 11
326.571
 21
470.095
  0
LINE
  8
0
 10
326.571
 20
470.095
 11
336.761
 21
470.095
  0
LINE
  8
0
 10
336.761
 20
470.095
 11
336.761
 21
459.905
  0
LINE
  8
0
 10
336.761
 20
459.905
 11
326.571
 21
459.905
  0
LINE
  8
0
 10
359.905
 20
459.905
 11
359.905
 21
470.095
  0
LINE
  8
0
 10
359.905
 20
470.095
 11
370.095
 21
470.095
  0
LINE
  8
0
 10
370.095
 20
470.095
 11
370.095
 21
459.905
  0
LINE
  8
0
 10
370.095
 20
459.905
 11
359.905
 21
459.905
  0
LINE
  8
0
 10
226.571
 20
459.905
 11
226.571
 21
470.095
  0
LINE
  8
0
 10
226.571
 20
470.095
 11
236.761
 21
470.095
  0
LINE
  8
0
 10
236.761
 20
470.095
 11
236.761
 21
459.905
  0
LINE
  8
0
 10
236.761
 20
459.905
 11
226.571
 21
459.905
  0
LINE
  8
0
 10
459.905
 20
459.905
 11
459.905
 21
470.095
  0
LINE
  8
0
 10
459.905
 20
470.095
 11
470.095
 21
470.095
  0
LINE
  8
0
 10
470.095
 20
470.095
 11
470.095
 21
459.905
  0
LINE
  8
0
 10
470.095
 20
459.905
 11
459.905
 21
459.905
  0
LINE
  8
0
 10
126.572
 20
459.905
 11
126.572
 21
470.095
  0
LINE
  8
0
 10
126.572
 20
470.095
 11
136.762
 21
470.095
  0
LINE
  8
0
 10
136.762
 20
470.095
 11
136.762
 21
459.905
  0
LINE
  8
0
 10
136.762
 20
459.905
 11
126.572
 21
459.905
  0
LINE
  8
0
 10
526.571
 20
459.905
 11
526.571
 21
470.095
  0
LINE
  8
0
 10
526.571
 20
470.095
 11
536.761
 21
470.095
  0
LINE
  8
0
 10
536.761
 20
470.095
 11
536.761
 21
459.905
  0
LINE
  8
0
 10
536.761
 20
459.905
 11
526.571
 21
459.905
  0
LINE
  8
0
 10
26.5716
 20
459.905
 11
26.5716
 21
470.095
  0
LINE
  8
0
 10
26.5716
 20
470.095
 11
36.7616
 21
470.095
  0
LINE
  8
0
 10
36.7616
 20
470.095
 11
36.7616
 21
459.905
  0
LINE
  8
0
 10
36.7616
 20
459.905
 11
26.5716
 21
459.905
  0
LINE
  8
0
 10
493.238
 20
459.905
 11
493.238
 21
470.095
  0
LINE
  8
0
 10
493.238
 20
470.095
 11
503.428
 21
470.095
  0
LINE
  8
0
 10
503.428
 20
470.095
 11
503.428
 21
459.905
  0
LINE
  8
0
 10
503.428
 20
459.905
 11
493.238
 21
459.905
  0
LINE
  8
0
 10
93.2382
 20
459.905
 11
93.2382
 21
470.095
  0
LINE
  8
0
 10
93.2382
 20
470.095
 11
103.428
 21
470.095
  0
LINE
  8
0
 10
103.428
 20
470.095
 11
103.428
 21
459.905
  0
LINE
  8
0
 10
103.428
 20
459.905
 11
93.2382
 21
459.905
  0
LINE
  8
0
 10
159.905
 20
459.905
 11
159.905
 21
470.095
  0
LINE
  8
0
 10
159.905
 20
470.095
 11
170.095
 21
470.095
  0
LINE
  8
0
 10
170.095
 20
470.095
 11
170.095
 21
459.905
  0
LINE
  8
0
 10
170.095
 20
459.905
 11
159.905
 21
459.905
  0
LINE
  8
0
 10
293.238
 20
459.905
 11
293.238
 21
470.095
  0
LINE
  8
0
 10
293.238
 20
470.095
 11
303.428
 21
470.095
  0
LINE
  8
0
 10
303.428
 20
470.095
 11
303.428
 21
459.905
  0
LINE
  8
0
 10
303.428
 20
459.905
 11
293.238
 21
459.905
  0
LINE
  8
0
 10
426.571
 20
459.905
 11
426.571
 21
470.095
  0
LINE
  8
0
 10
426.571
 20
470.095
 11
436.761
 21
470.095
  0
LINE
  8
0
 10
436.761
 20
470.095
 11
436.761
 21
459.905
  0
LINE
  8
0
 10
436.761
 20
459.905
 11
426.571
 21
459.905
  0
LINE
  8
0
 10
393.238
 20
459.905
 11
393.238
 21
470.095
  0
LINE
  8
0
 10
393.238
 20
470.095
 11
403.428
 21
470.095
  0
LINE
  8
0
 10
403.428
 20
470.095
 11
403.428
 21
459.905
  0
LINE
  8
0
 10
403.428
 20
459.905
 11
393.238
 21
459.905
  0
LINE
  8
0
 10
259.905
 20
459.905
 11
259.905
 21
470.095
  0
LINE
  8
0
 10
259.905
 20
470.095
 11
270.095
 21
470.095
  0
LINE
  8
0
 10
270.095
 20
470.095
 11
270.095
 21
459.905
  0
LINE
  8
0
 10
270.095
 20
459.905
 11
259.905
 21
459.905
  0
LINE
  8
0
 10
143.333
 20
388.333
 11
143.333
 21
441.666
  0
LINE
  8
0
 10
143.333
 20
441.666
 11
153.333
 21
441.666
  0
LINE
  8
0
 10
153.333
 20
441.666
 11
153.333
 21
388.333
  0
LINE
  8
0
 10
153.333
 20
388.333
 11
143.333
 21
388.333
  0
LINE
  8
0
 10
12
 20
388.333
 11
12
 21
441.666
  0
LINE
  8
0
 10
12
 20
441.666
 11
18
 21
441.666
  0
LINE
  8
0
 10
18
 20
441.666
 11
18
 21
388.333
  0
LINE
  8
0
 10
18
 20
388.333
 11
12
 21
388.333
  0
LINE
  8
0
 10
293.238
 20
426.571
 11
293.238
 21
436.761
  0
LINE
  8
0
 10
293.238
 20
436.761
 11
303.428
 21
436.761
  0
LINE
  8
0
 10
303.428
 20
436.761
 11
303.428
 21
426.571
  0
LINE
  8
0
 10
303.428
 20
426.571
 11
293.238
 21
426.571
  0
LINE
  8
0
 10
93.2382
 20
426.571
 11
93.2382
 21
436.761
  0
LINE
  8
0
 10
93.2382
 20
436.761
 11
103.428
 21
436.761
  0
LINE
  8
0
 10
103.428
 20
436.761
 11
103.428
 21
426.571
  0
LINE
  8
0
 10
103.428
 20
426.571
 11
93.2382
 21
426.571
  0
LINE
  8
0
 10
526.571
 20
426.571
 11
526.571
 21
436.761
  0
LINE
  8
0
 10
526.571
 20
436.761
 11
536.761
 21
436.761
  0
LINE
  8
0
 10
536.761
 20
436.761
 11
536.761
 21
426.571
  0
LINE
  8
0
 10
536.761
 20
426.571
 11
526.571
 21
426.571
  0
LINE
  8
0
 10
59.9049
 20
426.571
 11
59.9049
 21
436.761
  0
LINE
  8
0
 10
59.9049
 20
436.761
 11
70.0949
 21
436.761
  0
LINE
  8
0
 10
70.0949
 20
436.761
 11
70.0949
 21
426.571
  0
LINE
  8
0
 10
70.0949
 20
426.571
 11
59.9049
 21
426.571
  0
LINE
  8
0
 10
193.238
 20
426.571
 11
193.238
 21
436.761
  0
LINE
  8
0
 10
193.238
 20
436.761
 11
203.428
 21
436.761
  0
LINE
  8
0
 10
203.428
 20
436.761
 11
203.428
 21
426.571
  0
LINE
  8
0
 10
203.428
 20
426.571
 11
193.238
 21
426.571
  0
LINE
  8
0
 10
359.905
 20
426.571
 11
359.905
 21
436.761
  0
LINE
  8
0
 10
359.905
 20
436.761
 11
370.095
 21
436.761
  0
LINE
  8
0
 10
370.095
 20
436.761
 11
370.095
 21
426.571
  0
LINE
  8
0
 10
370.095
 20
426.571
 11
359.905
 21
426.571
  0
LINE
  8
0
 10
326.571
 20
426.571
 11
326.571
 21
436.761
  0
LINE
  8
0
 10
326.571
 20
436.761
 11
336.761
 21
436.761
  0
LINE
  8
0
 10
336.761
 20
436.761
 11
336.761
 21
426.571
  0
LINE
  8
0
 10
336.761
 20
426.571
 11
326.571
 21
426.571
  0
LINE
  8
0
 10
459.905
 20
426.571
 11
459.905
 21
436.761
  0
LINE
  8
0
 10
459.905
 20
436.761
 11
470.095
 21
436.761
  0
LINE
  8
0
 10
470.095
 20
436.761
 11
470.095
 21
426.571
  0
LINE
  8
0
 10
470.095
 20
426.571
 11
459.905
 21
426.571
  0
LINE
  8
0
 10
26.5716
 20
426.571
 11
26.5716
 21
436.761
  0
LINE
  8
0
 10
26.5716
 20
436.761
 11
36.7616
 21
436.761
  0
LINE
  8
0
 10
36.7616
 20
436.761
 11
36.7616
 21
426.571
  0
LINE
  8
0
 10
36.7616
 20
426.571
 11
26.5716
 21
426.571
  0
LINE
  8
0
 10
493.238
 20
426.571
 11
493.238
 21
436.761
  0
LINE
  8
0
 10
493.238
 20
436.761
 11
503.428
 21
436.761
  0
LINE
  8
0
 10
503.428
 20
436.761
 11
503.428
 21
426.571
  0
LINE
  8
0
 10
503.428
 20
426.571
 11
493.238
 21
426.571
  0
LINE
  8
0
 10
226.571
 20
426.571
 11
226.571
 21
436.761
  0
LINE
  8
0
 10
226.571
 20
436.761
 11
236.761
 21
436.761
  0
LINE
  8
0
 10
236.761
 20
436.761
 11
236.761
 21
426.571
  0
LINE
  8
0
 10
236.761
 20
426.571
 11
226.571
 21
426.571
  0
LINE
  8
0
 10
426.571
 20
426.571
 11
426.571
 21
436.761
  0
LINE
  8
0
 10
426.571
 20
436.761
 11
436.761
 21
436.761
  0
LINE
  8
0
 10
436.761
 20
436.761
 11
436.761
 21
426.571
  0
LINE
  8
0
 10
436.761
 20
426.571
 11
426.571
 21
426.571
  0
LINE
  8
0
 10
159.905
 20
426.571
 11
159.905
 21
436.761
  0
LINE
  8
0
 10
159.905
 20
436.761
 11
170.095
 21
436.761
  0
LINE
  8
0
 10
170.095
 20
436.761
 11
170.095
 21
426.571
  0
LINE
  8
0
 10
170.095
 20
426.571
 11
159.905
 21
426.571
  0
LINE
  8
0
 10
393.238
 20
426.571
 11
393.238
 21
436.761
  0
LINE
  8
0
 10
393.238
 20
436.761
 11
403.428
 21
436.761
  0
LINE
  8
0
 10
403.428
 20
436.761
 11
403.428
 21
426.571
  0
LINE
  8
0
 10
403.428
 20
426.571
 11
393.238
 21
426.571
  0
LINE
  8
0
 10
259.905
 20
426.571
 11
259.905
 21
436.761
  0
LINE
  8
0
 10
259.905
 20
436.761
 11
270.095
 21
436.761
  0
LINE
  8
0
 10
270.095
 20
436.761
 11
270.095
 21
426.571
  0
LINE
  8
0
 10
270.095
 20
426.571
 11
259.905
 21
426.571
  0
LINE
  8
0
 10
126.572
 20
426.571
 11
126.572
 21
436.761
  0
LINE
  8
0
 10
126.572
 20
436.761
 11
136.762
 21
436.761
  0
LINE
  8
0
 10
136.762
 20
436.761
 11
136.762
 21
426.571
  0
LINE
  8
0
 10
136.762
 20
426.571
 11
126.572
 21
426.571
  0
LINE
  8
0
 10
176.666
 20
355
 11
176.666
 21
408.333
  0
LINE
  8
0
 10
176.666
 20
408.333
 11
186.666
 21
408.333
  0
LINE
  8
0
 10
186.666
 20
408.333
 11
186.666
 21
355
  0
LINE
  8
0
 10
186.666
 20
355
 11
176.666
 21
355
  0
LINE
  8
0
 10
545.333
 20
355
 11
545.333
 21
408.333
  0
LINE
  8
0
 10
545.333
 20
408.333
 11
551.333
 21
408.333
  0
LINE
  8
0
 10
551.333
 20
408.333
 11
551.333
 21
355
  0
LINE
  8
0
 10
551.333
 20
355
 11
545.333
 21
355
  0
LINE
  8
0
 10
259.905
 20
393.238
 11
259.905
 21
403.428
  0
LINE
  8
0
 10
259.905
 20
403.428
 11
270.095
 21
403.428
  0
LINE
  8
0
 10
270.095
 20
403.428
 11
270.095
 21
393.238
  0
LINE
  8
0
 10
270.095
 20
393.238
 11
259.905
 21
393.238
  0
LINE
  8
0
 10
459.905
 20
393.238
 11
459.905
 21
403.428
  0
LINE
  8
0
 10
459.905
 20
403.428
 11
470.095
 21
403.428
  0
LINE
  8
0
 10
470.095
 20
403.428
 11
470.095
 21
393.238
  0
LINE
  8
0
 10
470.095
 20
393.238
 11
459.905
 21
393.238
  0
LINE
  8
0
 10
59.9049
 20
393.238
 11
59.9049
 21
403.428
  0
LINE
  8
0
 10
59.9049
 20
403.428
 11
70.0949
 21
403.428
  0
LINE
  8
0
 10
70.0949
 20
403.428
 11
70.0949
 21
393.238
  0
LINE
  8
0
 10
70.0949
 20
393.238
 11
59.9049
 21
393.238
  0
LINE
  8
0
 10
26.5716
 20
393.238
 11
26.5716
 21
403.428
  0
LINE
  8
0
 10
26.5716
 20
403.428
 11
36.7616
 21
403.428
  0
LINE
  8
0
 10
36.7616
 20
403.428
 11
36.7616
 21
393.238
  0
LINE
  8
0
 10
36.7616
 20
393.238
 11
26.5716
 21
393.238
  0
LINE
  8
0
 10
526.571
 20
393.238
 11
526.571
 21
403.428
  0
LINE
  8
0
 10
526.571
 20
403.428
 11
536.761
 21
403.428
  0
LINE
  8
0
 10
536.761
 20
403.428
 11
536.761
 21
393.238
  0
LINE
  8
0
 10
536.761
 20
393.238
 11
526.571
 21
393.238
  0
LINE
  8
0
 10
126.572
 20
393.238
 11
126.572
 21
403.428
  0
LINE
  8
0
 10
126.572
 20
403.428
 11
136.762
 21
403.428
  0
LINE
  8
0
 10
136.762
 20
403.428
 11
136.762
 21
393.238
  0
LINE
  8
0
 10
136.762
 20
393.238
 11
126.572
 21
393.238
  0
LINE
  8
0
 10
426.571
 20
393.238
 11
426.571
 21
403.428
  0
LINE
  8
0
 10
426.571
 20
403.428
 11
436.761
 21
403.428
  0
LINE
  8
0
 10
436.761
 20
403.428
 11
436.761
 21
393.238
  0
LINE
  8
0
 10
436.761
 20
393.238
 11
426.571
 21
393.238
  0
LINE
  8
0
 10
159.905
 20
393.238
 11
159.905
 21
403.428
  0
LINE
  8
0
 10
159.905
 20
403.428
 11
170.095
 21
403.428
  0
LINE
  8
0
 10
170.095
 20
403.428
 11
170.095
 21
393.238
  0
LINE
  8
0
 10
170.095
 20
393.238
 11
159.905
 21
393.238
  0
LINE
  8
0
 10
359.905
 20
393.238
 11
359.905
 21
403.428
  0
LINE
  8
0
 10
359.905
 20
403.428
 11
370.095
 21
403.428
  0
LINE
  8
0
 10
370.095
 20
403.428
 11
370.095
 21
393.238
  0
LINE
  8
0
 10
370.095
 20
393.238
 11
359.905
 21
393.238
  0
LINE
  8
0
 10
93.2382
 20
393.238
 11
93.2382
 21
403.428
  0
LINE
  8
0
 10
93.2382
 20
403.428
 11
103.428
 21
403.428
  0
LINE
  8
0
 10
103.428
 20
403.428
 11
103.428
 21
393.238
  0
LINE
  8
0
 10
103.428
 20
393.238
 11
93.2382
 21
393.238
  0
LINE
  8
0
 10
493.238
 20
393.238
 11
493.238
 21
403.428
  0
LINE
  8
0
 10
493.238
 20
403.428
 11
503.428
 21
403.428
  0
LINE
  8
0
 10
503.428
 20
403.428
 11
503.428
 21
393.238
  0
LINE
  8
0
 10
503.428
 20
393.238
 11
493.238
 21
393.238
  0
LINE
  8
0
 10
293.238
 20
393.238
 11
293.238
 21
403.428
  0
LINE
  8
0
 10
293.238
 20
403.428
 11
303.428
 21
403.428
  0
LINE
  8
0
 10
303.428
 20
403.428
 11
303.428
 21
393.238
  0
LINE
  8
0
 10
303.428
 20
393.238
 11
293.238
 21
393.238
  0
LINE
  8
0
 10
193.238
 20
393.238
 11
193.238
 21
403.428
  0
LINE
  8
0
 10
193.238
 20
403.428
 11
203.428
 21
403.428
  0
LINE
  8
0
 10
203.428
 20
403.428
 11
203.428
 21
393.238
  0
LINE
  8
0
 10
203.428
 20
393.238
 11
193.238
 21
393.238
  0
LINE
  8
0
 10
226.571
 20
393.238
 11
226.571
 21
403.428
  0
LINE
  8
0
 10
226.571
 20
403.428
 11
236.761
 21
403.428
  0
LINE
  8
0
 10
236.761
 20
403.428
 11
236.761
 21
393.238
  0
LINE
  8
0
 10
236.761
 20
393.238
 11
226.571
 21
393.238
  0
LINE
  8
0
 10
326.571
 20
393.238
 11
326.571
 21
403.428
  0
LINE
  8
0
 10
326.571
 20
403.428
 11
336.761
 21
403.428
  0
LINE
  8
0
 10
336.761
 20
403.428
 11
336.761
 21
393.238
  0
LINE
  8
0
 10
336.761
 20
393.238
 11
326.571
 21
393.238
  0
LINE
  8
0
 10
393.238
 20
393.238
 11
393.238
 21
403.428
  0
LINE
  8
0
 10
393.238
 20
403.428
 11
403.428
 21
403.428
  0
LINE
  8
0
 10
403.428
 20
403.428
 11
403.428
 21
393.238
  0
LINE
  8
0
 10
403.428
 20
393.238
 11
393.238
 21
393.238
  0
LINE
  8
0
 10
12
 20
321.666
 11
12
 21
375
  0
LINE
  8
0
 10
12
 20
375
 11
18
 21
375
  0
LINE
  8
0
 10
18
 20
375
 11
18
 21
321.666
  0
LINE
  8
0
 10
18
 20
321.666
 11
12
 21
321.666
  0
LINE
  8
0
 10
210
 20
321.666
 11
210
 21
375
  0
LINE
  8
0
 10
210
 20
375
 11
220
 21
375
  0
LINE
  8
0
 10
220
 20
375
 11
220
 21
321.666
  0
LINE
  8
0
 10
220
 20
321.666
 11
210
 21
321.666
  0
LINE
  8
0
 10
459.905
 20
359.905
 11
459.905
 21
370.095
  0
LINE
  8
0
 10
459.905
 20
370.095
 11
470.095
 21
370.095
  0
LINE
  8
0
 10
470.095
 20
370.095
 11
470.095
 21
359.905
  0
LINE
  8
0
 10
470.095
 20
359.905
 11
459.905
 21
359.905
  0
LINE
  8
0
 10
259.905
 20
359.905
 11
259.905
 21
370.095
  0
LINE
  8
0
 10
259.905
 20
370.095
 11
270.095
 21
370.095
  0
LINE
  8
0
 10
270.095
 20
370.095
 11
270.095
 21
359.905
  0
LINE
  8
0
 10
270.095
 20
359.905
 11
259.905
 21
359.905
  0
LINE
  8
0
 10
426.571
 20
359.905
 11
426.571
 21
370.095
  0
LINE
  8
0
 10
426.571
 20
370.095
 11
436.761
 21
370.095
  0
LINE
  8
0
 10
436.761
 20
370.095
 11
436.761
 21
359.905
  0
LINE
  8
0
 10
436.761
 20
359.905
 11
426.571
 21
359.905
  0
LINE
  8
0
 10
393.238
 20
359.905
 11
393.238
 21
370.095
  0
LINE
  8
0
 10
393.238
 20
370.095
 11
403.428
 21
370.095
  0
LINE
  8
0
 10
403.428
 20
370.095
 11
403.428
 21
359.905
  0
LINE
  8
0
 10
403.428
 20
359.905
 11
393.238
 21
359.905
  0
LINE
  8
0
 10
193.238
 20
359.905
 11
193.238
 21
370.095
  0
LINE
  8
0
 10
193.238
 20
370.095
 11
203.428
 21
370.095
  0
LINE
  8
0
 10
203.428
 20
370.095
 11
203.428
 21
359.905
  0
LINE
  8
0
 10
203.428
 20
359.905
 11
193.238
 21
359.905
  0
LINE
  8
0
 10
326.571
 20
359.905
 11
326.571
 21
370.095
  0
LINE
  8
0
 10
326.571
 20
370.095
 11
336.761
 21
370.095
  0
LINE
  8
0
 10
336.761
 20
370.095
 11
336.761
 21
359.905
  0
LINE
  8
0
 10
336.761
 20
359.905
 11
326.571
 21
359.905
  0
LINE
  8
0
 10
226.571
 20
359.905
 11
226.571
 21
370.095
  0
LINE
  8
0
 10
226.571
 20
370.095
 11
236.761
 21
370.095
  0
LINE
  8
0
 10
236.761
 20
370.095
 11
236.761
 21
359.905
  0
LINE
  8
0
 10
236.761
 20
359.905
 11
226.571
 21
359.905
  0
LINE
  8
0
 10
293.238
 20
359.905
 11
293.238
 21
370.095
  0
LINE
  8
0
 10
293.238
 20
370.095
 11
303.428
 21
370.095
  0
LINE
  8
0
 10
303.428
 20
370.095
 11
303.428
 21
359.905
  0
LINE
  8
0
 10
303.428
 20
359.905
 11
293.238
 21
359.905
  0
LINE
  8
0
 10
159.905
 20
359.905
 11
159.905
 21
370.095
  0
LINE
  8
0
 10
159.905
 20
370.095
 11
170.095
 21
370.095
  0
LINE
  8
0
 10
170.095
 20
370.095
 11
170.095
 21
359.905
  0
LINE
  8
0
 10
170.095
 20
359.905
 11
159.905
 21
359.905
  0
LINE
  8
0
 10
359.905
 20
359.905
 11
359.905
 21
370.095
  0
LINE
  8
0
 10
359.905
 20
370.095
 11
370.095
 21
370.095
  0
LINE
  8
0
 10
370.095
 20
370.095
 11
370.095
 21
359.905
  0
LINE
  8
0
 10
370.095
 20
359.905
 11
359.905
 21
359.905
  0
LINE
  8
0
 10
26.5716
 20
359.905
 11
26.5716
 21
370.095
  0
LINE
  8
0
 10
26.5716
 20
370.095
 11
36.7616
 21
370.095
  0
LINE
  8
0
 10
36.7616
 20
370.095
 11
36.7616
 21
359.905
  0
LINE
  8
0
 10
36.7616
 20
359.905
 11
26.5716
 21
359.905
  0
LINE
  8
0
 10
526.571
 20
359.905
 11
526.571
 21
370.095
  0
LINE
  8
0
 10
526.571
 20
370.095
 11
536.761
 21
370.095
  0
LINE
  8
0
 10
536.761
 20
370.095
 11
536.761
 21
359.905
  0
LINE
  8
0
 10
536.761
 20
359.905
 11
526.571
 21
359.905
  0
LINE
  8
0
 10
59.9049
 20
359.905
 11
59.9049
 21
370.095
  0
LINE
  8
0
 10
59.9049
 20
370.095
 11
70.0949
 21
370.095
  0
LINE
  8
0
 10
70.0949
 20
370.095
 11
70.0949
 21
359.905
  0
LINE
  8
0
 10
70.0949
 20
359.905
 11
59.9049
 21
359.905
  0
LINE
  8
0
 10
126.572
 20
359.905
 11
126.572
 21
370.095
  0
LINE
  8
0
 10
126.572
 20
370.095
 11
136.762
 21
370.095
  0
LINE
  8
0
 10
136.762
 20
370.095
 11
136.762
 21
359.905
  0
LINE
  8
0
 10
136.762
 20
359.905
 11
126.572
 21
359.905
  0
LINE
  8
0
 10
493.238
 20
359.905
 11
493.238
 21
370.095
  0
LINE
  8
0
 10
493.238
 20
370.095
 11
503.428
 21
370.095
  0
LINE
  8
0
 10
503.428
 20
370.095
 11
503.428
 21
359.905
  0
LINE
  8
0
 10
503.428
 20
359.905
 11
493.238
 21
359.905
  0
LINE
  8
0
 10
93.2382
 20
359.905
 11
93.2382
 21
370.095
  0
LINE
  8
0
 10
93.2382
 20
370.095
 11
103.428
 21
370.095
  0
LINE
  8
0
 10
103.428
 20
370.095
 11
103.428
 21
359.905
  0
LINE
  8
0
 10
103.428
 20
359.905
 11
93.2382
 21
359.905
  0
LINE
  8
0
 10
545.333
 20
288.333
 11
545.333
 21
341.666
  0
LINE
  8
0
 10
545.333
 20
341.666
 11
551.333
 21
341.666
  0
LINE
  8
0
 10
551.333
 20
341.666
 11
551.333
 21
288.333
  0
LINE
  8
0
 10
551.333
 20
288.333
 11
545.333
 21
288.333
  0
LINE
  8
0
 10
243.333
 20
288.333
 11
243.333
 21
341.666
  0
LINE
  8
0
 10
243.333
 20
341.666
 11
253.333
 21
341.666
  0
LINE
  8
0
 10
253.333
 20
341.666
 11
253.333
 21
288.333
  0
LINE
  8
0
 10
253.333
 20
288.333
 11
243.333
 21
288.333
  0
LINE
  8
0
 10
326.571
 20
326.571
 11
326.571
 21
336.761
  0
LINE
  8
0
 10
326.571
 20
336.761
 11
336.761
 21
336.761
  0
LINE
  8
0
 10
336.761
 20
336.761
 11
336.761
 21
326.571
  0
LINE
  8
0
 10
336.761
 20
326.571
 11
326.571
 21
326.571
  0
LINE
  8
0
 10
259.905
 20
326.571
 11
259.905
 21
336.761
  0
LINE
  8
0
 10
259.905
 20
336.761
 11
270.095
 21
336.761
  0
LINE
  8
0
 10
270.095
 20
336.761
 11
270.095
 21
326.571
  0
LINE
  8
0
 10
270.095
 20
326.571
 11
259.905
 21
326.571
  0
LINE
  8
0
 10
293.238
 20
326.571
 11
293.238
 21
336.761
  0
LINE
  8
0
 10
293.238
 20
336.761
 11
303.428
 21
336.761
  0
LINE
  8
0
 10
303.428
 20
336.761
 11
303.428
 21
326.571
  0
LINE
  8
0
 10
303.428
 20
326.571
 11
293.238
 21
326.571
  0
LINE
  8
0
 10
226.571
 20
326.571
 11
226.571
 21
336.761
  0
LINE
  8
0
 10
226.571
 20
336.761
 11
236.761
 21
336.761
  0
LINE
  8
0
 10
236.761
 20
336.761
 11
236.761
 21
326.571
  0
LINE
  8
0
 10
236.761
 20
326.571
 11
226.571
 21
326.571
  0
LINE
  8
0
 10
526.571
 20
326.571
 11
526.571
 21
336.761
  0
LINE
  8
0
 10
526.571
 20
336.761
 11
536.761
 21
336.761
  0
LINE
  8
0
 10
536.761
 20
336.761
 11
536.761
 21
326.571
  0
LINE
  8
0
 10
536.761
 20
326.571
 11
526.571
 21
326.571
  0
LINE
  8
0
 10
193.238
 20
326.571
 11
193.238
 21
336.761
  0
LINE
  8
0
 10
193.238
 20
336.761
 11
203.428
 21
336.761
  0
LINE
  8
0
 10
203.428
 20
336.761
 11
203.428
 21
326.571
  0
LINE
  8
0
 10
203.428
 20
326.571
 11
193.238
 21
326.571
  0
LINE
  8
0
 10
393.238
 20
326.571
 11
393.238
 21
336.761
  0
LINE
  8
0
 10
393.238
 20
336.761
 11
403.428
 21
336.761
  0
LINE
  8
0
 10
403.428
 20
336.761
 11
403.428
 21
326.571
  0
LINE
  8
0
 10
403.428
 20
326.571
 11
393.238
 21
326.571
  0
LINE
  8
0
 10
159.905
 20
326.571
 11
159.905
 21
336.761
  0
LINE
  8
0
 10
159.905
 20
336.761
 11
170.095
 21
336.761
  0
LINE
  8
0
 10
170.095
 20
336.761
 11
170.095
 21
326.571
  0
LINE
  8
0
 10
170.095
 20
326.571
 11
159.905
 21
326.571
  0
LINE
  8
0
 10
359.905
 20
326.571
 11
359.905
 21
336.761
  0
LINE
  8
0
 10
359.905
 20
336.761
 11
370.095
 21
336.761
  0
LINE
  8
0
 10
370.095
 20
336.761
 11
370.095
 21
326.571
  0
LINE
  8
0
 10
370.095
 20
326.571
 11
359.905
 21
326.571
  0
LINE
  8
0
 10
126.572
 20
326.571
 11
126.572
 21
336.761
  0
LINE
  8
0
 10
126.572
 20
336.761
 11
136.762
 21
336.761
  0
LINE
  8
0
 10
136.762
 20
336.761
 11
136.762
 21
326.571
  0
LINE
  8
0
 10
136.762
 20
326.571
 11
126.572
 21
326.571
  0
LINE
  8
0
 10
26.5716
 20
326.571
 11
26.5716
 21
336.761
  0
LINE
  8
0
 10
26.5716
 20
336.761
 11
36.7616
 21
336.761
  0
LINE
  8
0
 10
36.7616
 20
336.761
 11
36.7616
 21
326.571
  0
LINE
  8
0
 10
36.7616
 20
326.571
 11
26.5716
 21
326.571
  0
LINE
  8
0
 10
426.571
 20
326.571
 11
426.571
 21
336.761
  0
LINE
  8
0
 10
426.571
 20
336.761
 11
436.761
 21
336.761
  0
LINE
  8
0
 10
436.761
 20
336.761
 11
436.761
 21
326.571
  0
LINE
  8
0
 10
436.761
 20
326.571
 11
426.571
 21
326.571
  0
LINE
  8
0
 10
93.2382
 20
326.571
 11
93.2382
 21
336.761
  0
LINE
  8
0
 10
93.2382
 20
336.761
 11
103.428
 21
336.761
  0
LINE
  8
0
 10
103.428
 20
336.761
 11
103.428
 21
326.571
  0
LINE
  8
0
 10
103.428
 20
326.571
 11
93.2382
 21
326.571
  0
LINE
  8
0
 10
459.905
 20
326.571
 11
459.905
 21
336.761
  0
LINE
  8
0
 10
459.905
 20
336.761
 11
470.095
 21
336.761
  0
LINE
  8
0
 10
470.095
 20
336.761
 11
470.095
 21
326.571
  0
LINE
  8
0
 10
470.095
 20
326.571
 11
459.905
 21
326.571
  0
LINE
  8
0
 10
59.9049
 20
326.571
 11
59.9049
 21
336.761
  0
LINE
  8
0
 10
59.9049
 20
336.761
 11
70.0949
 21
336.761
  0
LINE
  8
0
 10
70.0949
 20
336.761
 11
70.0949
 21
326.571
  0
LINE
  8
0
 10
70.0949
 20
326.571
 11
59.9049
 21
326.571
  0
LINE
  8
0
 10
493.238
 20
326.571
 11
493.238
 21
336.761
  0
LINE
  8
0
 10
493.238
 20
336.761
 11
503.428
 21
336.761
  0
LINE
  8
0
 10
503.428
 20
336.761
 11
503.428
 21
326.571
  0
LINE
  8
0
 10
503.428
 20
326.571
 11
493.238
 21
326.571
  0
LINE
  8
0
 10
276.666
 20
255
 11
276.666
 21
308.333
  0
LINE
  8
0
 10
276.666
 20
308.333
 11
286.666
 21
308.333
  0
LINE
  8
0
 10
286.666
 20
308.333
 11
286.666
 21
255
  0
LINE
  8
0
 10
286.666
 20
255
 11
276.666
 21
255
  0
LINE
  8
0
 10
12
 20
255
 11
12
 21
308.333
  0
LINE
  8
0
 10
12
 20
308.333
 11
18
 21
308.333
  0
LINE
  8
0
 10
18
 20
308.333
 11
18
 21
255
  0
LINE
  8
0
 10
18
 20
255
 11
12
 21
255
  0
LINE
  8
0
 10
393.238
 20
293.238
 11
393.238
 21
303.428
  0
LINE
  8
0
 10
393.238
 20
303.428
 11
403.428
 21
303.428
  0
LINE
  8
0
 10
403.428
 20
303.428
 11
403.428
 21
293.238
  0
LINE
  8
0
 10
403.428
 20
293.238
 11
393.238
 21
293.238
  0
LINE
  8
0
 10
26.5716
 20
293.238
 11
26.5716
 21
303.428
  0
LINE
  8
0
 10
26.5716
 20
303.428
 11
36.7616
 21
303.428
  0
LINE
  8
0
 10
36.7616
 20
303.428
 11
36.7616
 21
293.238
  0
LINE
  8
0
 10
36.7616
 20
293.238
 11
26.5716
 21
293.238
  0
LINE
  8
0
 10
359.905
 20
293.238
 11
359.905
 21
303.428
  0
LINE
  8
0
 10
359.905
 20
303.428
 11
370.095
 21
303.428
  0
LINE
  8
0
 10
370.095
 20
303.428
 11
370.095
 21
293.238
  0
LINE
  8
0
 10
370.095
 20
293.238
 11
359.905
 21
293.238
  0
LINE
  8
0
 10
259.905
 20
293.238
 11
259.905
 21
303.428
  0
LINE
  8
0
 10
259.905
 20
303.428
 11
270.095
 21
303.428
  0
LINE
  8
0
 10
270.095
 20
303.428
 11
270.095
 21
293.238
  0
LINE
  8
0
 10
270.095
 20
293.238
 11
259.905
 21
293.238
  0
LINE
  8
0
 10
159.905
 20
293.238
 11
159.905
 21
303.428
  0
LINE
  8
0
 10
159.905
 20
303.428
 11
170.095
 21
303.428
  0
LINE
  8
0
 10
170.095
 20
303.428
 11
170.095
 21
293.238
  0
LINE
  8
0
 10
170.095
 20
293.238
 11
159.905
 21
293.238
  0
LINE
  8
0
 10
493.238
 20
293.238
 11
493.238
 21
303.428
  0
LINE
  8
0
 10
493.238
 20
303.428
 11
503.428
 21
303.428
  0
LINE
  8
0
 10
503.428
 20
303.428
 11
503.428
 21
293.238
  0
LINE
  8
0
 10
503.428
 20
293.238
 11
493.238
 21
293.238
  0
LINE
  8
0
 10
193.238
 20
293.238
 11
193.238
 21
303.428
  0
LINE
  8
0
 10
193.238
 20
303.428
 11
203.428
 21
303.428
  0
LINE
  8
0
 10
203.428
 20
303.428
 11
203.428
 21
293.238
  0
LINE
  8
0
 10
203.428
 20
293.238
 11
193.238
 21
293.238
  0
LINE
  8
0
 10
226.571
 20
293.238
 11
226.571
 21
303.428
  0
LINE
  8
0
 10
226.571
 20
303.428
 11
236.761
 21
303.428
  0
LINE
  8
0
 10
236.761
 20
303.428
 11
236.761
 21
293.238
  0
LINE
  8
0
 10
236.761
 20
293.238
 11
226.571
 21
293.238
  0
LINE
  8
0
 10
293.238
 20
293.238
 11
293.238
 21
303.428
  0
LINE
  8
0
 10
293.238
 20
303.428
 11
303.428
 21
303.428
  0
LINE
  8
0
 10
303.428
 20
303.428
 11
303.428
 21
293.238
  0
LINE
  8
0
 10
303.428
 20
293.238
 11
293.238
 21
293.238
  0
LINE
  8
0
 10
526.571
 20
293.238
 11
526.571
 21
303.428
  0
LINE
  8
0
 10
526.571
 20
303.428
 11
536.761
 21
303.428
  0
LINE
  8
0
 10
536.761
 20
303.428
 11
536.761
 21
293.238
  0
LINE
  8
0
 10
536.761
 20
293.238
 11
526.571
 21
293.238
  0
LINE
  8
0
 10
326.571
 20
293.238
 11
326.571
 21
303.428
  0
LINE
  8
0
 10
326.571
 20
303.428
 11
336.761
 21
303.428
  0
LINE
  8
0
 10
336.761
 20
303.428
 11
336.761
 21
293.238
  0
LINE
  8
0
 10
336.761
 20
293.238
 11
326.571
 21
293.238
  0
LINE
  8
0
 10
126.572
 20
293.238
 11
126.572
 21
303.428
  0
LINE
  8
0
 10
126.572
 20
303.428
 11
136.762
 21
303.428
  0
LINE
  8
0
 10
136.762
 20
303.428
 11
136.762
 21
293.238
  0
LINE
  8
0
 10
136.762
 20
293.238
 11
126.572
 21
293.238
  0
LINE
  8
0
 10
59.9049
 20
293.238
 11
59.9049
 21
303.428
  0
LINE
  8
0
 10
59.9049
 20
303.428
 11
70.0949
 21
303.428
  0
LINE
  8
0
 10
70.0949
 20
303.428
 11
70.0949
 21
293.238
  0
LINE
  8
0
 10
70.0949
 20
293.238
 11
59.9049
 21
293.238
  0
LINE
  8
0
 10
426.571
 20
293.238
 11
426.571
 21
303.428
  0
LINE
  8
0
 10
426.571
 20
303.428
 11
436.761
 21
303.428
  0
LINE
  8
0
 10
436.761
 20
303.428
 11
436.761
 21
293.238
  0
LINE
  8
0
 10
436.761
 20
293.238
 11
426.571
 21
293.238
  0
LINE
  8
0
 10
93.2382
 20
293.238
 11
93.2382
 21
303.428
  0
LINE
  8
0
 10
93.2382
 20
303.428
 11
103.428
 21
303.428
  0
LINE
  8
0
 10
103.428
 20
303.428
 11
103.428
 21
293.238
  0
LINE
  8
0
 10
103.428
 20
293.238
 11
93.2382
 21
293.238
  0
LINE
  8
0
 10
459.905
 20
293.238
 11
459.905
 21
303.428
  0
LINE
  8
0
 10
459.905
 20
303.428
 11
470.095
 21
303.428
  0
LINE
  8
0
 10
470.095
 20
303.428
 11
470.095
 21
293.238
  0
LINE
  8
0
 10
470.095
 20
293.238
 11
459.905
 21
293.238
  0
LINE
  8
0
 10
545.333
 20
221.666
 11
545.333
 21
275
  0
LINE
  8
0
 10
545.333
 20
275
 11
551.333
 21
275
  0
LINE
  8
0
 10
551.333
 20
275
 11
551.333
 21
221.666
  0
LINE
  8
0
 10
551.333
 20
221.666
 11
545.333
 21
221.666
  0
LINE
  8
0
 10
310
 20
221.666
 11
310
 21
275
  0
LINE
  8
0
 10
310
 20
275
 11
320
 21
275
  0
LINE
  8
0
 10
320
 20
275
 11
320
 21
221.666
  0
LINE
  8
0
 10
320
 20
221.666
 11
310
 21
221.666
  0
LINE
  8
0
 10
359.905
 20
259.905
 11
359.905
 21
270.095
  0
LINE
  8
0
 10
359.905
 20
270.095
 11
370.095
 21
270.095
  0
LINE
  8
0
 10
370.095
 20
270.095
 11
370.095
 21
259.905
  0
LINE
  8
0
 10
370.095
 20
259.905
 11
359.905
 21
259.905
  0
LINE
  8
0
 10
193.238
 20
259.905
 11
193.238
 21
270.095
  0
LINE
  8
0
 10
193.238
 20
270.095
 11
203.428
 21
270.095
  0
LINE
  8
0
 10
203.428
 20
270.095
 11
203.428
 21
259.905
  0
LINE
  8
0
 10
203.428
 20
259.905
 11
193.238
 21
259.905
  0
LINE
  8
0
 10
326.571
 20
259.905
 11
326.571
 21
270.095
  0
LINE
  8
0
 10
326.571
 20
270.095
 11
336.761
 21
270.095
  0
LINE
  8
0
 10
336.761
 20
270.095
 11
336.761
 21
259.905
  0
LINE
  8
0
 10
336.761
 20
259.905
 11
326.571
 21
259.905
  0
LINE
  8
0
 10
226.571
 20
259.905
 11
226.571
 21
270.095
  0
LINE
  8
0
 10
226.571
 20
270.095
 11
236.761
 21
270.095
  0
LINE
  8
0
 10
236.761
 20
270.095
 11
236.761
 21
259.905
  0
LINE
  8
0
 10
236.761
 20
259.905
 11
226.571
 21
259.905
  0
LINE
  8
0
 10
159.905
 20
259.905
 11
159.905
 21
270.095
  0
LINE
  8
0
 10
159.905
 20
270.095
 11
170.095
 21
270.095
  0
LINE
  8
0
 10
170.095
 20
270.095
 11
170.095
 21
259.905
  0
LINE
  8
0
 10
170.095
 20
259.905
 11
159.905
 21
259.905
  0
LINE
  8
0
 10
393.238
 20
259.905
 11
393.238
 21
270.095
  0
LINE
  8
0
 10
393.238
 20
270.095
 11
403.428
 21
270.095
  0
LINE
  8
0
 10
403.428
 20
270.095
 11
403.428
 21
259.905
  0
LINE
  8
0
 10
403.428
 20
259.905
 11
393.238
 21
259.905
  0
LINE
  8
0
 10
126.572
 20
259.905
 11
126.572
 21
270.095
  0
LINE
  8
0
 10
126.572
 20
270.095
 11
136.762
 21
270.095
  0
LINE
  8
0
 10
136.762
 20
270.095
 11
136.762
 21
259.905
  0
LINE
  8
0
 10
136.762
 20
259.905
 11
126.572
 21
259.905
  0
LINE
  8
0
 10
259.905
 20
259.905
 11
259.905
 21
270.095
  0
LINE
  8
0
 10
259.905
 20
270.095
 11
270.095
 21
270.095
  0
LINE
  8
0
 10
270.095
 20
270.095
 11
270.095
 21
259.905
  0
LINE
  8
0
 10
270.095
 20
259.905
 11
259.905
 21
259.905
  0
LINE
  8
0
 10
426.571
 20
259.905
 11
426.571
 21
270.095
  0
LINE
  8
0
 10
426.571
 20
270.095
 11
436.761
 21
270.095
  0
LINE
  8
0
 10
436.761
 20
270.095
 11
436.761
 21
259.905
  0
LINE
  8
0
 10
436.761
 20
259.905
 11
426.571
 21
259.905
  0
LINE
  8
0
 10
93.2382
 20
259.905
 11
93.2382
 21
270.095
  0
LINE
  8
0
 10
93.2382
 20
270.095
 11
103.428
 21
270.095
  0
LINE
  8
0
 10
103.428
 20
270.095
 11
103.428
 21
259.905
  0
LINE
  8
0
 10
103.428
 20
259.905
 11
93.2382
 21
259.905
  0
LINE
  8
0
 10
459.905
 20
259.905
 11
459.905
 21
270.095
  0
LINE
  8
0
 10
459.905
 20
270.095
 11
470.095
 21
270.095
  0
LINE
  8
0
 10
470.095
 20
270.095
 11
470.095
 21
259.905
  0
LINE
  8
0
 10
470.095
 20
259.905
 11
459.905
 21
259.905
  0
LINE
  8
0
 10
59.9049
 20
259.905
 11
59.9049
 21
270.095
  0
LINE
  8
0
 10
59.9049
 20
270.095
 11
70.0949
 21
270.095
  0
LINE
  8
0
 10
70.0949
 20
270.095
 11
70.0949
 21
259.905
  0
LINE
  8
0
 10
70.0949
 20
259.905
 11
59.9049
 21
259.905
  0
LINE
  8
0
 10
493.238
 20
259.905
 11
493.238
 21
270.095
  0
LINE
  8
0
 10
493.238
 20
270.095
 11
503.428
 21
270.095
  0
LINE
  8
0
 10
503.428
 20
270.095
 11
503.428
 21
259.905
  0
LINE
  8
0
 10
503.428
 20
259.905
 11
493.238
 21
259.905
  0
LINE
  8
0
 10
26.5716
 20
259.905
 11
26.5716
 21
270.095
  0
LINE
  8
0
 10
26.5716
 20
270.095
 11
36.7616
 21
270.095
  0
LINE
  8
0
 10
36.7616
 20
270.095
 11
36.7616
 21
259.905
  0
LINE
  8
0
 10
36.7616
 20
259.905
 11
26.5716
 21
259.905
  0
LINE
  8
0
 10
526.571
 20
259.905
 11
526.571
 21
270.095
  0
LINE
  8
0
 10
526.571
 20
270.095
 11
536.761
 21
270.095
  0
LINE
  8
0
 10
536.761
 20
270.095
 11
536.761
 21
259.905
  0
LINE
  8
0
 10
536.761
 20
259.905
 11
526.571
 21
259.905
  0
LINE
  8
0
 10
293.238
 20
259.905
 11
293.238
 21
270.095
  0
LINE
  8
0
 10
293.238
 20
270.095
 11
303.428
 21
270.095
  0
LINE
  8
0
 10
303.428
 20
270.095
 11
303.428
 21
259.905
  0
LINE
  8
0
 10
303.428
 20
259.905
 11
293.238
 21
259.905
  0
LINE
  8
0
 10
12
 20
188.333
 11
12
 21
241.666
  0
LINE
  8
0
 10
12
 20
241.666
 11
18
 21
241.666
  0
LINE
  8
0
 10
18
 20
241.666
 11
18
 21
188.333
  0
LINE
  8
0
 10
18
 20
188.333
 11
12
 21
188.333
  0
LINE
  8
0
 10
343.333
 20
188.333
 11
343.333
 21
241.666
  0
LINE
  8
0
 10
343.333
 20
241.666
 11
353.333
 21
241.666
  0
LINE
  8
0
 10
353.333
 20
241.666
 11
353.333
 21
188.333
  0
LINE
  8
0
 10
353.333
 20
188.333
 11
343.333
 21
188.333
  0
LINE
  8
0
 10
459.905
 20
226.571
 11
459.905
 21
236.761
  0
LINE
  8
0
 10
459.905
 20
236.761
 11
470.095
 21
236.761
  0
LINE
  8
0
 10
470.095
 20
236.761
 11
470.095
 21
226.571
  0
LINE
  8
0
 10
470.095
 20
226.571
 11
459.905
 21
226.571
  0
LINE
  8
0
 10
293.238
 20
226.571
 11
293.238
 21
236.761
  0
LINE
  8
0
 10
293.238
 20
236.761
 11
303.428
 21
236.761
  0
LINE
  8
0
 10
303.428
 20
236.761
 11
303.428
 21
226.571
  0
LINE
  8
0
 10
303.428
 20
226.571
 11
293.238
 21
226.571
  0
LINE
  8
0
 10
126.572
 20
226.571
 11
126.572
 21
236.761
  0
LINE
  8
0
 10
126.572
 20
236.761
 11
136.762
 21
236.761
  0
LINE
  8
0
 10
136.762
 20
236.761
 11
136.762
 21
226.571
  0
LINE
  8
0
 10
136.762
 20
226.571
 11
126.572
 21
226.571
  0
LINE
  8
0
 10
526.571
 20
226.571
 11
526.571
 21
236.761
  0
LINE
  8
0
 10
526.571
 20
236.761
 11
536.761
 21
236.761
  0
LINE
  8
0
 10
536.761
 20
236.761
 11
536.761
 21
226.571
  0
LINE
  8
0
 10
536.761
 20
226.571
 11
526.571
 21
226.571
  0
LINE
  8
0
 10
493.238
 20
226.571
 11
493.238
 21
236.761
  0
LINE
  8
0
 10
493.238
 20
236.761
 11
503.428
 21
236.761
  0
LINE
  8
0
 10
503.428
 20
236.761
 11
503.428
 21
226.571
  0
LINE
  8
0
 10
503.428
 20
226.571
 11
493.238
 21
226.571
  0
LINE
  8
0
 10
393.238
 20
226.571
 11
393.238
 21
236.761
  0
LINE
  8
0
 10
393.238
 20
236.761
 11
403.428
 21
236.761
  0
LINE
  8
0
 10
403.428
 20
236.761
 11
403.428
 21
226.571
  0
LINE
  8
0
 10
403.428
 20
226.571
 11
393.238
 21
226.571
  0
LINE
  8
0
 10
159.905
 20
226.571
 11
159.905
 21
236.761
  0
LINE
  8
0
 10
159.905
 20
236.761
 11
170.095
 21
236.761
  0
LINE
  8
0
 10
170.095
 20
236.761
 11
170.095
 21
226.571
  0
LINE
  8
0
 10
170.095
 20
226.571
 11
159.905
 21
226.571
  0
LINE
  8
0
 10
226.571
 20
226.571
 11
226.571
 21
236.761
  0
LINE
  8
0
 10
226.571
 20
236.761
 11
236.761
 21
236.761
  0
LINE
  8
0
 10
236.761
 20
236.761
 11
236.761
 21
226.571
  0
LINE
  8
0
 10
236.761
 20
226.571
 11
226.571
 21
226.571
  0
LINE
  8
0
 10
193.238
 20
226.571
 11
193.238
 21
236.761
  0
LINE
  8
0
 10
193.238
 20
236.761
 11
203.428
 21
236.761
  0
LINE
  8
0
 10
203.428
 20
236.761
 11
203.428
 21
226.571
  0
LINE
  8
0
 10
203.428
 20
226.571
 11
193.238
 21
226.571
  0
LINE
  8
0
 10
26.5716
 20
226.571
 11
26.5716
 21
236.761
  0
LINE
  8
0
 10
26.5716
 20
236.761
 11
36.7616
 21
236.761
  0
LINE
  8
0
 10
36.7616
 20
236.761
 11
36.7616
 21
226.571
  0
LINE
  8
0
 10
36.7616
 20
226.571
 11
26.5716
 21
226.571
  0
LINE
  8
0
 10
59.9049
 20
226.571
 11
59.9049
 21
236.761
  0
LINE
  8
0
 10
59.9049
 20
236.761
 11
70.0949
 21
236.761
  0
LINE
  8
0
 10
70.0949
 20
236.761
 11
70.0949
 21
226.571
  0
LINE
  8
0
 10
70.0949
 20
226.571
 11
59.9049
 21
226.571
  0
LINE
  8
0
 10
326.571
 20
226.571
 11
326.571
 21
236.761
  0
LINE
  8
0
 10
326.571
 20
236.761
 11
336.761
 21
236.761
  0
LINE
  8
0
 10
336.761
 20
236.761
 11
336.761
 21
226.571
  0
LINE
  8
0
 10
336.761
 20
226.571
 11
326.571
 21
226.571
  0
LINE
  8
0
 10
259.905
 20
226.571
 11
259.905
 21
236.761
  0
LINE
  8
0
 10
259.905
 20
236.761
 11
270.095
 21
236.761
  0
LINE
  8
0
 10
270.095
 20
236.761
 11
270.095
 21
226.571
  0
LINE
  8
0
 10
270.095
 20
226.571
 11
259.905
 21
226.571
  0
LINE
  8
0
 10
93.2382
 20
226.571
 11
93.2382
 21
236.761
  0
LINE
  8
0
 10
93.2382
 20
236.761
 11
103.428
 21
236.761
  0
LINE
  8
0
 10
103.428
 20
236.761
 11
103.428
 21
226.571
  0
LINE
  8
0
 10
103.428
 20
226.571
 11
93.2382
 21
226.571
  0
LINE
  8
0
 10
426.571
 20
226.571
 11
426.571
 21
236.761
  0
LINE
  8
0
 10
426.571
 20
236.761
 11
436.761
 21
236.761
  0
LINE
  8
0
 10
436.761
 20
236.761
 11
436.761
 21
226.571
  0
LINE
  8
0
 10
436.761
 20
226.571
 11
426.571
 21
226.571
  0
LINE
  8
0
 10
359.905
 20
226.571
 11
359.905
 21
236.761
  0
LINE
  8
0
 10
359.905
 20
236.761
 11
370.095
 21
236.761
  0
LINE
  8
0
 10
370.095
 20
236.761
 11
370.095
 21
226.571
  0
LINE
  8
0
 10
370.095
 20
226.571
 11
359.905
 21
226.571
  0
LINE
  8
0
 10
545.333
 20
155
 11
545.333
 21
208.333
  0
LINE
  8
0
 10
545.333
 20
208.333
 11
551.333
 21
208.333
  0
LINE
  8
0
 10
551.333
 20
208.333
 11
551.333
 21
155
  0
LINE
  8
0
 10
551.333
 20
155
 11
545.333
 21
155
  0
LINE
  8
0
 10
376.666
 20
155
 11
376.666
 21
208.333
  0
LINE
  8
0
 10
376.666
 20
208.333
 11
386.666
 21
208.333
  0
LINE
  8
0
 10
386.666
 20
208.333
 11
386.666
 21
155
  0
LINE
  8
0
 10
386.666
 20
155
 11
376.666
 21
155
  0
LINE
  8
0
 10
326.571
 20
193.238
 11
326.571
 21
203.428
  0
LINE
  8
0
 10
326.571
 20
203.428
 11
336.761
 21
203.428
  0
LINE
  8
0
 10
336.761
 20
203.428
 11
336.761
 21
193.238
  0
LINE
  8
0
 10
336.761
 20
193.238
 11
326.571
 21
193.238
  0
LINE
  8
0
 10
426.571
 20
193.238
 11
426.571
 21
203.428
  0
LINE
  8
0
 10
426.571
 20
203.428
 11
436.761
 21
203.428
  0
LINE
  8
0
 10
436.761
 20
203.428
 11
436.761
 21
193.238
  0
LINE
  8
0
 10
436.761
 20
193.238
 11
426.571
 21
193.238
  0
LINE
  8
0
 10
393.238
 20
193.238
 11
393.238
 21
203.428
  0
LINE
  8
0
 10
393.238
 20
203.428
 11
403.428
 21
203.428
  0
LINE
  8
0
 10
403.428
 20
203.428
 11
403.428
 21
193.238
  0
LINE
  8
0
 10
403.428
 20
193.238
 11
393.238
 21
193.238
  0
LINE
  8
0
 10
293.238
 20
193.238
 11
293.238
 21
203.428
  0
LINE
  8
0
 10
293.238
 20
203.428
 11
303.428
 21
203.428
  0
LINE
  8
0
 10
303.428
 20
203.428
 11
303.428
 21
193.238
  0
LINE
  8
0
 10
303.428
 20
193.238
 11
293.238
 21
193.238
  0
LINE
  8
0
 10
526.571
 20
193.238
 11
526.571
 21
203.428
  0
LINE
  8
0
 10
526.571
 20
203.428
 11
536.761
 21
203.428
  0
LINE
  8
0
 10
536.761
 20
203.428
 11
536.761
 21
193.238
  0
LINE
  8
0
 10
536.761
 20
193.238
 11
526.571
 21
193.238
  0
LINE
  8
0
 10
459.905
 20
193.238
 11
459.905
 21
203.428
  0
LINE
  8
0
 10
459.905
 20
203.428
 11
470.095
 21
203.428
  0
LINE
  8
0
 10
470.095
 20
203.428
 11
470.095
 21
193.238
  0
LINE
  8
0
 10
470.095
 20
193.238
 11
459.905
 21
193.238
  0
LINE
  8
0
 10
26.5716
 20
193.238
 11
26.5716
 21
203.428
  0
LINE
  8
0
 10
26.5716
 20
203.428
 11
36.7616
 21
203.428
  0
LINE
  8
0
 10
36.7616
 20
203.428
 11
36.7616
 21
193.238
  0
LINE
  8
0
 10
36.7616
 20
193.238
 11
26.5716
 21
193.238
  0
LINE
  8
0
 10
126.572
 20
193.238
 11
126.572
 21
203.428
  0
LINE
  8
0
 10
126.572
 20
203.428
 11
136.762
 21
203.428
  0
LINE
  8
0
 10
136.762
 20
203.428
 11
136.762
 21
193.238
  0
LINE
  8
0
 10
136.762
 20
193.238
 11
126.572
 21
193.238
  0
LINE
  8
0
 10
493.238
 20
193.238
 11
493.238
 21
203.428
  0
LINE
  8
0
 10
493.238
 20
203.428
 11
503.428
 21
203.428
  0
LINE
  8
0
 10
503.428
 20
203.428
 11
503.428
 21
193.238
  0
LINE
  8
0
 10
503.428
 20
193.238
 11
493.238
 21
193.238
  0
LINE
  8
0
 10
59.9049
 20
193.238
 11
59.9049
 21
203.428
  0
LINE
  8
0
 10
59.9049
 20
203.428
 11
70.0949
 21
203.428
  0
LINE
  8
0
 10
70.0949
 20
203.428
 11
70.0949
 21
193.238
  0
LINE
  8
0
 10
70.0949
 20
193.238
 11
59.9049
 21
193.238
  0
LINE
  8
0
 10
359.905
 20
193.238
 11
359.905
 21
203.428
  0
LINE
  8
0
 10
359.905
 20
203.428
 11
370.095
 21
203.428
  0
LINE
  8
0
 10
370.095
 20
203.428
 11
370.095
 21
193.238
  0
LINE
  8
0
 10
370.095
 20
193.238
 11
359.905
 21
193.238
  0
LINE
  8
0
 10
226.571
 20
193.238
 11
226.571
 21
203.428
  0
LINE
  8
0
 10
226.571
 20
203.428
 11
236.761
 21
203.428
  0
LINE
  8
0
 10
236.761
 20
203.428
 11
236.761
 21
193.238
  0
LINE
  8
0
 10
236.761
 20
193.238
 11
226.571
 21
193.238
  0
LINE
  8
0
 10
93.2382
 20
193.238
 11
93.2382
 21
203.428
  0
LINE
  8
0
 10
93.2382
 20
203.428
 11
103.428
 21
203.428
  0
LINE
  8
0
 10
103.428
 20
203.428
 11
103.428
 21
193.238
  0
LINE
  8
0
 10
103.428
 20
193.238
 11
93.2382
 21
193.238
  0
LINE
  8
0
 10
159.905
 20
193.238
 11
159.905
 21
203.428
  0
LINE
  8
0
 10
159.905
 20
203.428
 11
170.095
 21
203.428
  0
LINE
  8
0
 10
170.095
 20
203.428
 11
170.095
 21
193.238
  0
LINE
  8
0
 10
170.095
 20
193.238
 11
159.905
 21
193.238
  0
LINE
  8
0
 10
193.238
 20
193.238
 11
193.238
 21
203.428
  0
LINE
  8
0
 10
193.238
 20
203.428
 11
203.428
 21
203.428
  0
LINE
  8
0
 10
203.428
 20
203.428
 11
203.428
 21
193.238
  0
LINE
  8
0
 10
203.428
 20
193.238
 11
193.238
 21
193.238
  0
LINE
  8
0
 10
259.905
 20
193.238
 11
259.905
 21
203.428
  0
LINE
  8
0
 10
259.905
 20
203.428
 11
270.095
 21
203.428
  0
LINE
  8
0
 10
270.095
 20
203.428
 11
270.095
 21
193.238
  0
LINE
  8
0
 10
270.095
 20
193.238
 11
259.905
 21
193.238
  0
LINE
  8
0
 10
12
 20
121.667
 11
12
 21
175
  0
LINE
  8
0
 10
12
 20
175
 11
18
 21
175
  0
LINE
  8
0
 10
18
 20
175
 11
18
 21
121.667
  0
LINE
  8
0
 10
18
 20
121.667
 11
12
 21
121.667
  0
LINE
  8
0
 10
410
 20
121.667
 11
410
 21
175
  0
LINE
  8
0
 10
410
 20
175
 11
420
 21
175
  0
LINE
  8
0
 10
420
 20
175
 11
420
 21
121.667
  0
LINE
  8
0
 10
420
 20
121.667
 11
410
 21
121.667
  0
LINE
  8
0
 10
526.571
 20
159.905
 11
526.571
 21
170.095
  0
LINE
  8
0
 10
526.571
 20
170.095
 11
536.761
 21
170.095
  0
LINE
  8
0
 10
536.761
 20
170.095
 11
536.761
 21
159.905
  0
LINE
  8
0
 10
536.761
 20
159.905
 11
526.571
 21
159.905
  0
LINE
  8
0
 10
59.9049
 20
159.905
 11
59.9049
 21
170.095
  0
LINE
  8
0
 10
59.9049
 20
170.095
 11
70.0949
 21
170.095
  0
LINE
  8
0
 10
70.0949
 20
170.095
 11
70.0949
 21
159.905
  0
LINE
  8
0
 10
70.0949
 20
159.905
 11
59.9049
 21
159.905
  0
LINE
  8
0
 10
226.571
 20
159.905
 11
226.571
 21
170.095
  0
LINE
  8
0
 10
226.571
 20
170.095
 11
236.761
 21
170.095
  0
LINE
  8
0
 10
236.761
 20
170.095
 11
236.761
 21
159.905
  0
LINE
  8
0
 10
236.761
 20
159.905
 11
226.571
 21
159.905
  0
LINE
  8
0
 10
459.905
 20
159.905
 11
459.905
 21
170.095
  0
LINE
  8
0
 10
459.905
 20
170.095
 11
470.095
 21
170.095
  0
LINE
  8
0
 10
470.095
 20
170.095
 11
470.095
 21
159.905
  0
LINE
  8
0
 10
470.095
 20
159.905
 11
459.905
 21
159.905
  0
LINE
  8
0
 10
393.238
 20
159.905
 11
393.238
 21
170.095
  0
LINE
  8
0
 10
393.238
 20
170.095
 11
403.428
 21
170.095
  0
LINE
  8
0
 10
403.428
 20
170.095
 11
403.428
 21
159.905
  0
LINE
  8
0
 10
403.428
 20
159.905
 11
393.238
 21
159.905
  0
LINE
  8
0
 10
193.238
 20
159.905
 11
193.238
 21
170.095
  0
LINE
  8
0
 10
193.238
 20
170.095
 11
203.428
 21
170.095
  0
LINE
  8
0
 10
203.428
 20
170.095
 11
203.428
 21
159.905
  0
LINE
  8
0
 10
203.428
 20
159.905
 11
193.238
 21
159.905
  0
LINE
  8
0
 10
493.238
 20
159.905
 11
493.238
 21
170.095
  0
LINE
  8
0
 10
493.238
 20
170.095
 11
503.428
 21
170.095
  0
LINE
  8
0
 10
503.428
 20
170.095
 11
503.428
 21
159.905
  0
LINE
  8
0
 10
503.428
 20
159.905
 11
493.238
 21
159.905
  0
LINE
  8
0
 10
259.905
 20
159.905
 11
259.905
 21
170.095
  0
LINE
  8
0
 10
259.905
 20
170.095
 11
270.095
 21
170.095
  0
LINE
  8
0
 10
270.095
 20
170.095
 11
270.095
 21
159.905
  0
LINE
  8
0
 10
270.095
 20
159.905
 11
259.905
 21
159.905
  0
LINE
  8
0
 10
293.238
 20
159.905
 11
293.238
 21
170.095
  0
LINE
  8
0
 10
293.238
 20
170.095
 11
303.428
 21
170.095
  0
LINE
  8
0
 10
303.428
 20
170.095
 11
303.428
 21
159.905
  0
LINE
  8
0
 10
303.428
 20
159.905
 11
293.238
 21
159.905
  0
LINE
  8
0
 10
359.905
 20
159.905
 11
359.905
 21
170.095
  0
LINE
  8
0
 10
359.905
 20
170.095
 11
370.095
 21
170.095
  0
LINE
  8
0
 10
370.095
 20
170.095
 11
370.095
 21
159.905
  0
LINE
  8
0
 10
370.095
 20
159.905
 11
359.905
 21
159.905
  0
LINE
  8
0
 10
93.2382
 20
159.905
 11
93.2382
 21
170.095
  0
LINE
  8
0
 10
93.2382
 20
170.095
 11
103.428
 21
170.095
  0
LINE
  8
0
 10
103.428
 20
170.095
 11
103.428
 21
159.905
  0
LINE
  8
0
 10
103.428
 20
159.905
 11
93.2382
 21
159.905
  0
LINE
  8
0
 10
159.905
 20
159.905
 11
159.905
 21
170.095
  0
LINE
  8
0
 10
159.905
 20
170.095
 11
170.095
 21
170.095
  0
LINE
  8
0
 10
170.095
 20
170.095
 11
170.095
 21
159.905
  0
LINE
  8
0
 10
170.095
 20
159.905
 11
159.905
 21
159.905
  0
LINE
  8
0
 10
426.571
 20
159.905
 11
426.571
 21
170.095
  0
LINE
  8
0
 10
426.571
 20
170.095
 11
436.761
 21
170.095
  0
LINE
  8
0
 10
436.761
 20
170.095
 11
436.761
 21
159.905
  0
LINE
  8
0
 10
436.761
 20
159.905
 11
426.571
 21
159.905
  0
LINE
  8
0
 10
326.571
 20
159.905
 11
326.571
 21
170.095
  0
LINE
  8
0
 10
326.571
 20
170.095
 11
336.761
 21
170.095
  0
LINE
  8
0
 10
336.761
 20
170.095
 11
336.761
 21
159.905
  0
LINE
  8
0
 10
336.761
 20
159.905
 11
326.571
 21
159.905
  0
LINE
  8
0
 10
26.5716
 20
159.905
 11
26.5716
 21
170.095
  0
LINE
  8
0
 10
26.5716
 20
170.095
 11
36.7616
 21
170.095
  0
LINE
  8
0
 10
36.7616
 20
170.095
 11
36.7616
 21
159.905
  0
LINE
  8
0
 10
36.7616
 20
159.905
 11
26.5716
 21
159.905
  0
LINE
  8
0
 10
126.572
 20
159.905
 11
126.572
 21
170.095
  0
LINE
  8
0
 10
126.572
 20
170.095
 11
136.762
 21
170.095
  0
LINE
  8
0
 10
136.762
 20
170.095
 11
136.762
 21
159.905
  0
LINE
  8
0
 10
136.762
 20
159.905
 11
126.572
 21
159.905
  0
LINE
  8
0
 10
545.333
 20
88.3332
 11
545.333
 21
141.667
  0
LINE
  8
0
 10
545.333
 20
141.667
 11
551.333
 21
141.667
  0
LINE
  8
0
 10
551.333
 20
141.667
 11
551.333
 21
88.3332
  0
LINE
  8
0
 10
551.333
 20
88.3332
 11
545.333
 21
88.3332
  0
LINE
  8
0
 10
443.333
 20
88.3332
 11
443.333
 21
141.667
  0
LINE
  8
0
 10
443.333
 20
141.667
 11
453.333
 21
141.667
  0
LINE
  8
0
 10
453.333
 20
141.667
 11
453.333
 21
88.3332
  0
LINE
  8
0
 10
453.333
 20
88.3332
 11
443.333
 21
88.3332
  0
LINE
  8
0
 10
126.572
 20
126.572
 11
126.572
 21
136.762
  0
LINE
  8
0
 10
126.572
 20
136.762
 11
136.762
 21
136.762
  0
LINE
  8
0
 10
136.762
 20
136.762
 11
136.762
 21
126.572
  0
LINE
  8
0
 10
136.762
 20
126.572
 11
126.572
 21
126.572
  0
LINE
  8
0
 10
59.9049
 20
126.572
 11
59.9049
 21
136.762
  0
LINE
  8
0
 10
59.9049
 20
136.762
 11
70.0949
 21
136.762
  0
LINE
  8
0
 10
70.0949
 20
136.762
 11
70.0949
 21
126.572
  0
LINE
  8
0
 10
70.0949
 20
126.572
 11
59.9049
 21
126.572
  0
LINE
  8
0
 10
26.5716
 20
126.572
 11
26.5716
 21
136.762
  0
LINE
  8
0
 10
26.5716
 20
136.762
 11
36.7616
 21
136.762
  0
LINE
  8
0
 10
36.7616
 20
136.762
 11
36.7616
 21
126.572
  0
LINE
  8
0
 10
36.7616
 20
126.572
 11
26.5716
 21
126.572
  0
LINE
  8
0
 10
459.905
 20
126.572
 11
459.905
 21
136.762
  0
LINE
  8
0
 10
459.905
 20
136.762
 11
470.095
 21
136.762
  0
LINE
  8
0
 10
470.095
 20
136.762
 11
470.095
 21
126.572
  0
LINE
  8
0
 10
470.095
 20
126.572
 11
459.905
 21
126.572
  0
LINE
  8
0
 10
326.571
 20
126.572
 11
326.571
 21
136.762
  0
LINE
  8
0
 10
326.571
 20
136.762
 11
336.761
 21
136.762
  0
LINE
  8
0
 10
336.761
 20
136.762
 11
336.761
 21
126.572
  0
LINE
  8
0
 10
336.761
 20
126.572
 11
326.571
 21
126.572
  0
LINE
  8
0
 10
393.238
 20
126.572
 11
393.238
 21
136.762
  0
LINE
  8
0
 10
393.238
 20
136.762
 11
403.428
 21
136.762
  0
LINE
  8
0
 10
403.428
 20
136.762
 11
403.428
 21
126.572
  0
LINE
  8
0
 10
403.428
 20
126.572
 11
393.238
 21
126.572
  0
LINE
  8
0
 10
159.905
 20
126.572
 11
159.905
 21
136.762
  0
LINE
  8
0
 10
159.905
 20
136.762
 11
170.095
 21
136.762
  0
LINE
  8
0
 10
170.095
 20
136.762
 11
170.095
 21
126.572
  0
LINE
  8
0
 10
170.095
 20
126.572
 11
159.905
 21
126.572
  0
LINE
  8
0
 10
493.238
 20
126.572
 11
493.238
 21
136.762
  0
LINE
  8
0
 10
493.238
 20
136.762
 11
503.428
 21
136.762
  0
LINE
  8
0
 10
503.428
 20
136.762
 11
503.428
 21
126.572
  0
LINE
  8
0
 10
503.428
 20
126.572
 11
493.238
 21
126.572
  0
LINE
  8
0
 10
293.238
 20
126.572
 11
293.238
 21
136.762
  0
LINE
  8
0
 10
293.238
 20
136.762
 11
303.428
 21
136.762
  0
LINE
  8
0
 10
303.428
 20
136.762
 11
303.428
 21
126.572
  0
LINE
  8
0
 10
303.428
 20
126.572
 11
293.238
 21
126.572
  0
LINE
  8
0
 10
426.571
 20
126.572
 11
426.571
 21
136.762
  0
LINE
  8
0
 10
426.571
 20
136.762
 11
436.761
 21
136.762
  0
LINE
  8
0
 10
436.761
 20
136.762
 11
436.761
 21
126.572
  0
LINE
  8
0
 10
436.761
 20
126.572
 11
426.571
 21
126.572
  0
LINE
  8
0
 10
526.571
 20
126.572
 11
526.571
 21
136.762
  0
LINE
  8
0
 10
526.571
 20
136.762
 11
536.761
 21
136.762
  0
LINE
  8
0
 10
536.761
 20
136.762
 11
536.761
 21
126.572
  0
LINE
  8
0
 10
536.761
 20
126.572
 11
526.571
 21
126.572
  0
LINE
  8
0
 10
193.238
 20
126.572
 11
193.238
 21
136.762
  0
LINE
  8
0
 10
193.238
 20
136.762
 11
203.428
 21
136.762
  0
LINE
  8
0
 10
203.428
 20
136.762
 11
203.428
 21
126.572
  0
LINE
  8
0
 10
203.428
 20
126.572
 11
193.238
 21
126.572
  0
LINE
  8
0
 10
259.905
 20
126.572
 11
259.905
 21
136.762
  0
LINE
  8
0
 10
259.905
 20
136.762
 11
270.095
 21
136.762
  0
LINE
  8
0
 10
270.095
 20
136.762
 11
270.095
 21
126.572
  0
LINE
  8
0
 10
270.095
 20
126.572
 11
259.905
 21
126.572
  0
LINE
  8
0
 10
93.2382
 20
126.572
 11
93.2382
 21
136.762
  0
LINE
  8
0
 10
93.2382
 20
136.762
 11
103.428
 21
136.762
  0
LINE
  8
0
 10
103.428
 20
136.762
 11
103.428
 21
126.572
  0
LINE
  8
0
 10
103.428
 20
126.572
 11
93.2382
 21
126.572
  0
LINE
  8
0
 10
226.571
 20
126.572
 11
226.571
 21
136.762
  0
LINE
  8
0
 10
226.571
 20
136.762
 11
236.761
 21
136.762
  0
LINE
  8
0
 10
236.761
 20
136.762
 11
236.761
 21
126.572
  0
LINE
  8
0
 10
236.761
 20
126.572
 11
226.571
 21
126.572
  0
LINE
  8
0
 10
359.905
 20
126.572
 11
359.905
 21
136.762
  0
LINE
  8
0
 10
359.905
 20
136.762
 11
370.095
 21
136.762
  0
LINE
  8
0
 10
370.095
 20
136.762
 11
370.095
 21
126.572
  0
LINE
  8
0
 10
370.095
 20
126.572
 11
359.905
 21
126.572
  0
LINE
  8
0
 10
12
 20
54.9999
 11
12
 21
108.333
  0
LINE
  8
0
 10
12
 20
108.333
 11
18
 21
108.333
  0
LINE
  8
0
 10
18
 20
108.333
 11
18
 21
54.9999
  0
LINE
  8
0
 10
18
 20
54.9999
 11
12
 21
54.9999
  0
LINE
  8
0
 10
476.666
 20
54.9999
 11
476.666
 21
108.333
  0
LINE
  8
0
 10
476.666
 20
108.333
 11
486.666
 21
108.333
  0
LINE
  8
0
 10
486.666
 20
108.333
 11
486.666
 21
54.9999
  0
LINE
  8
0
 10
486.666
 20
54.9999
 11
476.666
 21
54.9999
  0
LINE
  8
0
 10
126.572
 20
93.2382
 11
126.572
 21
103.428
  0
LINE
  8
0
 10
126.572
 20
103.428
 11
136.762
 21
103.428
  0
LINE
  8
0
 10
136.762
 20
103.428
 11
136.762
 21
93.2382
  0
LINE
  8
0
 10
136.762
 20
93.2382
 11
126.572
 21
93.2382
  0
LINE
  8
0
 10
59.9049
 20
93.2382
 11
59.9049
 21
103.428
  0
LINE
  8
0
 10
59.9049
 20
103.428
 11
70.0949
 21
103.428
  0
LINE
  8
0
 10
70.0949
 20
103.428
 11
70.0949
 21
93.2382
  0
LINE
  8
0
 10
70.0949
 20
93.2382
 11
59.9049
 21
93.2382
  0
LINE
  8
0
 10
426.571
 20
93.2382
 11
426.571
 21
103.428
  0
LINE
  8
0
 10
426.571
 20
103.428
 11
436.761
 21
103.428
  0
LINE
  8
0
 10
436.761
 20
103.428
 11
436.761
 21
93.2382
  0
LINE
  8
0
 10
436.761
 20
93.2382
 11
426.571
 21
93.2382
  0
LINE
  8
0
 10
359.905
 20
93.2382
 11
359.905
 21
103.428
  0
LINE
  8
0
 10
359.905
 20
103.428
 11
370.095
 21
103.428
  0
LINE
  8
0
 10
370.095
 20
103.428
 11
370.095
 21
93.2382
  0
LINE
  8
0
 10
370.095
 20
93.2382
 11
359.905
 21
93.2382
  0
LINE
  8
0
 10
26.5716
 20
93.2382
 11
26.5716
 21
103.428
  0
LINE
  8
0
 10
26.5716
 20
103.428
 11
36.7616
 21
103.428
  0
LINE
  8
0
 10
36.7616
 20
103.428
 11
36.7616
 21
93.2382
  0
LINE
  8
0
 10
36.7616
 20
93.2382
 11
26.5716
 21
93.2382
  0
LINE
  8
0
 10
93.2382
 20
93.2382
 11
93.2382
 21
103.428
  0
LINE
  8
0
 10
93.2382
 20
103.428
 11
103.428
 21
103.428
  0
LINE
  8
0
 10
103.428
 20
103.428
 11
103.428
 21
93.2382
  0
LINE
  8
0
 10
103.428
 20
93.2382
 11
93.2382
 21
93.2382
  0
LINE
  8
0
 10
259.905
 20
93.2382
 11
259.905
 21
103.428
  0
LINE
  8
0
 10
259.905
 20
103.428
 11
270.095
 21
103.428
  0
LINE
  8
0
 10
270.095
 20
103.428
 11
270.095
 21
93.2382
  0
LINE
  8
0
 10
270.095
 20
93.2382
 11
259.905
 21
93.2382
  0
LINE
  8
0
 10
526.571
 20
93.2382
 11
526.571
 21
103.428
  0
LINE
  8
0
 10
526.571
 20
103.428
 11
536.761
 21
103.428
  0
LINE
  8
0
 10
536.761
 20
103.428
 11
536.761
 21
93.2382
  0
LINE
  8
0
 10
536.761
 20
93.2382
 11
526.571
 21
93.2382
  0
LINE
  8
0
 10
293.238
 20
93.2382
 11
293.238
 21
103.428
  0
LINE
  8
0
 10
293.238
 20
103.428
 11
303.428
 21
103.428
  0
LINE
  8
0
 10
303.428
 20
103.428
 11
303.428
 21
93.2382
  0
LINE
  8
0
 10
303.428
 20
93.2382
 11
293.238
 21
93.2382
  0
LINE
  8
0
 10
159.905
 20
93.2382
 11
159.905
 21
103.428
  0
LINE
  8
0
 10
159.905
 20
103.428
 11
170.095
 21
103.428
  0
LINE
  8
0
 10
170.095
 20
103.428
 11
170.095
 21
93.2382
  0
LINE
  8
0
 10
170.095
 20
93.2382
 11
159.905
 21
93.2382
  0
LINE
  8
0
 10
193.238
 20
93.2382
 11
193.238
 21
103.428
  0
LINE
  8
0
 10
193.238
 20
103.428
 11
203.428
 21
103.428
  0
LINE
  8
0
 10
203.428
 20
103.428
 11
203.428
 21
93.2382
  0
LINE
  8
0
 10
203.428
 20
93.2382
 11
193.238
 21
93.2382
  0
LINE
  8
0
 10
326.571
 20
93.2382
 11
326.571
 21
103.428
  0
LINE
  8
0
 10
326.571
 20
103.428
 11
336.761
 21
103.428
  0
LINE
  8
0
 10
336.761
 20
103.428
 11
336.761
 21
93.2382
  0
LINE
  8
0
 10
336.761
 20
93.2382
 11
326.571
 21
93.2382
  0
LINE
  8
0
 10
493.238
 20
93.2382
 11
493.238
 21
103.428
  0
LINE
  8
0
 10
493.238
 20
103.428
 11
503.428
 21
103.428
  0
LINE
  8
0
 10
503.428
 20
103.428
 11
503.428
 21
93.2382
  0
LINE
  8
0
 10
503.428
 20
93.2382
 11
493.238
 21
93.2382
  0
LINE
  8
0
 10
459.905
 20
93.2382
 11
459.905
 21
103.428
  0
LINE
  8
0
 10
459.905
 20
103.428
 11
470.095
 21
103.428
  0
LINE
  8
0
 10
470.095
 20
103.428
 11
470.095
 21
93.2382
  0
LINE
  8
0
 10
470.095
 20
93.2382
 11
459.905
 21
93.2382
  0
LINE
  8
0
 10
393.238
 20
93.2382
 11
393.238
 21
103.428
  0
LINE
  8
0
 10
393.238
 20
103.428
 11
403.428
 21
103.428
  0
LINE
  8
0
 10
403.428
 20
103.428
 11
403.428
 21
93.2382
  0
LINE
  8
0
 10
403.428
 20
93.2382
 11
393.238
 21
93.2382
  0
LINE
  8
0
 10
226.571
 20
93.2382
 11
226.571
 21
103.428
  0
LINE
  8
0
 10
226.571
 20
103.428
 11
236.761
 21
103.428
  0
LINE
  8
0
 10
236.761
 20
103.428
 11
236.761
 21
93.2382
  0
LINE
  8
0
 10
236.761
 20
93.2382
 11
226.571
 21
93.2382
  0
LINE
  8
0
 10
509.999
 20
21.6666
 11
509.999
 21
74.9999
  0
LINE
  8
0
 10
509.999
 20
74.9999
 11
519.999
 21
74.9999
  0
LINE
  8
0
 10
519.999
 20
74.9999
 11
519.999
 21
21.6666
  0
LINE
  8
0
 10
519.999
 20
21.6666
 11
509.999
 21
21.6666
  0
LINE
  8
0
 10
59.9049
 20
59.9049
 11
59.9049
 21
70.0949
  0
LINE
  8
0
 10
59.9049
 20
70.0949
 11
70.0949
 21
70.0949
  0
LINE
  8
0
 10
70.0949
 20
70.0949
 11
70.0949
 21
59.9049
  0
LINE
  8
0
 10
70.0949
 20
59.9049
 11
59.9049
 21
59.9049
  0
LINE
  8
0
 10
293.238
 20
59.9049
 11
293.238
 21
70.0949
  0
LINE
  8
0
 10
293.238
 20
70.0949
 11
303.428
 21
70.0949
  0
LINE
  8
0
 10
303.428
 20
70.0949
 11
303.428
 21
59.9049
  0
LINE
  8
0
 10
303.428
 20
59.9049
 11
293.238
 21
59.9049
  0
LINE
  8
0
 10
393.238
 20
59.9049
 11
393.238
 21
70.0949
  0
LINE
  8
0
 10
393.238
 20
70.0949
 11
403.428
 21
70.0949
  0
LINE
  8
0
 10
403.428
 20
70.0949
 11
403.428
 21
59.9049
  0
LINE
  8
0
 10
403.428
 20
59.9049
 11
393.238
 21
59.9049
  0
LINE
  8
0
 10
193.238
 20
59.9049
 11
193.238
 21
70.0949
  0
LINE
  8
0
 10
193.238
 20
70.0949
 11
203.428
 21
70.0949
  0
LINE
  8
0
 10
203.428
 20
70.0949
 11
203.428
 21
59.9049
  0
LINE
  8
0
 10
203.428
 20
59.9049
 11
193.238
 21
59.9049
  0
LINE
  8
0
 10
26.5716
 20
59.9049
 11
26.5716
 21
70.0949
  0
LINE
  8
0
 10
26.5716
 20
70.0949
 11
36.7616
 21
70.0949
  0
LINE
  8
0
 10
36.7616
 20
70.0949
 11
36.7616
 21
59.9049
  0
LINE
  8
0
 10
36.7616
 20
59.9049
 11
26.5716
 21
59.9049
  0
LINE
  8
0
 10
459.905
 20
59.9049
 11
459.905
 21
70.0949
  0
LINE
  8
0
 10
459.905
 20
70.0949
 11
470.095
 21
70.0949
  0
LINE
  8
0
 10
470.095
 20
70.0949
 11
470.095
 21
59.9049
  0
LINE
  8
0
 10
470.095
 20
59.9049
 11
459.905
 21
59.9049
  0
LINE
  8
0
 10
326.571
 20
59.9049
 11
326.571
 21
70.0949
  0
LINE
  8
0
 10
326.571
 20
70.0949
 11
336.761
 21
70.0949
  0
LINE
  8
0
 10
336.761
 20
70.0949
 11
336.761
 21
59.9049
  0
LINE
  8
0
 10
336.761
 20
59.9049
 11
326.571
 21
59.9049
  0
LINE
  8
0
 10
259.905
 20
59.9049
 11
259.905
 21
70.0949
  0
LINE
  8
0
 10
259.905
 20
70.0949
 11
270.095
 21
70.0949
  0
LINE
  8
0
 10
270.095
 20
70.0949
 11
270.095
 21
59.9049
  0
LINE
  8
0
 10
270.095
 20
59.9049
 11
259.905
 21
59.9049
  0
LINE
  8
0
 10
526.571
 20
59.9049
 11
526.571
 21
70.0949
  0
LINE
  8
0
 10
526.571
 20
70.0949
 11
536.761
 21
70.0949
  0
LINE
  8
0
 10
536.761
 20
70.0949
 11
536.761
 21
59.9049
  0
LINE
  8
0
 10
536.761
 20
59.9049
 11
526.571
 21
59.9049
  0
LINE
  8
0
 10
126.572
 20
59.9049
 11
126.572
 21
70.0949
  0
LINE
  8
0
 10
126.572
 20
70.0949
 11
136.762
 21
70.0949
  0
LINE
  8
0
 10
136.762
 20
70.0949
 11
136.762
 21
59.9049
  0
LINE
  8
0
 10
136.762
 20
59.9049
 11
126.572
 21
59.9049
  0
LINE
  8
0
 10
93.2382
 20
59.9049
 11
93.2382
 21
70.0949
  0
LINE
  8
0
 10
93.2382
 20
70.0949
 11
103.428
 21
70.0949
  0
LINE
  8
0
 10
103.428
 20
70.0949
 11
103.428
 21
59.9049
  0
LINE
  8
0
 10
103.428
 20
59.9049
 11
93.2382
 21
59.9049
  0
LINE
  8
0
 10
426.571
 20
59.9049
 11
426.571
 21
70.0949
  0
LINE
  8
0
 10
426.571
 20
70.0949
 11
436.761
 21
70.0949
  0
LINE
  8
0
 10
436.761
 20
70.0949
 11
436.761
 21
59.9049
  0
LINE
  8
0
 10
436.761
 20
59.9049
 11
426.571
 21
59.9049
  0
LINE
  8
0
 10
359.905
 20
59.9049
 11
359.905
 21
70.0949
  0
LINE
  8
0
 10
359.905
 20
70.0949
 11
370.095
 21
70.0949
  0
LINE
  8
0
 10
370.095
 20
70.0949
 11
370.095
 21
59.9049
  0
LINE
  8
0
 10
370.095
 20
59.9049
 11
359.905
 21
59.9049
  0
LINE
  8
0
 10
226.571
 20
59.9049
 11
226.571
 21
70.0949
  0
LINE
  8
0
 10
226.571
 20
70.0949
 11
236.761
 21
70.0949
  0
LINE
  8
0
 10
236.761
 20
70.0949
 11
236.761
 21
59.9049
  0
LINE
  8
0
 10
236.761
 20
59.9049
 11
226.571
 21
59.9049
  0
LINE
  8
0
 10
159.905
 20
59.9049
 11
159.905
 21
70.0949
  0
LINE
  8
0
 10
159.905
 20
70.0949
 11
170.095
 21
70.0949
  0
LINE
  8
0
 10
170.095
 20
70.0949
 11
170.095
 21
59.9049
  0
LINE
  8
0
 10
170.095
 20
59.9049
 11
159.905
 21
59.9049
  0
LINE
  8
0
 10
493.238
 20
59.9049
 11
493.238
 21
70.0949
  0
LINE
  8
0
 10
493.238
 20
70.0949
 11
503.428
 21
70.0949
  0
LINE
  8
0
 10
503.428
 20
70.0949
 11
503.428
 21
59.9049
  0
LINE
  8
0
 10
503.428
 20
59.9049
 11
493.238
 21
59.9049
  0
LINE
  8
0
 10
493.238
 20
26.5716
 11
493.238
 21
36.7616
  0
LINE
  8
0
 10
493.238
 20
36.7616
 11
503.428
 21
36.7616
  0
LINE
  8
0
 10
503.428
 20
36.7616
 11
503.428
 21
26.5716
  0
LINE
  8
0
 10
503.428
 20
26.5716
 11
493.238
 21
26.5716
  0
LINE
  8
0
 10
126.572
 20
26.5716
 11
126.572
 21
36.7616
  0
LINE
  8
0
 10
126.572
 20
36.7616
 11
136.762
 21
36.7616
  0
LINE
  8
0
 10
136.762
 20
36.7616
 11
136.762
 21
26.5716
  0
LINE
  8
0
 10
136.762
 20
26.5716
 11
126.572
 21
26.5716
  0
LINE
  8
0
 10
459.905
 20
26.5716
 11
459.905
 21
36.7616
  0
LINE
  8
0
 10
459.905
 20
36.7616
 11
470.095
 21
36.7616
  0
LINE
  8
0
 10
470.095
 20
36.7616
 11
470.095
 21
26.5716
  0
LINE
  8
0
 10
470.095
 20
26.5716
 11
459.905
 21
26.5716
  0
LINE
  8
0
 10
426.571
 20
26.5716
 11
426.571
 21
36.7616
  0
LINE
  8
0
 10
426.571
 20
36.7616
 11
436.761
 21
36.7616
  0
LINE
  8
0
 10
436.761
 20
36.7616
 11
436.761
 21
26.5716
  0
LINE
  8
0
 10
436.761
 20
26.5716
 11
426.571
 21
26.5716
  0
LINE
  8
0
 10
293.238
 20
26.5716
 11
293.238
 21
36.7616
  0
LINE
  8
0
 10
293.238
 20
36.7616
 11
303.428
 21
36.7616
  0
LINE
  8
0
 10
303.428
 20
36.7616
 11
303.428
 21
26.5716
  0
LINE
  8
0
 10
303.428
 20
26.5716
 11
293.238
 21
26.5716
  0
LINE
  8
0
 10
26.5716
 20
26.5716
 11
26.5716
 21
36.7616
  0
LINE
  8
0
 10
26.5716
 20
36.7616
 11
36.7616
 21
36.7616
  0
LINE
  8
0
 10
36.7616
 20
36.7616
 11
36.7616
 21
26.5716
  0
LINE
  8
0
 10
36.7616
 20
26.5716
 11
26.5716
 21
26.5716
  0
LINE
  8
0
 10
259.905
 20
26.5716
 11
259.905
 21
36.7616
  0
LINE
  8
0
 10
259.905
 20
36.7616
 11
270.095
 21
36.7616
  0
LINE
  8
0
 10
270.095
 20
36.7616
 11
270.095
 21
26.5716
  0
LINE
  8
0
 10
270.095
 20
26.5716
 11
259.905
 21
26.5716
  0
LINE
  8
0
 10
59.9049
 20
26.5716
 11
59.9049
 21
36.7616
  0
LINE
  8
0
 10
59.9049
 20
36.7616
 11
70.0949
 21
36.7616
  0
LINE
  8
0
 10
70.0949
 20
36.7616
 11
70.0949
 21
26.5716
  0
LINE
  8
0
 10
70.0949
 20
26.5716
 11
59.9049
 21
26.5716
  0
LINE
  8
0
 10
226.571
 20
26.5716
 11
226.571
 21
36.7616
  0
LINE
  8
0
 10
226.571
 20
36.7616
 11
236.761
 21
36.7616
  0
LINE
  8
0
 10
236.761
 20
36.7616
 11
236.761
 21
26.5716
  0
LINE
  8
0
 10
236.761
 20
26.5716
 11
226.571
 21
26.5716
  0
LINE
  8
0
 10
193.238
 20
26.5716
 11
193.238
 21
36.7616
  0
LINE
  8
0
 10
193.238
 20
36.7616
 11
203.428
 21
36.7616
  0
LINE
  8
0
 10
203.428
 20
36.7616
 11
203.428
 21
26.5716
  0
LINE
  8
0
 10
203.428
 20
26.5716
 11
193.238
 21
26.5716
  0
LINE
  8
0
 10
159.905
 20
26.5716
 11
159.905
 21
36.7616
  0
LINE
  8
0
 10
159.905
 20
36.7616
 11
170.095
 21
36.7616
  0
LINE
  8
0
 10
170.095
 20
36.7616
 11
170.095
 21
26.5716
  0
LINE
  8
0
 10
170.095
 20
26.5716
 11
159.905
 21
26.5716
  0
LINE
  8
0
 10
93.2382
 20
26.5716
 11
93.2382
 21
36.7616
  0
LINE
  8
0
 10
93.2382
 20
36.7616
 11
103.428
 21
36.7616
  0
LINE
  8
0
 10
103.428
 20
36.7616
 11
103.428
 21
26.5716
  0
LINE
  8
0
 10
103.428
 20
26.5716
 11
93.2382
 21
26.5716
  0
LINE
  8
0
 10
393.238
 20
26.5716
 11
393.238
 21
36.7616
  0
LINE
  8
0
 10
393.238
 20
36.7616
 11
403.428
 21
36.7616
  0
LINE
  8
0
 10
403.428
 20
36.7616
 11
403.428
 21
26.5716
  0
LINE
  8
0
 10
403.428
 20
26.5716
 11
393.238
 21
26.5716
  0
LINE
  8
0
 10
359.905
 20
26.5716
 11
359.905
 21
36.7616
  0
LINE
  8
0
 10
359.905
 20
36.7616
 11
370.095
 21
36.7616
  0
LINE
  8
0
 10
370.095
 20
36.7616
 11
370.095
 21
26.5716
  0
LINE
  8
0
 10
370.095
 20
26.5716
 11
359.905
 21
26.5716
  0
LINE
  8
0
 10
326.571
 20
26.5716
 11
326.571
 21
36.7616
  0
LINE
  8
0
 10
326.571
 20
36.7616
 11
336.761
 21
36.7616
  0
LINE
  8
0
 10
336.761
 20
36.7616
 11
336.761
 21
26.5716
  0
LINE
  8
0
 10
336.761
 20
26.5716
 11
326.571
 21
26.5716
  0
LINE
  8
0
 10
526.571
 20
26.5716
 11
526.571
 21
36.7616
  0
LINE
  8
0
 10
526.571
 20
36.7616
 11
536.761
 21
36.7616
  0
LINE
  8
0
 10
536.761
 20
36.7616
 11
536.761
 21
26.5716
  0
LINE
  8
0
 10
536.761
 20
26.5716
 11
526.571
 21
26.5716
  0
LINE
  8
0
 10
1166.67
 20
563.333
 11
603.333
 21
563.333
  0
LINE
  8
0
 10
603.333
 20
563.333
 11
603.333
 21
0
  0
LINE
  8
0
 10
603.333
 20
0
 11
1166.67
 21
0
  0
LINE
  8
0
 10
1166.67
 20
0
 11
1166.67
 21
563.333
  0
LINE
  8
0
 10
1022.33
 20
518.999
 11
1022.33
 21
544.333
  0
LINE
  8
0
 10
1022.33
 20
544.333
 11
1047.67
 21
544.333
  0
LINE
  8
0
 10
1047.67
 20
544.333
 11
1047.67
 21
518.999
  0
LINE
  8
0
 10
1047.67
 20
518.999
 11
1022.33
 21
518.999
  0
LINE
  8
0
 10
622.333
 20
518.999
 11
622.333
 21
544.333
  0
LINE
  8
0
 10
622.333
 20
544.333
 11
647.666
 21
544.333
  0
LINE
  8
0
 10
647.666
 20
544.333
 11
647.666
 21
518.999
  0
LINE
  8
0
 10
647.666
 20
518.999
 11
622.333
 21
518.999
  0
LINE
  8
0
 10
1122.33
 20
518.999
 11
1122.33
 21
544.333
  0
LINE
  8
0
 10
1122.33
 20
544.333
 11
1147.67
 21
544.333
  0
LINE
  8
0
 10
1147.67
 20
544.333
 11
1147.67
 21
518.999
  0
LINE
  8
0
 10
1147.67
 20
518.999
 11
1122.33
 21
518.999
  0
LINE
  8
0
 10
1089
 20
518.999
 11
1089
 21
544.333
  0
LINE
  8
0
 10
1089
 20
544.333
 11
1114.33
 21
544.333
  0
LINE
  8
0
 10
1114.33
 20
544.333
 11
1114.33
 21
518.999
  0
LINE
  8
0
 10
1114.33
 20
518.999
 11
1089
 21
518.999
  0
LINE
  8
0
 10
1055.67
 20
518.999
 11
1055.67
 21
544.333
  0
LINE
  8
0
 10
1055.67
 20
544.333
 11
1081
 21
544.333
  0
LINE
  8
0
 10
1081
 20
544.333
 11
1081
 21
518.999
  0
LINE
  8
0
 10
1081
 20
518.999
 11
1055.67
 21
518.999
  0
LINE
  8
0
 10
988.999
 20
518.999
 11
988.999
 21
544.333
  0
LINE
  8
0
 10
988.999
 20
544.333
 11
1014.33
 21
544.333
  0
LINE
  8
0
 10
1014.33
 20
544.333
 11
1014.33
 21
518.999
  0
LINE
  8
0
 10
1014.33
 20
518.999
 11
988.999
 21
518.999
  0
LINE
  8
0
 10
955.666
 20
518.999
 11
955.666
 21
544.333
  0
LINE
  8
0
 10
955.666
 20
544.333
 11
980.999
 21
544.333
  0
LINE
  8
0
 10
980.999
 20
544.333
 11
980.999
 21
518.999
  0
LINE
  8
0
 10
980.999
 20
518.999
 11
955.666
 21
518.999
  0
LINE
  8
0
 10
922.332
 20
518.999
 11
922.332
 21
544.333
  0
LINE
  8
0
 10
922.332
 20
544.333
 11
947.666
 21
544.333
  0
LINE
  8
0
 10
947.666
 20
544.333
 11
947.666
 21
518.999
  0
LINE
  8
0
 10
947.666
 20
518.999
 11
922.332
 21
518.999
  0
LINE
  8
0
 10
888.999
 20
518.999
 11
888.999
 21
544.333
  0
LINE
  8
0
 10
888.999
 20
544.333
 11
914.332
 21
544.333
  0
LINE
  8
0
 10
914.332
 20
544.333
 11
914.332
 21
518.999
  0
LINE
  8
0
 10
914.332
 20
518.999
 11
888.999
 21
518.999
  0
LINE
  8
0
 10
855.666
 20
518.999
 11
855.666
 21
544.333
  0
LINE
  8
0
 10
855.666
 20
544.333
 11
880.999
 21
544.333
  0
LINE
  8
0
 10
880.999
 20
544.333
 11
880.999
 21
518.999
  0
LINE
  8
0
 10
880.999
 20
518.999
 11
855.666
 21
518.999
  0
LINE
  8
0
 10
822.333
 20
518.999
 11
822.333
 21
544.333
  0
LINE
  8
0
 10
822.333
 20
544.333
 11
847.666
 21
544.333
  0
LINE
  8
0
 10
847.666
 20
544.333
 11
847.666
 21
518.999
  0
LINE
  8
0
 10
847.666
 20
518.999
 11
822.333
 21
518.999
  0
LINE
  8
0
 10
788.999
 20
518.999
 11
788.999
 21
544.333
  0
LINE
  8
0
 10
788.999
 20
544.333
 11
814.333
 21
544.333
  0
LINE
  8
0
 10
814.333
 20
544.333
 11
814.333
 21
518.999
  0
LINE
  8
0
 10
814.333
 20
518.999
 11
788.999
 21
518.999
  0
LINE
  8
0
 10
755.666
 20
518.999
 11
755.666
 21
544.333
  0
LINE
  8
0
 10
755.666
 20
544.333
 11
780.999
 21
544.333
  0
LINE
  8
0
 10
780.999
 20
544.333
 11
780.999
 21
518.999
  0
LINE
  8
0
 10
780.999
 20
518.999
 11
755.666
 21
518.999
  0
LINE
  8
0
 10
722.333
 20
518.999
 11
722.333
 21
544.333
  0
LINE
  8
0
 10
722.333
 20
544.333
 11
747.666
 21
544.333
  0
LINE
  8
0
 10
747.666
 20
544.333
 11
747.666
 21
518.999
  0
LINE
  8
0
 10
747.666
 20
518.999
 11
722.333
 21
518.999
  0
LINE
  8
0
 10
688.999
 20
518.999
 11
688.999
 21
544.333
  0
LINE
  8
0
 10
688.999
 20
544.333
 11
714.333
 21
544.333
  0
LINE
  8
0
 10
714.333
 20
544.333
 11
714.333
 21
518.999
  0
LINE
  8
0
 10
714.333
 20
518.999
 11
688.999
 21
518.999
  0
LINE
  8
0
 10
655.666
 20
518.999
 11
655.666
 21
544.333
  0
LINE
  8
0
 10
655.666
 20
544.333
 11
680.999
 21
544.333
  0
LINE
  8
0
 10
680.999
 20
544.333
 11
680.999
 21
518.999
  0
LINE
  8
0
 10
680.999
 20
518.999
 11
655.666
 21
518.999
  0
LINE
  8
0
 10
1022.33
 20
485.666
 11
1022.33
 21
510.999
  0
LINE
  8
0
 10
1022.33
 20
510.999
 11
1047.67
 21
510.999
  0
LINE
  8
0
 10
1047.67
 20
510.999
 11
1047.67
 21
485.666
  0
LINE
  8
0
 10
1047.67
 20
485.666
 11
1022.33
 21
485.666
  0
LINE
  8
0
 10
622.333
 20
485.666
 11
622.333
 21
510.999
  0
LINE
  8
0
 10
622.333
 20
510.999
 11
647.666
 21
510.999
  0
LINE
  8
0
 10
647.666
 20
510.999
 11
647.666
 21
485.666
  0
LINE
  8
0
 10
647.666
 20
485.666
 11
622.333
 21
485.666
  0
LINE
  8
0
 10
1089
 20
485.666
 11
1089
 21
510.999
  0
LINE
  8
0
 10
1089
 20
510.999
 11
1114.33
 21
510.999
  0
LINE
  8
0
 10
1114.33
 20
510.999
 11
1114.33
 21
485.666
  0
LINE
  8
0
 10
1114.33
 20
485.666
 11
1089
 21
485.666
  0
LINE
  8
0
 10
688.999
 20
485.666
 11
688.999
 21
510.999
  0
LINE
  8
0
 10
688.999
 20
510.999
 11
714.333
 21
510.999
  0
LINE
  8
0
 10
714.333
 20
510.999
 11
714.333
 21
485.666
  0
LINE
  8
0
 10
714.333
 20
485.666
 11
688.999
 21
485.666
  0
LINE
  8
0
 10
1055.67
 20
485.666
 11
1055.67
 21
510.999
  0
LINE
  8
0
 10
1055.67
 20
510.999
 11
1081
 21
510.999
  0
LINE
  8
0
 10
1081
 20
510.999
 11
1081
 21
485.666
  0
LINE
  8
0
 10
1081
 20
485.666
 11
1055.67
 21
485.666
  0
LINE
  8
0
 10
722.333
 20
485.666
 11
722.333
 21
510.999
  0
LINE
  8
0
 10
722.333
 20
510.999
 11
747.666
 21
510.999
  0
LINE
  8
0
 10
747.666
 20
510.999
 11
747.666
 21
485.666
  0
LINE
  8
0
 10
747.666
 20
485.666
 11
722.333
 21
485.666
  0
LINE
  8
0
 10
755.666
 20
485.666
 11
755.666
 21
510.999
  0
LINE
  8
0
 10
755.666
 20
510.999
 11
780.999
 21
510.999
  0
LINE
  8
0
 10
780.999
 20
510.999
 11
780.999
 21
485.666
  0
LINE
  8
0
 10
780.999
 20
485.666
 11
755.666
 21
485.666
  0
LINE
  8
0
 10
888.999
 20
485.666
 11
888.999
 21
510.999
  0
LINE
  8
0
 10
888.999
 20
510.999
 11
914.332
 21
510.999
  0
LINE
  8
0
 10
914.332
 20
510.999
 11
914.332
 21
485.666
  0
LINE
  8
0
 10
914.332
 20
485.666
 11
888.999
 21
485.666
  0
LINE
  8
0
 10
988.999
 20
485.666
 11
988.999
 21
510.999
  0
LINE
  8
0
 10
988.999
 20
510.999
 11
1014.33
 21
510.999
  0
LINE
  8
0
 10
1014.33
 20
510.999
 11
1014.33
 21
485.666
  0
LINE
  8
0
 10
1014.33
 20
485.666
 11
988.999
 21
485.666
  0
LINE
  8
0
 10
788.999
 20
485.666
 11
788.999
 21
510.999
  0
LINE
  8
0
 10
788.999
 20
510.999
 11
814.333
 21
510.999
  0
LINE
  8
0
 10
814.333
 20
510.999
 11
814.333
 21
485.666
  0
LINE
  8
0
 10
814.333
 20
485.666
 11
788.999
 21
485.666
  0
LINE
  8
0
 10
955.666
 20
485.666
 11
955.666
 21
510.999
  0
LINE
  8
0
 10
955.666
 20
510.999
 11
980.999
 21
510.999
  0
LINE
  8
0
 10
980.999
 20
510.999
 11
980.999
 21
485.666
  0
LINE
  8
0
 10
980.999
 20
485.666
 11
955.666
 21
485.666
  0
LINE
  8
0
 10
822.333
 20
485.666
 11
822.333
 21
510.999
  0
LINE
  8
0
 10
822.333
 20
510.999
 11
847.666
 21
510.999
  0
LINE
  8
0
 10
847.666
 20
510.999
 11
847.666
 21
485.666
  0
LINE
  8
0
 10
847.666
 20
485.666
 11
822.333
 21
485.666
  0
LINE
  8
0
 10
922.332
 20
485.666
 11
922.332
 21
510.999
  0
LINE
  8
0
 10
922.332
 20
510.999
 11
947.666
 21
510.999
  0
LINE
  8
0
 10
947.666
 20
510.999
 11
947.666
 21
485.666
  0
LINE
  8
0
 10
947.666
 20
485.666
 11
922.332
 21
485.666
  0
LINE
  8
0
 10
855.666
 20
485.666
 11
855.666
 21
510.999
  0
LINE
  8
0
 10
855.666
 20
510.999
 11
880.999
 21
510.999
  0
LINE
  8
0
 10
880.999
 20
510.999
 11
880.999
 21
485.666
  0
LINE
  8
0
 10
880.999
 20
485.666
 11
855.666
 21
485.666
  0
LINE
  8
0
 10
655.666
 20
485.666
 11
655.666
 21
510.999
  0
LINE
  8
0
 10
655.666
 20
510.999
 11
680.999
 21
510.999
  0
LINE
  8
0
 10
680.999
 20
510.999
 11
680.999
 21
485.666
  0
LINE
  8
0
 10
680.999
 20
485.666
 11
655.666
 21
485.666
  0
LINE
  8
0
 10
1122.33
 20
485.666
 11
1122.33
 21
510.999
  0
LINE
  8
0
 10
1122.33
 20
510.999
 11
1147.67
 21
510.999
  0
LINE
  8
0
 10
1147.67
 20
510.999
 11
1147.67
 21
485.666
  0
LINE
  8
0
 10
1147.67
 20
485.666
 11
1122.33
 21
485.666
  0
LINE
  8
0
 10
688.999
 20
452.333
 11
688.999
 21
477.666
  0
LINE
  8
0
 10
688.999
 20
477.666
 11
714.333
 21
477.666
  0
LINE
  8
0
 10
714.333
 20
477.666
 11
714.333
 21
452.333
  0
LINE
  8
0
 10
714.333
 20
452.333
 11
688.999
 21
452.333
  0
LINE
  8
0
 10
1089
 20
452.333
 11
1089
 21
477.666
  0
LINE
  8
0
 10
1089
 20
477.666
 11
1114.33
 21
477.666
  0
LINE
  8
0
 10
1114.33
 20
477.666
 11
1114.33
 21
452.333
  0
LINE
  8
0
 10
1114.33
 20
452.333
 11
1089
 21
452.333
  0
LINE
  8
0
 10
622.333
 20
452.333
 11
622.333
 21
477.666
  0
LINE
  8
0
 10
622.333
 20
477.666
 11
647.666
 21
477.666
  0
LINE
  8
0
 10
647.666
 20
477.666
 11
647.666
 21
452.333
  0
LINE
  8
0
 10
647.666
 20
452.333
 11
622.333
 21
452.333
  0
LINE
  8
0
 10
755.666
 20
452.333
 11
755.666
 21
477.666
  0
LINE
  8
0
 10
755.666
 20
477.666
 11
780.999
 21
477.666
  0
LINE
  8
0
 10
780.999
 20
477.666
 11
780.999
 21
452.333
  0
LINE
  8
0
 10
780.999
 20
452.333
 11
755.666
 21
452.333
  0
LINE
  8
0
 10
888.999
 20
452.333
 11
888.999
 21
477.666
  0
LINE
  8
0
 10
888.999
 20
477.666
 11
914.332
 21
477.666
  0
LINE
  8
0
 10
914.332
 20
477.666
 11
914.332
 21
452.333
  0
LINE
  8
0
 10
914.332
 20
452.333
 11
888.999
 21
452.333
  0
LINE
  8
0
 10
1022.33
 20
452.333
 11
1022.33
 21
477.666
  0
LINE
  8
0
 10
1022.33
 20
477.666
 11
1047.67
 21
477.666
  0
LINE
  8
0
 10
1047.67
 20
477.666
 11
1047.67
 21
452.333
  0
LINE
  8
0
 10
1047.67
 20
452.333
 11
1022.33
 21
452.333
  0
LINE
  8
0
 10
988.999
 20
452.333
 11
988.999
 21
477.666
  0
LINE
  8
0
 10
988.999
 20
477.666
 11
1014.33
 21
477.666
  0
LINE
  8
0
 10
1014.33
 20
477.666
 11
1014.33
 21
452.333
  0
LINE
  8
0
 10
1014.33
 20
452.333
 11
988.999
 21
452.333
  0
LINE
  8
0
 10
855.666
 20
452.333
 11
855.666
 21
477.666
  0
LINE
  8
0
 10
855.666
 20
477.666
 11
880.999
 21
477.666
  0
LINE
  8
0
 10
880.999
 20
477.666
 11
880.999
 21
452.333
  0
LINE
  8
0
 10
880.999
 20
452.333
 11
855.666
 21
452.333
  0
LINE
  8
0
 10
655.666
 20
452.333
 11
655.666
 21
477.666
  0
LINE
  8
0
 10
655.666
 20
477.666
 11
680.999
 21
477.666
  0
LINE
  8
0
 10
680.999
 20
477.666
 11
680.999
 21
452.333
  0
LINE
  8
0
 10
680.999
 20
452.333
 11
655.666
 21
452.333
  0
LINE
  8
0
 10
788.999
 20
452.333
 11
788.999
 21
477.666
  0
LINE
  8
0
 10
788.999
 20
477.666
 11
814.333
 21
477.666
  0
LINE
  8
0
 10
814.333
 20
477.666
 11
814.333
 21
452.333
  0
LINE
  8
0
 10
814.333
 20
452.333
 11
788.999
 21
452.333
  0
LINE
  8
0
 10
822.333
 20
452.333
 11
822.333
 21
477.666
  0
LINE
  8
0
 10
822.333
 20
477.666
 11
847.666
 21
477.666
  0
LINE
  8
0
 10
847.666
 20
477.666
 11
847.666
 21
452.333
  0
LINE
  8
0
 10
847.666
 20
452.333
 11
822.333
 21
452.333
  0
LINE
  8
0
 10
955.666
 20
452.333
 11
955.666
 21
477.666
  0
LINE
  8
0
 10
955.666
 20
477.666
 11
980.999
 21
477.666
  0
LINE
  8
0
 10
980.999
 20
477.666
 11
980.999
 21
452.333
  0
LINE
  8
0
 10
980.999
 20
452.333
 11
955.666
 21
452.333
  0
LINE
  8
0
 10
1055.67
 20
452.333
 11
1055.67
 21
477.666
  0
LINE
  8
0
 10
1055.67
 20
477.666
 11
1081
 21
477.666
  0
LINE
  8
0
 10
1081
 20
477.666
 11
1081
 21
452.333
  0
LINE
  8
0
 10
1081
 20
452.333
 11
1055.67
 21
452.333
  0
LINE
  8
0
 10
722.333
 20
452.333
 11
722.333
 21
477.666
  0
LINE
  8
0
 10
722.333
 20
477.666
 11
747.666
 21
477.666
  0
LINE
  8
0
 10
747.666
 20
477.666
 11
747.666
 21
452.333
  0
LINE
  8
0
 10
747.666
 20
452.333
 11
722.333
 21
452.333
  0
LINE
  8
0
 10
1122.33
 20
452.333
 11
1122.33
 21
477.666
  0
LINE
  8
0
 10
1122.33
 20
477.666
 11
1147.67
 21
477.666
  0
LINE
  8
0
 10
1147.67
 20
477.666
 11
1147.67
 21
452.333
  0
LINE
  8
0
 10
1147.67
 20
452.333
 11
1122.33
 21
452.333
  0
LINE
  8
0
 10
922.332
 20
452.333
 11
922.332
 21
477.666
  0
LINE
  8
0
 10
922.332
 20
477.666
 11
947.666
 21
477.666
  0
LINE
  8
0
 10
947.666
 20
477.666
 11
947.666
 21
452.333
  0
LINE
  8
0
 10
947.666
 20
452.333
 11
922.332
 21
452.333
  0
LINE
  8
0
 10
1055.67
 20
419
 11
1055.67
 21
444.333
  0
LINE
  8
0
 10
1055.67
 20
444.333
 11
1081
 21
444.333
  0
LINE
  8
0
 10
1081
 20
444.333
 11
1081
 21
419
  0
LINE
  8
0
 10
1081
 20
419
 11
1055.67
 21
419
  0
LINE
  8
0
 10
922.332
 20
419
 11
922.332
 21
444.333
  0
LINE
  8
0
 10
922.332
 20
444.333
 11
947.666
 21
444.333
  0
LINE
  8
0
 10
947.666
 20
444.333
 11
947.666
 21
419
  0
LINE
  8
0
 10
947.666
 20
419
 11
922.332
 21
419
  0
LINE
  8
0
 10
955.666
 20
419
 11
955.666
 21
444.333
  0
LINE
  8
0
 10
955.666
 20
444.333
 11
980.999
 21
444.333
  0
LINE
  8
0
 10
980.999
 20
444.333
 11
980.999
 21
419
  0
LINE
  8
0
 10
980.999
 20
419
 11
955.666
 21
419
  0
LINE
  8
0
 10
788.999
 20
419
 11
788.999
 21
444.333
  0
LINE
  8
0
 10
788.999
 20
444.333
 11
814.333
 21
444.333
  0
LINE
  8
0
 10
814.333
 20
444.333
 11
814.333
 21
419
  0
LINE
  8
0
 10
814.333
 20
419
 11
788.999
 21
419
  0
LINE
  8
0
 10
722.333
 20
419
 11
722.333
 21
444.333
  0
LINE
  8
0
 10
722.333
 20
444.333
 11
747.666
 21
444.333
  0
LINE
  8
0
 10
747.666
 20
444.333
 11
747.666
 21
419
  0
LINE
  8
0
 10
747.666
 20
419
 11
722.333
 21
419
  0
LINE
  8
0
 10
655.666
 20
419
 11
655.666
 21
444.333
  0
LINE
  8
0
 10
655.666
 20
444.333
 11
680.999
 21
444.333
  0
LINE
  8
0
 10
680.999
 20
444.333
 11
680.999
 21
419
  0
LINE
  8
0
 10
680.999
 20
419
 11
655.666
 21
419
  0
LINE
  8
0
 10
855.666
 20
419
 11
855.666
 21
444.333
  0
LINE
  8
0
 10
855.666
 20
444.333
 11
880.999
 21
444.333
  0
LINE
  8
0
 10
880.999
 20
444.333
 11
880.999
 21
419
  0
LINE
  8
0
 10
880.999
 20
419
 11
855.666
 21
419
  0
LINE
  8
0
 10
988.999
 20
419
 11
988.999
 21
444.333
  0
LINE
  8
0
 10
988.999
 20
444.333
 11
1014.33
 21
444.333
  0
LINE
  8
0
 10
1014.33
 20
444.333
 11
1014.33
 21
419
  0
LINE
  8
0
 10
1014.33
 20
419
 11
988.999
 21
419
  0
LINE
  8
0
 10
755.666
 20
419
 11
755.666
 21
444.333
  0
LINE
  8
0
 10
755.666
 20
444.333
 11
780.999
 21
444.333
  0
LINE
  8
0
 10
780.999
 20
444.333
 11
780.999
 21
419
  0
LINE
  8
0
 10
780.999
 20
419
 11
755.666
 21
419
  0
LINE
  8
0
 10
1022.33
 20
419
 11
1022.33
 21
444.333
  0
LINE
  8
0
 10
1022.33
 20
444.333
 11
1047.67
 21
444.333
  0
LINE
  8
0
 10
1047.67
 20
444.333
 11
1047.67
 21
419
  0
LINE
  8
0
 10
1047.67
 20
419
 11
1022.33
 21
419
  0
LINE
  8
0
 10
888.999
 20
419
 11
888.999
 21
444.333
  0
LINE
  8
0
 10
888.999
 20
444.333
 11
914.332
 21
444.333
  0
LINE
  8
0
 10
914.332
 20
444.333
 11
914.332
 21
419
  0
LINE
  8
0
 10
914.332
 20
419
 11
888.999
 21
419
  0
LINE
  8
0
 10
688.999
 20
419
 11
688.999
 21
444.333
  0
LINE
  8
0
 10
688.999
 20
444.333
 11
714.333
 21
444.333
  0
LINE
  8
0
 10
714.333
 20
444.333
 11
714.333
 21
419
  0
LINE
  8
0
 10
714.333
 20
419
 11
688.999
 21
419
  0
LINE
  8
0
 10
1122.33
 20
419
 11
1122.33
 21
444.333
  0
LINE
  8
0
 10
1122.33
 20
444.333
 11
1147.67
 21
444.333
  0
LINE
  8
0
 10
1147.67
 20
444.333
 11
1147.67
 21
419
  0
LINE
  8
0
 10
1147.67
 20
419
 11
1122.33
 21
419
  0
LINE
  8
0
 10
1089
 20
419
 11
1089
 21
444.333
  0
LINE
  8
0
 10
1089
 20
444.333
 11
1114.33
 21
444.333
  0
LINE
  8
0
 10
1114.33
 20
444.333
 11
1114.33
 21
419
  0
LINE
  8
0
 10
1114.33
 20
419
 11
1089
 21
419
  0
LINE
  8
0
 10
822.333
 20
419
 11
822.333
 21
444.333
  0
LINE
  8
0
 10
822.333
 20
444.333
 11
847.666
 21
444.333
  0
LINE
  8
0
 10
847.666
 20
444.333
 11
847.666
 21
419
  0
LINE
  8
0
 10
847.666
 20
419
 11
822.333
 21
419
  0
LINE
  8
0
 10
622.333
 20
419
 11
622.333
 21
444.333
  0
LINE
  8
0
 10
622.333
 20
444.333
 11
647.666
 21
444.333
  0
LINE
  8
0
 10
647.666
 20
444.333
 11
647.666
 21
419
  0
LINE
  8
0
 10
647.666
 20
419
 11
622.333
 21
419
  0
LINE
  8
0
 10
622.333
 20
385.666
 11
622.333
 21
411
  0
LINE
  8
0
 10
622.333
 20
411
 11
647.666
 21
411
  0
LINE
  8
0
 10
647.666
 20
411
 11
647.666
 21
385.666
  0
LINE
  8
0
 10
647.666
 20
385.666
 11
622.333
 21
385.666
  0
LINE
  8
0
 10
1122.33
 20
385.666
 11
1122.33
 21
411
  0
LINE
  8
0
 10
1122.33
 20
411
 11
1147.67
 21
411
  0
LINE
  8
0
 10
1147.67
 20
411
 11
1147.67
 21
385.666
  0
LINE
  8
0
 10
1147.67
 20
385.666
 11
1122.33
 21
385.666
  0
LINE
  8
0
 10
722.333
 20
385.666
 11
722.333
 21
411
  0
LINE
  8
0
 10
722.333
 20
411
 11
747.666
 21
411
  0
LINE
  8
0
 10
747.666
 20
411
 11
747.666
 21
385.666
  0
LINE
  8
0
 10
747.666
 20
385.666
 11
722.333
 21
385.666
  0
LINE
  8
0
 10
1022.33
 20
385.666
 11
1022.33
 21
411
  0
LINE
  8
0
 10
1022.33
 20
411
 11
1047.67
 21
411
  0
LINE
  8
0
 10
1047.67
 20
411
 11
1047.67
 21
385.666
  0
LINE
  8
0
 10
1047.67
 20
385.666
 11
1022.33
 21
385.666
  0
LINE
  8
0
 10
755.666
 20
385.666
 11
755.666
 21
411
  0
LINE
  8
0
 10
755.666
 20
411
 11
780.999
 21
411
  0
LINE
  8
0
 10
780.999
 20
411
 11
780.999
 21
385.666
  0
LINE
  8
0
 10
780.999
 20
385.666
 11
755.666
 21
385.666
  0
LINE
  8
0
 10
955.666
 20
385.666
 11
955.666
 21
411
  0
LINE
  8
0
 10
955.666
 20
411
 11
980.999
 21
411
  0
LINE
  8
0
 10
980.999
 20
411
 11
980.999
 21
385.666
  0
LINE
  8
0
 10
980.999
 20
385.666
 11
955.666
 21
385.666
  0
LINE
  8
0
 10
1089
 20
385.666
 11
1089
 21
411
  0
LINE
  8
0
 10
1089
 20
411
 11
1114.33
 21
411
  0
LINE
  8
0
 10
1114.33
 20
411
 11
1114.33
 21
385.666
  0
LINE
  8
0
 10
1114.33
 20
385.666
 11
1089
 21
385.666
  0
LINE
  8
0
 10
888.999
 20
385.666
 11
888.999
 21
411
  0
LINE
  8
0
 10
888.999
 20
411
 11
914.332
 21
411
  0
LINE
  8
0
 10
914.332
 20
411
 11
914.332
 21
385.666
  0
LINE
  8
0
 10
914.332
 20
385.666
 11
888.999
 21
385.666
  0
LINE
  8
0
 10
822.333
 20
385.666
 11
822.333
 21
411
  0
LINE
  8
0
 10
822.333
 20
411
 11
847.666
 21
411
  0
LINE
  8
0
 10
847.666
 20
411
 11
847.666
 21
385.666
  0
LINE
  8
0
 10
847.666
 20
385.666
 11
822.333
 21
385.666
  0
LINE
  8
0
 10
788.999
 20
385.666
 11
788.999
 21
411
  0
LINE
  8
0
 10
788.999
 20
411
 11
814.333
 21
411
  0
LINE
  8
0
 10
814.333
 20
411
 11
814.333
 21
385.666
  0
LINE
  8
0
 10
814.333
 20
385.666
 11
788.999
 21
385.666
  0
LINE
  8
0
 10
988.999
 20
385.666
 11
988.999
 21
411
  0
LINE
  8
0
 10
988.999
 20
411
 11
1014.33
 21
411
  0
LINE
  8
0
 10
1014.33
 20
411
 11
1014.33
 21
385.666
  0
LINE
  8
0
 10
1014.33
 20
385.666
 11
988.999
 21
385.666
  0
LINE
  8
0
 10
922.332
 20
385.666
 11
922.332
 21
411
  0
LINE
  8
0
 10
922.332
 20
411
 11
947.666
 21
411
  0
LINE
  8
0
 10
947.666
 20
411
 11
947.666
 21
385.666
  0
LINE
  8
0
 10
947.666
 20
385.666
 11
922.332
 21
385.666
  0
LINE
  8
0
 10
1055.67
 20
385.666
 11
1055.67
 21
411
  0
LINE
  8
0
 10
1055.67
 20
411
 11
1081
 21
411
  0
LINE
  8
0
 10
1081
 20
411
 11
1081
 21
385.666
  0
LINE
  8
0
 10
1081
 20
385.666
 11
1055.67
 21
385.666
  0
LINE
  8
0
 10
855.666
 20
385.666
 11
855.666
 21
411
  0
LINE
  8
0
 10
855.666
 20
411
 11
880.999
 21
411
  0
LINE
  8
0
 10
880.999
 20
411
 11
880.999
 21
385.666
  0
LINE
  8
0
 10
880.999
 20
385.666
 11
855.666
 21
385.666
  0
LINE
  8
0
 10
655.666
 20
385.666
 11
655.666
 21
411
  0
LINE
  8
0
 10
655.666
 20
411
 11
680.999
 21
411
  0
LINE
  8
0
 10
680.999
 20
411
 11
680.999
 21
385.666
  0
LINE
  8
0
 10
680.999
 20
385.666
 11
655.666
 21
385.666
  0
LINE
  8
0
 10
688.999
 20
385.666
 11
688.999
 21
411
  0
LINE
  8
0
 10
688.999
 20
411
 11
714.333
 21
411
  0
LINE
  8
0
 10
714.333
 20
411
 11
714.333
 21
385.666
  0
LINE
  8
0
 10
714.333
 20
385.666
 11
688.999
 21
385.666
  0
LINE
  8
0
 10
1122.33
 20
352.333
 11
1122.33
 21
377.666
  0
LINE
  8
0
 10
1122.33
 20
377.666
 11
1147.67
 21
377.666
  0
LINE
  8
0
 10
1147.67
 20
377.666
 11
1147.67
 21
352.333
  0
LINE
  8
0
 10
1147.67
 20
352.333
 11
1122.33
 21
352.333
  0
LINE
  8
0
 10
655.666
 20
352.333
 11
655.666
 21
377.666
  0
LINE
  8
0
 10
655.666
 20
377.666
 11
680.999
 21
377.666
  0
LINE
  8
0
 10
680.999
 20
377.666
 11
680.999
 21
352.333
  0
LINE
  8
0
 10
680.999
 20
352.333
 11
655.666
 21
352.333
  0
LINE
  8
0
 10
722.333
 20
352.333
 11
722.333
 21
377.666
  0
LINE
  8
0
 10
722.333
 20
377.666
 11
747.666
 21
377.666
  0
LINE
  8
0
 10
747.666
 20
377.666
 11
747.666
 21
352.333
  0
LINE
  8
0
 10
747.666
 20
352.333
 11
722.333
 21
352.333
  0
LINE
  8
0
 10
1089
 20
352.333
 11
1089
 21
377.666
  0
LINE
  8
0
 10
1089
 20
377.666
 11
1114.33
 21
377.666
  0
LINE
  8
0
 10
1114.33
 20
377.666
 11
1114.33
 21
352.333
  0
LINE
  8
0
 10
1114.33
 20
352.333
 11
1089
 21
352.333
  0
LINE
  8
0
 10
755.666
 20
352.333
 11
755.666
 21
377.666
  0
LINE
  8
0
 10
755.666
 20
377.666
 11
780.999
 21
377.666
  0
LINE
  8
0
 10
780.999
 20
377.666
 11
780.999
 21
352.333
  0
LINE
  8
0
 10
780.999
 20
352.333
 11
755.666
 21
352.333
  0
LINE
  8
0
 10
955.666
 20
352.333
 11
955.666
 21
377.666
  0
LINE
  8
0
 10
955.666
 20
377.666
 11
980.999
 21
377.666
  0
LINE
  8
0
 10
980.999
 20
377.666
 11
980.999
 21
352.333
  0
LINE
  8
0
 10
980.999
 20
352.333
 11
955.666
 21
352.333
  0
LINE
  8
0
 10
688.999
 20
352.333
 11
688.999
 21
377.666
  0
LINE
  8
0
 10
688.999
 20
377.666
 11
714.333
 21
377.666
  0
LINE
  8
0
 10
714.333
 20
377.666
 11
714.333
 21
352.333
  0
LINE
  8
0
 10
714.333
 20
352.333
 11
688.999
 21
352.333
  0
LINE
  8
0
 10
888.999
 20
352.333
 11
888.999
 21
377.666
  0
LINE
  8
0
 10
888.999
 20
377.666
 11
914.332
 21
377.666
  0
LINE
  8
0
 10
914.332
 20
377.666
 11
914.332
 21
352.333
  0
LINE
  8
0
 10
914.332
 20
352.333
 11
888.999
 21
352.333
  0
LINE
  8
0
 10
822.333
 20
352.333
 11
822.333
 21
377.666
  0
LINE
  8
0
 10
822.333
 20
377.666
 11
847.666
 21
377.666
  0
LINE
  8
0
 10
847.666
 20
377.666
 11
847.666
 21
352.333
  0
LINE
  8
0
 10
847.666
 20
352.333
 11
822.333
 21
352.333
  0
LINE
  8
0
 10
922.332
 20
352.333
 11
922.332
 21
377.666
  0
LINE
  8
0
 10
922.332
 20
377.666
 11
947.666
 21
377.666
  0
LINE
  8
0
 10
947.666
 20
377.666
 11
947.666
 21
352.333
  0
LINE
  8
0
 10
947.666
 20
352.333
 11
922.332
 21
352.333
  0
LINE
  8
0
 10
788.999
 20
352.333
 11
788.999
 21
377.666
  0
LINE
  8
0
 10
788.999
 20
377.666
 11
814.333
 21
377.666
  0
LINE
  8
0
 10
814.333
 20
377.666
 11
814.333
 21
352.333
  0
LINE
  8
0
 10
814.333
 20
352.333
 11
788.999
 21
352.333
  0
LINE
  8
0
 10
988.999
 20
352.333
 11
988.999
 21
377.666
  0
LINE
  8
0
 10
988.999
 20
377.666
 11
1014.33
 21
377.666
  0
LINE
  8
0
 10
1014.33
 20
377.666
 11
1014.33
 21
352.333
  0
LINE
  8
0
 10
1014.33
 20
352.333
 11
988.999
 21
352.333
  0
LINE
  8
0
 10
1022.33
 20
352.333
 11
1022.33
 21
377.666
  0
LINE
  8
0
 10
1022.33
 20
377.666
 11
1047.67
 21
377.666
  0
LINE
  8
0
 10
1047.67
 20
377.666
 11
1047.67
 21
352.333
  0
LINE
  8
0
 10
1047.67
 20
352.333
 11
1022.33
 21
352.333
  0
LINE
  8
0
 10
855.666
 20
352.333
 11
855.666
 21
377.666
  0
LINE
  8
0
 10
855.666
 20
377.666
 11
880.999
 21
377.666
  0
LINE
  8
0
 10
880.999
 20
377.666
 11
880.999
 21
352.333
  0
LINE
  8
0
 10
880.999
 20
352.333
 11
855.666
 21
352.333
  0
LINE
  8
0
 10
1055.67
 20
352.333
 11
1055.67
 21
377.666
  0
LINE
  8
0
 10
1055.67
 20
377.666
 11
1081
 21
377.666
  0
LINE
  8
0
 10
1081
 20
377.666
 11
1081
 21
352.333
  0
LINE
  8
0
 10
1081
 20
352.333
 11
1055.67
 21
352.333
  0
LINE
  8
0
 10
622.333
 20
352.333
 11
622.333
 21
377.666
  0
LINE
  8
0
 10
622.333
 20
377.666
 11
647.666
 21
377.666
  0
LINE
  8
0
 10
647.666
 20
377.666
 11
647.666
 21
352.333
  0
LINE
  8
0
 10
647.666
 20
352.333
 11
622.333
 21
352.333
  0
LINE
  8
0
 10
722.333
 20
319
 11
722.333
 21
344.333
  0
LINE
  8
0
 10
722.333
 20
344.333
 11
747.666
 21
344.333
  0
LINE
  8
0
 10
747.666
 20
344.333
 11
747.666
 21
319
  0
LINE
  8
0
 10
747.666
 20
319
 11
722.333
 21
319
  0
LINE
  8
0
 10
622.333
 20
319
 11
622.333
 21
344.333
  0
LINE
  8
0
 10
622.333
 20
344.333
 11
647.666
 21
344.333
  0
LINE
  8
0
 10
647.666
 20
344.333
 11
647.666
 21
319
  0
LINE
  8
0
 10
647.666
 20
319
 11
622.333
 21
319
  0
LINE
  8
0
 10
1089
 20
319
 11
1089
 21
344.333
  0
LINE
  8
0
 10
1089
 20
344.333
 11
1114.33
 21
344.333
  0
LINE
  8
0
 10
1114.33
 20
344.333
 11
1114.33
 21
319
  0
LINE
  8
0
 10
1114.33
 20
319
 11
1089
 21
319
  0
LINE
  8
0
 10
955.666
 20
319
 11
955.666
 21
344.333
  0
LINE
  8
0
 10
955.666
 20
344.333
 11
980.999
 21
344.333
  0
LINE
  8
0
 10
980.999
 20
344.333
 11
980.999
 21
319
  0
LINE
  8
0
 10
980.999
 20
319
 11
955.666
 21
319
  0
LINE
  8
0
 10
755.666
 20
319
 11
755.666
 21
344.333
  0
LINE
  8
0
 10
755.666
 20
344.333
 11
780.999
 21
344.333
  0
LINE
  8
0
 10
780.999
 20
344.333
 11
780.999
 21
319
  0
LINE
  8
0
 10
780.999
 20
319
 11
755.666
 21
319
  0
LINE
  8
0
 10
988.999
 20
319
 11
988.999
 21
344.333
  0
LINE
  8
0
 10
988.999
 20
344.333
 11
1014.33
 21
344.333
  0
LINE
  8
0
 10
1014.33
 20
344.333
 11
1014.33
 21
319
  0
LINE
  8
0
 10
1014.33
 20
319
 11
988.999
 21
319
  0
LINE
  8
0
 10
822.333
 20
319
 11
822.333
 21
344.333
  0
LINE
  8
0
 10
822.333
 20
344.333
 11
847.666
 21
344.333
  0
LINE
  8
0
 10
847.666
 20
344.333
 11
847.666
 21
319
  0
LINE
  8
0
 10
847.666
 20
319
 11
822.333
 21
319
  0
LINE
  8
0
 10
888.999
 20
319
 11
888.999
 21
344.333
  0
LINE
  8
0
 10
888.999
 20
344.333
 11
914.332
 21
344.333
  0
LINE
  8
0
 10
914.332
 20
344.333
 11
914.332
 21
319
  0
LINE
  8
0
 10
914.332
 20
319
 11
888.999
 21
319
  0
LINE
  8
0
 10
922.332
 20
319
 11
922.332
 21
344.333
  0
LINE
  8
0
 10
922.332
 20
344.333
 11
947.666
 21
344.333
  0
LINE
  8
0
 10
947.666
 20
344.333
 11
947.666
 21
319
  0
LINE
  8
0
 10
947.666
 20
319
 11
922.332
 21
319
  0
LINE
  8
0
 10
788.999
 20
319
 11
788.999
 21
344.333
  0
LINE
  8
0
 10
788.999
 20
344.333
 11
814.333
 21
344.333
  0
LINE
  8
0
 10
814.333
 20
344.333
 11
814.333
 21
319
  0
LINE
  8
0
 10
814.333
 20
319
 11
788.999
 21
319
  0
LINE
  8
0
 10
1022.33
 20
319
 11
1022.33
 21
344.333
  0
LINE
  8
0
 10
1022.33
 20
344.333
 11
1047.67
 21
344.333
  0
LINE
  8
0
 10
1047.67
 20
344.333
 11
1047.67
 21
319
  0
LINE
  8
0
 10
1047.67
 20
319
 11
1022.33
 21
319
  0
LINE
  8
0
 10
688.999
 20
319
 11
688.999
 21
344.333
  0
LINE
  8
0
 10
688.999
 20
344.333
 11
714.333
 21
344.333
  0
LINE
  8
0
 10
714.333
 20
344.333
 11
714.333
 21
319
  0
LINE
  8
0
 10
714.333
 20
319
 11
688.999
 21
319
  0
LINE
  8
0
 10
655.666
 20
319
 11
655.666
 21
344.333
  0
LINE
  8
0
 10
655.666
 20
344.333
 11
680.999
 21
344.333
  0
LINE
  8
0
 10
680.999
 20
344.333
 11
680.999
 21
319
  0
LINE
  8
0
 10
680.999
 20
319
 11
655.666
 21
319
  0
LINE
  8
0
 10
1055.67
 20
319
 11
1055.67
 21
344.333
  0
LINE
  8
0
 10
1055.67
 20
344.333
 11
1081
 21
344.333
  0
LINE
  8
0
 10
1081
 20
344.333
 11
1081
 21
319
  0
LINE
  8
0
 10
1081
 20
319
 11
1055.67
 21
319
  0
LINE
  8
0
 10
1122.33
 20
319
 11
1122.33
 21
344.333
  0
LINE
  8
0
 10
1122.33
 20
344.333
 11
1147.67
 21
344.333
  0
LINE
  8
0
 10
1147.67
 20
344.333
 11
1147.67
 21
319
  0
LINE
  8
0
 10
1147.67
 20
319
 11
1122.33
 21
319
  0
LINE
  8
0
 10
855.666
 20
319
 11
855.666
 21
344.333
  0
LINE
  8
0
 10
855.666
 20
344.333
 11
880.999
 21
344.333
  0
LINE
  8
0
 10
880.999
 20
344.333
 11
880.999
 21
319
  0
LINE
  8
0
 10
880.999
 20
319
 11
855.666
 21
319
  0
LINE
  8
0
 10
755.666
 20
285.666
 11
755.666
 21
311
  0
LINE
  8
0
 10
755.666
 20
311
 11
780.999
 21
311
  0
LINE
  8
0
 10
780.999
 20
311
 11
780.999
 21
285.666
  0
LINE
  8
0
 10
780.999
 20
285.666
 11
755.666
 21
285.666
  0
LINE
  8
0
 10
1089
 20
285.666
 11
1089
 21
311
  0
LINE
  8
0
 10
1089
 20
311
 11
1114.33
 21
311
  0
LINE
  8
0
 10
1114.33
 20
311
 11
1114.33
 21
285.666
  0
LINE
  8
0
 10
1114.33
 20
285.666
 11
1089
 21
285.666
  0
LINE
  8
0
 10
788.999
 20
285.666
 11
788.999
 21
311
  0
LINE
  8
0
 10
788.999
 20
311
 11
814.333
 21
311
  0
LINE
  8
0
 10
814.333
 20
311
 11
814.333
 21
285.666
  0
LINE
  8
0
 10
814.333
 20
285.666
 11
788.999
 21
285.666
  0
LINE
  8
0
 10
822.333
 20
285.666
 11
822.333
 21
311
  0
LINE
  8
0
 10
822.333
 20
311
 11
847.666
 21
311
  0
LINE
  8
0
 10
847.666
 20
311
 11
847.666
 21
285.666
  0
LINE
  8
0
 10
847.666
 20
285.666
 11
822.333
 21
285.666
  0
LINE
  8
0
 10
888.999
 20
285.666
 11
888.999
 21
311
  0
LINE
  8
0
 10
888.999
 20
311
 11
914.332
 21
311
  0
LINE
  8
0
 10
914.332
 20
311
 11
914.332
 21
285.666
  0
LINE
  8
0
 10
914.332
 20
285.666
 11
888.999
 21
285.666
  0
LINE
  8
0
 10
955.666
 20
285.666
 11
955.666
 21
311
  0
LINE
  8
0
 10
955.666
 20
311
 11
980.999
 21
311
  0
LINE
  8
0
 10
980.999
 20
311
 11
980.999
 21
285.666
  0
LINE
  8
0
 10
980.999
 20
285.666
 11
955.666
 21
285.666
  0
LINE
  8
0
 10
988.999
 20
285.666
 11
988.999
 21
311
  0
LINE
  8
0
 10
988.999
 20
311
 11
1014.33
 21
311
  0
LINE
  8
0
 10
1014.33
 20
311
 11
1014.33
 21
285.666
  0
LINE
  8
0
 10
1014.33
 20
285.666
 11
988.999
 21
285.666
  0
LINE
  8
0
 10
1122.33
 20
285.666
 11
1122.33
 21
311
  0
LINE
  8
0
 10
1122.33
 20
311
 11
1147.67
 21
311
  0
LINE
  8
0
 10
1147.67
 20
311
 11
1147.67
 21
285.666
  0
LINE
  8
0
 10
1147.67
 20
285.666
 11
1122.33
 21
285.666
  0
LINE
  8
0
 10
855.666
 20
285.666
 11
855.666
 21
311
  0
LINE
  8
0
 10
855.666
 20
311
 11
880.999
 21
311
  0
LINE
  8
0
 10
880.999
 20
311
 11
880.999
 21
285.666
  0
LINE
  8
0
 10
880.999
 20
285.666
 11
855.666
 21
285.666
  0
LINE
  8
0
 10
922.332
 20
285.666
 11
922.332
 21
311
  0
LINE
  8
0
 10
922.332
 20
311
 11
947.666
 21
311
  0
LINE
  8
0
 10
947.666
 20
311
 11
947.666
 21
285.666
  0
LINE
  8
0
 10
947.666
 20
285.666
 11
922.332
 21
285.666
  0
LINE
  8
0
 10
722.333
 20
285.666
 11
722.333
 21
311
  0
LINE
  8
0
 10
722.333
 20
311
 11
747.666
 21
311
  0
LINE
  8
0
 10
747.666
 20
311
 11
747.666
 21
285.666
  0
LINE
  8
0
 10
747.666
 20
285.666
 11
722.333
 21
285.666
  0
LINE
  8
0
 10
655.666
 20
285.666
 11
655.666
 21
311
  0
LINE
  8
0
 10
655.666
 20
311
 11
680.999
 21
311
  0
LINE
  8
0
 10
680.999
 20
311
 11
680.999
 21
285.666
  0
LINE
  8
0
 10
680.999
 20
285.666
 11
655.666
 21
285.666
  0
LINE
  8
0
 10
1022.33
 20
285.666
 11
1022.33
 21
311
  0
LINE
  8
0
 10
1022.33
 20
311
 11
1047.67
 21
311
  0
LINE
  8
0
 10
1047.67
 20
311
 11
1047.67
 21
285.666
  0
LINE
  8
0
 10
1047.67
 20
285.666
 11
1022.33
 21
285.666
  0
LINE
  8
0
 10
688.999
 20
285.666
 11
688.999
 21
311
  0
LINE
  8
0
 10
688.999
 20
311
 11
714.333
 21
311
  0
LINE
  8
0
 10
714.333
 20
311
 11
714.333
 21
285.666
  0
LINE
  8
0
 10
714.333
 20
285.666
 11
688.999
 21
285.666
  0
LINE
  8
0
 10
1055.67
 20
285.666
 11
1055.67
 21
311
  0
LINE
  8
0
 10
1055.67
 20
311
 11
1081
 21
311
  0
LINE
  8
0
 10
1081
 20
311
 11
1081
 21
285.666
  0
LINE
  8
0
 10
1081
 20
285.666
 11
1055.67
 21
285.666
  0
LINE
  8
0
 10
622.333
 20
285.666
 11
622.333
 21
311
  0
LINE
  8
0
 10
622.333
 20
311
 11
647.666
 21
311
  0
LINE
  8
0
 10
647.666
 20
311
 11
647.666
 21
285.666
  0
LINE
  8
0
 10
647.666
 20
285.666
 11
622.333
 21
285.666
  0
LINE
  8
0
 10
1122.33
 20
252.333
 11
1122.33
 21
277.666
  0
LINE
  8
0
 10
1122.33
 20
277.666
 11
1147.67
 21
277.666
  0
LINE
  8
0
 10
1147.67
 20
277.666
 11
1147.67
 21
252.333
  0
LINE
  8
0
 10
1147.67
 20
252.333
 11
1122.33
 21
252.333
  0
LINE
  8
0
 10
755.666
 20
252.333
 11
755.666
 21
277.666
  0
LINE
  8
0
 10
755.666
 20
277.666
 11
780.999
 21
277.666
  0
LINE
  8
0
 10
780.999
 20
277.666
 11
780.999
 21
252.333
  0
LINE
  8
0
 10
780.999
 20
252.333
 11
755.666
 21
252.333
  0
LINE
  8
0
 10
822.333
 20
252.333
 11
822.333
 21
277.666
  0
LINE
  8
0
 10
822.333
 20
277.666
 11
847.666
 21
277.666
  0
LINE
  8
0
 10
847.666
 20
277.666
 11
847.666
 21
252.333
  0
LINE
  8
0
 10
847.666
 20
252.333
 11
822.333
 21
252.333
  0
LINE
  8
0
 10
922.332
 20
252.333
 11
922.332
 21
277.666
  0
LINE
  8
0
 10
922.332
 20
277.666
 11
947.666
 21
277.666
  0
LINE
  8
0
 10
947.666
 20
277.666
 11
947.666
 21
252.333
  0
LINE
  8
0
 10
947.666
 20
252.333
 11
922.332
 21
252.333
  0
LINE
  8
0
 10
788.999
 20
252.333
 11
788.999
 21
277.666
  0
LINE
  8
0
 10
788.999
 20
277.666
 11
814.333
 21
277.666
  0
LINE
  8
0
 10
814.333
 20
277.666
 11
814.333
 21
252.333
  0
LINE
  8
0
 10
814.333
 20
252.333
 11
788.999
 21
252.333
  0
LINE
  8
0
 10
955.666
 20
252.333
 11
955.666
 21
277.666
  0
LINE
  8
0
 10
955.666
 20
277.666
 11
980.999
 21
277.666
  0
LINE
  8
0
 10
980.999
 20
277.666
 11
980.999
 21
252.333
  0
LINE
  8
0
 10
980.999
 20
252.333
 11
955.666
 21
252.333
  0
LINE
  8
0
 10
888.999
 20
252.333
 11
888.999
 21
277.666
  0
LINE
  8
0
 10
888.999
 20
277.666
 11
914.332
 21
277.666
  0
LINE
  8
0
 10
914.332
 20
277.666
 11
914.332
 21
252.333
  0
LINE
  8
0
 10
914.332
 20
252.333
 11
888.999
 21
252.333
  0
LINE
  8
0
 10
622.333
 20
252.333
 11
622.333
 21
277.666
  0
LINE
  8
0
 10
622.333
 20
277.666
 11
647.666
 21
277.666
  0
LINE
  8
0
 10
647.666
 20
277.666
 11
647.666
 21
252.333
  0
LINE
  8
0
 10
647.666
 20
252.333
 11
622.333
 21
252.333
  0
LINE
  8
0
 10
1089
 20
252.333
 11
1089
 21
277.666
  0
LINE
  8
0
 10
1089
 20
277.666
 11
1114.33
 21
277.666
  0
LINE
  8
0
 10
1114.33
 20
277.666
 11
1114.33
 21
252.333
  0
LINE
  8
0
 10
1114.33
 20
252.333
 11
1089
 21
252.333
  0
LINE
  8
0
 10
655.666
 20
252.333
 11
655.666
 21
277.666
  0
LINE
  8
0
 10
655.666
 20
277.666
 11
680.999
 21
277.666
  0
LINE
  8
0
 10
680.999
 20
277.666
 11
680.999
 21
252.333
  0
LINE
  8
0
 10
680.999
 20
252.333
 11
655.666
 21
252.333
  0
LINE
  8
0
 10
1055.67
 20
252.333
 11
1055.67
 21
277.666
  0
LINE
  8
0
 10
1055.67
 20
277.666
 11
1081
 21
277.666
  0
LINE
  8
0
 10
1081
 20
277.666
 11
1081
 21
252.333
  0
LINE
  8
0
 10
1081
 20
252.333
 11
1055.67
 21
252.333
  0
LINE
  8
0
 10
688.999
 20
252.333
 11
688.999
 21
277.666
  0
LINE
  8
0
 10
688.999
 20
277.666
 11
714.333
 21
277.666
  0
LINE
  8
0
 10
714.333
 20
277.666
 11
714.333
 21
252.333
  0
LINE
  8
0
 10
714.333
 20
252.333
 11
688.999
 21
252.333
  0
LINE
  8
0
 10
1022.33
 20
252.333
 11
1022.33
 21
277.666
  0
LINE
  8
0
 10
1022.33
 20
277.666
 11
1047.67
 21
277.666
  0
LINE
  8
0
 10
1047.67
 20
277.666
 11
1047.67
 21
252.333
  0
LINE
  8
0
 10
1047.67
 20
252.333
 11
1022.33
 21
252.333
  0
LINE
  8
0
 10
855.666
 20
252.333
 11
855.666
 21
277.666
  0
LINE
  8
0
 10
855.666
 20
277.666
 11
880.999
 21
277.666
  0
LINE
  8
0
 10
880.999
 20
277.666
 11
880.999
 21
252.333
  0
LINE
  8
0
 10
880.999
 20
252.333
 11
855.666
 21
252.333
  0
LINE
  8
0
 10
722.333
 20
252.333
 11
722.333
 21
277.666
  0
LINE
  8
0
 10
722.333
 20
277.666
 11
747.666
 21
277.666
  0
LINE
  8
0
 10
747.666
 20
277.666
 11
747.666
 21
252.333
  0
LINE
  8
0
 10
747.666
 20
252.333
 11
722.333
 21
252.333
  0
LINE
  8
0
 10
988.999
 20
252.333
 11
988.999
 21
277.666
  0
LINE
  8
0
 10
988.999
 20
277.666
 11
1014.33
 21
277.666
  0
LINE
  8
0
 10
1014.33
 20
277.666
 11
1014.33
 21
252.333
  0
LINE
  8
0
 10
1014.33
 20
252.333
 11
988.999
 21
252.333
  0
LINE
  8
0
 10
1022.33
 20
219
 11
1022.33
 21
244.333
  0
LINE
  8
0
 10
1022.33
 20
244.333
 11
1047.67
 21
244.333
  0
LINE
  8
0
 10
1047.67
 20
244.333
 11
1047.67
 21
219
  0
LINE
  8
0
 10
1047.67
 20
219
 11
1022.33
 21
219
  0
LINE
  8
0
 10
922.332
 20
219
 11
922.332
 21
244.333
  0
LINE
  8
0
 10
922.332
 20
244.333
 11
947.666
 21
244.333
  0
LINE
  8
0
 10
947.666
 20
244.333
 11
947.666
 21
219
  0
LINE
  8
0
 10
947.666
 20
219
 11
922.332
 21
219
  0
LINE
  8
0
 10
1122.33
 20
219
 11
1122.33
 21
244.333
  0
LINE
  8
0
 10
1122.33
 20
244.333
 11
1147.67
 21
244.333
  0
LINE
  8
0
 10
1147.67
 20
244.333
 11
1147.67
 21
219
  0
LINE
  8
0
 10
1147.67
 20
219
 11
1122.33
 21
219
  0
LINE
  8
0
 10
722.333
 20
219
 11
722.333
 21
244.333
  0
LINE
  8
0
 10
722.333
 20
244.333
 11
747.666
 21
244.333
  0
LINE
  8
0
 10
747.666
 20
244.333
 11
747.666
 21
219
  0
LINE
  8
0
 10
747.666
 20
219
 11
722.333
 21
219
  0
LINE
  8
0
 10
888.999
 20
219
 11
888.999
 21
244.333
  0
LINE
  8
0
 10
888.999
 20
244.333
 11
914.332
 21
244.333
  0
LINE
  8
0
 10
914.332
 20
244.333
 11
914.332
 21
219
  0
LINE
  8
0
 10
914.332
 20
219
 11
888.999
 21
219
  0
LINE
  8
0
 10
1089
 20
219
 11
1089
 21
244.333
  0
LINE
  8
0
 10
1089
 20
244.333
 11
1114.33
 21
244.333
  0
LINE
  8
0
 10
1114.33
 20
244.333
 11
1114.33
 21
219
  0
LINE
  8
0
 10
1114.33
 20
219
 11
1089
 21
219
  0
LINE
  8
0
 10
988.999
 20
219
 11
988.999
 21
244.333
  0
LINE
  8
0
 10
988.999
 20
244.333
 11
1014.33
 21
244.333
  0
LINE
  8
0
 10
1014.33
 20
244.333
 11
1014.33
 21
219
  0
LINE
  8
0
 10
1014.33
 20
219
 11
988.999
 21
219
  0
LINE
  8
0
 10
755.666
 20
219
 11
755.666
 21
244.333
  0
LINE
  8
0
 10
755.666
 20
244.333
 11
780.999
 21
244.333
  0
LINE
  8
0
 10
780.999
 20
244.333
 11
780.999
 21
219
  0
LINE
  8
0
 10
780.999
 20
219
 11
755.666
 21
219
  0
LINE
  8
0
 10
822.333
 20
219
 11
822.333
 21
244.333
  0
LINE
  8
0
 10
822.333
 20
244.333
 11
847.666
 21
244.333
  0
LINE
  8
0
 10
847.666
 20
244.333
 11
847.666
 21
219
  0
LINE
  8
0
 10
847.666
 20
219
 11
822.333
 21
219
  0
LINE
  8
0
 10
622.333
 20
219
 11
622.333
 21
244.333
  0
LINE
  8
0
 10
622.333
 20
244.333
 11
647.666
 21
244.333
  0
LINE
  8
0
 10
647.666
 20
244.333
 11
647.666
 21
219
  0
LINE
  8
0
 10
647.666
 20
219
 11
622.333
 21
219
  0
LINE
  8
0
 10
655.666
 20
219
 11
655.666
 21
244.333
  0
LINE
  8
0
 10
655.666
 20
244.333
 11
680.999
 21
244.333
  0
LINE
  8
0
 10
680.999
 20
244.333
 11
680.999
 21
219
  0
LINE
  8
0
 10
680.999
 20
219
 11
655.666
 21
219
  0
LINE
  8
0
 10
855.666
 20
219
 11
855.666
 21
244.333
  0
LINE
  8
0
 10
855.666
 20
244.333
 11
880.999
 21
244.333
  0
LINE
  8
0
 10
880.999
 20
244.333
 11
880.999
 21
219
  0
LINE
  8
0
 10
880.999
 20
219
 11
855.666
 21
219
  0
LINE
  8
0
 10
955.666
 20
219
 11
955.666
 21
244.333
  0
LINE
  8
0
 10
955.666
 20
244.333
 11
980.999
 21
244.333
  0
LINE
  8
0
 10
980.999
 20
244.333
 11
980.999
 21
219
  0
LINE
  8
0
 10
980.999
 20
219
 11
955.666
 21
219
  0
LINE
  8
0
 10
688.999
 20
219
 11
688.999
 21
244.333
  0
LINE
  8
0
 10
688.999
 20
244.333
 11
714.333
 21
244.333
  0
LINE
  8
0
 10
714.333
 20
244.333
 11
714.333
 21
219
  0
LINE
  8
0
 10
714.333
 20
219
 11
688.999
 21
219
  0
LINE
  8
0
 10
788.999
 20
219
 11
788.999
 21
244.333
  0
LINE
  8
0
 10
788.999
 20
244.333
 11
814.333
 21
244.333
  0
LINE
  8
0
 10
814.333
 20
244.333
 11
814.333
 21
219
  0
LINE
  8
0
 10
814.333
 20
219
 11
788.999
 21
219
  0
LINE
  8
0
 10
1055.67
 20
219
 11
1055.67
 21
244.333
  0
LINE
  8
0
 10
1055.67
 20
244.333
 11
1081
 21
244.333
  0
LINE
  8
0
 10
1081
 20
244.333
 11
1081
 21
219
  0
LINE
  8
0
 10
1081
 20
219
 11
1055.67
 21
219
  0
LINE
  8
0
 10
722.333
 20
185.666
 11
722.333
 21
211
  0
LINE
  8
0
 10
722.333
 20
211
 11
747.666
 21
211
  0
LINE
  8
0
 10
747.666
 20
211
 11
747.666
 21
185.666
  0
LINE
  8
0
 10
747.666
 20
185.666
 11
722.333
 21
185.666
  0
LINE
  8
0
 10
622.333
 20
185.666
 11
622.333
 21
211
  0
LINE
  8
0
 10
622.333
 20
211
 11
647.666
 21
211
  0
LINE
  8
0
 10
647.666
 20
211
 11
647.666
 21
185.666
  0
LINE
  8
0
 10
647.666
 20
185.666
 11
622.333
 21
185.666
  0
LINE
  8
0
 10
1122.33
 20
185.666
 11
1122.33
 21
211
  0
LINE
  8
0
 10
1122.33
 20
211
 11
1147.67
 21
211
  0
LINE
  8
0
 10
1147.67
 20
211
 11
1147.67
 21
185.666
  0
LINE
  8
0
 10
1147.67
 20
185.666
 11
1122.33
 21
185.666
  0
LINE
  8
0
 10
1089
 20
185.666
 11
1089
 21
211
  0
LINE
  8
0
 10
1089
 20
211
 11
1114.33
 21
211
  0
LINE
  8
0
 10
1114.33
 20
211
 11
1114.33
 21
185.666
  0
LINE
  8
0
 10
1114.33
 20
185.666
 11
1089
 21
185.666
  0
LINE
  8
0
 10
788.999
 20
185.666
 11
788.999
 21
211
  0
LINE
  8
0
 10
788.999
 20
211
 11
814.333
 21
211
  0
LINE
  8
0
 10
814.333
 20
211
 11
814.333
 21
185.666
  0
LINE
  8
0
 10
814.333
 20
185.666
 11
788.999
 21
185.666
  0
LINE
  8
0
 10
988.999
 20
185.666
 11
988.999
 21
211
  0
LINE
  8
0
 10
988.999
 20
211
 11
1014.33
 21
211
  0
LINE
  8
0
 10
1014.33
 20
211
 11
1014.33
 21
185.666
  0
LINE
  8
0
 10
1014.33
 20
185.666
 11
988.999
 21
185.666
  0
LINE
  8
0
 10
855.666
 20
185.666
 11
855.666
 21
211
  0
LINE
  8
0
 10
855.666
 20
211
 11
880.999
 21
211
  0
LINE
  8
0
 10
880.999
 20
211
 11
880.999
 21
185.666
  0
LINE
  8
0
 10
880.999
 20
185.666
 11
855.666
 21
185.666
  0
LINE
  8
0
 10
888.999
 20
185.666
 11
888.999
 21
211
  0
LINE
  8
0
 10
888.999
 20
211
 11
914.332
 21
211
  0
LINE
  8
0
 10
914.332
 20
211
 11
914.332
 21
185.666
  0
LINE
  8
0
 10
914.332
 20
185.666
 11
888.999
 21
185.666
  0
LINE
  8
0
 10
655.666
 20
185.666
 11
655.666
 21
211
  0
LINE
  8
0
 10
655.666
 20
211
 11
680.999
 21
211
  0
LINE
  8
0
 10
680.999
 20
211
 11
680.999
 21
185.666
  0
LINE
  8
0
 10
680.999
 20
185.666
 11
655.666
 21
185.666
  0
LINE
  8
0
 10
955.666
 20
185.666
 11
955.666
 21
211
  0
LINE
  8
0
 10
955.666
 20
211
 11
980.999
 21
211
  0
LINE
  8
0
 10
980.999
 20
211
 11
980.999
 21
185.666
  0
LINE
  8
0
 10
980.999
 20
185.666
 11
955.666
 21
185.666
  0
LINE
  8
0
 10
822.333
 20
185.666
 11
822.333
 21
211
  0
LINE
  8
0
 10
822.333
 20
211
 11
847.666
 21
211
  0
LINE
  8
0
 10
847.666
 20
211
 11
847.666
 21
185.666
  0
LINE
  8
0
 10
847.666
 20
185.666
 11
822.333
 21
185.666
  0
LINE
  8
0
 10
688.999
 20
185.666
 11
688.999
 21
211
  0
LINE
  8
0
 10
688.999
 20
211
 11
714.333
 21
211
  0
LINE
  8
0
 10
714.333
 20
211
 11
714.333
 21
185.666
  0
LINE
  8
0
 10
714.333
 20
185.666
 11
688.999
 21
185.666
  0
LINE
  8
0
 10
755.666
 20
185.666
 11
755.666
 21
211
  0
LINE
  8
0
 10
755.666
 20
211
 11
780.999
 21
211
  0
LINE
  8
0
 10
780.999
 20
211
 11
780.999
 21
185.666
  0
LINE
  8
0
 10
780.999
 20
185.666
 11
755.666
 21
185.666
  0
LINE
  8
0
 10
922.332
 20
185.666
 11
922.332
 21
211
  0
LINE
  8
0
 10
922.332
 20
211
 11
947.666
 21
211
  0
LINE
  8
0
 10
947.666
 20
211
 11
947.666
 21
185.666
  0
LINE
  8
0
 10
947.666
 20
185.666
 11
922.332
 21
185.666
  0
LINE
  8
0
 10
1022.33
 20
185.666
 11
1022.33
 21
211
  0
LINE
  8
0
 10
1022.33
 20
211
 11
1047.67
 21
211
  0
LINE
  8
0
 10
1047.67
 20
211
 11
1047.67
 21
185.666
  0
LINE
  8
0
 10
1047.67
 20
185.666
 11
1022.33
 21
185.666
  0
LINE
  8
0
 10
1055.67
 20
185.666
 11
1055.67
 21
211
  0
LINE
  8
0
 10
1055.67
 20
211
 11
1081
 21
211
  0
LINE
  8
0
 10
1081
 20
211
 11
1081
 21
185.666
  0
LINE
  8
0
 10
1081
 20
185.666
 11
1055.67
 21
185.666
  0
LINE
  8
0
 10
722.333
 20
152.333
 11
722.333
 21
177.666
  0
LINE
  8
0
 10
722.333
 20
177.666
 11
747.666
 21
177.666
  0
LINE
  8
0
 10
747.666
 20
177.666
 11
747.666
 21
152.333
  0
LINE
  8
0
 10
747.666
 20
152.333
 11
722.333
 21
152.333
  0
LINE
  8
0
 10
1122.33
 20
152.333
 11
1122.33
 21
177.666
  0
LINE
  8
0
 10
1122.33
 20
177.666
 11
1147.67
 21
177.666
  0
LINE
  8
0
 10
1147.67
 20
177.666
 11
1147.67
 21
152.333
  0
LINE
  8
0
 10
1147.67
 20
152.333
 11
1122.33
 21
152.333
  0
LINE
  8
0
 10
622.333
 20
152.333
 11
622.333
 21
177.666
  0
LINE
  8
0
 10
622.333
 20
177.666
 11
647.666
 21
177.666
  0
LINE
  8
0
 10
647.666
 20
177.666
 11
647.666
 21
152.333
  0
LINE
  8
0
 10
647.666
 20
152.333
 11
622.333
 21
152.333
  0
LINE
  8
0
 10
922.332
 20
152.333
 11
922.332
 21
177.666
  0
LINE
  8
0
 10
922.332
 20
177.666
 11
947.666
 21
177.666
  0
LINE
  8
0
 10
947.666
 20
177.666
 11
947.666
 21
152.333
  0
LINE
  8
0
 10
947.666
 20
152.333
 11
922.332
 21
152.333
  0
LINE
  8
0
 10
1022.33
 20
152.333
 11
1022.33
 21
177.666
  0
LINE
  8
0
 10
1022.33
 20
177.666
 11
1047.67
 21
177.666
  0
LINE
  8
0
 10
1047.67
 20
177.666
 11
1047.67
 21
152.333
  0
LINE
  8
0
 10
1047.67
 20
152.333
 11
1022.33
 21
152.333
  0
LINE
  8
0
 10
755.666
 20
152.333
 11
755.666
 21
177.666
  0
LINE
  8
0
 10
755.666
 20
177.666
 11
780.999
 21
177.666
  0
LINE
  8
0
 10
780.999
 20
177.666
 11
780.999
 21
152.333
  0
LINE
  8
0
 10
780.999
 20
152.333
 11
755.666
 21
152.333
  0
LINE
  8
0
 10
688.999
 20
152.333
 11
688.999
 21
177.666
  0
LINE
  8
0
 10
688.999
 20
177.666
 11
714.333
 21
177.666
  0
LINE
  8
0
 10
714.333
 20
177.666
 11
714.333
 21
152.333
  0
LINE
  8
0
 10
714.333
 20
152.333
 11
688.999
 21
152.333
  0
LINE
  8
0
 10
955.666
 20
152.333
 11
955.666
 21
177.666
  0
LINE
  8
0
 10
955.666
 20
177.666
 11
980.999
 21
177.666
  0
LINE
  8
0
 10
980.999
 20
177.666
 11
980.999
 21
152.333
  0
LINE
  8
0
 10
980.999
 20
152.333
 11
955.666
 21
152.333
  0
LINE
  8
0
 10
888.999
 20
152.333
 11
888.999
 21
177.666
  0
LINE
  8
0
 10
888.999
 20
177.666
 11
914.332
 21
177.666
  0
LINE
  8
0
 10
914.332
 20
177.666
 11
914.332
 21
152.333
  0
LINE
  8
0
 10
914.332
 20
152.333
 11
888.999
 21
152.333
  0
LINE
  8
0
 10
655.666
 20
152.333
 11
655.666
 21
177.666
  0
LINE
  8
0
 10
655.666
 20
177.666
 11
680.999
 21
177.666
  0
LINE
  8
0
 10
680.999
 20
177.666
 11
680.999
 21
152.333
  0
LINE
  8
0
 10
680.999
 20
152.333
 11
655.666
 21
152.333
  0
LINE
  8
0
 10
822.333
 20
152.333
 11
822.333
 21
177.666
  0
LINE
  8
0
 10
822.333
 20
177.666
 11
847.666
 21
177.666
  0
LINE
  8
0
 10
847.666
 20
177.666
 11
847.666
 21
152.333
  0
LINE
  8
0
 10
847.666
 20
152.333
 11
822.333
 21
152.333
  0
LINE
  8
0
 10
1055.67
 20
152.333
 11
1055.67
 21
177.666
  0
LINE
  8
0
 10
1055.67
 20
177.666
 11
1081
 21
177.666
  0
LINE
  8
0
 10
1081
 20
177.666
 11
1081
 21
152.333
  0
LINE
  8
0
 10
1081
 20
152.333
 11
1055.67
 21
152.333
  0
LINE
  8
0
 10
988.999
 20
152.333
 11
988.999
 21
177.666
  0
LINE
  8
0
 10
988.999
 20
177.666
 11
1014.33
 21
177.666
  0
LINE
  8
0
 10
1014.33
 20
177.666
 11
1014.33
 21
152.333
  0
LINE
  8
0
 10
1014.33
 20
152.333
 11
988.999
 21
152.333
  0
LINE
  8
0
 10
788.999
 20
152.333
 11
788.999
 21
177.666
  0
LINE
  8
0
 10
788.999
 20
177.666
 11
814.333
 21
177.666
  0
LINE
  8
0
 10
814.333
 20
177.666
 11
814.333
 21
152.333
  0
LINE
  8
0
 10
814.333
 20
152.333
 11
788.999
 21
152.333
  0
LINE
  8
0
 10
1089
 20
152.333
 11
1089
 21
177.666
  0
LINE
  8
0
 10
1089
 20
177.666
 11
1114.33
 21
177.666
  0
LINE
  8
0
 10
1114.33
 20
177.666
 11
1114.33
 21
152.333
  0
LINE
  8
0
 10
1114.33
 20
152.333
 11
1089
 21
152.333
  0
LINE
  8
0
 10
855.666
 20
152.333
 11
855.666
 21
177.666
  0
LINE
  8
0
 10
855.666
 20
177.666
 11
880.999
 21
177.666
  0
LINE
  8
0
 10
880.999
 20
177.666
 11
880.999
 21
152.333
  0
LINE
  8
0
 10
880.999
 20
152.333
 11
855.666
 21
152.333
  0
LINE
  8
0
 10
822.333
 20
119
 11
822.333
 21
144.333
  0
LINE
  8
0
 10
822.333
 20
144.333
 11
847.666
 21
144.333
  0
LINE
  8
0
 10
847.666
 20
144.333
 11
847.666
 21
119
  0
LINE
  8
0
 10
847.666
 20
119
 11
822.333
 21
119
  0
LINE
  8
0
 10
922.332
 20
119
 11
922.332
 21
144.333
  0
LINE
  8
0
 10
922.332
 20
144.333
 11
947.666
 21
144.333
  0
LINE
  8
0
 10
947.666
 20
144.333
 11
947.666
 21
119
  0
LINE
  8
0
 10
947.666
 20
119
 11
922.332
 21
119
  0
LINE
  8
0
 10
688.999
 20
119
 11
688.999
 21
144.333
  0
LINE
  8
0
 10
688.999
 20
144.333
 11
714.333
 21
144.333
  0
LINE
  8
0
 10
714.333
 20
144.333
 11
714.333
 21
119
  0
LINE
  8
0
 10
714.333
 20
119
 11
688.999
 21
119
  0
LINE
  8
0
 10
955.666
 20
119
 11
955.666
 21
144.333
  0
LINE
  8
0
 10
955.666
 20
144.333
 11
980.999
 21
144.333
  0
LINE
  8
0
 10
980.999
 20
144.333
 11
980.999
 21
119
  0
LINE
  8
0
 10
980.999
 20
119
 11
955.666
 21
119
  0
LINE
  8
0
 10
1022.33
 20
119
 11
1022.33
 21
144.333
  0
LINE
  8
0
 10
1022.33
 20
144.333
 11
1047.67
 21
144.333
  0
LINE
  8
0
 10
1047.67
 20
144.333
 11
1047.67
 21
119
  0
LINE
  8
0
 10
1047.67
 20
119
 11
1022.33
 21
119
  0
LINE
  8
0
 10
888.999
 20
119
 11
888.999
 21
144.333
  0
LINE
  8
0
 10
888.999
 20
144.333
 11
914.332
 21
144.333
  0
LINE
  8
0
 10
914.332
 20
144.333
 11
914.332
 21
119
  0
LINE
  8
0
 10
914.332
 20
119
 11
888.999
 21
119
  0
LINE
  8
0
 10
1089
 20
119
 11
1089
 21
144.333
  0
LINE
  8
0
 10
1089
 20
144.333
 11
1114.33
 21
144.333
  0
LINE
  8
0
 10
1114.33
 20
144.333
 11
1114.33
 21
119
  0
LINE
  8
0
 10
1114.33
 20
119
 11
1089
 21
119
  0
LINE
  8
0
 10
855.666
 20
119
 11
855.666
 21
144.333
  0
LINE
  8
0
 10
855.666
 20
144.333
 11
880.999
 21
144.333
  0
LINE
  8
0
 10
880.999
 20
144.333
 11
880.999
 21
119
  0
LINE
  8
0
 10
880.999
 20
119
 11
855.666
 21
119
  0
LINE
  8
0
 10
755.666
 20
119
 11
755.666
 21
144.333
  0
LINE
  8
0
 10
755.666
 20
144.333
 11
780.999
 21
144.333
  0
LINE
  8
0
 10
780.999
 20
144.333
 11
780.999
 21
119
  0
LINE
  8
0
 10
780.999
 20
119
 11
755.666
 21
119
  0
LINE
  8
0
 10
988.999
 20
119
 11
988.999
 21
144.333
  0
LINE
  8
0
 10
988.999
 20
144.333
 11
1014.33
 21
144.333
  0
LINE
  8
0
 10
1014.33
 20
144.333
 11
1014.33
 21
119
  0
LINE
  8
0
 10
1014.33
 20
119
 11
988.999
 21
119
  0
LINE
  8
0
 10
1055.67
 20
119
 11
1055.67
 21
144.333
  0
LINE
  8
0
 10
1055.67
 20
144.333
 11
1081
 21
144.333
  0
LINE
  8
0
 10
1081
 20
144.333
 11
1081
 21
119
  0
LINE
  8
0
 10
1081
 20
119
 11
1055.67
 21
119
  0
LINE
  8
0
 10
622.333
 20
119
 11
622.333
 21
144.333
  0
LINE
  8
0
 10
622.333
 20
144.333
 11
647.666
 21
144.333
  0
LINE
  8
0
 10
647.666
 20
144.333
 11
647.666
 21
119
  0
LINE
  8
0
 10
647.666
 20
119
 11
622.333
 21
119
  0
LINE
  8
0
 10
722.333
 20
119
 11
722.333
 21
144.333
  0
LINE
  8
0
 10
722.333
 20
144.333
 11
747.666
 21
144.333
  0
LINE
  8
0
 10
747.666
 20
144.333
 11
747.666
 21
119
  0
LINE
  8
0
 10
747.666
 20
119
 11
722.333
 21
119
  0
LINE
  8
0
 10
655.666
 20
119
 11
655.666
 21
144.333
  0
LINE
  8
0
 10
655.666
 20
144.333
 11
680.999
 21
144.333
  0
LINE
  8
0
 10
680.999
 20
144.333
 11
680.999
 21
119
  0
LINE
  8
0
 10
680.999
 20
119
 11
655.666
 21
119
  0
LINE
  8
0
 10
788.999
 20
119
 11
788.999
 21
144.333
  0
LINE
  8
0
 10
788.999
 20
144.333
 11
814.333
 21
144.333
  0
LINE
  8
0
 10
814.333
 20
144.333
 11
814.333
 21
119
  0
LINE
  8
0
 10
814.333
 20
119
 11
788.999
 21
119
  0
LINE
  8
0
 10
1122.33
 20
119
 11
1122.33
 21
144.333
  0
LINE
  8
0
 10
1122.33
 20
144.333
 11
1147.67
 21
144.333
  0
LINE
  8
0
 10
1147.67
 20
144.333
 11
1147.67
 21
119
  0
LINE
  8
0
 10
1147.67
 20
119
 11
1122.33
 21
119
  0
LINE
  8
0
 10
888.999
 20
85.6666
 11
888.999
 21
111
  0
LINE
  8
0
 10
888.999
 20
111
 11
914.332
 21
111
  0
LINE
  8
0
 10
914.332
 20
111
 11
914.332
 21
85.6666
  0
LINE
  8
0
 10
914.332
 20
85.6666
 11
888.999
 21
85.6666
  0
LINE
  8
0
 10
755.666
 20
85.6666
 11
755.666
 21
111
  0
LINE
  8
0
 10
755.666
 20
111
 11
780.999
 21
111
  0
LINE
  8
0
 10
780.999
 20
111
 11
780.999
 21
85.6666
  0
LINE
  8
0
 10
780.999
 20
85.6666
 11
755.666
 21
85.6666
  0
LINE
  8
0
 10
788.999
 20
85.6666
 11
788.999
 21
111
  0
LINE
  8
0
 10
788.999
 20
111
 11
814.333
 21
111
  0
LINE
  8
0
 10
814.333
 20
111
 11
814.333
 21
85.6666
  0
LINE
  8
0
 10
814.333
 20
85.6666
 11
788.999
 21
85.6666
  0
LINE
  8
0
 10
988.999
 20
85.6666
 11
988.999
 21
111
  0
LINE
  8
0
 10
988.999
 20
111
 11
1014.33
 21
111
  0
LINE
  8
0
 10
1014.33
 20
111
 11
1014.33
 21
85.6666
  0
LINE
  8
0
 10
1014.33
 20
85.6666
 11
988.999
 21
85.6666
  0
LINE
  8
0
 10
922.332
 20
85.6666
 11
922.332
 21
111
  0
LINE
  8
0
 10
922.332
 20
111
 11
947.666
 21
111
  0
LINE
  8
0
 10
947.666
 20
111
 11
947.666
 21
85.6666
  0
LINE
  8
0
 10
947.666
 20
85.6666
 11
922.332
 21
85.6666
  0
LINE
  8
0
 10
1089
 20
85.6666
 11
1089
 21
111
  0
LINE
  8
0
 10
1089
 20
111
 11
1114.33
 21
111
  0
LINE
  8
0
 10
1114.33
 20
111
 11
1114.33
 21
85.6666
  0
LINE
  8
0
 10
1114.33
 20
85.6666
 11
1089
 21
85.6666
  0
LINE
  8
0
 10
1055.67
 20
85.6666
 11
1055.67
 21
111
  0
LINE
  8
0
 10
1055.67
 20
111
 11
1081
 21
111
  0
LINE
  8
0
 10
1081
 20
111
 11
1081
 21
85.6666
  0
LINE
  8
0
 10
1081
 20
85.6666
 11
1055.67
 21
85.6666
  0
LINE
  8
0
 10
722.333
 20
85.6666
 11
722.333
 21
111
  0
LINE
  8
0
 10
722.333
 20
111
 11
747.666
 21
111
  0
LINE
  8
0
 10
747.666
 20
111
 11
747.666
 21
85.6666
  0
LINE
  8
0
 10
747.666
 20
85.6666
 11
722.333
 21
85.6666
  0
LINE
  8
0
 10
822.333
 20
85.6666
 11
822.333
 21
111
  0
LINE
  8
0
 10
822.333
 20
111
 11
847.666
 21
111
  0
LINE
  8
0
 10
847.666
 20
111
 11
847.666
 21
85.6666
  0
LINE
  8
0
 10
847.666
 20
85.6666
 11
822.333
 21
85.6666
  0
LINE
  8
0
 10
655.666
 20
85.6666
 11
655.666
 21
111
  0
LINE
  8
0
 10
655.666
 20
111
 11
680.999
 21
111
  0
LINE
  8
0
 10
680.999
 20
111
 11
680.999
 21
85.6666
  0
LINE
  8
0
 10
680.999
 20
85.6666
 11
655.666
 21
85.6666
  0
LINE
  8
0
 10
1122.33
 20
85.6666
 11
1122.33
 21
111
  0
LINE
  8
0
 10
1122.33
 20
111
 11
1147.67
 21
111
  0
LINE
  8
0
 10
1147.67
 20
111
 11
1147.67
 21
85.6666
  0
LINE
  8
0
 10
1147.67
 20
85.6666
 11
1122.33
 21
85.6666
  0
LINE
  8
0
 10
855.666
 20
85.6666
 11
855.666
 21
111
  0
LINE
  8
0
 10
855.666
 20
111
 11
880.999
 21
111
  0
LINE
  8
0
 10
880.999
 20
111
 11
880.999
 21
85.6666
  0
LINE
  8
0
 10
880.999
 20
85.6666
 11
855.666
 21
85.6666
  0
LINE
  8
0
 10
688.999
 20
85.6666
 11
688.999
 21
111
  0
LINE
  8
0
 10
688.999
 20
111
 11
714.333
 21
111
  0
LINE
  8
0
 10
714.333
 20
111
 11
714.333
 21
85.6666
  0
LINE
  8
0
 10
714.333
 20
85.6666
 11
688.999
 21
85.6666
  0
LINE
  8
0
 10
622.333
 20
85.6666
 11
622.333
 21
111
  0
LINE
  8
0
 10
622.333
 20
111
 11
647.666
 21
111
  0
LINE
  8
0
 10
647.666
 20
111
 11
647.666
 21
85.6666
  0
LINE
  8
0
 10
647.666
 20
85.6666
 11
622.333
 21
85.6666
  0
LINE
  8
0
 10
955.666
 20
85.6666
 11
955.666
 21
111
  0
LINE
  8
0
 10
955.666
 20
111
 11
980.999
 21
111
  0
LINE
  8
0
 10
980.999
 20
111
 11
980.999
 21
85.6666
  0
LINE
  8
0
 10
980.999
 20
85.6666
 11
955.666
 21
85.6666
  0
LINE
  8
0
 10
1022.33
 20
85.6666
 11
1022.33
 21
111
  0
LINE
  8
0
 10
1022.33
 20
111
 11
1047.67
 21
111
  0
LINE
  8
0
 10
1047.67
 20
111
 11
1047.67
 21
85.6666
  0
LINE
  8
0
 10
1047.67
 20
85.6666
 11
1022.33
 21
85.6666
  0
LINE
  8
0
 10
688.999
 20
52.3333
 11
688.999
 21
77.6666
  0
LINE
  8
0
 10
688.999
 20
77.6666
 11
714.333
 21
77.6666
  0
LINE
  8
0
 10
714.333
 20
77.6666
 11
714.333
 21
52.3333
  0
LINE
  8
0
 10
714.333
 20
52.3333
 11
688.999
 21
52.3333
  0
LINE
  8
0
 10
1022.33
 20
52.3333
 11
1022.33
 21
77.6666
  0
LINE
  8
0
 10
1022.33
 20
77.6666
 11
1047.67
 21
77.6666
  0
LINE
  8
0
 10
1047.67
 20
77.6666
 11
1047.67
 21
52.3333
  0
LINE
  8
0
 10
1047.67
 20
52.3333
 11
1022.33
 21
52.3333
  0
LINE
  8
0
 10
955.666
 20
52.3333
 11
955.666
 21
77.6666
  0
LINE
  8
0
 10
955.666
 20
77.6666
 11
980.999
 21
77.6666
  0
LINE
  8
0
 10
980.999
 20
77.6666
 11
980.999
 21
52.3333
  0
LINE
  8
0
 10
980.999
 20
52.3333
 11
955.666
 21
52.3333
  0
LINE
  8
0
 10
822.333
 20
52.3333
 11
822.333
 21
77.6666
  0
LINE
  8
0
 10
822.333
 20
77.6666
 11
847.666
 21
77.6666
  0
LINE
  8
0
 10
847.666
 20
77.6666
 11
847.666
 21
52.3333
  0
LINE
  8
0
 10
847.666
 20
52.3333
 11
822.333
 21
52.3333
  0
LINE
  8
0
 10
755.666
 20
52.3333
 11
755.666
 21
77.6666
  0
LINE
  8
0
 10
755.666
 20
77.6666
 11
780.999
 21
77.6666
  0
LINE
  8
0
 10
780.999
 20
77.6666
 11
780.999
 21
52.3333
  0
LINE
  8
0
 10
780.999
 20
52.3333
 11
755.666
 21
52.3333
  0
LINE
  8
0
 10
988.999
 20
52.3333
 11
988.999
 21
77.6666
  0
LINE
  8
0
 10
988.999
 20
77.6666
 11
1014.33
 21
77.6666
  0
LINE
  8
0
 10
1014.33
 20
77.6666
 11
1014.33
 21
52.3333
  0
LINE
  8
0
 10
1014.33
 20
52.3333
 11
988.999
 21
52.3333
  0
LINE
  8
0
 10
1089
 20
52.3333
 11
1089
 21
77.6666
  0
LINE
  8
0
 10
1089
 20
77.6666
 11
1114.33
 21
77.6666
  0
LINE
  8
0
 10
1114.33
 20
77.6666
 11
1114.33
 21
52.3333
  0
LINE
  8
0
 10
1114.33
 20
52.3333
 11
1089
 21
52.3333
  0
LINE
  8
0
 10
855.666
 20
52.3333
 11
855.666
 21
77.6666
  0
LINE
  8
0
 10
855.666
 20
77.6666
 11
880.999
 21
77.6666
  0
LINE
  8
0
 10
880.999
 20
77.6666
 11
880.999
 21
52.3333
  0
LINE
  8
0
 10
880.999
 20
52.3333
 11
855.666
 21
52.3333
  0
LINE
  8
0
 10
1122.33
 20
52.3333
 11
1122.33
 21
77.6666
  0
LINE
  8
0
 10
1122.33
 20
77.6666
 11
1147.67
 21
77.6666
  0
LINE
  8
0
 10
1147.67
 20
77.6666
 11
1147.67
 21
52.3333
  0
LINE
  8
0
 10
1147.67
 20
52.3333
 11
1122.33
 21
52.3333
  0
LINE
  8
0
 10
655.666
 20
52.3333
 11
655.666
 21
77.6666
  0
LINE
  8
0
 10
655.666
 20
77.6666
 11
680.999
 21
77.6666
  0
LINE
  8
0
 10
680.999
 20
77.6666
 11
680.999
 21
52.3333
  0
LINE
  8
0
 10
680.999
 20
52.3333
 11
655.666
 21
52.3333
  0
LINE
  8
0
 10
622.333
 20
52.3333
 11
622.333
 21
77.6666
  0
LINE
  8
0
 10
622.333
 20
77.6666
 11
647.666
 21
77.6666
  0
LINE
  8
0
 10
647.666
 20
77.6666
 11
647.666
 21
52.3333
  0
LINE
  8
0
 10
647.666
 20
52.3333
 11
622.333
 21
52.3333
  0
LINE
  8
0
 10
1055.67
 20
52.3333
 11
1055.67
 21
77.6666
  0
LINE
  8
0
 10
1055.67
 20
77.6666
 11
1081
 21
77.6666
  0
LINE
  8
0
 10
1081
 20
77.6666
 11
1081
 21
52.3333
  0
LINE
  8
0
 10
1081
 20
52.3333
 11
1055.67
 21
52.3333
  0
LINE
  8
0
 10
922.332
 20
52.3333
 11
922.332
 21
77.6666
  0
LINE
  8
0
 10
922.332
 20
77.6666
 11
947.666
 21
77.6666
  0
LINE
  8
0
 10
947.666
 20
77.6666
 11
947.666
 21
52.3333
  0
LINE
  8
0
 10
947.666
 20
52.3333
 11
922.332
 21
52.3333
  0
LINE
  8
0
 10
788.999
 20
52.3333
 11
788.999
 21
77.6666
  0
LINE
  8
0
 10
788.999
 20
77.6666
 11
814.333
 21
77.6666
  0
LINE
  8
0
 10
814.333
 20
77.6666
 11
814.333
 21
52.3333
  0
LINE
  8
0
 10
814.333
 20
52.3333
 11
788.999
 21
52.3333
  0
LINE
  8
0
 10
888.999
 20
52.3333
 11
888.999
 21
77.6666
  0
LINE
  8
0
 10
888.999
 20
77.6666
 11
914.332
 21
77.6666
  0
LINE
  8
0
 10
914.332
 20
77.6666
 11
914.332
 21
52.3333
  0
LINE
  8
0
 10
914.332
 20
52.3333
 11
888.999
 21
52.3333
  0
LINE
  8
0
 10
722.333
 20
52.3333
 11
722.333
 21
77.6666
  0
LINE
  8
0
 10
722.333
 20
77.6666
 11
747.666
 21
77.6666
  0
LINE
  8
0
 10
747.666
 20
77.6666
 11
747.666
 21
52.3333
  0
LINE
  8
0
 10
747.666
 20
52.3333
 11
722.333
 21
52.3333
  0
LINE
  8
0
 10
1055.67
 20
19
 11
1055.67
 21
44.3333
  0
LINE
  8
0
 10
1055.67
 20
44.3333
 11
1081
 21
44.3333
  0
LINE
  8
0
 10
1081
 20
44.3333
 11
1081
 21
19
  0
LINE
  8
0
 10
1081
 20
19
 11
1055.67
 21
19
  0
LINE
  8
0
 10
788.999
 20
19
 11
788.999
 21
44.3333
  0
LINE
  8
0
 10
788.999
 20
44.3333
 11
814.333
 21
44.3333
  0
LINE
  8
0
 10
814.333
 20
44.3333
 11
814.333
 21
19
  0
LINE
  8
0
 10
814.333
 20
19
 11
788.999
 21
19
  0
LINE
  8
0
 10
1022.33
 20
19
 11
1022.33
 21
44.3333
  0
LINE
  8
0
 10
1022.33
 20
44.3333
 11
1047.67
 21
44.3333
  0
LINE
  8
0
 10
1047.67
 20
44.3333
 11
1047.67
 21
19
  0
LINE
  8
0
 10
1047.67
 20
19
 11
1022.33
 21
19
  0
LINE
  8
0
 10
988.999
 20
19
 11
988.999
 21
44.3333
  0
LINE
  8
0
 10
988.999
 20
44.3333
 11
1014.33
 21
44.3333
  0
LINE
  8
0
 10
1014.33
 20
44.3333
 11
1014.33
 21
19
  0
LINE
  8
0
 10
1014.33
 20
19
 11
988.999
 21
19
  0
LINE
  8
0
 10
955.666
 20
19
 11
955.666
 21
44.3333
  0
LINE
  8
0
 10
955.666
 20
44.3333
 11
980.999
 21
44.3333
  0
LINE
  8
0
 10
980.999
 20
44.3333
 11
980.999
 21
19
  0
LINE
  8
0
 10
980.999
 20
19
 11
955.666
 21
19
  0
LINE
  8
0
 10
922.332
 20
19
 11
922.332
 21
44.3333
  0
LINE
  8
0
 10
922.332
 20
44.3333
 11
947.666
 21
44.3333
  0
LINE
  8
0
 10
947.666
 20
44.3333
 11
947.666
 21
19
  0
LINE
  8
0
 10
947.666
 20
19
 11
922.332
 21
19
  0
LINE
  8
0
 10
888.999
 20
19
 11
888.999
 21
44.3333
  0
LINE
  8
0
 10
888.999
 20
44.3333
 11
914.332
 21
44.3333
  0
LINE
  8
0
 10
914.332
 20
44.3333
 11
914.332
 21
19
  0
LINE
  8
0
 10
914.332
 20
19
 11
888.999
 21
19
  0
LINE
  8
0
 10
622.333
 20
19
 11
622.333
 21
44.3333
  0
LINE
  8
0
 10
622.333
 20
44.3333
 11
647.666
 21
44.3333
  0
LINE
  8
0
 10
647.666
 20
44.3333
 11
647.666
 21
19
  0
LINE
  8
0
 10
647.666
 20
19
 11
622.333
 21
19
  0
LINE
  8
0
 10
855.666
 20
19
 11
855.666
 21
44.3333
  0
LINE
  8
0
 10
855.666
 20
44.3333
 11
880.999
 21
44.3333
  0
LINE
  8
0
 10
880.999
 20
44.3333
 11
880.999
 21
19
  0
LINE
  8
0
 10
880.999
 20
19
 11
855.666
 21
19
  0
LINE
  8
0
 10
822.333
 20
19
 11
822.333
 21
44.3333
  0
LINE
  8
0
 10
822.333
 20
44.3333
 11
847.666
 21
44.3333
  0
LINE
  8
0
 10
847.666
 20
44.3333
 11
847.666
 21
19
  0
LINE
  8
0
 10
847.666
 20
19
 11
822.333
 21
19
  0
LINE
  8
0
 10
1089
 20
19
 11
1089
 21
44.3333
  0
LINE
  8
0
 10
1089
 20
44.3333
 11
1114.33
 21
44.3333
  0
LINE
  8
0
 10
1114.33
 20
44.3333
 11
1114.33
 21
19
  0
LINE
  8
0
 10
1114.33
 20
19
 11
1089
 21
19
  0
LINE
  8
0
 10
722.333
 20
19
 11
722.333
 21
44.3333
  0
LINE
  8
0
 10
722.333
 20
44.3333
 11
747.666
 21
44.3333
  0
LINE
  8
0
 10
747.666
 20
44.3333
 11
747.666
 21
19
  0
LINE
  8
0
 10
747.666
 20
19
 11
722.333
 21
19
  0
LINE
  8
0
 10
688.999
 20
19
 11
688.999
 21
44.3333
  0
LINE
  8
0
 10
688.999
 20
44.3333
 11
714.333
 21
44.3333
  0
LINE
  8
0
 10
714.333
 20
44.3333
 11
714.333
 21
19
  0
LINE
  8
0
 10
714.333
 20
19
 11
688.999
 21
19
  0
LINE
  8
0
 10
655.666
 20
19
 11
655.666
 21
44.3333
  0
LINE
  8
0
 10
655.666
 20
44.3333
 11
680.999
 21
44.3333
  0
LINE
  8
0
 10
680.999
 20
44.3333
 11
680.999
 21
19
  0
LINE
  8
0
 10
680.999
 20
19
 11
655.666
 21
19
  0
LINE
  8
0
 10
1122.33
 20
19
 11
1122.33
 21
44.3333
  0
LINE
  8
0
 10
1122.33
 20
44.3333
 11
1147.67
 21
44.3333
  0
LINE
  8
0
 10
1147.67
 20
44.3333
 11
1147.67
 21
19
  0
LINE
  8
0
 10
1147.67
 20
19
 11
1122.33
 21
19
  0
LINE
  8
0
 10
755.666
 20
19
 11
755.666
 21
44.3333
  0
LINE
  8
0
 10
755.666
 20
44.3333
 11
780.999
 21
44.3333
  0
LINE
  8
0
 10
780.999
 20
44.3333
 11
780.999
 21
19
  0
LINE
  8
0
 10
780.999
 20
19
 11
755.666
 21
19
  0
ENDSEC
  0
SECTION
  2
OBJECTS
  0
DICTIONARY
  0
ENDSEC
  0
EOF
