<?xml version="1.0" standalone="no"?>
<!DOCTYPE svg PUBLIC "-//W3C//DTD SVG 1.1//EN" "http://www.w3.org/Graphics/SVG/1.1/DTD/svg11.dtd">
<svg width="1167mm" height="1167mm" viewBox="0 -1167 1167 1167" xmlns="http://www.w3.org/2000/svg" version="1.1">
<title>OpenSCAD Model</title>
<path d="
M 563.333,-1166.67 L 0,-1166.67 L 0,-603.333 L 563.333,-603.333 z
M 530.166,-1161.67 L 530.166,-1163.67 L 540.166,-1163.67 L 540.166,-1161.67 z
M 23.1666,-1161.67 L 23.1666,-1163.67 L 33.1666,-1163.67 L 33.1666,-1161.67 z
M 473.833,-1161.67 L 473.833,-1163.67 L 483.833,-1163.67 L 483.833,-1161.67 z
M 79.4999,-1161.67 L 79.4999,-1163.67 L 89.4999,-1163.67 L 89.4999,-1161.67 z
M 417.5,-1161.67 L 417.5,-1163.67 L 427.5,-1163.67 L 427.5,-1161.67 z
M 135.833,-1161.67 L 135.833,-1163.67 L 145.833,-1163.67 L 145.833,-1161.67 z
M 361.166,-1161.67 L 361.166,-1163.67 L 371.166,-1163.67 L 371.166,-1161.67 z
M 192.166,-1161.67 L 192.166,-1163.67 L 202.166,-1163.67 L 202.166,-1161.67 z
M 304.833,-1161.67 L 304.833,-1163.67 L 314.833,-1163.67 L 314.833,-1161.67 z
M 248.5,-1161.67 L 248.5,-1163.67 L 258.5,-1163.67 L 258.5,-1161.67 z
M 10,-1125 L 10,-1145 L 20,-1145 L 20,-1125 z
M 558.333,-1133.5 L 558.333,-1143.5 L 560.333,-1143.5 L 560.333,-1133.5 z
M 3,-1133.5 L 3,-1143.5 L 5,-1143.5 L 5,-1133.5 z
M 558.333,-1077.17 L 558.333,-1087.17 L 560.333,-1087.17 L 560.333,-1077.17 z
M 3,-1077.17 L 3,-1087.17 L 5,-1087.17 L 5,-1077.17 z
M 558.333,-1020.83 L 558.333,-1030.83 L 560.333,-1030.83 L 560.333,-1020.83 z
M 3,-1020.83 L 3,-1030.83 L 5,-1030.83 L 5,-1020.83 z
M 558.333,-964.499 L 558.333,-974.499 L 560.333,-974.499 L 560.333,-964.499 z
M 3,-964.499 L 3,-974.499 L 5,-974.499 L 5,-964.499 z
M 558.333,-908.166 L 558.333,-918.166 L 560.333,-918.166 L 560.333,-908.166 z
M 3,-908.166 L 3,-918.166 L 5,-918.166 L 5,-908.166 z
M 558.333,-851.833 L 558.333,-861.833 L 560.333,-861.833 L 560.333,-851.833 z
M 3,-851.833 L 3,-861.833 L 5,-861.833 L 5,-851.833 z
M 558.333,-795.499 L 558.333,-805.499 L 560.333,-805.499 L 560.333,-795.499 z
M 3,-795.499 L 3,-805.499 L 5,-805.499 L 5,-795.499 z
M 558.333,-739.166 L 558.333,-749.166 L 560.333,-749.166 L 560.333,-739.166 z
M 3,-739.166 L 3,-749.166 L 5,-749.166 L 5,-739.166 z
M 558.333,-682.833 L 558.333,-692.833 L 560.333,-692.833 L 560.333,-682.833 z
M 3,-682.833 L 3,-692.833 L 5,-692.833 L 5,-682.833 z
M 558.333,-626.499 L 558.333,-636.499 L 560.333,-636.499 L 560.333,-626.499 z
M 3,-626.499 L 3,-636.499 L 5,-636.499 L 5,-626.499 z
M 248.5,-606.333 L 248.5,-608.333 L 258.5,-608.333 L 258.5,-606.333 z
M 304.833,-606.333 L 304.833,-608.333 L 314.833,-608.333 L 314.833,-606.333 z
M 192.166,-606.333 L 192.166,-608.333 L 202.166,-608.333 L 202.166,-606.333 z
M 361.166,-606.333 L 361.166,-608.333 L 371.166,-608.333 L 371.166,-606.333 z
M 135.833,-606.333 L 135.833,-608.333 L 145.833,-608.333 L 145.833,-606.333 z
M 417.5,-606.333 L 417.5,-608.333 L 427.5,-608.333 L 427.5,-606.333 z
M 79.4999,-606.333 L 79.4999,-608.333 L 89.4999,-608.333 L 89.4999,-606.333 z
M 473.833,-606.333 L 473.833,-608.333 L 483.833,-608.333 L 483.833,-606.333 z
M 23.1666,-606.333 L 23.1666,-608.333 L 33.1666,-608.333 L 33.1666,-606.333 z
M 530.166,-606.333 L 530.166,-608.333 L 540.166,-608.333 L 540.166,-606.333 z
M 543.333,-41.6666 L 545.333,-41.6666 L 545.333,-74.9999 L 551.333,-74.9999 L 551.333,-41.6666 L 553.333,-41.6666
 L 553.333,-0 L 563.333,-0 L 563.333,-563.333 L 0,-563.333 L 0,-0 L 543.333,-0
 z
M 10,-521.666 L 10,-541.666 L 20,-541.666 L 20,-521.666 z
M 545.333,-488.333 L 545.333,-541.666 L 551.333,-541.666 L 551.333,-488.333 z
M 43.3333,-488.333 L 43.3333,-541.666 L 53.3333,-541.666 L 53.3333,-488.333 z
M 26.5716,-526.571 L 26.5716,-536.761 L 36.7616,-536.761 L 36.7616,-526.571 z
M 93.2382,-526.571 L 93.2382,-536.761 L 103.428,-536.761 L 103.428,-526.571 z
M 126.572,-526.571 L 126.572,-536.761 L 136.762,-536.761 L 136.762,-526.571 z
M 159.905,-526.571 L 159.905,-536.761 L 170.095,-536.761 L 170.095,-526.571 z
M 193.238,-526.571 L 193.238,-536.761 L 203.428,-536.761 L 203.428,-526.571 z
M 226.571,-526.571 L 226.571,-536.761 L 236.761,-536.761 L 236.761,-526.571 z
M 259.905,-526.571 L 259.905,-536.761 L 270.095,-536.761 L 270.095,-526.571 z
M 293.238,-526.571 L 293.238,-536.761 L 303.428,-536.761 L 303.428,-526.571 z
M 326.571,-526.571 L 326.571,-536.761 L 336.761,-536.761 L 336.761,-526.571 z
M 359.905,-526.571 L 359.905,-536.761 L 370.095,-536.761 L 370.095,-526.571 z
M 393.238,-526.571 L 393.238,-536.761 L 403.428,-536.761 L 403.428,-526.571 z
M 426.571,-526.571 L 426.571,-536.761 L 436.761,-536.761 L 436.761,-526.571 z
M 459.905,-526.571 L 459.905,-536.761 L 470.095,-536.761 L 470.095,-526.571 z
M 493.238,-526.571 L 493.238,-536.761 L 503.428,-536.761 L 503.428,-526.571 z
M 526.571,-526.571 L 526.571,-536.761 L 536.761,-536.761 L 536.761,-526.571 z
M 59.9049,-526.571 L 59.9049,-536.761 L 70.0949,-536.761 L 70.0949,-526.571 z
M 12,-455 L 12,-508.333 L 18,-508.333 L 18,-455 z
M 76.6666,-455 L 76.6666,-508.333 L 86.6666,-508.333 L 86.6666,-455 z
M 259.905,-493.238 L 259.905,-503.428 L 270.095,-503.428 L 270.095,-493.238 z
M 526.571,-493.238 L 526.571,-503.428 L 536.761,-503.428 L 536.761,-493.238 z
M 26.5716,-493.238 L 26.5716,-503.428 L 36.7616,-503.428 L 36.7616,-493.238 z
M 226.571,-493.238 L 226.571,-503.428 L 236.761,-503.428 L 236.761,-493.238 z
M 493.238,-493.238 L 493.238,-503.428 L 503.428,-503.428 L 503.428,-493.238 z
M 93.2382,-493.238 L 93.2382,-503.428 L 103.428,-503.428 L 103.428,-493.238 z
M 459.905,-493.238 L 459.905,-503.428 L 470.095,-503.428 L 470.095,-493.238 z
M 126.572,-493.238 L 126.572,-503.428 L 136.762,-503.428 L 136.762,-493.238 z
M 426.571,-493.238 L 426.571,-503.428 L 436.761,-503.428 L 436.761,-493.238 z
M 159.905,-493.238 L 159.905,-503.428 L 170.095,-503.428 L 170.095,-493.238 z
M 293.238,-493.238 L 293.238,-503.428 L 303.428,-503.428 L 303.428,-493.238 z
M 393.238,-493.238 L 393.238,-503.428 L 403.428,-503.428 L 403.428,-493.238 z
M 193.238,-493.238 L 193.238,-503.428 L 203.428,-503.428 L 203.428,-493.238 z
M 359.905,-493.238 L 359.905,-503.428 L 370.095,-503.428 L 370.095,-493.238 z
M 326.571,-493.238 L 326.571,-503.428 L 336.761,-503.428 L 336.761,-493.238 z
M 59.9049,-493.238 L 59.9049,-503.428 L 70.0949,-503.428 L 70.0949,-493.238 z
M 110,-421.666 L 110,-475 L 120,-475 L 120,-421.666 z
M 545.333,-421.666 L 545.333,-475 L 551.333,-475 L 551.333,-421.666 z
M 193.238,-459.905 L 193.238,-470.095 L 203.428,-470.095 L 203.428,-459.905 z
M 59.9049,-459.905 L 59.9049,-470.095 L 70.0949,-470.095 L 70.0949,-459.905 z
M 326.571,-459.905 L 326.571,-470.095 L 336.761,-470.095 L 336.761,-459.905 z
M 359.905,-459.905 L 359.905,-470.095 L 370.095,-470.095 L 370.095,-459.905 z
M 226.571,-459.905 L 226.571,-470.095 L 236.761,-470.095 L 236.761,-459.905 z
M 459.905,-459.905 L 459.905,-470.095 L 470.095,-470.095 L 470.095,-459.905 z
M 126.572,-459.905 L 126.572,-470.095 L 136.762,-470.095 L 136.762,-459.905 z
M 526.571,-459.905 L 526.571,-470.095 L 536.761,-470.095 L 536.761,-459.905 z
M 26.5716,-459.905 L 26.5716,-470.095 L 36.7616,-470.095 L 36.7616,-459.905 z
M 493.238,-459.905 L 493.238,-470.095 L 503.428,-470.095 L 503.428,-459.905 z
M 93.2382,-459.905 L 93.2382,-470.095 L 103.428,-470.095 L 103.428,-459.905 z
M 159.905,-459.905 L 159.905,-470.095 L 170.095,-470.095 L 170.095,-459.905 z
M 293.238,-459.905 L 293.238,-470.095 L 303.428,-470.095 L 303.428,-459.905 z
M 426.571,-459.905 L 426.571,-470.095 L 436.761,-470.095 L 436.761,-459.905 z
M 393.238,-459.905 L 393.238,-470.095 L 403.428,-470.095 L 403.428,-459.905 z
M 259.905,-459.905 L 259.905,-470.095 L 270.095,-470.095 L 270.095,-459.905 z
M 143.333,-388.333 L 143.333,-441.666 L 153.333,-441.666 L 153.333,-388.333 z
M 12,-388.333 L 12,-441.666 L 18,-441.666 L 18,-388.333 z
M 293.238,-426.571 L 293.238,-436.761 L 303.428,-436.761 L 303.428,-426.571 z
M 93.2382,-426.571 L 93.2382,-436.761 L 103.428,-436.761 L 103.428,-426.571 z
M 526.571,-426.571 L 526.571,-436.761 L 536.761,-436.761 L 536.761,-426.571 z
M 59.9049,-426.571 L 59.9049,-436.761 L 70.0949,-436.761 L 70.0949,-426.571 z
M 193.238,-426.571 L 193.238,-436.761 L 203.428,-436.761 L 203.428,-426.571 z
M 359.905,-426.571 L 359.905,-436.761 L 370.095,-436.761 L 370.095,-426.571 z
M 326.571,-426.571 L 326.571,-436.761 L 336.761,-436.761 L 336.761,-426.571 z
M 459.905,-426.571 L 459.905,-436.761 L 470.095,-436.761 L 470.095,-426.571 z
M 26.5716,-426.571 L 26.5716,-436.761 L 36.7616,-436.761 L 36.7616,-426.571 z
M 493.238,-426.571 L 493.238,-436.761 L 503.428,-436.761 L 503.428,-426.571 z
M 226.571,-426.571 L 226.571,-436.761 L 236.761,-436.761 L 236.761,-426.571 z
M 426.571,-426.571 L 426.571,-436.761 L 436.761,-436.761 L 436.761,-426.571 z
M 159.905,-426.571 L 159.905,-436.761 L 170.095,-436.761 L 170.095,-426.571 z
M 393.238,-426.571 L 393.238,-436.761 L 403.428,-436.761 L 403.428,-426.571 z
M 259.905,-426.571 L 259.905,-436.761 L 270.095,-436.761 L 270.095,-426.571 z
M 126.572,-426.571 L 126.572,-436.761 L 136.762,-436.761 L 136.762,-426.571 z
M 176.666,-355 L 176.666,-408.333 L 186.666,-408.333 L 186.666,-355 z
M 545.333,-355 L 545.333,-408.333 L 551.333,-408.333 L 551.333,-355 z
M 259.905,-393.238 L 259.905,-403.428 L 270.095,-403.428 L 270.095,-393.238 z
M 459.905,-393.238 L 459.905,-403.428 L 470.095,-403.428 L 470.095,-393.238 z
M 59.9049,-393.238 L 59.9049,-403.428 L 70.0949,-403.428 L 70.0949,-393.238 z
M 26.5716,-393.238 L 26.5716,-403.428 L 36.7616,-403.428 L 36.7616,-393.238 z
M 526.571,-393.238 L 526.571,-403.428 L 536.761,-403.428 L 536.761,-393.238 z
M 126.572,-393.238 L 126.572,-403.428 L 136.762,-403.428 L 136.762,-393.238 z
M 426.571,-393.238 L 426.571,-403.428 L 436.761,-403.428 L 436.761,-393.238 z
M 159.905,-393.238 L 159.905,-403.428 L 170.095,-403.428 L 170.095,-393.238 z
M 359.905,-393.238 L 359.905,-403.428 L 370.095,-403.428 L 370.095,-393.238 z
M 93.2382,-393.238 L 93.2382,-403.428 L 103.428,-403.428 L 103.428,-393.238 z
M 493.238,-393.238 L 493.238,-403.428 L 503.428,-403.428 L 503.428,-393.238 z
M 293.238,-393.238 L 293.238,-403.428 L 303.428,-403.428 L 303.428,-393.238 z
M 193.238,-393.238 L 193.238,-403.428 L 203.428,-403.428 L 203.428,-393.238 z
M 226.571,-393.238 L 226.571,-403.428 L 236.761,-403.428 L 236.761,-393.238 z
M 326.571,-393.238 L 326.571,-403.428 L 336.761,-403.428 L 336.761,-393.238 z
M 393.238,-393.238 L 393.238,-403.428 L 403.428,-403.428 L 403.428,-393.238 z
M 12,-321.666 L 12,-375 L 18,-375 L 18,-321.666 z
M 210,-321.666 L 210,-375 L 220,-375 L 220,-321.666 z
M 459.905,-359.905 L 459.905,-370.095 L 470.095,-370.095 L 470.095,-359.905 z
M 259.905,-359.905 L 259.905,-370.095 L 270.095,-370.095 L 270.095,-359.905 z
M 426.571,-359.905 L 426.571,-370.095 L 436.761,-370.095 L 436.761,-359.905 z
M 393.238,-359.905 L 393.238,-370.095 L 403.428,-370.095 L 403.428,-359.905 z
M 193.238,-359.905 L 193.238,-370.095 L 203.428,-370.095 L 203.428,-359.905 z
M 326.571,-359.905 L 326.571,-370.095 L 336.761,-370.095 L 336.761,-359.905 z
M 226.571,-359.905 L 226.571,-370.095 L 236.761,-370.095 L 236.761,-359.905 z
M 293.238,-359.905 L 293.238,-370.095 L 303.428,-370.095 L 303.428,-359.905 z
M 159.905,-359.905 L 159.905,-370.095 L 170.095,-370.095 L 170.095,-359.905 z
M 359.905,-359.905 L 359.905,-370.095 L 370.095,-370.095 L 370.095,-359.905 z
M 26.5716,-359.905 L 26.5716,-370.095 L 36.7616,-370.095 L 36.7616,-359.905 z
M 526.571,-359.905 L 526.571,-370.095 L 536.761,-370.095 L 536.761,-359.905 z
M 59.9049,-359.905 L 59.9049,-370.095 L 70.0949,-370.095 L 70.0949,-359.905 z
M 126.572,-359.905 L 126.572,-370.095 L 136.762,-370.095 L 136.762,-359.905 z
M 493.238,-359.905 L 493.238,-370.095 L 503.428,-370.095 L 503.428,-359.905 z
M 93.2382,-359.905 L 93.2382,-370.095 L 103.428,-370.095 L 103.428,-359.905 z
M 545.333,-288.333 L 545.333,-341.666 L 551.333,-341.666 L 551.333,-288.333 z
M 243.333,-288.333 L 243.333,-341.666 L 253.333,-341.666 L 253.333,-288.333 z
M 326.571,-326.571 L 326.571,-336.761 L 336.761,-336.761 L 336.761,-326.571 z
M 259.905,-326.571 L 259.905,-336.761 L 270.095,-336.761 L 270.095,-326.571 z
M 293.238,-326.571 L 293.238,-336.761 L 303.428,-336.761 L 303.428,-326.571 z
M 226.571,-326.571 L 226.571,-336.761 L 236.761,-336.761 L 236.761,-326.571 z
M 526.571,-326.571 L 526.571,-336.761 L 536.761,-336.761 L 536.761,-326.571 z
M 193.238,-326.571 L 193.238,-336.761 L 203.428,-336.761 L 203.428,-326.571 z
M 393.238,-326.571 L 393.238,-336.761 L 403.428,-336.761 L 403.428,-326.571 z
M 159.905,-326.571 L 159.905,-336.761 L 170.095,-336.761 L 170.095,-326.571 z
M 359.905,-326.571 L 359.905,-336.761 L 370.095,-336.761 L 370.095,-326.571 z
M 126.572,-326.571 L 126.572,-336.761 L 136.762,-336.761 L 136.762,-326.571 z
M 26.5716,-326.571 L 26.5716,-336.761 L 36.7616,-336.761 L 36.7616,-326.571 z
M 426.571,-326.571 L 426.571,-336.761 L 436.761,-336.761 L 436.761,-326.571 z
M 93.2382,-326.571 L 93.2382,-336.761 L 103.428,-336.761 L 103.428,-326.571 z
M 459.905,-326.571 L 459.905,-336.761 L 470.095,-336.761 L 470.095,-326.571 z
M 59.9049,-326.571 L 59.9049,-336.761 L 70.0949,-336.761 L 70.0949,-326.571 z
M 493.238,-326.571 L 493.238,-336.761 L 503.428,-336.761 L 503.428,-326.571 z
M 276.666,-255 L 276.666,-308.333 L 286.666,-308.333 L 286.666,-255 z
M 12,-255 L 12,-308.333 L 18,-308.333 L 18,-255 z
M 393.238,-293.238 L 393.238,-303.428 L 403.428,-303.428 L 403.428,-293.238 z
M 26.5716,-293.238 L 26.5716,-303.428 L 36.7616,-303.428 L 36.7616,-293.238 z
M 359.905,-293.238 L 359.905,-303.428 L 370.095,-303.428 L 370.095,-293.238 z
M 259.905,-293.238 L 259.905,-303.428 L 270.095,-303.428 L 270.095,-293.238 z
M 159.905,-293.238 L 159.905,-303.428 L 170.095,-303.428 L 170.095,-293.238 z
M 493.238,-293.238 L 493.238,-303.428 L 503.428,-303.428 L 503.428,-293.238 z
M 193.238,-293.238 L 193.238,-303.428 L 203.428,-303.428 L 203.428,-293.238 z
M 226.571,-293.238 L 226.571,-303.428 L 236.761,-303.428 L 236.761,-293.238 z
M 293.238,-293.238 L 293.238,-303.428 L 303.428,-303.428 L 303.428,-293.238 z
M 526.571,-293.238 L 526.571,-303.428 L 536.761,-303.428 L 536.761,-293.238 z
M 326.571,-293.238 L 326.571,-303.428 L 336.761,-303.428 L 336.761,-293.238 z
M 126.572,-293.238 L 126.572,-303.428 L 136.762,-303.428 L 136.762,-293.238 z
M 59.9049,-293.238 L 59.9049,-303.428 L 70.0949,-303.428 L 70.0949,-293.238 z
M 426.571,-293.238 L 426.571,-303.428 L 436.761,-303.428 L 436.761,-293.238 z
M 93.2382,-293.238 L 93.2382,-303.428 L 103.428,-303.428 L 103.428,-293.238 z
M 459.905,-293.238 L 459.905,-303.428 L 470.095,-303.428 L 470.095,-293.238 z
M 545.333,-221.666 L 545.333,-275 L 551.333,-275 L 551.333,-221.666 z
M 310,-221.666 L 310,-275 L 320,-275 L 320,-221.666 z
M 359.905,-259.905 L 359.905,-270.095 L 370.095,-270.095 L 370.095,-259.905 z
M 193.238,-259.905 L 193.238,-270.095 L 203.428,-270.095 L 203.428,-259.905 z
M 326.571,-259.905 L 326.571,-270.095 L 336.761,-270.095 L 336.761,-259.905 z
M 226.571,-259.905 L 226.571,-270.095 L 236.761,-270.095 L 236.761,-259.905 z
M 159.905,-259.905 L 159.905,-270.095 L 170.095,-270.095 L 170.095,-259.905 z
M 393.238,-259.905 L 393.238,-270.095 L 403.428,-270.095 L 403.428,-259.905 z
M 126.572,-259.905 L 126.572,-270.095 L 136.762,-270.095 L 136.762,-259.905 z
M 259.905,-259.905 L 259.905,-270.095 L 270.095,-270.095 L 270.095,-259.905 z
M 426.571,-259.905 L 426.571,-270.095 L 436.761,-270.095 L 436.761,-259.905 z
M 93.2382,-259.905 L 93.2382,-270.095 L 103.428,-270.095 L 103.428,-259.905 z
M 459.905,-259.905 L 459.905,-270.095 L 470.095,-270.095 L 470.095,-259.905 z
M 59.9049,-259.905 L 59.9049,-270.095 L 70.0949,-270.095 L 70.0949,-259.905 z
M 493.238,-259.905 L 493.238,-270.095 L 503.428,-270.095 L 503.428,-259.905 z
M 26.5716,-259.905 L 26.5716,-270.095 L 36.7616,-270.095 L 36.7616,-259.905 z
M 526.571,-259.905 L 526.571,-270.095 L 536.761,-270.095 L 536.761,-259.905 z
M 293.238,-259.905 L 293.238,-270.095 L 303.428,-270.095 L 303.428,-259.905 z
M 12,-188.333 L 12,-241.666 L 18,-241.666 L 18,-188.333 z
M 343.333,-188.333 L 343.333,-241.666 L 353.333,-241.666 L 353.333,-188.333 z
M 459.905,-226.571 L 459.905,-236.761 L 470.095,-236.761 L 470.095,-226.571 z
M 293.238,-226.571 L 293.238,-236.761 L 303.428,-236.761 L 303.428,-226.571 z
M 126.572,-226.571 L 126.572,-236.761 L 136.762,-236.761 L 136.762,-226.571 z
M 526.571,-226.571 L 526.571,-236.761 L 536.761,-236.761 L 536.761,-226.571 z
M 493.238,-226.571 L 493.238,-236.761 L 503.428,-236.761 L 503.428,-226.571 z
M 393.238,-226.571 L 393.238,-236.761 L 403.428,-236.761 L 403.428,-226.571 z
M 159.905,-226.571 L 159.905,-236.761 L 170.095,-236.761 L 170.095,-226.571 z
M 226.571,-226.571 L 226.571,-236.761 L 236.761,-236.761 L 236.761,-226.571 z
M 193.238,-226.571 L 193.238,-236.761 L 203.428,-236.761 L 203.428,-226.571 z
M 26.5716,-226.571 L 26.5716,-236.761 L 36.7616,-236.761 L 36.7616,-226.571 z
M 59.9049,-226.571 L 59.9049,-236.761 L 70.0949,-236.761 L 70.0949,-226.571 z
M 326.571,-226.571 L 326.571,-236.761 L 336.761,-236.761 L 336.761,-226.571 z
M 259.905,-226.571 L 259.905,-236.761 L 270.095,-236.761 L 270.095,-226.571 z
M 93.2382,-226.571 L 93.2382,-236.761 L 103.428,-236.761 L 103.428,-226.571 z
M 426.571,-226.571 L 426.571,-236.761 L 436.761,-236.761 L 436.761,-226.571 z
M 359.905,-226.571 L 359.905,-236.761 L 370.095,-236.761 L 370.095,-226.571 z
M 545.333,-155 L 545.333,-208.333 L 551.333,-208.333 L 551.333,-155 z
M 376.666,-155 L 376.666,-208.333 L 386.666,-208.333 L 386.666,-155 z
M 326.571,-193.238 L 326.571,-203.428 L 336.761,-203.428 L 336.761,-193.238 z
M 426.571,-193.238 L 426.571,-203.428 L 436.761,-203.428 L 436.761,-193.238 z
M 393.238,-193.238 L 393.238,-203.428 L 403.428,-203.428 L 403.428,-193.238 z
M 293.238,-193.238 L 293.238,-203.428 L 303.428,-203.428 L 303.428,-193.238 z
M 526.571,-193.238 L 526.571,-203.428 L 536.761,-203.428 L 536.761,-193.238 z
M 459.905,-193.238 L 459.905,-203.428 L 470.095,-203.428 L 470.095,-193.238 z
M 26.5716,-193.238 L 26.5716,-203.428 L 36.7616,-203.428 L 36.7616,-193.238 z
M 126.572,-193.238 L 126.572,-203.428 L 136.762,-203.428 L 136.762,-193.238 z
M 493.238,-193.238 L 493.238,-203.428 L 503.428,-203.428 L 503.428,-193.238 z
M 59.9049,-193.238 L 59.9049,-203.428 L 70.0949,-203.428 L 70.0949,-193.238 z
M 359.905,-193.238 L 359.905,-203.428 L 370.095,-203.428 L 370.095,-193.238 z
M 226.571,-193.238 L 226.571,-203.428 L 236.761,-203.428 L 236.761,-193.238 z
M 93.2382,-193.238 L 93.2382,-203.428 L 103.428,-203.428 L 103.428,-193.238 z
M 159.905,-193.238 L 159.905,-203.428 L 170.095,-203.428 L 170.095,-193.238 z
M 193.238,-193.238 L 193.238,-203.428 L 203.428,-203.428 L 203.428,-193.238 z
M 259.905,-193.238 L 259.905,-203.428 L 270.095,-203.428 L 270.095,-193.238 z
M 12,-121.667 L 12,-175 L 18,-175 L 18,-121.667 z
M 410,-121.667 L 410,-175 L 420,-175 L 420,-121.667 z
M 526.571,-159.905 L 526.571,-170.095 L 536.761,-170.095 L 536.761,-159.905 z
M 59.9049,-159.905 L 59.9049,-170.095 L 70.0949,-170.095 L 70.0949,-159.905 z
M 226.571,-159.905 L 226.571,-170.095 L 236.761,-170.095 L 236.761,-159.905 z
M 459.905,-159.905 L 459.905,-170.095 L 470.095,-170.095 L 470.095,-159.905 z
M 393.238,-159.905 L 393.238,-170.095 L 403.428,-170.095 L 403.428,-159.905 z
M 193.238,-159.905 L 193.238,-170.095 L 203.428,-170.095 L 203.428,-159.905 z
M 493.238,-159.905 L 493.238,-170.095 L 503.428,-170.095 L 503.428,-159.905 z
M 259.905,-159.905 L 259.905,-170.095 L 270.095,-170.095 L 270.095,-159.905 z
M 293.238,-159.905 L 293.238,-170.095 L 303.428,-170.095 L 303.428,-159.905 z
M 359.905,-159.905 L 359.905,-170.095 L 370.095,-170.095 L 370.095,-159.905 z
M 93.2382,-159.905 L 93.2382,-170.095 L 103.428,-170.095 L 103.428,-159.905 z
M 159.905,-159.905 L 159.905,-170.095 L 170.095,-170.095 L 170.095,-159.905 z
M 426.571,-159.905 L 426.571,-170.095 L 436.761,-170.095 L 436.761,-159.905 z
M 326.571,-159.905 L 326.571,-170.095 L 336.761,-170.095 L 336.761,-159.905 z
M 26.5716,-159.905 L 26.5716,-170.095 L 36.7616,-170.095 L 36.7616,-159.905 z
M 126.572,-159.905 L 126.572,-170.095 L 136.762,-170.095 L 136.762,-159.905 z
M 545.333,-88.3332 L 545.333,-141.667 L 551.333,-141.667 L 551.333,-88.3332 z
M 443.333,-88.3332 L 443.333,-141.667 L 453.333,-141.667 L 453.333,-88.3332 z
M 126.572,-126.572 L 126.572,-136.762 L 136.762,-136.762 L 136.762,-126.572 z
M 59.9049,-126.572 L 59.9049,-136.762 L 70.0949,-136.762 L 70.0949,-126.572 z
M 26.5716,-126.572 L 26.5716,-136.762 L 36.7616,-136.762 L 36.7616,-126.572 z
M 459.905,-126.572 L 459.905,-136.762 L 470.095,-136.762 L 470.095,-126.572 z
M 326.571,-126.572 L 326.571,-136.762 L 336.761,-136.762 L 336.761,-126.572 z
M 393.238,-126.572 L 393.238,-136.762 L 403.428,-136.762 L 403.428,-126.572 z
M 159.905,-126.572 L 159.905,-136.762 L 170.095,-136.762 L 170.095,-126.572 z
M 493.238,-126.572 L 493.238,-136.762 L 503.428,-136.762 L 503.428,-126.572 z
M 293.238,-126.572 L 293.238,-136.762 L 303.428,-136.762 L 303.428,-126.572 z
M 426.571,-126.572 L 426.571,-136.762 L 436.761,-136.762 L 436.761,-126.572 z
M 526.571,-126.572 L 526.571,-136.762 L 536.761,-136.762 L 536.761,-126.572 z
M 193.238,-126.572 L 193.238,-136.762 L 203.428,-136.762 L 203.428,-126.572 z
M 259.905,-126.572 L 259.905,-136.762 L 270.095,-136.762 L 270.095,-126.572 z
M 93.2382,-126.572 L 93.2382,-136.762 L 103.428,-136.762 L 103.428,-126.572 z
M 226.571,-126.572 L 226.571,-136.762 L 236.761,-136.762 L 236.761,-126.572 z
M 359.905,-126.572 L 359.905,-136.762 L 370.095,-136.762 L 370.095,-126.572 z
M 12,-54.9999 L 12,-108.333 L 18,-108.333 L 18,-54.9999 z
M 476.666,-54.9999 L 476.666,-108.333 L 486.666,-108.333 L 486.666,-54.9999 z
M 126.572,-93.2382 L 126.572,-103.428 L 136.762,-103.428 L 136.762,-93.2382 z
M 59.9049,-93.2382 L 59.9049,-103.428 L 70.0949,-103.428 L 70.0949,-93.2382 z
M 426.571,-93.2382 L 426.571,-103.428 L 436.761,-103.428 L 436.761,-93.2382 z
M 359.905,-93.2382 L 359.905,-103.428 L 370.095,-103.428 L 370.095,-93.2382 z
M 26.5716,-93.2382 L 26.5716,-103.428 L 36.7616,-103.428 L 36.7616,-93.2382 z
M 93.2382,-93.2382 L 93.2382,-103.428 L 103.428,-103.428 L 103.428,-93.2382 z
M 259.905,-93.2382 L 259.905,-103.428 L 270.095,-103.428 L 270.095,-93.2382 z
M 526.571,-93.2382 L 526.571,-103.428 L 536.761,-103.428 L 536.761,-93.2382 z
M 293.238,-93.2382 L 293.238,-103.428 L 303.428,-103.428 L 303.428,-93.2382 z
M 159.905,-93.2382 L 159.905,-103.428 L 170.095,-103.428 L 170.095,-93.2382 z
M 193.238,-93.2382 L 193.238,-103.428 L 203.428,-103.428 L 203.428,-93.2382 z
M 326.571,-93.2382 L 326.571,-103.428 L 336.761,-103.428 L 336.761,-93.2382 z
M 493.238,-93.2382 L 493.238,-103.428 L 503.428,-103.428 L 503.428,-93.2382 z
M 459.905,-93.2382 L 459.905,-103.428 L 470.095,-103.428 L 470.095,-93.2382 z
M 393.238,-93.2382 L 393.238,-103.428 L 403.428,-103.428 L 403.428,-93.2382 z
M 226.571,-93.2382 L 226.571,-103.428 L 236.761,-103.428 L 236.761,-93.2382 z
M 509.999,-21.6666 L 509.999,-74.9999 L 519.999,-74.9999 L 519.999,-21.6666 z
M 59.9049,-59.9049 L 59.9049,-70.0949 L 70.0949,-70.0949 L 70.0949,-59.9049 z
M 293.238,-59.9049 L 293.238,-70.0949 L 303.428,-70.0949 L 303.428,-59.9049 z
M 393.238,-59.9049 L 393.238,-70.0949 L 403.428,-70.0949 L 403.428,-59.9049 z
M 193.238,-59.9049 L 193.238,-70.0949 L 203.428,-70.0949 L 203.428,-59.9049 z
M 26.5716,-59.9049 L 26.5716,-70.0949 L 36.7616,-70.0949 L 36.7616,-59.9049 z
M 459.905,-59.9049 L 459.905,-70.0949 L 470.095,-70.0949 L 470.095,-59.9049 z
M 326.571,-59.9049 L 326.571,-70.0949 L 336.761,-70.0949 L 336.761,-59.9049 z
M 259.905,-59.9049 L 259.905,-70.0949 L 270.095,-70.0949 L 270.095,-59.9049 z
M 526.571,-59.9049 L 526.571,-70.0949 L 536.761,-70.0949 L 536.761,-59.9049 z
M 126.572,-59.9049 L 126.572,-70.0949 L 136.762,-70.0949 L 136.762,-59.9049 z
M 93.2382,-59.9049 L 93.2382,-70.0949 L 103.428,-70.0949 L 103.428,-59.9049 z
M 426.571,-59.9049 L 426.571,-70.0949 L 436.761,-70.0949 L 436.761,-59.9049 z
M 359.905,-59.9049 L 359.905,-70.0949 L 370.095,-70.0949 L 370.095,-59.9049 z
M 226.571,-59.9049 L 226.571,-70.0949 L 236.761,-70.0949 L 236.761,-59.9049 z
M 159.905,-59.9049 L 159.905,-70.0949 L 170.095,-70.0949 L 170.095,-59.9049 z
M 493.238,-59.9049 L 493.238,-70.0949 L 503.428,-70.0949 L 503.428,-59.9049 z
M 493.238,-26.5716 L 493.238,-36.7616 L 503.428,-36.7616 L 503.428,-26.5716 z
M 126.572,-26.5716 L 126.572,-36.7616 L 136.762,-36.7616 L 136.762,-26.5716 z
M 459.905,-26.5716 L 459.905,-36.7616 L 470.095,-36.7616 L 470.095,-26.5716 z
M 426.571,-26.5716 L 426.571,-36.7616 L 436.761,-36.7616 L 436.761,-26.5716 z
M 293.238,-26.5716 L 293.238,-36.7616 L 303.428,-36.7616 L 303.428,-26.5716 z
M 26.5716,-26.5716 L 26.5716,-36.7616 L 36.7616,-36.7616 L 36.7616,-26.5716 z
M 259.905,-26.5716 L 259.905,-36.7616 L 270.095,-36.7616 L 270.095,-26.5716 z
M 59.9049,-26.5716 L 59.9049,-36.7616 L 70.0949,-36.7616 L 70.0949,-26.5716 z
M 226.571,-26.5716 L 226.571,-36.7616 L 236.761,-36.7616 L 236.761,-26.5716 z
M 193.238,-26.5716 L 193.238,-36.7616 L 203.428,-36.7616 L 203.428,-26.5716 z
M 159.905,-26.5716 L 159.905,-36.7616 L 170.095,-36.7616 L 170.095,-26.5716 z
M 93.2382,-26.5716 L 93.2382,-36.7616 L 103.428,-36.7616 L 103.428,-26.5716 z
M 393.238,-26.5716 L 393.238,-36.7616 L 403.428,-36.7616 L 403.428,-26.5716 z
M 359.905,-26.5716 L 359.905,-36.7616 L 370.095,-36.7616 L 370.095,-26.5716 z
M 326.571,-26.5716 L 326.571,-36.7616 L 336.761,-36.7616 L 336.761,-26.5716 z
M 526.571,-26.5716 L 526.571,-36.7616 L 536.761,-36.7616 L 536.761,-26.5716 z
M 1166.67,-563.333 L 603.333,-563.333 L 603.333,-0 L 1166.67,-0 z
M 1022.33,-518.999 L 1022.33,-544.333 L 1047.67,-544.333 L 1047.67,-518.999 z
M 622.333,-518.999 L 622.333,-544.333 L 647.666,-544.333 L 647.666,-518.999 z
M 1122.33,-518.999 L 1122.33,-544.333 L 1147.67,-544.333 L 1147.67,-518.999 z
M 1089,-518.999 L 1089,-544.333 L 1114.33,-544.333 L 1114.33,-518.999 z
M 1055.67,-518.999 L 1055.67,-544.333 L 1081,-544.333 L 1081,-518.999 z
M 988.999,-518.999 L 988.999,-544.333 L 1014.33,-544.333 L 1014.33,-518.999 z
M 955.666,-518.999 L 955.666,-544.333 L 980.999,-544.333 L 980.999,-518.999 z
M 922.332,-518.999 L 922.332,-544.333 L 947.666,-544.333 L 947.666,-518.999 z
M 888.999,-518.999 L 888.999,-544.333 L 914.332,-544.333 L 914.332,-518.999 z
M 855.666,-518.999 L 855.666,-544.333 L 880.999,-544.333 L 880.999,-518.999 z
M 822.333,-518.999 L 822.333,-544.333 L 847.666,-544.333 L 847.666,-518.999 z
M 788.999,-518.999 L 788.999,-544.333 L 814.333,-544.333 L 814.333,-518.999 z
M 755.666,-518.999 L 755.666,-544.333 L 780.999,-544.333 L 780.999,-518.999 z
M 722.333,-518.999 L 722.333,-544.333 L 747.666,-544.333 L 747.666,-518.999 z
M 688.999,-518.999 L 688.999,-544.333 L 714.333,-544.333 L 714.333,-518.999 z
M 655.666,-518.999 L 655.666,-544.333 L 680.999,-544.333 L 680.999,-518.999 z
M 1022.33,-485.666 L 1022.33,-510.999 L 1047.67,-510.999 L 1047.67,-485.666 z
M 622.333,-485.666 L 622.333,-510.999 L 647.666,-510.999 L 647.666,-485.666 z
M 1089,-485.666 L 1089,-510.999 L 1114.33,-510.999 L 1114.33,-485.666 z
M 688.999,-485.666 L 688.999,-510.999 L 714.333,-510.999 L 714.333,-485.666 z
M 1055.67,-485.666 L 1055.67,-510.999 L 1081,-510.999 L 1081,-485.666 z
M 722.333,-485.666 L 722.333,-510.999 L 747.666,-510.999 L 747.666,-485.666 z
M 755.666,-485.666 L 755.666,-510.999 L 780.999,-510.999 L 780.999,-485.666 z
M 888.999,-485.666 L 888.999,-510.999 L 914.332,-510.999 L 914.332,-485.666 z
M 988.999,-485.666 L 988.999,-510.999 L 1014.33,-510.999 L 1014.33,-485.666 z
M 788.999,-485.666 L 788.999,-510.999 L 814.333,-510.999 L 814.333,-485.666 z
M 955.666,-485.666 L 955.666,-510.999 L 980.999,-510.999 L 980.999,-485.666 z
M 822.333,-485.666 L 822.333,-510.999 L 847.666,-510.999 L 847.666,-485.666 z
M 922.332,-485.666 L 922.332,-510.999 L 947.666,-510.999 L 947.666,-485.666 z
M 855.666,-485.666 L 855.666,-510.999 L 880.999,-510.999 L 880.999,-485.666 z
M 655.666,-485.666 L 655.666,-510.999 L 680.999,-510.999 L 680.999,-485.666 z
M 1122.33,-485.666 L 1122.33,-510.999 L 1147.67,-510.999 L 1147.67,-485.666 z
M 688.999,-452.333 L 688.999,-477.666 L 714.333,-477.666 L 714.333,-452.333 z
M 1089,-452.333 L 1089,-477.666 L 1114.33,-477.666 L 1114.33,-452.333 z
M 622.333,-452.333 L 622.333,-477.666 L 647.666,-477.666 L 647.666,-452.333 z
M 755.666,-452.333 L 755.666,-477.666 L 780.999,-477.666 L 780.999,-452.333 z
M 888.999,-452.333 L 888.999,-477.666 L 914.332,-477.666 L 914.332,-452.333 z
M 1022.33,-452.333 L 1022.33,-477.666 L 1047.67,-477.666 L 1047.67,-452.333 z
M 988.999,-452.333 L 988.999,-477.666 L 1014.33,-477.666 L 1014.33,-452.333 z
M 855.666,-452.333 L 855.666,-477.666 L 880.999,-477.666 L 880.999,-452.333 z
M 655.666,-452.333 L 655.666,-477.666 L 680.999,-477.666 L 680.999,-452.333 z
M 788.999,-452.333 L 788.999,-477.666 L 814.333,-477.666 L 814.333,-452.333 z
M 822.333,-452.333 L 822.333,-477.666 L 847.666,-477.666 L 847.666,-452.333 z
M 955.666,-452.333 L 955.666,-477.666 L 980.999,-477.666 L 980.999,-452.333 z
M 1055.67,-452.333 L 1055.67,-477.666 L 1081,-477.666 L 1081,-452.333 z
M 722.333,-452.333 L 722.333,-477.666 L 747.666,-477.666 L 747.666,-452.333 z
M 1122.33,-452.333 L 1122.33,-477.666 L 1147.67,-477.666 L 1147.67,-452.333 z
M 922.332,-452.333 L 922.332,-477.666 L 947.666,-477.666 L 947.666,-452.333 z
M 1055.67,-419 L 1055.67,-444.333 L 1081,-444.333 L 1081,-419 z
M 922.332,-419 L 922.332,-444.333 L 947.666,-444.333 L 947.666,-419 z
M 955.666,-419 L 955.666,-444.333 L 980.999,-444.333 L 980.999,-419 z
M 788.999,-419 L 788.999,-444.333 L 814.333,-444.333 L 814.333,-419 z
M 722.333,-419 L 722.333,-444.333 L 747.666,-444.333 L 747.666,-419 z
M 655.666,-419 L 655.666,-444.333 L 680.999,-444.333 L 680.999,-419 z
M 855.666,-419 L 855.666,-444.333 L 880.999,-444.333 L 880.999,-419 z
M 988.999,-419 L 988.999,-444.333 L 1014.33,-444.333 L 1014.33,-419 z
M 755.666,-419 L 755.666,-444.333 L 780.999,-444.333 L 780.999,-419 z
M 1022.33,-419 L 1022.33,-444.333 L 1047.67,-444.333 L 1047.67,-419 z
M 888.999,-419 L 888.999,-444.333 L 914.332,-444.333 L 914.332,-419 z
M 688.999,-419 L 688.999,-444.333 L 714.333,-444.333 L 714.333,-419 z
M 1122.33,-419 L 1122.33,-444.333 L 1147.67,-444.333 L 1147.67,-419 z
M 1089,-419 L 1089,-444.333 L 1114.33,-444.333 L 1114.33,-419 z
M 822.333,-419 L 822.333,-444.333 L 847.666,-444.333 L 847.666,-419 z
M 622.333,-419 L 622.333,-444.333 L 647.666,-444.333 L 647.666,-419 z
M 622.333,-385.666 L 622.333,-411 L 647.666,-411 L 647.666,-385.666 z
M 1122.33,-385.666 L 1122.33,-411 L 1147.67,-411 L 1147.67,-385.666 z
M 722.333,-385.666 L 722.333,-411 L 747.666,-411 L 747.666,-385.666 z
M 1022.33,-385.666 L 1022.33,-411 L 1047.67,-411 L 1047.67,-385.666 z
M 755.666,-385.666 L 755.666,-411 L 780.999,-411 L 780.999,-385.666 z
M 955.666,-385.666 L 955.666,-411 L 980.999,-411 L 980.999,-385.666 z
M 1089,-385.666 L 1089,-411 L 1114.33,-411 L 1114.33,-385.666 z
M 888.999,-385.666 L 888.999,-411 L 914.332,-411 L 914.332,-385.666 z
M 822.333,-385.666 L 822.333,-411 L 847.666,-411 L 847.666,-385.666 z
M 788.999,-385.666 L 788.999,-411 L 814.333,-411 L 814.333,-385.666 z
M 988.999,-385.666 L 988.999,-411 L 1014.33,-411 L 1014.33,-385.666 z
M 922.332,-385.666 L 922.332,-411 L 947.666,-411 L 947.666,-385.666 z
M 1055.67,-385.666 L 1055.67,-411 L 1081,-411 L 1081,-385.666 z
M 855.666,-385.666 L 855.666,-411 L 880.999,-411 L 880.999,-385.666 z
M 655.666,-385.666 L 655.666,-411 L 680.999,-411 L 680.999,-385.666 z
M 688.999,-385.666 L 688.999,-411 L 714.333,-411 L 714.333,-385.666 z
M 1122.33,-352.333 L 1122.33,-377.666 L 1147.67,-377.666 L 1147.67,-352.333 z
M 655.666,-352.333 L 655.666,-377.666 L 680.999,-377.666 L 680.999,-352.333 z
M 722.333,-352.333 L 722.333,-377.666 L 747.666,-377.666 L 747.666,-352.333 z
M 1089,-352.333 L 1089,-377.666 L 1114.33,-377.666 L 1114.33,-352.333 z
M 755.666,-352.333 L 755.666,-377.666 L 780.999,-377.666 L 780.999,-352.333 z
M 955.666,-352.333 L 955.666,-377.666 L 980.999,-377.666 L 980.999,-352.333 z
M 688.999,-352.333 L 688.999,-377.666 L 714.333,-377.666 L 714.333,-352.333 z
M 888.999,-352.333 L 888.999,-377.666 L 914.332,-377.666 L 914.332,-352.333 z
M 822.333,-352.333 L 822.333,-377.666 L 847.666,-377.666 L 847.666,-352.333 z
M 922.332,-352.333 L 922.332,-377.666 L 947.666,-377.666 L 947.666,-352.333 z
M 788.999,-352.333 L 788.999,-377.666 L 814.333,-377.666 L 814.333,-352.333 z
M 988.999,-352.333 L 988.999,-377.666 L 1014.33,-377.666 L 1014.33,-352.333 z
M 1022.33,-352.333 L 1022.33,-377.666 L 1047.67,-377.666 L 1047.67,-352.333 z
M 855.666,-352.333 L 855.666,-377.666 L 880.999,-377.666 L 880.999,-352.333 z
M 1055.67,-352.333 L 1055.67,-377.666 L 1081,-377.666 L 1081,-352.333 z
M 622.333,-352.333 L 622.333,-377.666 L 647.666,-377.666 L 647.666,-352.333 z
M 722.333,-319 L 722.333,-344.333 L 747.666,-344.333 L 747.666,-319 z
M 622.333,-319 L 622.333,-344.333 L 647.666,-344.333 L 647.666,-319 z
M 1089,-319 L 1089,-344.333 L 1114.33,-344.333 L 1114.33,-319 z
M 955.666,-319 L 955.666,-344.333 L 980.999,-344.333 L 980.999,-319 z
M 755.666,-319 L 755.666,-344.333 L 780.999,-344.333 L 780.999,-319 z
M 988.999,-319 L 988.999,-344.333 L 1014.33,-344.333 L 1014.33,-319 z
M 822.333,-319 L 822.333,-344.333 L 847.666,-344.333 L 847.666,-319 z
M 888.999,-319 L 888.999,-344.333 L 914.332,-344.333 L 914.332,-319 z
M 922.332,-319 L 922.332,-344.333 L 947.666,-344.333 L 947.666,-319 z
M 788.999,-319 L 788.999,-344.333 L 814.333,-344.333 L 814.333,-319 z
M 1022.33,-319 L 1022.33,-344.333 L 1047.67,-344.333 L 1047.67,-319 z
M 688.999,-319 L 688.999,-344.333 L 714.333,-344.333 L 714.333,-319 z
M 655.666,-319 L 655.666,-344.333 L 680.999,-344.333 L 680.999,-319 z
M 1055.67,-319 L 1055.67,-344.333 L 1081,-344.333 L 1081,-319 z
M 1122.33,-319 L 1122.33,-344.333 L 1147.67,-344.333 L 1147.67,-319 z
M 855.666,-319 L 855.666,-344.333 L 880.999,-344.333 L 880.999,-319 z
M 755.666,-285.666 L 755.666,-311 L 780.999,-311 L 780.999,-285.666 z
M 1089,-285.666 L 1089,-311 L 1114.33,-311 L 1114.33,-285.666 z
M 788.999,-285.666 L 788.999,-311 L 814.333,-311 L 814.333,-285.666 z
M 822.333,-285.666 L 822.333,-311 L 847.666,-311 L 847.666,-285.666 z
M 888.999,-285.666 L 888.999,-311 L 914.332,-311 L 914.332,-285.666 z
M 955.666,-285.666 L 955.666,-311 L 980.999,-311 L 980.999,-285.666 z
M 988.999,-285.666 L 988.999,-311 L 1014.33,-311 L 1014.33,-285.666 z
M 1122.33,-285.666 L 1122.33,-311 L 1147.67,-311 L 1147.67,-285.666 z
M 855.666,-285.666 L 855.666,-311 L 880.999,-311 L 880.999,-285.666 z
M 922.332,-285.666 L 922.332,-311 L 947.666,-311 L 947.666,-285.666 z
M 722.333,-285.666 L 722.333,-311 L 747.666,-311 L 747.666,-285.666 z
M 655.666,-285.666 L 655.666,-311 L 680.999,-311 L 680.999,-285.666 z
M 1022.33,-285.666 L 1022.33,-311 L 1047.67,-311 L 1047.67,-285.666 z
M 688.999,-285.666 L 688.999,-311 L 714.333,-311 L 714.333,-285.666 z
M 1055.67,-285.666 L 1055.67,-311 L 1081,-311 L 1081,-285.666 z
M 622.333,-285.666 L 622.333,-311 L 647.666,-311 L 647.666,-285.666 z
M 1122.33,-252.333 L 1122.33,-277.666 L 1147.67,-277.666 L 1147.67,-252.333 z
M 755.666,-252.333 L 755.666,-277.666 L 780.999,-277.666 L 780.999,-252.333 z
M 822.333,-252.333 L 822.333,-277.666 L 847.666,-277.666 L 847.666,-252.333 z
M 922.332,-252.333 L 922.332,-277.666 L 947.666,-277.666 L 947.666,-252.333 z
M 788.999,-252.333 L 788.999,-277.666 L 814.333,-277.666 L 814.333,-252.333 z
M 955.666,-252.333 L 955.666,-277.666 L 980.999,-277.666 L 980.999,-252.333 z
M 888.999,-252.333 L 888.999,-277.666 L 914.332,-277.666 L 914.332,-252.333 z
M 622.333,-252.333 L 622.333,-277.666 L 647.666,-277.666 L 647.666,-252.333 z
M 1089,-252.333 L 1089,-277.666 L 1114.33,-277.666 L 1114.33,-252.333 z
M 655.666,-252.333 L 655.666,-277.666 L 680.999,-277.666 L 680.999,-252.333 z
M 1055.67,-252.333 L 1055.67,-277.666 L 1081,-277.666 L 1081,-252.333 z
M 688.999,-252.333 L 688.999,-277.666 L 714.333,-277.666 L 714.333,-252.333 z
M 1022.33,-252.333 L 1022.33,-277.666 L 1047.67,-277.666 L 1047.67,-252.333 z
M 855.666,-252.333 L 855.666,-277.666 L 880.999,-277.666 L 880.999,-252.333 z
M 722.333,-252.333 L 722.333,-277.666 L 747.666,-277.666 L 747.666,-252.333 z
M 988.999,-252.333 L 988.999,-277.666 L 1014.33,-277.666 L 1014.33,-252.333 z
M 1022.33,-219 L 1022.33,-244.333 L 1047.67,-244.333 L 1047.67,-219 z
M 922.332,-219 L 922.332,-244.333 L 947.666,-244.333 L 947.666,-219 z
M 1122.33,-219 L 1122.33,-244.333 L 1147.67,-244.333 L 1147.67,-219 z
M 722.333,-219 L 722.333,-244.333 L 747.666,-244.333 L 747.666,-219 z
M 888.999,-219 L 888.999,-244.333 L 914.332,-244.333 L 914.332,-219 z
M 1089,-219 L 1089,-244.333 L 1114.33,-244.333 L 1114.33,-219 z
M 988.999,-219 L 988.999,-244.333 L 1014.33,-244.333 L 1014.33,-219 z
M 755.666,-219 L 755.666,-244.333 L 780.999,-244.333 L 780.999,-219 z
M 822.333,-219 L 822.333,-244.333 L 847.666,-244.333 L 847.666,-219 z
M 622.333,-219 L 622.333,-244.333 L 647.666,-244.333 L 647.666,-219 z
M 655.666,-219 L 655.666,-244.333 L 680.999,-244.333 L 680.999,-219 z
M 855.666,-219 L 855.666,-244.333 L 880.999,-244.333 L 880.999,-219 z
M 955.666,-219 L 955.666,-244.333 L 980.999,-244.333 L 980.999,-219 z
M 688.999,-219 L 688.999,-244.333 L 714.333,-244.333 L 714.333,-219 z
M 788.999,-219 L 788.999,-244.333 L 814.333,-244.333 L 814.333,-219 z
M 1055.67,-219 L 1055.67,-244.333 L 1081,-244.333 L 1081,-219 z
M 722.333,-185.666 L 722.333,-211 L 747.666,-211 L 747.666,-185.666 z
M 622.333,-185.666 L 622.333,-211 L 647.666,-211 L 647.666,-185.666 z
M 1122.33,-185.666 L 1122.33,-211 L 1147.67,-211 L 1147.67,-185.666 z
M 1089,-185.666 L 1089,-211 L 1114.33,-211 L 1114.33,-185.666 z
M 788.999,-185.666 L 788.999,-211 L 814.333,-211 L 814.333,-185.666 z
M 988.999,-185.666 L 988.999,-211 L 1014.33,-211 L 1014.33,-185.666 z
M 855.666,-185.666 L 855.666,-211 L 880.999,-211 L 880.999,-185.666 z
M 888.999,-185.666 L 888.999,-211 L 914.332,-211 L 914.332,-185.666 z
M 655.666,-185.666 L 655.666,-211 L 680.999,-211 L 680.999,-185.666 z
M 955.666,-185.666 L 955.666,-211 L 980.999,-211 L 980.999,-185.666 z
M 822.333,-185.666 L 822.333,-211 L 847.666,-211 L 847.666,-185.666 z
M 688.999,-185.666 L 688.999,-211 L 714.333,-211 L 714.333,-185.666 z
M 755.666,-185.666 L 755.666,-211 L 780.999,-211 L 780.999,-185.666 z
M 922.332,-185.666 L 922.332,-211 L 947.666,-211 L 947.666,-185.666 z
M 1022.33,-185.666 L 1022.33,-211 L 1047.67,-211 L 1047.67,-185.666 z
M 1055.67,-185.666 L 1055.67,-211 L 1081,-211 L 1081,-185.666 z
M 722.333,-152.333 L 722.333,-177.666 L 747.666,-177.666 L 747.666,-152.333 z
M 1122.33,-152.333 L 1122.33,-177.666 L 1147.67,-177.666 L 1147.67,-152.333 z
M 622.333,-152.333 L 622.333,-177.666 L 647.666,-177.666 L 647.666,-152.333 z
M 922.332,-152.333 L 922.332,-177.666 L 947.666,-177.666 L 947.666,-152.333 z
M 1022.33,-152.333 L 1022.33,-177.666 L 1047.67,-177.666 L 1047.67,-152.333 z
M 755.666,-152.333 L 755.666,-177.666 L 780.999,-177.666 L 780.999,-152.333 z
M 688.999,-152.333 L 688.999,-177.666 L 714.333,-177.666 L 714.333,-152.333 z
M 955.666,-152.333 L 955.666,-177.666 L 980.999,-177.666 L 980.999,-152.333 z
M 888.999,-152.333 L 888.999,-177.666 L 914.332,-177.666 L 914.332,-152.333 z
M 655.666,-152.333 L 655.666,-177.666 L 680.999,-177.666 L 680.999,-152.333 z
M 822.333,-152.333 L 822.333,-177.666 L 847.666,-177.666 L 847.666,-152.333 z
M 1055.67,-152.333 L 1055.67,-177.666 L 1081,-177.666 L 1081,-152.333 z
M 988.999,-152.333 L 988.999,-177.666 L 1014.33,-177.666 L 1014.33,-152.333 z
M 788.999,-152.333 L 788.999,-177.666 L 814.333,-177.666 L 814.333,-152.333 z
M 1089,-152.333 L 1089,-177.666 L 1114.33,-177.666 L 1114.33,-152.333 z
M 855.666,-152.333 L 855.666,-177.666 L 880.999,-177.666 L 880.999,-152.333 z
M 822.333,-119 L 822.333,-144.333 L 847.666,-144.333 L 847.666,-119 z
M 922.332,-119 L 922.332,-144.333 L 947.666,-144.333 L 947.666,-119 z
M 688.999,-119 L 688.999,-144.333 L 714.333,-144.333 L 714.333,-119 z
M 955.666,-119 L 955.666,-144.333 L 980.999,-144.333 L 980.999,-119 z
M 1022.33,-119 L 1022.33,-144.333 L 1047.67,-144.333 L 1047.67,-119 z
M 888.999,-119 L 888.999,-144.333 L 914.332,-144.333 L 914.332,-119 z
M 1089,-119 L 1089,-144.333 L 1114.33,-144.333 L 1114.33,-119 z
M 855.666,-119 L 855.666,-144.333 L 880.999,-144.333 L 880.999,-119 z
M 755.666,-119 L 755.666,-144.333 L 780.999,-144.333 L 780.999,-119 z
M 988.999,-119 L 988.999,-144.333 L 1014.33,-144.333 L 1014.33,-119 z
M 1055.67,-119 L 1055.67,-144.333 L 1081,-144.333 L 1081,-119 z
M 622.333,-119 L 622.333,-144.333 L 647.666,-144.333 L 647.666,-119 z
M 722.333,-119 L 722.333,-144.333 L 747.666,-144.333 L 747.666,-119 z
M 655.666,-119 L 655.666,-144.333 L 680.999,-144.333 L 680.999,-119 z
M 788.999,-119 L 788.999,-144.333 L 814.333,-144.333 L 814.333,-119 z
M 1122.33,-119 L 1122.33,-144.333 L 1147.67,-144.333 L 1147.67,-119 z
M 888.999,-85.6666 L 888.999,-111 L 914.332,-111 L 914.332,-85.6666 z
M 755.666,-85.6666 L 755.666,-111 L 780.999,-111 L 780.999,-85.6666 z
M 788.999,-85.6666 L 788.999,-111 L 814.333,-111 L 814.333,-85.6666 z
M 988.999,-85.6666 L 988.999,-111 L 1014.33,-111 L 1014.33,-85.6666 z
M 922.332,-85.6666 L 922.332,-111 L 947.666,-111 L 947.666,-85.6666 z
M 1089,-85.6666 L 1089,-111 L 1114.33,-111 L 1114.33,-85.6666 z
M 1055.67,-85.6666 L 1055.67,-111 L 1081,-111 L 1081,-85.6666 z
M 722.333,-85.6666 L 722.333,-111 L 747.666,-111 L 747.666,-85.6666 z
M 822.333,-85.6666 L 822.333,-111 L 847.666,-111 L 847.666,-85.6666 z
M 655.666,-85.6666 L 655.666,-111 L 680.999,-111 L 680.999,-85.6666 z
M 1122.33,-85.6666 L 1122.33,-111 L 1147.67,-111 L 1147.67,-85.6666 z
M 855.666,-85.6666 L 855.666,-111 L 880.999,-111 L 880.999,-85.6666 z
M 688.999,-85.6666 L 688.999,-111 L 714.333,-111 L 714.333,-85.6666 z
M 622.333,-85.6666 L 622.333,-111 L 647.666,-111 L 647.666,-85.6666 z
M 955.666,-85.6666 L 955.666,-111 L 980.999,-111 L 980.999,-85.6666 z
M 1022.33,-85.6666 L 1022.33,-111 L 1047.67,-111 L 1047.67,-85.6666 z
M 688.999,-52.3333 L 688.999,-77.6666 L 714.333,-77.6666 L 714.333,-52.3333 z
M 1022.33,-52.3333 L 1022.33,-77.6666 L 1047.67,-77.6666 L 1047.67,-52.3333 z
M 955.666,-52.3333 L 955.666,-77.6666 L 980.999,-77.6666 L 980.999,-52.3333 z
M 822.333,-52.3333 L 822.333,-77.6666 L 847.666,-77.6666 L 847.666,-52.3333 z
M 755.666,-52.3333 L 755.666,-77.6666 L 780.999,-77.6666 L 780.999,-52.3333 z
M 988.999,-52.3333 L 988.999,-77.6666 L 1014.33,-77.6666 L 1014.33,-52.3333 z
M 1089,-52.3333 L 1089,-77.6666 L 1114.33,-77.6666 L 1114.33,-52.3333 z
M 855.666,-52.3333 L 855.666,-77.6666 L 880.999,-77.6666 L 880.999,-52.3333 z
M 1122.33,-52.3333 L 1122.33,-77.6666 L 1147.67,-77.6666 L 1147.67,-52.3333 z
M 655.666,-52.3333 L 655.666,-77.6666 L 680.999,-77.6666 L 680.999,-52.3333 z
M 622.333,-52.3333 L 622.333,-77.6666 L 647.666,-77.6666 L 647.666,-52.3333 z
M 1055.67,-52.3333 L 1055.67,-77.6666 L 1081,-77.6666 L 1081,-52.3333 z
M 922.332,-52.3333 L 922.332,-77.6666 L 947.666,-77.6666 L 947.666,-52.3333 z
M 788.999,-52.3333 L 788.999,-77.6666 L 814.333,-77.6666 L 814.333,-52.3333 z
M 888.999,-52.3333 L 888.999,-77.6666 L 914.332,-77.6666 L 914.332,-52.3333 z
M 722.333,-52.3333 L 722.333,-77.6666 L 747.666,-77.6666 L 747.666,-52.3333 z
M 1055.67,-19 L 1055.67,-44.3333 L 1081,-44.3333 L 1081,-19 z
M 788.999,-19 L 788.999,-44.3333 L 814.333,-44.3333 L 814.333,-19 z
M 1022.33,-19 L 1022.33,-44.3333 L 1047.67,-44.3333 L 1047.67,-19 z
M 988.999,-19 L 988.999,-44.3333 L 1014.33,-44.3333 L 1014.33,-19 z
M 955.666,-19 L 955.666,-44.3333 L 980.999,-44.3333 L 980.999,-19 z
M 922.332,-19 L 922.332,-44.3333 L 947.666,-44.3333 L 947.666,-19 z
M 888.999,-19 L 888.999,-44.3333 L 914.332,-44.3333 L 914.332,-19 z
M 622.333,-19 L 622.333,-44.3333 L 647.666,-44.3333 L 647.666,-19 z
M 855.666,-19 L 855.666,-44.3333 L 880.999,-44.3333 L 880.999,-19 z
M 822.333,-19 L 822.333,-44.3333 L 847.666,-44.3333 L 847.666,-19 z
M 1089,-19 L 1089,-44.3333 L 1114.33,-44.3333 L 1114.33,-19 z
M 722.333,-19 L 722.333,-44.3333 L 747.666,-44.3333 L 747.666,-19 z
M 688.999,-19 L 688.999,-44.3333 L 714.333,-44.3333 L 714.333,-19 z
M 655.666,-19 L 655.666,-44.3333 L 680.999,-44.3333 L 680.999,-19 z
M 1122.33,-19 L 1122.33,-44.3333 L 1147.67,-44.3333 L 1147.67,-19 z
M 755.666,-19 L 755.666,-44.3333 L 780.999,-44.3333 L 780.999,-19 z
" stroke="black" fill="lightgray" stroke-width="0.5"/>
</svg>
