<?xml version="1.0" standalone="no"?>
<!DOCTYPE svg PUBLIC "-//W3C//DTD SVG 1.1//EN" "http://www.w3.org/Graphics/SVG/1.1/DTD/svg11.dtd">
<svg width="380mm" height="42mm" viewBox="4 -41 380 42" xmlns="http://www.w3.org/2000/svg" version="1.1">
<title>OpenSCAD Model</title>
<path d="
M 29.4935,-0.0568848 L 30.3055,-0.227585 L 30.9989,-0.512085 L 31.5736,-0.910385 L 32.0246,-1.40039 L 32.3467,-1.95999
 L 32.54,-2.58919 L 32.6044,-3.28799 L 32.5391,-3.97758 L 32.3433,-4.60599 L 32.0169,-5.17319 L 31.56,-5.6792
 L 30.981,-6.09534 L 30.2885,-6.39259 L 29.4824,-6.57094 L 28.5628,-6.63039 L 12.2332,-6.63039 L 12.2332,-35.5664
 L 12.1628,-36.7216 L 11.9518,-37.7191 L 11.6,-38.559 L 11.1076,-39.2412 L 10.5015,-39.7692 L 9.80899,-40.1463
 L 9.02994,-40.3726 L 8.1644,-40.448 L 7.31259,-40.3717 L 6.5472,-40.1428 L 5.86819,-39.7613 L 5.27559,-39.2272
 L 4.79504,-38.5405 L 4.4518,-37.7012 L 4.24585,-36.7093 L 4.17719,-35.5648 L 4.17719,-4.93719 L 4.24924,-3.72502
 L 4.46539,-2.69249 L 4.82564,-1.83961 L 5.32999,-1.1664 L 5.99879,-0.656097 L 6.85239,-0.291595 L 7.89079,-0.0728912
 L 9.114,-0 L 28.5628,-0 z
M 90.098,0.563873 L 92.3036,0.258698 L 94.343,-0.249924 L 96.2162,-0.96199 L 97.899,-1.85397 L 99.3663,-2.90189
 L 100.618,-4.10577 L 101.655,-5.46559 L 102.468,-6.94917 L 103.049,-8.52429 L 103.397,-10.191 L 103.513,-11.9492
 L 103.446,-13.3965 L 103.245,-14.7267 L 102.91,-15.9399 L 102.441,-17.036 L 101.853,-18.0288 L 101.16,-18.9318
 L 100.361,-19.7448 L 99.4579,-20.468 L 98.4508,-21.1209 L 97.3421,-21.723 L 96.1316,-22.2741 L 94.8195,-22.7744
 L 93.4166,-23.239 L 91.9341,-23.6833 L 90.3718,-24.1072 L 88.7299,-24.5108 L 87.4822,-24.8296 L 86.4243,-25.1077
 L 85.5564,-25.345 L 84.8783,-25.5416 L 84.2968,-25.7349 L 83.7187,-25.9622 L 83.144,-26.2233 L 82.5726,-26.5184
 L 82.0336,-26.8456 L 81.5555,-27.2034 L 81.1384,-27.5916 L 80.7823,-28.0104 L 80.4975,-28.4649 L 80.2942,-28.9602
 L 80.1721,-29.4961 L 80.1315,-30.0728 L 80.2509,-31.001 L 80.6095,-31.8598 L 81.207,-32.649 L 82.0435,-33.3688
 L 83.0751,-33.9683 L 84.2576,-34.3966 L 85.5911,-34.6535 L 87.0755,-34.7392 L 88.642,-34.6601 L 89.9778,-34.423
 L 91.0831,-34.0277 L 91.9579,-33.4744 L 92.6903,-32.7799 L 93.3685,-31.9614 L 93.9923,-31.0187 L 94.5619,-29.952
 L 94.9746,-29.2233 L 95.3721,-28.6043 L 95.7544,-28.0951 L 96.1214,-27.6956 L 96.5224,-27.3942 L 97.0065,-27.179
 L 97.5736,-27.0498 L 98.2238,-27.0068 L 98.9519,-27.0788 L 99.6172,-27.2947 L 100.22,-27.6546 L 100.76,-28.1584
 L 101.205,-28.7521 L 101.523,-29.3814 L 101.713,-30.0461 L 101.777,-30.7464 L 101.726,-31.5374 L 101.574,-32.3386
 L 101.319,-33.1498 L 100.963,-33.9712 L 100.497,-34.7885 L 99.912,-35.5871 L 99.2085,-36.3671 L 98.3862,-37.1284
 L 97.448,-37.8431 L 96.3961,-38.4833 L 95.2306,-39.0489 L 93.9514,-39.54 L 92.5536,-39.9372 L 91.0321,-40.221
 L 89.3868,-40.3912 L 87.6179,-40.448 L 85.4003,-40.3624 L 83.3318,-40.1057 L 81.4127,-39.6778 L 79.6427,-39.0788
 L 78.0475,-38.3205 L 76.6523,-37.4147 L 75.457,-36.3615 L 74.4619,-35.1608 L 73.6787,-33.8408 L 73.1194,-32.4294
 L 72.7837,-30.9264 L 72.6718,-29.332 L 72.7778,-27.6807 L 73.0957,-26.17 L 73.6254,-24.7999 L 74.3671,-23.5704
 L 75.2894,-22.4724 L 76.3609,-21.4964 L 77.5816,-20.6424 L 78.9514,-19.9104 L 80.4832,-19.2606 L 82.1895,-18.6531
 L 84.0704,-18.088 L 86.1259,-17.5652 L 87.6457,-17.2041 L 89.0045,-16.8531 L 90.2023,-16.5123 L 91.239,-16.1816
 L 92.1512,-15.8195 L 92.9751,-15.3846 L 93.7108,-14.8767 L 94.3582,-14.296 L 94.8864,-13.6322 L 95.2637,-12.8751
 L 95.49,-12.0248 L 95.5654,-11.0812 L 95.4256,-9.88489 L 95.006,-8.79199 L 94.3066,-7.80249 L 93.3275,-6.9164
 L 92.1247,-6.18646 L 90.7542,-5.66508 L 89.2157,-5.35226 L 87.5094,-5.24799 L 86.2702,-5.2997 L 85.1564,-5.45479
 L 84.168,-5.71329 L 83.3051,-6.0752 L 82.5498,-6.51697 L 81.8844,-7.01469 L 81.3088,-7.56837 L 80.8231,-8.17799
 L 80.3899,-8.8546 L 79.972,-9.60919 L 79.5693,-10.4418 L 79.1819,-11.3524 L 78.8537,-12.1036 L 78.4935,-12.7565
 L 78.101,-13.311 L 77.6763,-13.7672 L 77.211,-14.1233 L 76.6967,-14.3777 L 76.1331,-14.5303 L 75.5202,-14.5812
 L 74.7684,-14.5159 L 74.086,-14.32 L 73.4732,-13.9935 L 72.9299,-13.5364 L 72.4848,-12.9879 L 72.1669,-12.3869
 L 71.9762,-11.7333 L 71.9127,-11.0272 L 72.0186,-9.75627 L 72.3365,-8.46669 L 72.8662,-7.15846 L 73.6078,-5.83159
 L 74.519,-4.56255 L 75.5574,-3.4274 L 76.7228,-2.42615 L 78.0155,-1.55879 L 80.0567,-0.585617 L 82.3555,0.109497
 L 84.9121,0.526566 L 87.7263,0.665588 z
M 126.285,0.563873 L 128.49,0.258698 L 130.53,-0.249924 L 132.403,-0.96199 L 134.086,-1.85397 L 135.553,-2.90189
 L 136.805,-4.10577 L 137.842,-5.46559 L 138.655,-6.94917 L 139.235,-8.52429 L 139.584,-10.191 L 139.7,-11.9492
 L 139.633,-13.3965 L 139.432,-14.7267 L 139.097,-15.9399 L 138.628,-17.036 L 138.04,-18.0288 L 137.347,-18.9318
 L 136.548,-19.7448 L 135.645,-20.468 L 134.638,-21.1209 L 133.529,-21.723 L 132.318,-22.2741 L 131.006,-22.7744
 L 129.603,-23.239 L 128.121,-23.6833 L 126.559,-24.1072 L 124.917,-24.5108 L 123.669,-24.8296 L 122.611,-25.1077
 L 121.743,-25.345 L 121.065,-25.5416 L 120.483,-25.7349 L 119.905,-25.9622 L 119.331,-26.2233 L 118.759,-26.5184
 L 118.22,-26.8456 L 117.742,-27.2034 L 117.325,-27.5916 L 116.969,-28.0104 L 116.684,-28.4649 L 116.481,-28.9602
 L 116.359,-29.4961 L 116.318,-30.0728 L 116.438,-31.001 L 116.796,-31.8598 L 117.394,-32.649 L 118.23,-33.3688
 L 119.262,-33.9683 L 120.444,-34.3966 L 121.778,-34.6535 L 123.262,-34.7392 L 124.829,-34.6601 L 126.165,-34.423
 L 127.27,-34.0277 L 128.145,-33.4744 L 128.877,-32.7799 L 129.555,-31.9614 L 130.179,-31.0187 L 130.749,-29.952
 L 131.161,-29.2233 L 131.559,-28.6043 L 131.941,-28.0951 L 132.308,-27.6956 L 132.709,-27.3942 L 133.193,-27.179
 L 133.76,-27.0498 L 134.411,-27.0068 L 135.139,-27.0788 L 135.804,-27.2947 L 136.407,-27.6546 L 136.947,-28.1584
 L 137.392,-28.7521 L 137.709,-29.3814 L 137.9,-30.0461 L 137.964,-30.7464 L 137.913,-31.5374 L 137.76,-32.3386
 L 137.506,-33.1498 L 137.15,-33.9712 L 136.684,-34.7885 L 136.099,-35.5871 L 135.395,-36.3671 L 134.573,-37.1284
 L 133.635,-37.8431 L 132.583,-38.4833 L 131.417,-39.0489 L 130.138,-39.54 L 128.74,-39.9372 L 127.219,-40.221
 L 125.574,-40.3912 L 123.805,-40.448 L 121.587,-40.3624 L 119.519,-40.1057 L 117.599,-39.6778 L 115.829,-39.0788
 L 114.234,-38.3205 L 112.839,-37.4147 L 111.644,-36.3615 L 110.649,-35.1608 L 109.865,-33.8408 L 109.306,-32.4294
 L 108.97,-30.9264 L 108.859,-29.332 L 108.965,-27.6807 L 109.282,-26.17 L 109.812,-24.7999 L 110.554,-23.5704
 L 111.476,-22.4724 L 112.548,-21.4964 L 113.768,-20.6424 L 115.138,-19.9104 L 116.67,-19.2606 L 118.376,-18.6531
 L 120.257,-18.088 L 122.313,-17.5652 L 123.832,-17.2041 L 125.191,-16.8531 L 126.389,-16.5123 L 127.426,-16.1816
 L 128.338,-15.8195 L 129.162,-15.3846 L 129.897,-14.8767 L 130.545,-14.296 L 131.073,-13.6322 L 131.45,-12.8751
 L 131.677,-12.0248 L 131.752,-11.0812 L 131.612,-9.88489 L 131.193,-8.79199 L 130.493,-7.80249 L 129.514,-6.9164
 L 128.311,-6.18646 L 126.941,-5.66508 L 125.402,-5.35226 L 123.696,-5.24799 L 122.457,-5.2997 L 121.343,-5.45479
 L 120.355,-5.71329 L 119.492,-6.0752 L 118.736,-6.51697 L 118.071,-7.01469 L 117.495,-7.56837 L 117.01,-8.17799
 L 116.577,-8.8546 L 116.159,-9.60919 L 115.756,-10.4418 L 115.369,-11.3524 L 115.04,-12.1036 L 114.68,-12.7565
 L 114.288,-13.311 L 113.863,-13.7672 L 113.398,-14.1233 L 112.883,-14.3777 L 112.32,-14.5303 L 111.707,-14.5812
 L 110.955,-14.5159 L 110.273,-14.32 L 109.66,-13.9935 L 109.117,-13.5364 L 108.672,-12.9879 L 108.354,-12.3869
 L 108.163,-11.7333 L 108.099,-11.0272 L 108.205,-9.75627 L 108.523,-8.46669 L 109.053,-7.15846 L 109.795,-5.83159
 L 110.706,-4.56255 L 111.744,-3.4274 L 112.91,-2.42615 L 114.202,-1.55879 L 116.243,-0.585617 L 118.542,0.109497
 L 121.099,0.526566 L 123.913,0.665588 z
M 164.411,0.589325 L 165.19,0.360489 L 165.883,-0.020874 L 166.489,-0.554794 L 166.981,-1.24297 L 167.333,-2.0871
 L 167.544,-3.08717 L 167.614,-4.24319 L 167.614,-35.5664 L 167.544,-36.7216 L 167.333,-37.7191 L 166.981,-38.559
 L 166.489,-39.2412 L 165.883,-39.7692 L 165.19,-40.1463 L 164.411,-40.3726 L 163.545,-40.448 L 162.705,-40.3717
 L 161.945,-40.1429 L 161.267,-39.7615 L 160.67,-39.2276 L 160.184,-38.5411 L 159.836,-37.7021 L 159.628,-36.7105
 L 159.558,-35.5664 L 159.558,-4.24319 L 159.629,-3.09822 L 159.84,-2.1041 L 160.191,-1.26082 L 160.684,-0.56839
 L 161.285,-0.0285187 L 161.962,0.357086 L 162.716,0.58847 L 163.545,0.665588 z
M 193.016,0.563873 L 195.221,0.258698 L 197.261,-0.249924 L 199.134,-0.96199 L 200.817,-1.85397 L 202.284,-2.90189
 L 203.536,-4.10577 L 204.573,-5.46559 L 205.385,-6.94917 L 205.966,-8.52429 L 206.314,-10.191 L 206.431,-11.9492
 L 206.364,-13.3965 L 206.163,-14.7267 L 205.828,-15.9399 L 205.359,-17.036 L 204.771,-18.0288 L 204.078,-18.9318
 L 203.279,-19.7448 L 202.375,-20.468 L 201.368,-21.1209 L 200.26,-21.723 L 199.049,-22.2741 L 197.737,-22.7744
 L 196.334,-23.239 L 194.852,-23.6833 L 193.289,-24.1072 L 191.647,-24.5108 L 190.4,-24.8296 L 189.342,-25.1077
 L 188.474,-25.345 L 187.796,-25.5416 L 187.214,-25.7349 L 186.636,-25.9622 L 186.062,-26.2233 L 185.49,-26.5184
 L 184.951,-26.8456 L 184.473,-27.2034 L 184.056,-27.5916 L 183.7,-28.0104 L 183.415,-28.4649 L 183.212,-28.9602
 L 183.09,-29.4961 L 183.049,-30.0728 L 183.169,-31.001 L 183.527,-31.8598 L 184.125,-32.649 L 184.961,-33.3688
 L 185.993,-33.9683 L 187.175,-34.3966 L 188.509,-34.6535 L 189.993,-34.7392 L 191.56,-34.6601 L 192.895,-34.423
 L 194.001,-34.0277 L 194.875,-33.4744 L 195.608,-32.7799 L 196.286,-31.9614 L 196.91,-31.0187 L 197.479,-29.952
 L 197.892,-29.2233 L 198.29,-28.6043 L 198.672,-28.0951 L 199.039,-27.6956 L 199.44,-27.3942 L 199.924,-27.179
 L 200.491,-27.0498 L 201.141,-27.0068 L 201.869,-27.0788 L 202.535,-27.2947 L 203.137,-27.6546 L 203.677,-28.1584
 L 204.122,-28.7521 L 204.44,-29.3814 L 204.631,-30.0461 L 204.695,-30.7464 L 204.644,-31.5374 L 204.491,-32.3386
 L 204.237,-33.1498 L 203.881,-33.9712 L 203.414,-34.7885 L 202.83,-35.5871 L 202.126,-36.3671 L 201.304,-37.1284
 L 200.366,-37.8431 L 199.314,-38.4833 L 198.148,-39.0489 L 196.869,-39.54 L 195.471,-39.9372 L 193.95,-40.221
 L 192.304,-40.3912 L 190.535,-40.448 L 188.318,-40.3624 L 186.249,-40.1057 L 184.33,-39.6778 L 182.56,-39.0788
 L 180.965,-38.3205 L 179.57,-37.4147 L 178.375,-36.3615 L 177.379,-35.1608 L 176.596,-33.8408 L 176.037,-32.4294
 L 175.701,-30.9264 L 175.589,-29.332 L 175.695,-27.6807 L 176.013,-26.17 L 176.543,-24.7999 L 177.285,-23.5704
 L 178.207,-22.4724 L 179.279,-21.4964 L 180.499,-20.6424 L 181.869,-19.9104 L 183.401,-19.2606 L 185.107,-18.6531
 L 186.988,-18.088 L 189.043,-17.5652 L 190.563,-17.2041 L 191.922,-16.8531 L 193.12,-16.5123 L 194.157,-16.1816
 L 195.069,-15.8195 L 195.893,-15.3846 L 196.628,-14.8767 L 197.276,-14.296 L 197.804,-13.6322 L 198.181,-12.8751
 L 198.408,-12.0248 L 198.483,-11.0812 L 198.343,-9.88489 L 197.924,-8.79199 L 197.224,-7.80249 L 196.245,-6.9164
 L 195.042,-6.18646 L 193.672,-5.66508 L 192.133,-5.35226 L 190.427,-5.24799 L 189.188,-5.2997 L 188.074,-5.45479
 L 187.086,-5.71329 L 186.223,-6.0752 L 185.467,-6.51697 L 184.802,-7.01469 L 184.226,-7.56837 L 183.741,-8.17799
 L 183.307,-8.8546 L 182.89,-9.60919 L 182.487,-10.4418 L 182.099,-11.3524 L 181.771,-12.1036 L 181.411,-12.7565
 L 181.019,-13.311 L 180.594,-13.7672 L 180.129,-14.1233 L 179.614,-14.3777 L 179.051,-14.5303 L 178.438,-14.5812
 L 177.686,-14.5159 L 177.004,-14.32 L 176.391,-13.9935 L 175.847,-13.5364 L 175.402,-12.9879 L 175.085,-12.3869
 L 174.894,-11.7333 L 174.83,-11.0272 L 174.936,-9.75627 L 175.254,-8.46669 L 175.784,-7.15846 L 176.525,-5.83159
 L 177.437,-4.56255 L 178.475,-3.4274 L 179.64,-2.42615 L 180.933,-1.55879 L 182.974,-0.585617 L 185.273,0.109497
 L 187.83,0.526566 L 190.644,0.665588 z
M 291.096,0.574066 L 293.244,0.2995 L 295.26,-0.158112 L 297.143,-0.798798 L 298.889,-1.61234 L 300.493,-2.58859
 L 301.954,-3.72754 L 303.273,-5.02919 L 304.443,-6.4751 L 305.457,-8.04639 L 306.315,-9.74309 L 307.016,-11.5652
 L 307.562,-13.5027 L 307.952,-15.5453 L 308.186,-17.6929 L 308.264,-19.9456 L 308.122,-22.9634 L 307.695,-25.7795
 L 306.983,-28.394 L 305.986,-30.8068 L 304.712,-32.9866 L 303.168,-34.9019 L 301.355,-36.5528 L 299.272,-37.9392
 L 296.945,-39.0368 L 294.4,-39.8208 L 291.636,-40.2912 L 288.653,-40.448 L 286.435,-40.359 L 284.34,-40.092
 L 282.367,-39.647 L 280.515,-39.024 L 278.793,-38.2334 L 277.206,-37.2851 L 275.755,-36.1792 L 274.439,-34.9156
 L 273.265,-33.502 L 272.239,-31.946 L 271.36,-30.2476 L 270.628,-28.4068 L 270.053,-26.4473 L 269.642,-24.393
 L 269.395,-22.2437 L 269.313,-19.9996 L 269.392,-17.8012 L 269.628,-15.6807 L 270.022,-13.6382 L 270.574,-11.6736
 L 271.28,-9.81767 L 272.137,-8.10069 L 273.145,-6.52267 L 274.304,-5.08359 L 275.614,-3.79129 L 277.077,-2.6532
 L 278.693,-1.6693 L 280.461,-0.8396 L 282.367,-0.181061 L 284.394,0.289291 L 286.544,0.571518 L 288.816,0.665588
 z
M 287.579,-5.79031 L 286.445,-5.9581 L 285.361,-6.23772 L 284.326,-6.6292 L 283.345,-7.13354 L 282.421,-7.75139
 L 281.554,-8.48274 L 280.746,-9.32759 L 280.01,-10.2879 L 279.362,-11.3651 L 278.803,-12.5593 L 278.332,-13.8704
 L 277.958,-15.2807 L 277.691,-16.7723 L 277.531,-18.3453 L 277.477,-19.9996 L 277.531,-21.6395 L 277.691,-23.1963
 L 277.958,-24.6701 L 278.332,-26.0608 L 278.798,-27.35 L 279.342,-28.5188 L 279.964,-29.5672 L 280.664,-30.4952
 L 281.439,-31.3113 L 282.285,-32.024 L 283.202,-32.6333 L 284.191,-33.1392 L 285.238,-33.5368 L 286.33,-33.8208
 L 287.469,-33.9912 L 288.653,-34.048 L 290.3,-33.9454 L 291.85,-33.6378 L 293.304,-33.125 L 294.661,-32.4072
 L 295.894,-31.4893 L 296.977,-30.3765 L 297.908,-29.0687 L 298.689,-27.566 L 299.306,-25.8931 L 299.747,-24.0744
 L 300.011,-22.1099 L 300.1,-19.9996 L 300.004,-17.7334 L 299.716,-15.6536 L 299.237,-13.7602 L 298.567,-12.0532
 L 297.734,-10.5447 L 296.77,-9.24629 L 295.673,-8.15807 L 294.444,-7.28 L 293.117,-6.60379 L 291.728,-6.12079
 L 290.276,-5.83099 L 288.761,-5.73439 z
M 64.8267,-0.055069 L 65.6004,-0.220291 L 66.2573,-0.495667 L 66.7971,-0.881195 L 67.2185,-1.35501 L 67.5195,-1.8949
 L 67.7001,-2.50082 L 67.7603,-3.17279 L 67.7001,-3.86855 L 67.5195,-4.49139 L 67.2185,-5.04134 L 66.7971,-5.51839
 L 66.2573,-5.9041 L 65.6004,-6.1796 L 64.8267,-6.34489 L 63.9359,-6.39999 L 45.1651,-6.39999 L 45.1651,-17.7152
 L 61.8743,-17.7152 L 62.7491,-17.7685 L 63.5018,-17.9285 L 64.1325,-18.1951 L 64.6411,-18.5684 L 65.0328,-19.0263
 L 65.3125,-19.5469 L 65.4804,-20.1301 L 65.5363,-20.776 L 65.4795,-21.42 L 65.3091,-21.998 L 65.0251,-22.51
 L 64.6275,-22.956 L 64.1147,-23.3175 L 63.4848,-23.5758 L 62.7381,-23.7307 L 61.8743,-23.7824 L 45.1651,-23.7824
 L 45.1651,-33.5616 L 63.3119,-33.5616 L 64.213,-33.6148 L 64.9903,-33.7746 L 65.6438,-34.0408 L 66.1735,-34.4136
 L 66.583,-34.8744 L 66.8755,-35.4046 L 67.051,-36.004 L 67.1095,-36.6728 L 67.051,-37.3296 L 66.8755,-37.9205
 L 66.583,-38.4454 L 66.1735,-38.9044 L 65.6438,-39.2773 L 64.9903,-39.5437 L 64.213,-39.7035 L 63.3119,-39.7568
 L 42.0459,-39.7568 L 41.2297,-39.7254 L 40.4896,-39.6313 L 39.8259,-39.4744 L 39.2383,-39.2548 L 38.7256,-38.9667
 L 38.2856,-38.604 L 37.9186,-38.1667 L 37.6243,-37.6548 L 37.3989,-37.0659 L 37.2379,-36.3974 L 37.1413,-35.6491
 L 37.1091,-34.8212 L 37.1091,-4.93559 L 37.1812,-3.72379 L 37.3973,-2.69159 L 37.7576,-1.83899 L 38.2619,-1.16599
 L 38.9307,-0.655869 L 39.7843,-0.291489 L 40.8227,-0.0728607 L 42.0459,-0 L 63.9359,-0 z
M 261.033,0.594437 L 261.758,0.380997 L 262.396,0.025238 L 262.948,-0.472794 L 263.393,-1.11337 L 263.711,-1.89629
 L 263.902,-2.82156 L 263.965,-3.88919 L 263.965,-35.3376 L 263.881,-36.5331 L 263.626,-37.5167 L 263.202,-38.2885
 L 262.609,-38.8484 L 261.872,-39.2458 L 261.016,-39.5297 L 260.041,-39.7 L 258.947,-39.7568 L 256.452,-39.7568
 L 255.403,-39.7314 L 254.509,-39.6551 L 253.769,-39.528 L 253.183,-39.35 L 252.708,-39.1061 L 252.298,-38.7808
 L 251.955,-38.3741 L 251.678,-37.886 L 251.425,-37.2743 L 251.156,-36.4966 L 250.869,-35.5527 L 250.566,-34.4428
 L 244.788,-12.672 L 239.011,-34.4428 L 238.707,-35.5527 L 238.421,-36.4966 L 238.151,-37.2743 L 237.898,-37.886
 L 237.621,-38.3741 L 237.278,-38.7808 L 236.869,-39.1061 L 236.393,-39.35 L 235.807,-39.528 L 235.067,-39.6551
 L 234.173,-39.7314 L 233.124,-39.7568 L 230.629,-39.7568 L 229.535,-39.7 L 228.56,-39.5297 L 227.704,-39.2458
 L 226.967,-38.8484 L 226.373,-38.2885 L 225.95,-37.5167 L 225.695,-36.5331 L 225.611,-35.3376 L 225.611,-3.88919
 L 225.675,-2.8107 L 225.868,-1.87959 L 226.19,-1.09589 L 226.641,-0.459595 L 227.194,0.0326691 L 227.821,0.384293
 L 228.523,0.595261 L 229.3,0.665588 L 230.099,0.594421 L 230.815,0.38089 L 231.449,0.0250244 L 231.999,-0.47319
 L 232.444,-1.11397 L 232.762,-1.89709 L 232.952,-2.82257 L 233.016,-3.8904 L 233.016,-31.3344 L 239.39,-6.0056
 L 239.552,-5.38774 L 239.712,-4.7818 L 239.871,-4.18774 L 240.028,-3.60559 L 240.198,-3.0421 L 240.397,-2.504
 L 240.625,-1.99129 L 240.882,-1.504 L 241.181,-1.0506 L 241.533,-0.639587 L 241.94,-0.270996 L 242.401,0.055191
 L 242.917,0.322235 L 243.486,0.512985 L 244.11,0.627441 L 244.788,0.665588 L 245.673,0.606262 L 246.456,0.428299
 L 247.138,0.131668 L 247.718,-0.2836 L 248.205,-0.770889 L 248.61,-1.2836 L 248.931,-1.82169 L 249.169,-2.38519
 L 249.38,-3.04362 L 249.62,-3.86649 L 249.889,-4.85382 L 250.186,-6.0056 L 256.561,-31.3344 L 256.561,-3.8904
 L 256.625,-2.82257 L 256.818,-1.89709 L 257.14,-1.11397 L 257.591,-0.47319 L 258.142,0.0250244 L 258.765,0.38089
 L 259.458,0.594421 L 260.222,0.665588 z
M 343.838,0.637619 L 344.357,0.553696 L 344.841,0.413818 L 345.292,0.217987 L 345.703,-0.026123 L 346.069,-0.310898
 L 346.388,-0.636322 L 346.662,-1.0024 L 346.882,-1.38985 L 347.038,-1.77899 L 347.133,-2.16985 L 347.164,-2.56239
 L 347.111,-3.02101 L 346.95,-3.6373 L 346.683,-4.41122 L 346.31,-5.34279 L 345.84,-6.3839 L 345.286,-7.48599
 L 344.646,-8.64909 L 343.922,-9.8732 L 343.13,-11.11 L 342.285,-12.3112 L 341.387,-13.4768 L 340.437,-14.6068
 L 339.448,-15.6512 L 338.436,-16.5599 L 337.4,-17.333 L 336.341,-17.9704 L 338.729,-18.6225 L 340.793,-19.4677
 L 342.533,-20.5059 L 343.95,-21.7372 L 345.047,-23.1768 L 345.831,-24.8399 L 346.302,-26.7266 L 346.459,-28.8368
 L 346.412,-29.9062 L 346.272,-30.9469 L 346.039,-31.9588 L 345.713,-32.942 L 345.297,-33.8811 L 344.794,-34.761
 L 344.205,-35.5815 L 343.529,-36.3428 L 342.783,-37.0321 L 341.983,-37.6367 L 341.129,-38.1567 L 340.22,-38.592
 L 339.423,-38.9145 L 338.579,-39.1778 L 337.687,-39.3817 L 336.748,-39.5264 L 335.736,-39.6272 L 334.625,-39.6992
 L 333.417,-39.7424 L 332.11,-39.7568 L 319.008,-39.7568 L 317.796,-39.6839 L 316.763,-39.4653 L 315.911,-39.1009
 L 315.238,-38.5908 L 314.727,-37.9182 L 314.363,-37.066 L 314.144,-36.0342 L 314.071,-34.8228 L 314.071,-4.24159
 L 314.137,-3.10805 L 314.336,-2.12019 L 314.666,-1.27805 L 315.129,-0.581589 L 315.712,-0.0359497 L 316.404,0.35379
 L 317.204,0.587646 L 318.113,0.665588 L 318.966,0.590988 L 319.734,0.367188 L 320.417,-0.00579834 L 321.015,-0.528
 L 321.502,-1.20807 L 321.849,-2.05429 L 322.058,-3.06667 L 322.128,-4.24519 L 322.128,-17.024 L 324.948,-17.024
 L 325.974,-16.9884 L 326.908,-16.8815 L 327.751,-16.7034 L 328.502,-16.454 L 329.204,-16.1081 L 329.902,-15.6402
 L 330.595,-15.0501 L 331.282,-14.338 L 331.99,-13.4766 L 332.743,-12.4389 L 333.543,-11.2248 L 334.388,-9.8344
 L 337.616,-4.46239 L 338.156,-3.57045 L 338.636,-2.79379 L 339.058,-2.13245 L 339.42,-1.5864 L 339.768,-1.11919
 L 340.149,-0.694397 L 340.561,-0.311996 L 341.006,0.0279999 L 341.495,0.306946 L 342.037,0.506195 L 342.634,0.625748
 L 343.285,0.665588 z
M 322.128,-22.784 L 322.128,-33.7152 L 329.56,-33.7152 L 331.464,-33.6779 L 333.025,-33.566 L 334.244,-33.3795
 L 335.12,-33.1184 L 335.826,-32.7666 L 336.45,-32.3351 L 336.992,-31.824 L 337.453,-31.2332 L 337.821,-30.578
 L 338.084,-29.8737 L 338.241,-29.1202 L 338.294,-28.3176 L 338.229,-27.3164 L 338.033,-26.4288 L 337.706,-25.6548
 L 337.25,-24.9944 L 336.669,-24.435 L 335.971,-23.9638 L 335.157,-23.5806 L 334.225,-23.2856 L 333.177,-23.0661
 L 332.015,-22.9094 L 330.736,-22.8153 L 329.343,-22.784 z
M 380.864,-0.055069 L 381.638,-0.220291 L 382.295,-0.495667 L 382.835,-0.881195 L 383.256,-1.35501 L 383.557,-1.8949
 L 383.738,-2.50082 L 383.798,-3.17279 L 383.738,-3.86855 L 383.557,-4.49139 L 383.256,-5.04134 L 382.835,-5.51839
 L 382.295,-5.9041 L 381.638,-6.1796 L 380.864,-6.34489 L 379.973,-6.39999 L 361.203,-6.39999 L 361.203,-17.7152
 L 377.912,-17.7152 L 378.787,-17.7685 L 379.539,-17.9285 L 380.17,-18.1951 L 380.679,-18.5684 L 381.07,-19.0263
 L 381.35,-19.5469 L 381.518,-20.1301 L 381.574,-20.776 L 381.517,-21.42 L 381.347,-21.998 L 381.063,-22.51
 L 380.665,-22.956 L 380.152,-23.3175 L 379.522,-23.5758 L 378.776,-23.7307 L 377.912,-23.7824 L 361.203,-23.7824
 L 361.203,-33.5616 L 379.349,-33.5616 L 380.251,-33.6148 L 381.028,-33.7746 L 381.681,-34.0408 L 382.211,-34.4136
 L 382.621,-34.8744 L 382.913,-35.4046 L 383.089,-36.004 L 383.147,-36.6728 L 383.089,-37.3296 L 382.913,-37.9205
 L 382.621,-38.4454 L 382.211,-38.9044 L 381.681,-39.2773 L 381.028,-39.5437 L 380.251,-39.7035 L 379.349,-39.7568
 L 358.083,-39.7568 L 357.267,-39.7254 L 356.527,-39.6313 L 355.863,-39.4744 L 355.276,-39.2548 L 354.763,-38.9667
 L 354.323,-38.604 L 353.956,-38.1667 L 353.662,-37.6548 L 353.436,-37.0659 L 353.275,-36.3974 L 353.179,-35.6491
 L 353.147,-34.8212 L 353.147,-4.93559 L 353.219,-3.72379 L 353.435,-2.69159 L 353.795,-1.83899 L 354.299,-1.16599
 L 354.968,-0.655869 L 355.822,-0.291489 L 356.86,-0.0728607 L 358.083,-0 L 379.973,-0 z
" stroke="black" fill="lightgray" stroke-width="0.5"/>
</svg>
