  0
SECTION
  2
BLOCKS
  0
ENDSEC
  0
SECTION
  2
ENTITIES
  0
LINE
  8
0
 10
294.935
 20
0.568985
 11
303.055
 21
2.27599
  0
LINE
  8
0
 10
303.055
 20
2.27599
 11
309.989
 21
5.12099
  0
LINE
  8
0
 10
309.989
 20
5.12099
 11
315.736
 21
9.10399
  0
LINE
  8
0
 10
315.736
 20
9.10399
 11
320.246
 21
14.004
  0
LINE
  8
0
 10
320.246
 20
14.004
 11
323.467
 21
19.6
  0
LINE
  8
0
 10
323.467
 20
19.6
 11
325.4
 21
25.892
  0
LINE
  8
0
 10
325.4
 20
25.892
 11
326.044
 21
32.88
  0
LINE
  8
0
 10
326.044
 20
32.88
 11
325.391
 21
39.776
  0
LINE
  8
0
 10
325.391
 20
39.776
 11
323.433
 21
46.06
  0
LINE
  8
0
 10
323.433
 20
46.06
 11
320.169
 21
51.732
  0
LINE
  8
0
 10
320.169
 20
51.732
 11
315.6
 21
56.792
  0
LINE
  8
0
 10
315.6
 20
56.792
 11
309.81
 21
60.9535
  0
LINE
  8
0
 10
309.81
 20
60.9535
 11
302.885
 21
63.926
  0
LINE
  8
0
 10
302.885
 20
63.926
 11
294.824
 21
65.7095
  0
LINE
  8
0
 10
294.824
 20
65.7095
 11
285.628
 21
66.304
  0
LINE
  8
0
 10
285.628
 20
66.304
 11
122.332
 21
66.304
  0
LINE
  8
0
 10
122.332
 20
66.304
 11
122.332
 21
355.664
  0
LINE
  8
0
 10
122.332
 20
355.664
 11
121.628
 21
367.216
  0
LINE
  8
0
 10
121.628
 20
367.216
 11
119.518
 21
377.191
  0
LINE
  8
0
 10
119.518
 20
377.191
 11
116
 21
385.59
  0
LINE
  8
0
 10
116
 20
385.59
 11
111.076
 21
392.412
  0
LINE
  8
0
 10
111.076
 20
392.412
 11
105.015
 21
397.692
  0
LINE
  8
0
 10
105.015
 20
397.692
 11
98.09
 21
401.463
  0
LINE
  8
0
 10
98.09
 20
401.463
 11
90.2995
 21
403.726
  0
LINE
  8
0
 10
90.2995
 20
403.726
 11
81.644
 21
404.48
  0
LINE
  8
0
 10
81.644
 20
404.48
 11
73.126
 21
403.717
  0
LINE
  8
0
 10
73.126
 20
403.717
 11
65.472
 21
401.428
  0
LINE
  8
0
 10
65.472
 20
401.428
 11
58.682
 21
397.613
  0
LINE
  8
0
 10
58.682
 20
397.613
 11
52.756
 21
392.272
  0
LINE
  8
0
 10
52.756
 20
392.272
 11
47.9505
 21
385.405
  0
LINE
  8
0
 10
47.9505
 20
385.405
 11
44.518
 21
377.012
  0
LINE
  8
0
 10
44.518
 20
377.012
 11
42.4585
 21
367.093
  0
LINE
  8
0
 10
42.4585
 20
367.093
 11
41.772
 21
355.648
  0
LINE
  8
0
 10
41.772
 20
355.648
 11
41.772
 21
49.372
  0
LINE
  8
0
 10
41.772
 20
49.372
 11
42.4925
 21
37.2502
  0
LINE
  8
0
 10
42.4925
 20
37.2502
 11
44.654
 21
26.925
  0
LINE
  8
0
 10
44.654
 20
26.925
 11
48.2565
 21
18.3962
  0
LINE
  8
0
 10
48.2565
 20
18.3962
 11
53.3
 21
11.664
  0
LINE
  8
0
 10
53.3
 20
11.664
 11
59.988
 21
6.56099
  0
LINE
  8
0
 10
59.988
 20
6.56099
 11
68.524
 21
2.91599
  0
LINE
  8
0
 10
68.524
 20
2.91599
 11
78.908
 21
0.728989
  0
LINE
  8
0
 10
78.908
 20
0.728989
 11
91.14
 21
0
  0
LINE
  8
0
 10
91.14
 20
0
 11
285.628
 21
0
  0
LINE
  8
0
 10
285.628
 20
0
 11
294.935
 21
0.568985
  0
LINE
  8
0
 10
900.98
 20
-5.63875
 11
923.036
 21
-2.58699
  0
LINE
  8
0
 10
923.036
 20
-2.58699
 11
943.43
 21
2.49924
  0
LINE
  8
0
 10
943.43
 20
2.49924
 11
962.163
 21
9.62
  0
LINE
  8
0
 10
962.163
 20
9.62
 11
978.99
 21
18.5397
  0
LINE
  8
0
 10
978.99
 20
18.5397
 11
993.664
 21
29.019
  0
LINE
  8
0
 10
993.664
 20
29.019
 11
1006.18
 21
41.0577
  0
LINE
  8
0
 10
1006.18
 20
41.0577
 11
1016.55
 21
54.656
  0
LINE
  8
0
 10
1016.55
 20
54.656
 11
1024.68
 21
69.4917
  0
LINE
  8
0
 10
1024.68
 20
69.4917
 11
1030.49
 21
85.243
  0
LINE
  8
0
 10
1030.49
 20
85.243
 11
1033.97
 21
101.91
  0
LINE
  8
0
 10
1033.97
 20
101.91
 11
1035.13
 21
119.492
  0
LINE
  8
0
 10
1035.13
 20
119.492
 11
1034.46
 21
133.965
  0
LINE
  8
0
 10
1034.46
 20
133.965
 11
1032.45
 21
147.267
  0
LINE
  8
0
 10
1032.45
 20
147.267
 11
1029.1
 21
159.399
  0
LINE
  8
0
 10
1029.1
 20
159.399
 11
1024.41
 21
170.36
  0
LINE
  8
0
 10
1024.41
 20
170.36
 11
1018.53
 21
180.288
  0
LINE
  8
0
 10
1018.53
 20
180.288
 11
1011.6
 21
189.318
  0
LINE
  8
0
 10
1011.6
 20
189.318
 11
1003.61
 21
197.448
  0
LINE
  8
0
 10
1003.61
 20
197.448
 11
994.579
 21
204.68
  0
LINE
  8
0
 10
994.579
 20
204.68
 11
984.508
 21
211.209
  0
LINE
  8
0
 10
984.508
 20
211.209
 11
973.421
 21
217.23
  0
LINE
  8
0
 10
973.421
 20
217.23
 11
961.316
 21
222.741
  0
LINE
  8
0
 10
961.316
 20
222.741
 11
948.195
 21
227.744
  0
LINE
  8
0
 10
948.195
 20
227.744
 11
934.166
 21
232.39
  0
LINE
  8
0
 10
934.166
 20
232.39
 11
919.341
 21
236.833
  0
LINE
  8
0
 10
919.341
 20
236.833
 11
903.718
 21
241.072
  0
LINE
  8
0
 10
903.718
 20
241.072
 11
887.299
 21
245.108
  0
LINE
  8
0
 10
887.299
 20
245.108
 11
874.822
 21
248.296
  0
LINE
  8
0
 10
874.822
 20
248.296
 11
864.244
 21
251.077
  0
LINE
  8
0
 10
864.244
 20
251.077
 11
855.564
 21
253.45
  0
LINE
  8
0
 10
855.564
 20
253.45
 11
848.783
 21
255.416
  0
LINE
  8
0
 10
848.783
 20
255.416
 11
842.968
 21
257.349
  0
LINE
  8
0
 10
842.968
 20
257.349
 11
837.187
 21
259.622
  0
LINE
  8
0
 10
837.187
 20
259.622
 11
831.44
 21
262.233
  0
LINE
  8
0
 10
831.44
 20
262.233
 11
825.727
 21
265.184
  0
LINE
  8
0
 10
825.727
 20
265.184
 11
820.336
 21
268.456
  0
LINE
  8
0
 10
820.336
 20
268.456
 11
815.555
 21
272.034
  0
LINE
  8
0
 10
815.555
 20
272.034
 11
811.384
 21
275.916
  0
LINE
  8
0
 10
811.384
 20
275.916
 11
807.823
 21
280.104
  0
LINE
  8
0
 10
807.823
 20
280.104
 11
804.975
 21
284.649
  0
LINE
  8
0
 10
804.975
 20
284.649
 11
802.942
 21
289.602
  0
LINE
  8
0
 10
802.942
 20
289.602
 11
801.721
 21
294.961
  0
LINE
  8
0
 10
801.721
 20
294.961
 11
801.315
 21
300.728
  0
LINE
  8
0
 10
801.315
 20
300.728
 11
802.51
 21
310.01
  0
LINE
  8
0
 10
802.51
 20
310.01
 11
806.095
 21
318.598
  0
LINE
  8
0
 10
806.095
 20
318.598
 11
812.07
 21
326.49
  0
LINE
  8
0
 10
812.07
 20
326.49
 11
820.435
 21
333.688
  0
LINE
  8
0
 10
820.435
 20
333.688
 11
830.751
 21
339.683
  0
LINE
  8
0
 10
830.751
 20
339.683
 11
842.577
 21
343.966
  0
LINE
  8
0
 10
842.577
 20
343.966
 11
855.911
 21
346.535
  0
LINE
  8
0
 10
855.911
 20
346.535
 11
870.755
 21
347.392
  0
LINE
  8
0
 10
870.755
 20
347.392
 11
886.42
 21
346.601
  0
LINE
  8
0
 10
886.42
 20
346.601
 11
899.779
 21
344.23
  0
LINE
  8
0
 10
899.779
 20
344.23
 11
910.832
 21
340.277
  0
LINE
  8
0
 10
910.832
 20
340.277
 11
919.579
 21
334.744
  0
LINE
  8
0
 10
919.579
 20
334.744
 11
926.903
 21
327.799
  0
LINE
  8
0
 10
926.903
 20
327.799
 11
933.685
 21
319.614
  0
LINE
  8
0
 10
933.685
 20
319.614
 11
939.923
 21
310.188
  0
LINE
  8
0
 10
939.923
 20
310.188
 11
945.619
 21
299.52
  0
LINE
  8
0
 10
945.619
 20
299.52
 11
949.746
 21
292.233
  0
LINE
  8
0
 10
949.746
 20
292.233
 11
953.722
 21
286.043
  0
LINE
  8
0
 10
953.722
 20
286.043
 11
957.544
 21
280.951
  0
LINE
  8
0
 10
957.544
 20
280.951
 11
961.215
 21
276.956
  0
LINE
  8
0
 10
961.215
 20
276.956
 11
965.224
 21
273.942
  0
LINE
  8
0
 10
965.224
 20
273.942
 11
970.065
 21
271.79
  0
LINE
  8
0
 10
970.065
 20
271.79
 11
975.736
 21
270.498
  0
LINE
  8
0
 10
975.736
 20
270.498
 11
982.239
 21
270.068
  0
LINE
  8
0
 10
982.239
 20
270.068
 11
989.519
 21
270.788
  0
LINE
  8
0
 10
989.519
 20
270.788
 11
996.173
 21
272.947
  0
LINE
  8
0
 10
996.173
 20
272.947
 11
1002.2
 21
276.546
  0
LINE
  8
0
 10
1002.2
 20
276.546
 11
1007.6
 21
281.584
  0
LINE
  8
0
 10
1007.6
 20
281.584
 11
1012.05
 21
287.521
  0
LINE
  8
0
 10
1012.05
 20
287.521
 11
1015.23
 21
293.814
  0
LINE
  8
0
 10
1015.23
 20
293.814
 11
1017.13
 21
300.461
  0
LINE
  8
0
 10
1017.13
 20
300.461
 11
1017.77
 21
307.464
  0
LINE
  8
0
 10
1017.77
 20
307.464
 11
1017.26
 21
315.374
  0
LINE
  8
0
 10
1017.26
 20
315.374
 11
1015.74
 21
323.386
  0
LINE
  8
0
 10
1015.74
 20
323.386
 11
1013.19
 21
331.498
  0
LINE
  8
0
 10
1013.19
 20
331.498
 11
1009.63
 21
339.712
  0
LINE
  8
0
 10
1009.63
 20
339.712
 11
1004.97
 21
347.885
  0
LINE
  8
0
 10
1004.97
 20
347.885
 11
999.121
 21
355.871
  0
LINE
  8
0
 10
999.121
 20
355.871
 11
992.085
 21
363.671
  0
LINE
  8
0
 10
992.085
 20
363.671
 11
983.863
 21
371.284
  0
LINE
  8
0
 10
983.863
 20
371.284
 11
974.48
 21
378.431
  0
LINE
  8
0
 10
974.48
 20
378.431
 11
963.962
 21
384.833
  0
LINE
  8
0
 10
963.962
 20
384.833
 11
952.306
 21
390.489
  0
LINE
  8
0
 10
952.306
 20
390.489
 11
939.515
 21
395.4
  0
LINE
  8
0
 10
939.515
 20
395.4
 11
925.536
 21
399.372
  0
LINE
  8
0
 10
925.536
 20
399.372
 11
910.321
 21
402.21
  0
LINE
  8
0
 10
910.321
 20
402.21
 11
893.868
 21
403.912
  0
LINE
  8
0
 10
893.868
 20
403.912
 11
876.179
 21
404.48
  0
LINE
  8
0
 10
876.179
 20
404.48
 11
854.003
 21
403.624
  0
LINE
  8
0
 10
854.003
 20
403.624
 11
833.319
 21
401.057
  0
LINE
  8
0
 10
833.319
 20
401.057
 11
814.127
 21
396.778
  0
LINE
  8
0
 10
814.127
 20
396.778
 11
796.427
 21
390.788
  0
LINE
  8
0
 10
796.427
 20
390.788
 11
780.475
 21
383.205
  0
LINE
  8
0
 10
780.475
 20
383.205
 11
766.523
 21
374.147
  0
LINE
  8
0
 10
766.523
 20
374.147
 11
754.571
 21
363.615
  0
LINE
  8
0
 10
754.571
 20
363.615
 11
744.619
 21
351.608
  0
LINE
  8
0
 10
744.619
 20
351.608
 11
736.787
 21
338.408
  0
LINE
  8
0
 10
736.787
 20
338.408
 11
731.194
 21
324.294
  0
LINE
  8
0
 10
731.194
 20
324.294
 11
727.837
 21
309.264
  0
LINE
  8
0
 10
727.837
 20
309.264
 11
726.719
 21
293.32
  0
LINE
  8
0
 10
726.719
 20
293.32
 11
727.778
 21
276.807
  0
LINE
  8
0
 10
727.778
 20
276.807
 11
730.957
 21
261.7
  0
LINE
  8
0
 10
730.957
 20
261.7
 11
736.254
 21
247.999
  0
LINE
  8
0
 10
736.254
 20
247.999
 11
743.671
 21
235.704
  0
LINE
  8
0
 10
743.671
 20
235.704
 11
752.894
 21
224.724
  0
LINE
  8
0
 10
752.894
 20
224.724
 11
763.61
 21
214.964
  0
LINE
  8
0
 10
763.61
 20
214.964
 11
775.816
 21
206.424
  0
LINE
  8
0
 10
775.816
 20
206.424
 11
789.515
 21
199.104
  0
LINE
  8
0
 10
789.515
 20
199.104
 11
804.832
 21
192.606
  0
LINE
  8
0
 10
804.832
 20
192.606
 11
821.895
 21
186.531
  0
LINE
  8
0
 10
821.895
 20
186.531
 11
840.704
 21
180.88
  0
LINE
  8
0
 10
840.704
 20
180.88
 11
861.259
 21
175.652
  0
LINE
  8
0
 10
861.259
 20
175.652
 11
876.457
 21
172.041
  0
LINE
  8
0
 10
876.457
 20
172.041
 11
890.046
 21
168.531
  0
LINE
  8
0
 10
890.046
 20
168.531
 11
902.023
 21
165.123
  0
LINE
  8
0
 10
902.023
 20
165.123
 11
912.391
 21
161.816
  0
LINE
  8
0
 10
912.391
 20
161.816
 11
921.512
 21
158.195
  0
LINE
  8
0
 10
921.512
 20
158.195
 11
929.751
 21
153.846
  0
LINE
  8
0
 10
929.751
 20
153.846
 11
937.108
 21
148.767
  0
LINE
  8
0
 10
937.108
 20
148.767
 11
943.583
 21
142.96
  0
LINE
  8
0
 10
943.583
 20
142.96
 11
948.864
 21
136.322
  0
LINE
  8
0
 10
948.864
 20
136.322
 11
952.637
 21
128.751
  0
LINE
  8
0
 10
952.637
 20
128.751
 11
954.9
 21
120.248
  0
LINE
  8
0
 10
954.9
 20
120.248
 11
955.655
 21
110.812
  0
LINE
  8
0
 10
955.655
 20
110.812
 11
954.256
 21
98.849
  0
LINE
  8
0
 10
954.256
 20
98.849
 11
950.06
 21
87.92
  0
LINE
  8
0
 10
950.06
 20
87.92
 11
943.066
 21
78.025
  0
LINE
  8
0
 10
943.066
 20
78.025
 11
933.275
 21
69.164
  0
LINE
  8
0
 10
933.275
 20
69.164
 11
921.247
 21
61.8647
  0
LINE
  8
0
 10
921.247
 20
61.8647
 11
907.542
 21
56.651
  0
LINE
  8
0
 10
907.542
 20
56.651
 11
892.157
 21
53.5227
  0
LINE
  8
0
 10
892.157
 20
53.5227
 11
875.095
 21
52.48
  0
LINE
  8
0
 10
875.095
 20
52.48
 11
862.702
 21
52.997
  0
LINE
  8
0
 10
862.702
 20
52.997
 11
851.564
 21
54.548
  0
LINE
  8
0
 10
851.564
 20
54.548
 11
841.68
 21
57.133
  0
LINE
  8
0
 10
841.68
 20
57.133
 11
833.051
 21
60.752
  0
LINE
  8
0
 10
833.051
 20
60.752
 11
825.498
 21
65.1697
  0
LINE
  8
0
 10
825.498
 20
65.1697
 11
818.844
 21
70.147
  0
LINE
  8
0
 10
818.844
 20
70.147
 11
813.088
 21
75.6837
  0
LINE
  8
0
 10
813.088
 20
75.6837
 11
808.231
 21
81.78
  0
LINE
  8
0
 10
808.231
 20
81.78
 11
803.899
 21
88.546
  0
LINE
  8
0
 10
803.899
 20
88.546
 11
799.72
 21
96.092
  0
LINE
  8
0
 10
799.72
 20
96.092
 11
795.693
 21
104.418
  0
LINE
  8
0
 10
795.693
 20
104.418
 11
791.819
 21
113.524
  0
LINE
  8
0
 10
791.819
 20
113.524
 11
788.538
 21
121.036
  0
LINE
  8
0
 10
788.538
 20
121.036
 11
784.935
 21
127.565
  0
LINE
  8
0
 10
784.935
 20
127.565
 11
781.01
 21
133.11
  0
LINE
  8
0
 10
781.01
 20
133.11
 11
776.763
 21
137.672
  0
LINE
  8
0
 10
776.763
 20
137.672
 11
772.111
 21
141.233
  0
LINE
  8
0
 10
772.111
 20
141.233
 11
766.967
 21
143.777
  0
LINE
  8
0
 10
766.967
 20
143.777
 11
761.331
 21
145.303
  0
LINE
  8
0
 10
761.331
 20
145.303
 11
755.203
 21
145.812
  0
LINE
  8
0
 10
755.203
 20
145.812
 11
747.684
 21
145.159
  0
LINE
  8
0
 10
747.684
 20
145.159
 11
740.861
 21
143.2
  0
LINE
  8
0
 10
740.861
 20
143.2
 11
734.732
 21
139.935
  0
LINE
  8
0
 10
734.732
 20
139.935
 11
729.299
 21
135.364
  0
LINE
  8
0
 10
729.299
 20
135.364
 11
724.848
 21
129.879
  0
LINE
  8
0
 10
724.848
 20
129.879
 11
721.67
 21
123.869
  0
LINE
  8
0
 10
721.67
 20
123.869
 11
719.762
 21
117.333
  0
LINE
  8
0
 10
719.762
 20
117.333
 11
719.127
 21
110.272
  0
LINE
  8
0
 10
719.127
 20
110.272
 11
720.186
 21
97.5627
  0
LINE
  8
0
 10
720.186
 20
97.5627
 11
723.365
 21
84.667
  0
LINE
  8
0
 10
723.365
 20
84.667
 11
728.662
 21
71.5847
  0
LINE
  8
0
 10
728.662
 20
71.5847
 11
736.079
 21
58.316
  0
LINE
  8
0
 10
736.079
 20
58.316
 11
745.19
 21
45.6255
  0
LINE
  8
0
 10
745.19
 20
45.6255
 11
755.574
 21
34.274
  0
LINE
  8
0
 10
755.574
 20
34.274
 11
767.228
 21
24.2615
  0
LINE
  8
0
 10
767.228
 20
24.2615
 11
780.155
 21
15.588
  0
LINE
  8
0
 10
780.155
 20
15.588
 11
800.567
 21
5.85625
  0
LINE
  8
0
 10
800.567
 20
5.85625
 11
823.556
 21
-1.09499
  0
LINE
  8
0
 10
823.556
 20
-1.09499
 11
849.121
 21
-5.26575
  0
LINE
  8
0
 10
849.121
 20
-5.26575
 11
877.263
 21
-6.65599
  0
LINE
  8
0
 10
877.263
 20
-6.65599
 11
900.98
 21
-5.63875
  0
LINE
  8
0
 10
1262.85
 20
-5.63875
 11
1284.9
 21
-2.58699
  0
LINE
  8
0
 10
1284.9
 20
-2.58699
 11
1305.3
 21
2.49924
  0
LINE
  8
0
 10
1305.3
 20
2.49924
 11
1324.03
 21
9.62
  0
LINE
  8
0
 10
1324.03
 20
9.62
 11
1340.86
 21
18.5397
  0
LINE
  8
0
 10
1340.86
 20
18.5397
 11
1355.53
 21
29.019
  0
LINE
  8
0
 10
1355.53
 20
29.019
 11
1368.05
 21
41.0577
  0
LINE
  8
0
 10
1368.05
 20
41.0577
 11
1378.42
 21
54.656
  0
LINE
  8
0
 10
1378.42
 20
54.656
 11
1386.55
 21
69.4917
  0
LINE
  8
0
 10
1386.55
 20
69.4917
 11
1392.35
 21
85.243
  0
LINE
  8
0
 10
1392.35
 20
85.243
 11
1395.84
 21
101.91
  0
LINE
  8
0
 10
1395.84
 20
101.91
 11
1397
 21
119.492
  0
LINE
  8
0
 10
1397
 20
119.492
 11
1396.33
 21
133.965
  0
LINE
  8
0
 10
1396.33
 20
133.965
 11
1394.32
 21
147.267
  0
LINE
  8
0
 10
1394.32
 20
147.267
 11
1390.97
 21
159.399
  0
LINE
  8
0
 10
1390.97
 20
159.399
 11
1386.28
 21
170.36
  0
LINE
  8
0
 10
1386.28
 20
170.36
 11
1380.4
 21
180.288
  0
LINE
  8
0
 10
1380.4
 20
180.288
 11
1373.47
 21
189.318
  0
LINE
  8
0
 10
1373.47
 20
189.318
 11
1365.48
 21
197.448
  0
LINE
  8
0
 10
1365.48
 20
197.448
 11
1356.45
 21
204.68
  0
LINE
  8
0
 10
1356.45
 20
204.68
 11
1346.38
 21
211.209
  0
LINE
  8
0
 10
1346.38
 20
211.209
 11
1335.29
 21
217.23
  0
LINE
  8
0
 10
1335.29
 20
217.23
 11
1323.18
 21
222.741
  0
LINE
  8
0
 10
1323.18
 20
222.741
 11
1310.06
 21
227.744
  0
LINE
  8
0
 10
1310.06
 20
227.744
 11
1296.03
 21
232.39
  0
LINE
  8
0
 10
1296.03
 20
232.39
 11
1281.21
 21
236.833
  0
LINE
  8
0
 10
1281.21
 20
236.833
 11
1265.59
 21
241.072
  0
LINE
  8
0
 10
1265.59
 20
241.072
 11
1249.17
 21
245.108
  0
LINE
  8
0
 10
1249.17
 20
245.108
 11
1236.69
 21
248.296
  0
LINE
  8
0
 10
1236.69
 20
248.296
 11
1226.11
 21
251.077
  0
LINE
  8
0
 10
1226.11
 20
251.077
 11
1217.43
 21
253.45
  0
LINE
  8
0
 10
1217.43
 20
253.45
 11
1210.65
 21
255.416
  0
LINE
  8
0
 10
1210.65
 20
255.416
 11
1204.83
 21
257.349
  0
LINE
  8
0
 10
1204.83
 20
257.349
 11
1199.05
 21
259.622
  0
LINE
  8
0
 10
1199.05
 20
259.622
 11
1193.31
 21
262.233
  0
LINE
  8
0
 10
1193.31
 20
262.233
 11
1187.59
 21
265.184
  0
LINE
  8
0
 10
1187.59
 20
265.184
 11
1182.2
 21
268.456
  0
LINE
  8
0
 10
1182.2
 20
268.456
 11
1177.42
 21
272.034
  0
LINE
  8
0
 10
1177.42
 20
272.034
 11
1173.25
 21
275.916
  0
LINE
  8
0
 10
1173.25
 20
275.916
 11
1169.69
 21
280.104
  0
LINE
  8
0
 10
1169.69
 20
280.104
 11
1166.84
 21
284.649
  0
LINE
  8
0
 10
1166.84
 20
284.649
 11
1164.81
 21
289.602
  0
LINE
  8
0
 10
1164.81
 20
289.602
 11
1163.59
 21
294.961
  0
LINE
  8
0
 10
1163.59
 20
294.961
 11
1163.18
 21
300.728
  0
LINE
  8
0
 10
1163.18
 20
300.728
 11
1164.38
 21
310.01
  0
LINE
  8
0
 10
1164.38
 20
310.01
 11
1167.96
 21
318.598
  0
LINE
  8
0
 10
1167.96
 20
318.598
 11
1173.94
 21
326.49
  0
LINE
  8
0
 10
1173.94
 20
326.49
 11
1182.3
 21
333.688
  0
LINE
  8
0
 10
1182.3
 20
333.688
 11
1192.62
 21
339.683
  0
LINE
  8
0
 10
1192.62
 20
339.683
 11
1204.44
 21
343.966
  0
LINE
  8
0
 10
1204.44
 20
343.966
 11
1217.78
 21
346.535
  0
LINE
  8
0
 10
1217.78
 20
346.535
 11
1232.62
 21
347.392
  0
LINE
  8
0
 10
1232.62
 20
347.392
 11
1248.29
 21
346.601
  0
LINE
  8
0
 10
1248.29
 20
346.601
 11
1261.65
 21
344.23
  0
LINE
  8
0
 10
1261.65
 20
344.23
 11
1272.7
 21
340.277
  0
LINE
  8
0
 10
1272.7
 20
340.277
 11
1281.45
 21
334.744
  0
LINE
  8
0
 10
1281.45
 20
334.744
 11
1288.77
 21
327.799
  0
LINE
  8
0
 10
1288.77
 20
327.799
 11
1295.55
 21
319.614
  0
LINE
  8
0
 10
1295.55
 20
319.614
 11
1301.79
 21
310.188
  0
LINE
  8
0
 10
1301.79
 20
310.188
 11
1307.49
 21
299.52
  0
LINE
  8
0
 10
1307.49
 20
299.52
 11
1311.61
 21
292.233
  0
LINE
  8
0
 10
1311.61
 20
292.233
 11
1315.59
 21
286.043
  0
LINE
  8
0
 10
1315.59
 20
286.043
 11
1319.41
 21
280.951
  0
LINE
  8
0
 10
1319.41
 20
280.951
 11
1323.08
 21
276.956
  0
LINE
  8
0
 10
1323.08
 20
276.956
 11
1327.09
 21
273.942
  0
LINE
  8
0
 10
1327.09
 20
273.942
 11
1331.93
 21
271.79
  0
LINE
  8
0
 10
1331.93
 20
271.79
 11
1337.6
 21
270.498
  0
LINE
  8
0
 10
1337.6
 20
270.498
 11
1344.11
 21
270.068
  0
LINE
  8
0
 10
1344.11
 20
270.068
 11
1351.39
 21
270.788
  0
LINE
  8
0
 10
1351.39
 20
270.788
 11
1358.04
 21
272.947
  0
LINE
  8
0
 10
1358.04
 20
272.947
 11
1364.07
 21
276.546
  0
LINE
  8
0
 10
1364.07
 20
276.546
 11
1369.47
 21
281.584
  0
LINE
  8
0
 10
1369.47
 20
281.584
 11
1373.92
 21
287.521
  0
LINE
  8
0
 10
1373.92
 20
287.521
 11
1377.09
 21
293.814
  0
LINE
  8
0
 10
1377.09
 20
293.814
 11
1379
 21
300.461
  0
LINE
  8
0
 10
1379
 20
300.461
 11
1379.64
 21
307.464
  0
LINE
  8
0
 10
1379.64
 20
307.464
 11
1379.13
 21
315.374
  0
LINE
  8
0
 10
1379.13
 20
315.374
 11
1377.6
 21
323.386
  0
LINE
  8
0
 10
1377.6
 20
323.386
 11
1375.06
 21
331.498
  0
LINE
  8
0
 10
1375.06
 20
331.498
 11
1371.5
 21
339.712
  0
LINE
  8
0
 10
1371.5
 20
339.712
 11
1366.84
 21
347.885
  0
LINE
  8
0
 10
1366.84
 20
347.885
 11
1360.99
 21
355.871
  0
LINE
  8
0
 10
1360.99
 20
355.871
 11
1353.95
 21
363.671
  0
LINE
  8
0
 10
1353.95
 20
363.671
 11
1345.73
 21
371.284
  0
LINE
  8
0
 10
1345.73
 20
371.284
 11
1336.35
 21
378.431
  0
LINE
  8
0
 10
1336.35
 20
378.431
 11
1325.83
 21
384.833
  0
LINE
  8
0
 10
1325.83
 20
384.833
 11
1314.17
 21
390.489
  0
LINE
  8
0
 10
1314.17
 20
390.489
 11
1301.38
 21
395.4
  0
LINE
  8
0
 10
1301.38
 20
395.4
 11
1287.4
 21
399.372
  0
LINE
  8
0
 10
1287.4
 20
399.372
 11
1272.19
 21
402.21
  0
LINE
  8
0
 10
1272.19
 20
402.21
 11
1255.74
 21
403.912
  0
LINE
  8
0
 10
1255.74
 20
403.912
 11
1238.05
 21
404.48
  0
LINE
  8
0
 10
1238.05
 20
404.48
 11
1215.87
 21
403.624
  0
LINE
  8
0
 10
1215.87
 20
403.624
 11
1195.19
 21
401.057
  0
LINE
  8
0
 10
1195.19
 20
401.057
 11
1175.99
 21
396.778
  0
LINE
  8
0
 10
1175.99
 20
396.778
 11
1158.29
 21
390.788
  0
LINE
  8
0
 10
1158.29
 20
390.788
 11
1142.34
 21
383.205
  0
LINE
  8
0
 10
1142.34
 20
383.205
 11
1128.39
 21
374.147
  0
LINE
  8
0
 10
1128.39
 20
374.147
 11
1116.44
 21
363.615
  0
LINE
  8
0
 10
1116.44
 20
363.615
 11
1106.49
 21
351.608
  0
LINE
  8
0
 10
1106.49
 20
351.608
 11
1098.65
 21
338.408
  0
LINE
  8
0
 10
1098.65
 20
338.408
 11
1093.06
 21
324.294
  0
LINE
  8
0
 10
1093.06
 20
324.294
 11
1089.7
 21
309.264
  0
LINE
  8
0
 10
1089.7
 20
309.264
 11
1088.59
 21
293.32
  0
LINE
  8
0
 10
1088.59
 20
293.32
 11
1089.65
 21
276.807
  0
LINE
  8
0
 10
1089.65
 20
276.807
 11
1092.82
 21
261.7
  0
LINE
  8
0
 10
1092.82
 20
261.7
 11
1098.12
 21
247.999
  0
LINE
  8
0
 10
1098.12
 20
247.999
 11
1105.54
 21
235.704
  0
LINE
  8
0
 10
1105.54
 20
235.704
 11
1114.76
 21
224.724
  0
LINE
  8
0
 10
1114.76
 20
224.724
 11
1125.48
 21
214.964
  0
LINE
  8
0
 10
1125.48
 20
214.964
 11
1137.68
 21
206.424
  0
LINE
  8
0
 10
1137.68
 20
206.424
 11
1151.38
 21
199.104
  0
LINE
  8
0
 10
1151.38
 20
199.104
 11
1166.7
 21
192.606
  0
LINE
  8
0
 10
1166.7
 20
192.606
 11
1183.76
 21
186.531
  0
LINE
  8
0
 10
1183.76
 20
186.531
 11
1202.57
 21
180.88
  0
LINE
  8
0
 10
1202.57
 20
180.88
 11
1223.13
 21
175.652
  0
LINE
  8
0
 10
1223.13
 20
175.652
 11
1238.32
 21
172.041
  0
LINE
  8
0
 10
1238.32
 20
172.041
 11
1251.91
 21
168.531
  0
LINE
  8
0
 10
1251.91
 20
168.531
 11
1263.89
 21
165.123
  0
LINE
  8
0
 10
1263.89
 20
165.123
 11
1274.26
 21
161.816
  0
LINE
  8
0
 10
1274.26
 20
161.816
 11
1283.38
 21
158.195
  0
LINE
  8
0
 10
1283.38
 20
158.195
 11
1291.62
 21
153.846
  0
LINE
  8
0
 10
1291.62
 20
153.846
 11
1298.97
 21
148.767
  0
LINE
  8
0
 10
1298.97
 20
148.767
 11
1305.45
 21
142.96
  0
LINE
  8
0
 10
1305.45
 20
142.96
 11
1310.73
 21
136.322
  0
LINE
  8
0
 10
1310.73
 20
136.322
 11
1314.5
 21
128.751
  0
LINE
  8
0
 10
1314.5
 20
128.751
 11
1316.77
 21
120.248
  0
LINE
  8
0
 10
1316.77
 20
120.248
 11
1317.52
 21
110.812
  0
LINE
  8
0
 10
1317.52
 20
110.812
 11
1316.12
 21
98.849
  0
LINE
  8
0
 10
1316.12
 20
98.849
 11
1311.93
 21
87.92
  0
LINE
  8
0
 10
1311.93
 20
87.92
 11
1304.93
 21
78.025
  0
LINE
  8
0
 10
1304.93
 20
78.025
 11
1295.14
 21
69.164
  0
LINE
  8
0
 10
1295.14
 20
69.164
 11
1283.11
 21
61.8647
  0
LINE
  8
0
 10
1283.11
 20
61.8647
 11
1269.41
 21
56.651
  0
LINE
  8
0
 10
1269.41
 20
56.651
 11
1254.02
 21
53.5227
  0
LINE
  8
0
 10
1254.02
 20
53.5227
 11
1236.96
 21
52.48
  0
LINE
  8
0
 10
1236.96
 20
52.48
 11
1224.57
 21
52.997
  0
LINE
  8
0
 10
1224.57
 20
52.997
 11
1213.43
 21
54.548
  0
LINE
  8
0
 10
1213.43
 20
54.548
 11
1203.55
 21
57.133
  0
LINE
  8
0
 10
1203.55
 20
57.133
 11
1194.92
 21
60.752
  0
LINE
  8
0
 10
1194.92
 20
60.752
 11
1187.37
 21
65.1697
  0
LINE
  8
0
 10
1187.37
 20
65.1697
 11
1180.71
 21
70.147
  0
LINE
  8
0
 10
1180.71
 20
70.147
 11
1174.96
 21
75.6837
  0
LINE
  8
0
 10
1174.96
 20
75.6837
 11
1170.1
 21
81.78
  0
LINE
  8
0
 10
1170.1
 20
81.78
 11
1165.77
 21
88.546
  0
LINE
  8
0
 10
1165.77
 20
88.546
 11
1161.59
 21
96.092
  0
LINE
  8
0
 10
1161.59
 20
96.092
 11
1157.56
 21
104.418
  0
LINE
  8
0
 10
1157.56
 20
104.418
 11
1153.69
 21
113.524
  0
LINE
  8
0
 10
1153.69
 20
113.524
 11
1150.4
 21
121.036
  0
LINE
  8
0
 10
1150.4
 20
121.036
 11
1146.8
 21
127.565
  0
LINE
  8
0
 10
1146.8
 20
127.565
 11
1142.88
 21
133.11
  0
LINE
  8
0
 10
1142.88
 20
133.11
 11
1138.63
 21
137.672
  0
LINE
  8
0
 10
1138.63
 20
137.672
 11
1133.98
 21
141.233
  0
LINE
  8
0
 10
1133.98
 20
141.233
 11
1128.83
 21
143.777
  0
LINE
  8
0
 10
1128.83
 20
143.777
 11
1123.2
 21
145.303
  0
LINE
  8
0
 10
1123.2
 20
145.303
 11
1117.07
 21
145.812
  0
LINE
  8
0
 10
1117.07
 20
145.812
 11
1109.55
 21
145.159
  0
LINE
  8
0
 10
1109.55
 20
145.159
 11
1102.73
 21
143.2
  0
LINE
  8
0
 10
1102.73
 20
143.2
 11
1096.6
 21
139.935
  0
LINE
  8
0
 10
1096.6
 20
139.935
 11
1091.17
 21
135.364
  0
LINE
  8
0
 10
1091.17
 20
135.364
 11
1086.72
 21
129.879
  0
LINE
  8
0
 10
1086.72
 20
129.879
 11
1083.54
 21
123.869
  0
LINE
  8
0
 10
1083.54
 20
123.869
 11
1081.63
 21
117.333
  0
LINE
  8
0
 10
1081.63
 20
117.333
 11
1080.99
 21
110.272
  0
LINE
  8
0
 10
1080.99
 20
110.272
 11
1082.05
 21
97.5627
  0
LINE
  8
0
 10
1082.05
 20
97.5627
 11
1085.23
 21
84.667
  0
LINE
  8
0
 10
1085.23
 20
84.667
 11
1090.53
 21
71.5847
  0
LINE
  8
0
 10
1090.53
 20
71.5847
 11
1097.95
 21
58.316
  0
LINE
  8
0
 10
1097.95
 20
58.316
 11
1107.06
 21
45.6255
  0
LINE
  8
0
 10
1107.06
 20
45.6255
 11
1117.44
 21
34.274
  0
LINE
  8
0
 10
1117.44
 20
34.274
 11
1129.1
 21
24.2615
  0
LINE
  8
0
 10
1129.1
 20
24.2615
 11
1142.02
 21
15.588
  0
LINE
  8
0
 10
1142.02
 20
15.588
 11
1162.43
 21
5.85625
  0
LINE
  8
0
 10
1162.43
 20
5.85625
 11
1185.42
 21
-1.09499
  0
LINE
  8
0
 10
1185.42
 20
-1.09499
 11
1210.99
 21
-5.26575
  0
LINE
  8
0
 10
1210.99
 20
-5.26575
 11
1239.13
 21
-6.65599
  0
LINE
  8
0
 10
1239.13
 20
-6.65599
 11
1262.85
 21
-5.63875
  0
LINE
  8
0
 10
1644.11
 20
-5.89325
 11
1651.9
 21
-3.605
  0
LINE
  8
0
 10
1651.9
 20
-3.605
 11
1658.83
 21
0.20874
  0
LINE
  8
0
 10
1658.83
 20
0.20874
 11
1664.89
 21
5.54799
  0
LINE
  8
0
 10
1664.89
 20
5.54799
 11
1669.81
 21
12.4297
  0
LINE
  8
0
 10
1669.81
 20
12.4297
 11
1673.33
 21
20.871
  0
LINE
  8
0
 10
1673.33
 20
20.871
 11
1675.44
 21
30.8717
  0
LINE
  8
0
 10
1675.44
 20
30.8717
 11
1676.14
 21
42.432
  0
LINE
  8
0
 10
1676.14
 20
42.432
 11
1676.14
 21
355.664
  0
LINE
  8
0
 10
1676.14
 20
355.664
 11
1675.44
 21
367.216
  0
LINE
  8
0
 10
1675.44
 20
367.216
 11
1673.33
 21
377.191
  0
LINE
  8
0
 10
1673.33
 20
377.191
 11
1669.81
 21
385.59
  0
LINE
  8
0
 10
1669.81
 20
385.59
 11
1664.89
 21
392.412
  0
LINE
  8
0
 10
1664.89
 20
392.412
 11
1658.83
 21
397.692
  0
LINE
  8
0
 10
1658.83
 20
397.692
 11
1651.9
 21
401.463
  0
LINE
  8
0
 10
1651.9
 20
401.463
 11
1644.11
 21
403.726
  0
LINE
  8
0
 10
1644.11
 20
403.726
 11
1635.45
 21
404.48
  0
LINE
  8
0
 10
1635.45
 20
404.48
 11
1627.05
 21
403.717
  0
LINE
  8
0
 10
1627.05
 20
403.717
 11
1619.45
 21
401.429
  0
LINE
  8
0
 10
1619.45
 20
401.429
 11
1612.67
 21
397.615
  0
LINE
  8
0
 10
1612.67
 20
397.615
 11
1606.7
 21
392.276
  0
LINE
  8
0
 10
1606.7
 20
392.276
 11
1601.84
 21
385.411
  0
LINE
  8
0
 10
1601.84
 20
385.411
 11
1598.36
 21
377.021
  0
LINE
  8
0
 10
1598.36
 20
377.021
 11
1596.28
 21
367.105
  0
LINE
  8
0
 10
1596.28
 20
367.105
 11
1595.58
 21
355.664
  0
LINE
  8
0
 10
1595.58
 20
355.664
 11
1595.58
 21
42.432
  0
LINE
  8
0
 10
1595.58
 20
42.432
 11
1596.29
 21
30.9822
  0
LINE
  8
0
 10
1596.29
 20
30.9822
 11
1598.4
 21
21.041
  0
LINE
  8
0
 10
1598.4
 20
21.041
 11
1601.91
 21
12.6082
  0
LINE
  8
0
 10
1601.91
 20
12.6082
 11
1606.84
 21
5.68399
  0
LINE
  8
0
 10
1606.84
 20
5.68399
 11
1612.85
 21
0.285248
  0
LINE
  8
0
 10
1612.85
 20
0.285248
 11
1619.62
 21
-3.571
  0
LINE
  8
0
 10
1619.62
 20
-3.571
 11
1627.16
 21
-5.88474
  0
LINE
  8
0
 10
1627.16
 20
-5.88474
 11
1635.45
 21
-6.65599
  0
LINE
  8
0
 10
1635.45
 20
-6.65599
 11
1644.11
 21
-5.89325
  0
LINE
  8
0
 10
1930.16
 20
-5.63875
 11
1952.21
 21
-2.58699
  0
LINE
  8
0
 10
1952.21
 20
-2.58699
 11
1972.61
 21
2.49924
  0
LINE
  8
0
 10
1972.61
 20
2.49924
 11
1991.34
 21
9.62
  0
LINE
  8
0
 10
1991.34
 20
9.62
 11
2008.17
 21
18.5397
  0
LINE
  8
0
 10
2008.17
 20
18.5397
 11
2022.84
 21
29.019
  0
LINE
  8
0
 10
2022.84
 20
29.019
 11
2035.36
 21
41.0577
  0
LINE
  8
0
 10
2035.36
 20
41.0577
 11
2045.73
 21
54.656
  0
LINE
  8
0
 10
2045.73
 20
54.656
 11
2053.86
 21
69.4917
  0
LINE
  8
0
 10
2053.86
 20
69.4917
 11
2059.66
 21
85.243
  0
LINE
  8
0
 10
2059.66
 20
85.243
 11
2063.15
 21
101.91
  0
LINE
  8
0
 10
2063.15
 20
101.91
 11
2064.31
 21
119.492
  0
LINE
  8
0
 10
2064.31
 20
119.492
 11
2063.64
 21
133.965
  0
LINE
  8
0
 10
2063.64
 20
133.965
 11
2061.63
 21
147.267
  0
LINE
  8
0
 10
2061.63
 20
147.267
 11
2058.28
 21
159.399
  0
LINE
  8
0
 10
2058.28
 20
159.399
 11
2053.59
 21
170.36
  0
LINE
  8
0
 10
2053.59
 20
170.36
 11
2047.71
 21
180.288
  0
LINE
  8
0
 10
2047.71
 20
180.288
 11
2040.78
 21
189.318
  0
LINE
  8
0
 10
2040.78
 20
189.318
 11
2032.79
 21
197.448
  0
LINE
  8
0
 10
2032.79
 20
197.448
 11
2023.75
 21
204.68
  0
LINE
  8
0
 10
2023.75
 20
204.68
 11
2013.68
 21
211.209
  0
LINE
  8
0
 10
2013.68
 20
211.209
 11
2002.6
 21
217.23
  0
LINE
  8
0
 10
2002.6
 20
217.23
 11
1990.49
 21
222.741
  0
LINE
  8
0
 10
1990.49
 20
222.741
 11
1977.37
 21
227.744
  0
LINE
  8
0
 10
1977.37
 20
227.744
 11
1963.34
 21
232.39
  0
LINE
  8
0
 10
1963.34
 20
232.39
 11
1948.52
 21
236.833
  0
LINE
  8
0
 10
1948.52
 20
236.833
 11
1932.89
 21
241.072
  0
LINE
  8
0
 10
1932.89
 20
241.072
 11
1916.47
 21
245.108
  0
LINE
  8
0
 10
1916.47
 20
245.108
 11
1904
 21
248.296
  0
LINE
  8
0
 10
1904
 20
248.296
 11
1893.42
 21
251.077
  0
LINE
  8
0
 10
1893.42
 20
251.077
 11
1884.74
 21
253.45
  0
LINE
  8
0
 10
1884.74
 20
253.45
 11
1877.96
 21
255.416
  0
LINE
  8
0
 10
1877.96
 20
255.416
 11
1872.14
 21
257.349
  0
LINE
  8
0
 10
1872.14
 20
257.349
 11
1866.36
 21
259.622
  0
LINE
  8
0
 10
1866.36
 20
259.622
 11
1860.62
 21
262.233
  0
LINE
  8
0
 10
1860.62
 20
262.233
 11
1854.9
 21
265.184
  0
LINE
  8
0
 10
1854.9
 20
265.184
 11
1849.51
 21
268.456
  0
LINE
  8
0
 10
1849.51
 20
268.456
 11
1844.73
 21
272.034
  0
LINE
  8
0
 10
1844.73
 20
272.034
 11
1840.56
 21
275.916
  0
LINE
  8
0
 10
1840.56
 20
275.916
 11
1837
 21
280.104
  0
LINE
  8
0
 10
1837
 20
280.104
 11
1834.15
 21
284.649
  0
LINE
  8
0
 10
1834.15
 20
284.649
 11
1832.12
 21
289.602
  0
LINE
  8
0
 10
1832.12
 20
289.602
 11
1830.9
 21
294.961
  0
LINE
  8
0
 10
1830.9
 20
294.961
 11
1830.49
 21
300.728
  0
LINE
  8
0
 10
1830.49
 20
300.728
 11
1831.69
 21
310.01
  0
LINE
  8
0
 10
1831.69
 20
310.01
 11
1835.27
 21
318.598
  0
LINE
  8
0
 10
1835.27
 20
318.598
 11
1841.25
 21
326.49
  0
LINE
  8
0
 10
1841.25
 20
326.49
 11
1849.61
 21
333.688
  0
LINE
  8
0
 10
1849.61
 20
333.688
 11
1859.93
 21
339.683
  0
LINE
  8
0
 10
1859.93
 20
339.683
 11
1871.75
 21
343.966
  0
LINE
  8
0
 10
1871.75
 20
343.966
 11
1885.09
 21
346.535
  0
LINE
  8
0
 10
1885.09
 20
346.535
 11
1899.93
 21
347.392
  0
LINE
  8
0
 10
1899.93
 20
347.392
 11
1915.6
 21
346.601
  0
LINE
  8
0
 10
1915.6
 20
346.601
 11
1928.95
 21
344.23
  0
LINE
  8
0
 10
1928.95
 20
344.23
 11
1940.01
 21
340.277
  0
LINE
  8
0
 10
1940.01
 20
340.277
 11
1948.75
 21
334.744
  0
LINE
  8
0
 10
1948.75
 20
334.744
 11
1956.08
 21
327.799
  0
LINE
  8
0
 10
1956.08
 20
327.799
 11
1962.86
 21
319.614
  0
LINE
  8
0
 10
1962.86
 20
319.614
 11
1969.1
 21
310.188
  0
LINE
  8
0
 10
1969.1
 20
310.188
 11
1974.79
 21
299.52
  0
LINE
  8
0
 10
1974.79
 20
299.52
 11
1978.92
 21
292.233
  0
LINE
  8
0
 10
1978.92
 20
292.233
 11
1982.9
 21
286.043
  0
LINE
  8
0
 10
1982.9
 20
286.043
 11
1986.72
 21
280.951
  0
LINE
  8
0
 10
1986.72
 20
280.951
 11
1990.39
 21
276.956
  0
LINE
  8
0
 10
1990.39
 20
276.956
 11
1994.4
 21
273.942
  0
LINE
  8
0
 10
1994.4
 20
273.942
 11
1999.24
 21
271.79
  0
LINE
  8
0
 10
1999.24
 20
271.79
 11
2004.91
 21
270.498
  0
LINE
  8
0
 10
2004.91
 20
270.498
 11
2011.41
 21
270.068
  0
LINE
  8
0
 10
2011.41
 20
270.068
 11
2018.69
 21
270.788
  0
LINE
  8
0
 10
2018.69
 20
270.788
 11
2025.35
 21
272.947
  0
LINE
  8
0
 10
2025.35
 20
272.947
 11
2031.37
 21
276.546
  0
LINE
  8
0
 10
2031.37
 20
276.546
 11
2036.77
 21
281.584
  0
LINE
  8
0
 10
2036.77
 20
281.584
 11
2041.22
 21
287.521
  0
LINE
  8
0
 10
2041.22
 20
287.521
 11
2044.4
 21
293.814
  0
LINE
  8
0
 10
2044.4
 20
293.814
 11
2046.31
 21
300.461
  0
LINE
  8
0
 10
2046.31
 20
300.461
 11
2046.95
 21
307.464
  0
LINE
  8
0
 10
2046.95
 20
307.464
 11
2046.44
 21
315.374
  0
LINE
  8
0
 10
2046.44
 20
315.374
 11
2044.91
 21
323.386
  0
LINE
  8
0
 10
2044.91
 20
323.386
 11
2042.37
 21
331.498
  0
LINE
  8
0
 10
2042.37
 20
331.498
 11
2038.81
 21
339.712
  0
LINE
  8
0
 10
2038.81
 20
339.712
 11
2034.14
 21
347.885
  0
LINE
  8
0
 10
2034.14
 20
347.885
 11
2028.3
 21
355.871
  0
LINE
  8
0
 10
2028.3
 20
355.871
 11
2021.26
 21
363.671
  0
LINE
  8
0
 10
2021.26
 20
363.671
 11
2013.04
 21
371.284
  0
LINE
  8
0
 10
2013.04
 20
371.284
 11
2003.66
 21
378.431
  0
LINE
  8
0
 10
2003.66
 20
378.431
 11
1993.14
 21
384.833
  0
LINE
  8
0
 10
1993.14
 20
384.833
 11
1981.48
 21
390.489
  0
LINE
  8
0
 10
1981.48
 20
390.489
 11
1968.69
 21
395.4
  0
LINE
  8
0
 10
1968.69
 20
395.4
 11
1954.71
 21
399.372
  0
LINE
  8
0
 10
1954.71
 20
399.372
 11
1939.5
 21
402.21
  0
LINE
  8
0
 10
1939.5
 20
402.21
 11
1923.04
 21
403.912
  0
LINE
  8
0
 10
1923.04
 20
403.912
 11
1905.35
 21
404.48
  0
LINE
  8
0
 10
1905.35
 20
404.48
 11
1883.18
 21
403.624
  0
LINE
  8
0
 10
1883.18
 20
403.624
 11
1862.49
 21
401.057
  0
LINE
  8
0
 10
1862.49
 20
401.057
 11
1843.3
 21
396.778
  0
LINE
  8
0
 10
1843.3
 20
396.778
 11
1825.6
 21
390.788
  0
LINE
  8
0
 10
1825.6
 20
390.788
 11
1809.65
 21
383.205
  0
LINE
  8
0
 10
1809.65
 20
383.205
 11
1795.7
 21
374.147
  0
LINE
  8
0
 10
1795.7
 20
374.147
 11
1783.75
 21
363.615
  0
LINE
  8
0
 10
1783.75
 20
363.615
 11
1773.79
 21
351.608
  0
LINE
  8
0
 10
1773.79
 20
351.608
 11
1765.96
 21
338.408
  0
LINE
  8
0
 10
1765.96
 20
338.408
 11
1760.37
 21
324.294
  0
LINE
  8
0
 10
1760.37
 20
324.294
 11
1757.01
 21
309.264
  0
LINE
  8
0
 10
1757.01
 20
309.264
 11
1755.89
 21
293.32
  0
LINE
  8
0
 10
1755.89
 20
293.32
 11
1756.95
 21
276.807
  0
LINE
  8
0
 10
1756.95
 20
276.807
 11
1760.13
 21
261.7
  0
LINE
  8
0
 10
1760.13
 20
261.7
 11
1765.43
 21
247.999
  0
LINE
  8
0
 10
1765.43
 20
247.999
 11
1772.85
 21
235.704
  0
LINE
  8
0
 10
1772.85
 20
235.704
 11
1782.07
 21
224.724
  0
LINE
  8
0
 10
1782.07
 20
224.724
 11
1792.79
 21
214.964
  0
LINE
  8
0
 10
1792.79
 20
214.964
 11
1804.99
 21
206.424
  0
LINE
  8
0
 10
1804.99
 20
206.424
 11
1818.69
 21
199.104
  0
LINE
  8
0
 10
1818.69
 20
199.104
 11
1834.01
 21
192.606
  0
LINE
  8
0
 10
1834.01
 20
192.606
 11
1851.07
 21
186.531
  0
LINE
  8
0
 10
1851.07
 20
186.531
 11
1869.88
 21
180.88
  0
LINE
  8
0
 10
1869.88
 20
180.88
 11
1890.43
 21
175.652
  0
LINE
  8
0
 10
1890.43
 20
175.652
 11
1905.63
 21
172.041
  0
LINE
  8
0
 10
1905.63
 20
172.041
 11
1919.22
 21
168.531
  0
LINE
  8
0
 10
1919.22
 20
168.531
 11
1931.2
 21
165.123
  0
LINE
  8
0
 10
1931.2
 20
165.123
 11
1941.57
 21
161.816
  0
LINE
  8
0
 10
1941.57
 20
161.816
 11
1950.69
 21
158.195
  0
LINE
  8
0
 10
1950.69
 20
158.195
 11
1958.93
 21
153.846
  0
LINE
  8
0
 10
1958.93
 20
153.846
 11
1966.28
 21
148.767
  0
LINE
  8
0
 10
1966.28
 20
148.767
 11
1972.76
 21
142.96
  0
LINE
  8
0
 10
1972.76
 20
142.96
 11
1978.04
 21
136.322
  0
LINE
  8
0
 10
1978.04
 20
136.322
 11
1981.81
 21
128.751
  0
LINE
  8
0
 10
1981.81
 20
128.751
 11
1984.08
 21
120.248
  0
LINE
  8
0
 10
1984.08
 20
120.248
 11
1984.83
 21
110.812
  0
LINE
  8
0
 10
1984.83
 20
110.812
 11
1983.43
 21
98.849
  0
LINE
  8
0
 10
1983.43
 20
98.849
 11
1979.24
 21
87.92
  0
LINE
  8
0
 10
1979.24
 20
87.92
 11
1972.24
 21
78.025
  0
LINE
  8
0
 10
1972.24
 20
78.025
 11
1962.45
 21
69.164
  0
LINE
  8
0
 10
1962.45
 20
69.164
 11
1950.42
 21
61.8647
  0
LINE
  8
0
 10
1950.42
 20
61.8647
 11
1936.72
 21
56.651
  0
LINE
  8
0
 10
1936.72
 20
56.651
 11
1921.33
 21
53.5227
  0
LINE
  8
0
 10
1921.33
 20
53.5227
 11
1904.27
 21
52.48
  0
LINE
  8
0
 10
1904.27
 20
52.48
 11
1891.88
 21
52.997
  0
LINE
  8
0
 10
1891.88
 20
52.997
 11
1880.74
 21
54.548
  0
LINE
  8
0
 10
1880.74
 20
54.548
 11
1870.86
 21
57.133
  0
LINE
  8
0
 10
1870.86
 20
57.133
 11
1862.23
 21
60.752
  0
LINE
  8
0
 10
1862.23
 20
60.752
 11
1854.67
 21
65.1697
  0
LINE
  8
0
 10
1854.67
 20
65.1697
 11
1848.02
 21
70.147
  0
LINE
  8
0
 10
1848.02
 20
70.147
 11
1842.26
 21
75.6837
  0
LINE
  8
0
 10
1842.26
 20
75.6837
 11
1837.41
 21
81.78
  0
LINE
  8
0
 10
1837.41
 20
81.78
 11
1833.07
 21
88.546
  0
LINE
  8
0
 10
1833.07
 20
88.546
 11
1828.9
 21
96.092
  0
LINE
  8
0
 10
1828.9
 20
96.092
 11
1824.87
 21
104.418
  0
LINE
  8
0
 10
1824.87
 20
104.418
 11
1820.99
 21
113.524
  0
LINE
  8
0
 10
1820.99
 20
113.524
 11
1817.71
 21
121.036
  0
LINE
  8
0
 10
1817.71
 20
121.036
 11
1814.11
 21
127.565
  0
LINE
  8
0
 10
1814.11
 20
127.565
 11
1810.19
 21
133.11
  0
LINE
  8
0
 10
1810.19
 20
133.11
 11
1805.94
 21
137.672
  0
LINE
  8
0
 10
1805.94
 20
137.672
 11
1801.29
 21
141.233
  0
LINE
  8
0
 10
1801.29
 20
141.233
 11
1796.14
 21
143.777
  0
LINE
  8
0
 10
1796.14
 20
143.777
 11
1790.51
 21
145.303
  0
LINE
  8
0
 10
1790.51
 20
145.303
 11
1784.38
 21
145.812
  0
LINE
  8
0
 10
1784.38
 20
145.812
 11
1776.86
 21
145.159
  0
LINE
  8
0
 10
1776.86
 20
145.159
 11
1770.04
 21
143.2
  0
LINE
  8
0
 10
1770.04
 20
143.2
 11
1763.91
 21
139.935
  0
LINE
  8
0
 10
1763.91
 20
139.935
 11
1758.47
 21
135.364
  0
LINE
  8
0
 10
1758.47
 20
135.364
 11
1754.02
 21
129.879
  0
LINE
  8
0
 10
1754.02
 20
129.879
 11
1750.85
 21
123.869
  0
LINE
  8
0
 10
1750.85
 20
123.869
 11
1748.94
 21
117.333
  0
LINE
  8
0
 10
1748.94
 20
117.333
 11
1748.3
 21
110.272
  0
LINE
  8
0
 10
1748.3
 20
110.272
 11
1749.36
 21
97.5627
  0
LINE
  8
0
 10
1749.36
 20
97.5627
 11
1752.54
 21
84.667
  0
LINE
  8
0
 10
1752.54
 20
84.667
 11
1757.84
 21
71.5847
  0
LINE
  8
0
 10
1757.84
 20
71.5847
 11
1765.25
 21
58.316
  0
LINE
  8
0
 10
1765.25
 20
58.316
 11
1774.37
 21
45.6255
  0
LINE
  8
0
 10
1774.37
 20
45.6255
 11
1784.75
 21
34.274
  0
LINE
  8
0
 10
1784.75
 20
34.274
 11
1796.4
 21
24.2615
  0
LINE
  8
0
 10
1796.4
 20
24.2615
 11
1809.33
 21
15.588
  0
LINE
  8
0
 10
1809.33
 20
15.588
 11
1829.74
 21
5.85625
  0
LINE
  8
0
 10
1829.74
 20
5.85625
 11
1852.73
 21
-1.09499
  0
LINE
  8
0
 10
1852.73
 20
-1.09499
 11
1878.3
 21
-5.26575
  0
LINE
  8
0
 10
1878.3
 20
-5.26575
 11
1906.44
 21
-6.65599
  0
LINE
  8
0
 10
1906.44
 20
-6.65599
 11
1930.16
 21
-5.63875
  0
LINE
  8
0
 10
2910.96
 20
-5.74074
 11
2932.44
 21
-2.995
  0
LINE
  8
0
 10
2932.44
 20
-2.995
 11
2952.6
 21
1.58124
  0
LINE
  8
0
 10
2952.6
 20
1.58124
 11
2971.43
 21
7.98799
  0
LINE
  8
0
 10
2971.43
 20
7.98799
 11
2988.89
 21
16.1235
  0
LINE
  8
0
 10
2988.89
 20
16.1235
 11
3004.93
 21
25.886
  0
LINE
  8
0
 10
3004.93
 20
25.886
 11
3019.54
 21
37.2755
  0
LINE
  8
0
 10
3019.54
 20
37.2755
 11
3032.73
 21
50.292
  0
LINE
  8
0
 10
3032.73
 20
50.292
 11
3044.43
 21
64.751
  0
LINE
  8
0
 10
3044.43
 20
64.751
 11
3054.57
 21
80.464
  0
LINE
  8
0
 10
3054.57
 20
80.464
 11
3063.15
 21
97.431
  0
LINE
  8
0
 10
3063.15
 20
97.431
 11
3070.16
 21
115.652
  0
LINE
  8
0
 10
3070.16
 20
115.652
 11
3075.62
 21
135.027
  0
LINE
  8
0
 10
3075.62
 20
135.027
 11
3079.52
 21
155.453
  0
LINE
  8
0
 10
3079.52
 20
155.453
 11
3081.86
 21
176.929
  0
LINE
  8
0
 10
3081.86
 20
176.929
 11
3082.64
 21
199.456
  0
LINE
  8
0
 10
3082.64
 20
199.456
 11
3081.22
 21
229.634
  0
LINE
  8
0
 10
3081.22
 20
229.634
 11
3076.95
 21
257.795
  0
LINE
  8
0
 10
3076.95
 20
257.795
 11
3069.83
 21
283.94
  0
LINE
  8
0
 10
3069.83
 20
283.94
 11
3059.86
 21
308.068
  0
LINE
  8
0
 10
3059.86
 20
308.068
 11
3047.12
 21
329.866
  0
LINE
  8
0
 10
3047.12
 20
329.866
 11
3031.68
 21
349.019
  0
LINE
  8
0
 10
3031.68
 20
349.019
 11
3013.55
 21
365.528
  0
LINE
  8
0
 10
3013.55
 20
365.528
 11
2992.72
 21
379.392
  0
LINE
  8
0
 10
2992.72
 20
379.392
 11
2969.45
 21
390.368
  0
LINE
  8
0
 10
2969.45
 20
390.368
 11
2944
 21
398.208
  0
LINE
  8
0
 10
2944
 20
398.208
 11
2916.36
 21
402.912
  0
LINE
  8
0
 10
2916.36
 20
402.912
 11
2886.53
 21
404.48
  0
LINE
  8
0
 10
2886.53
 20
404.48
 11
2864.35
 21
403.59
  0
LINE
  8
0
 10
2864.35
 20
403.59
 11
2843.4
 21
400.92
  0
LINE
  8
0
 10
2843.4
 20
400.92
 11
2823.67
 21
396.47
  0
LINE
  8
0
 10
2823.67
 20
396.47
 11
2805.15
 21
390.24
  0
LINE
  8
0
 10
2805.15
 20
390.24
 11
2787.93
 21
382.334
  0
LINE
  8
0
 10
2787.93
 20
382.334
 11
2772.06
 21
372.851
  0
LINE
  8
0
 10
2772.06
 20
372.851
 11
2757.55
 21
361.792
  0
LINE
  8
0
 10
2757.55
 20
361.792
 11
2744.39
 21
349.156
  0
LINE
  8
0
 10
2744.39
 20
349.156
 11
2732.65
 21
335.02
  0
LINE
  8
0
 10
2732.65
 20
335.02
 11
2722.39
 21
319.46
  0
LINE
  8
0
 10
2722.39
 20
319.46
 11
2713.6
 21
302.476
  0
LINE
  8
0
 10
2713.6
 20
302.476
 11
2706.28
 21
284.068
  0
LINE
  8
0
 10
2706.28
 20
284.068
 11
2700.53
 21
264.473
  0
LINE
  8
0
 10
2700.53
 20
264.473
 11
2696.42
 21
243.93
  0
LINE
  8
0
 10
2696.42
 20
243.93
 11
2693.95
 21
222.437
  0
LINE
  8
0
 10
2693.95
 20
222.437
 11
2693.13
 21
199.996
  0
LINE
  8
0
 10
2693.13
 20
199.996
 11
2693.92
 21
178.012
  0
LINE
  8
0
 10
2693.92
 20
178.012
 11
2696.28
 21
156.807
  0
LINE
  8
0
 10
2696.28
 20
156.807
 11
2700.22
 21
136.382
  0
LINE
  8
0
 10
2700.22
 20
136.382
 11
2705.74
 21
116.736
  0
LINE
  8
0
 10
2705.74
 20
116.736
 11
2712.8
 21
98.1767
  0
LINE
  8
0
 10
2712.8
 20
98.1767
 11
2721.37
 21
81.007
  0
LINE
  8
0
 10
2721.37
 20
81.007
 11
2731.45
 21
65.2267
  0
LINE
  8
0
 10
2731.45
 20
65.2267
 11
2743.04
 21
50.836
  0
LINE
  8
0
 10
2743.04
 20
50.836
 11
2756.14
 21
37.913
  0
LINE
  8
0
 10
2756.14
 20
37.913
 11
2770.77
 21
26.532
  0
LINE
  8
0
 10
2770.77
 20
26.532
 11
2786.93
 21
16.693
  0
LINE
  8
0
 10
2786.93
 20
16.693
 11
2804.61
 21
8.396
  0
LINE
  8
0
 10
2804.61
 20
8.396
 11
2823.67
 21
1.81075
  0
LINE
  8
0
 10
2823.67
 20
1.81075
 11
2843.94
 21
-2.89299
  0
LINE
  8
0
 10
2843.94
 20
-2.89299
 11
2865.44
 21
-5.71524
  0
LINE
  8
0
 10
2865.44
 20
-5.71524
 11
2888.16
 21
-6.65599
  0
LINE
  8
0
 10
2888.16
 20
-6.65599
 11
2910.96
 21
-5.74074
  0
LINE
  8
0
 10
2875.79
 20
57.9032
 11
2864.45
 21
59.581
  0
LINE
  8
0
 10
2864.45
 20
59.581
 11
2853.61
 21
62.3772
  0
LINE
  8
0
 10
2853.61
 20
62.3772
 11
2843.26
 21
66.292
  0
LINE
  8
0
 10
2843.26
 20
66.292
 11
2833.45
 21
71.3355
  0
LINE
  8
0
 10
2833.45
 20
71.3355
 11
2824.21
 21
77.514
  0
LINE
  8
0
 10
2824.21
 20
77.514
 11
2815.54
 21
84.8275
  0
LINE
  8
0
 10
2815.54
 20
84.8275
 11
2807.46
 21
93.276
  0
LINE
  8
0
 10
2807.46
 20
93.276
 11
2800.1
 21
102.879
  0
LINE
  8
0
 10
2800.1
 20
102.879
 11
2793.62
 21
113.651
  0
LINE
  8
0
 10
2793.62
 20
113.651
 11
2788.03
 21
125.593
  0
LINE
  8
0
 10
2788.03
 20
125.593
 11
2783.32
 21
138.704
  0
LINE
  8
0
 10
2783.32
 20
138.704
 11
2779.58
 21
152.807
  0
LINE
  8
0
 10
2779.58
 20
152.807
 11
2776.91
 21
167.723
  0
LINE
  8
0
 10
2776.91
 20
167.723
 11
2775.31
 21
183.453
  0
LINE
  8
0
 10
2775.31
 20
183.453
 11
2774.77
 21
199.996
  0
LINE
  8
0
 10
2774.77
 20
199.996
 11
2775.31
 21
216.395
  0
LINE
  8
0
 10
2775.31
 20
216.395
 11
2776.91
 21
231.963
  0
LINE
  8
0
 10
2776.91
 20
231.963
 11
2779.58
 21
246.701
  0
LINE
  8
0
 10
2779.58
 20
246.701
 11
2783.32
 21
260.608
  0
LINE
  8
0
 10
2783.32
 20
260.608
 11
2787.98
 21
273.5
  0
LINE
  8
0
 10
2787.98
 20
273.5
 11
2793.42
 21
285.188
  0
LINE
  8
0
 10
2793.42
 20
285.188
 11
2799.64
 21
295.672
  0
LINE
  8
0
 10
2799.64
 20
295.672
 11
2806.64
 21
304.952
  0
LINE
  8
0
 10
2806.64
 20
304.952
 11
2814.39
 21
313.113
  0
LINE
  8
0
 10
2814.39
 20
313.113
 11
2822.85
 21
320.24
  0
LINE
  8
0
 10
2822.85
 20
320.24
 11
2832.02
 21
326.333
  0
LINE
  8
0
 10
2832.02
 20
326.333
 11
2841.91
 21
331.392
  0
LINE
  8
0
 10
2841.91
 20
331.392
 11
2852.38
 21
335.368
  0
LINE
  8
0
 10
2852.38
 20
335.368
 11
2863.3
 21
338.208
  0
LINE
  8
0
 10
2863.3
 20
338.208
 11
2874.69
 21
339.912
  0
LINE
  8
0
 10
2874.69
 20
339.912
 11
2886.53
 21
340.48
  0
LINE
  8
0
 10
2886.53
 20
340.48
 11
2903
 21
339.454
  0
LINE
  8
0
 10
2903
 20
339.454
 11
2918.5
 21
336.378
  0
LINE
  8
0
 10
2918.5
 20
336.378
 11
2933.04
 21
331.25
  0
LINE
  8
0
 10
2933.04
 20
331.25
 11
2946.61
 21
324.072
  0
LINE
  8
0
 10
2946.61
 20
324.072
 11
2958.94
 21
314.893
  0
LINE
  8
0
 10
2958.94
 20
314.893
 11
2969.77
 21
303.765
  0
LINE
  8
0
 10
2969.77
 20
303.765
 11
2979.08
 21
290.687
  0
LINE
  8
0
 10
2979.08
 20
290.687
 11
2986.89
 21
275.66
  0
LINE
  8
0
 10
2986.89
 20
275.66
 11
2993.06
 21
258.931
  0
LINE
  8
0
 10
2993.06
 20
258.931
 11
2997.47
 21
240.744
  0
LINE
  8
0
 10
2997.47
 20
240.744
 11
3000.11
 21
221.099
  0
LINE
  8
0
 10
3000.11
 20
221.099
 11
3001
 21
199.996
  0
LINE
  8
0
 10
3001
 20
199.996
 11
3000.04
 21
177.334
  0
LINE
  8
0
 10
3000.04
 20
177.334
 11
2997.16
 21
156.536
  0
LINE
  8
0
 10
2997.16
 20
156.536
 11
2992.37
 21
137.602
  0
LINE
  8
0
 10
2992.37
 20
137.602
 11
2985.67
 21
120.532
  0
LINE
  8
0
 10
2985.67
 20
120.532
 11
2977.34
 21
105.447
  0
LINE
  8
0
 10
2977.34
 20
105.447
 11
2967.7
 21
92.463
  0
LINE
  8
0
 10
2967.7
 20
92.463
 11
2956.73
 21
81.5807
  0
LINE
  8
0
 10
2956.73
 20
81.5807
 11
2944.44
 21
72.8
  0
LINE
  8
0
 10
2944.44
 20
72.8
 11
2931.17
 21
66.038
  0
LINE
  8
0
 10
2931.17
 20
66.038
 11
2917.28
 21
61.208
  0
LINE
  8
0
 10
2917.28
 20
61.208
 11
2902.76
 21
58.31
  0
LINE
  8
0
 10
2902.76
 20
58.31
 11
2887.61
 21
57.344
  0
LINE
  8
0
 10
2887.61
 20
57.344
 11
2875.79
 21
57.9032
  0
LINE
  8
0
 10
648.267
 20
0.550735
 11
656.004
 21
2.20299
  0
LINE
  8
0
 10
656.004
 20
2.20299
 11
662.573
 21
4.95674
  0
LINE
  8
0
 10
662.573
 20
4.95674
 11
667.971
 21
8.812
  0
LINE
  8
0
 10
667.971
 20
8.812
 11
672.185
 21
13.5502
  0
LINE
  8
0
 10
672.185
 20
13.5502
 11
675.195
 21
18.949
  0
LINE
  8
0
 10
675.195
 20
18.949
 11
677.001
 21
25.0082
  0
LINE
  8
0
 10
677.001
 20
25.0082
 11
677.603
 21
31.728
  0
LINE
  8
0
 10
677.603
 20
31.728
 11
677.001
 21
38.6855
  0
LINE
  8
0
 10
677.001
 20
38.6855
 11
675.195
 21
44.914
  0
LINE
  8
0
 10
675.195
 20
44.914
 11
672.185
 21
50.4135
  0
LINE
  8
0
 10
672.185
 20
50.4135
 11
667.971
 21
55.184
  0
LINE
  8
0
 10
667.971
 20
55.184
 11
662.573
 21
59.041
  0
LINE
  8
0
 10
662.573
 20
59.041
 11
656.004
 21
61.796
  0
LINE
  8
0
 10
656.004
 20
61.796
 11
648.267
 21
63.449
  0
LINE
  8
0
 10
648.267
 20
63.449
 11
639.359
 21
64
  0
LINE
  8
0
 10
639.359
 20
64
 11
451.651
 21
64
  0
LINE
  8
0
 10
451.651
 20
64
 11
451.651
 21
177.152
  0
LINE
  8
0
 10
451.651
 20
177.152
 11
618.743
 21
177.152
  0
LINE
  8
0
 10
618.743
 20
177.152
 11
627.491
 21
177.685
  0
LINE
  8
0
 10
627.491
 20
177.685
 11
635.018
 21
179.285
  0
LINE
  8
0
 10
635.018
 20
179.285
 11
641.325
 21
181.951
  0
LINE
  8
0
 10
641.325
 20
181.951
 11
646.411
 21
185.684
  0
LINE
  8
0
 10
646.411
 20
185.684
 11
650.328
 21
190.263
  0
LINE
  8
0
 10
650.328
 20
190.263
 11
653.125
 21
195.469
  0
LINE
  8
0
 10
653.125
 20
195.469
 11
654.804
 21
201.301
  0
LINE
  8
0
 10
654.804
 20
201.301
 11
655.363
 21
207.76
  0
LINE
  8
0
 10
655.363
 20
207.76
 11
654.795
 21
214.2
  0
LINE
  8
0
 10
654.795
 20
214.2
 11
653.091
 21
219.98
  0
LINE
  8
0
 10
653.091
 20
219.98
 11
650.251
 21
225.1
  0
LINE
  8
0
 10
650.251
 20
225.1
 11
646.275
 21
229.56
  0
LINE
  8
0
 10
646.275
 20
229.56
 11
641.147
 21
233.175
  0
LINE
  8
0
 10
641.147
 20
233.175
 11
634.848
 21
235.758
  0
LINE
  8
0
 10
634.848
 20
235.758
 11
627.381
 21
237.307
  0
LINE
  8
0
 10
627.381
 20
237.307
 11
618.743
 21
237.824
  0
LINE
  8
0
 10
618.743
 20
237.824
 11
451.651
 21
237.824
  0
LINE
  8
0
 10
451.651
 20
237.824
 11
451.651
 21
335.616
  0
LINE
  8
0
 10
451.651
 20
335.616
 11
633.119
 21
335.616
  0
LINE
  8
0
 10
633.119
 20
335.616
 11
642.13
 21
336.148
  0
LINE
  8
0
 10
642.13
 20
336.148
 11
649.903
 21
337.746
  0
LINE
  8
0
 10
649.903
 20
337.746
 11
656.438
 21
340.408
  0
LINE
  8
0
 10
656.438
 20
340.408
 11
661.735
 21
344.136
  0
LINE
  8
0
 10
661.735
 20
344.136
 11
665.83
 21
348.744
  0
LINE
  8
0
 10
665.83
 20
348.744
 11
668.755
 21
354.046
  0
LINE
  8
0
 10
668.755
 20
354.046
 11
670.51
 21
360.04
  0
LINE
  8
0
 10
670.51
 20
360.04
 11
671.095
 21
366.728
  0
LINE
  8
0
 10
671.095
 20
366.728
 11
670.51
 21
373.296
  0
LINE
  8
0
 10
670.51
 20
373.296
 11
668.755
 21
379.205
  0
LINE
  8
0
 10
668.755
 20
379.205
 11
665.83
 21
384.454
  0
LINE
  8
0
 10
665.83
 20
384.454
 11
661.735
 21
389.044
  0
LINE
  8
0
 10
661.735
 20
389.044
 11
656.438
 21
392.773
  0
LINE
  8
0
 10
656.438
 20
392.773
 11
649.903
 21
395.437
  0
LINE
  8
0
 10
649.903
 20
395.437
 11
642.13
 21
397.035
  0
LINE
  8
0
 10
642.13
 20
397.035
 11
633.119
 21
397.568
  0
LINE
  8
0
 10
633.119
 20
397.568
 11
420.459
 21
397.568
  0
LINE
  8
0
 10
420.459
 20
397.568
 11
412.297
 21
397.254
  0
LINE
  8
0
 10
412.297
 20
397.254
 11
404.896
 21
396.313
  0
LINE
  8
0
 10
404.896
 20
396.313
 11
398.259
 21
394.744
  0
LINE
  8
0
 10
398.259
 20
394.744
 11
392.383
 21
392.548
  0
LINE
  8
0
 10
392.383
 20
392.548
 11
387.256
 21
389.667
  0
LINE
  8
0
 10
387.256
 20
389.667
 11
382.856
 21
386.04
  0
LINE
  8
0
 10
382.856
 20
386.04
 11
379.186
 21
381.667
  0
LINE
  8
0
 10
379.186
 20
381.667
 11
376.243
 21
376.548
  0
LINE
  8
0
 10
376.243
 20
376.548
 11
373.989
 21
370.659
  0
LINE
  8
0
 10
373.989
 20
370.659
 11
372.379
 21
363.974
  0
LINE
  8
0
 10
372.379
 20
363.974
 11
371.413
 21
356.491
  0
LINE
  8
0
 10
371.413
 20
356.491
 11
371.091
 21
348.212
  0
LINE
  8
0
 10
371.091
 20
348.212
 11
371.091
 21
49.356
  0
LINE
  8
0
 10
371.091
 20
49.356
 11
371.812
 21
37.238
  0
LINE
  8
0
 10
371.812
 20
37.238
 11
373.973
 21
26.916
  0
LINE
  8
0
 10
373.973
 20
26.916
 11
377.576
 21
18.39
  0
LINE
  8
0
 10
377.576
 20
18.39
 11
382.619
 21
11.66
  0
LINE
  8
0
 10
382.619
 20
11.66
 11
389.307
 21
6.55875
  0
LINE
  8
0
 10
389.307
 20
6.55875
 11
397.843
 21
2.91499
  0
LINE
  8
0
 10
397.843
 20
2.91499
 11
408.227
 21
0.728745
  0
LINE
  8
0
 10
408.227
 20
0.728745
 11
420.459
 21
0
  0
LINE
  8
0
 10
420.459
 20
0
 11
639.359
 21
0
  0
LINE
  8
0
 10
639.359
 20
0
 11
648.267
 21
0.550735
  0
LINE
  8
0
 10
2610.33
 20
-5.94449
 11
2617.58
 21
-3.81
  0
LINE
  8
0
 10
2617.58
 20
-3.81
 11
2623.96
 21
-0.252487
  0
LINE
  8
0
 10
2623.96
 20
-0.252487
 11
2629.48
 21
4.728
  0
LINE
  8
0
 10
2629.48
 20
4.728
 11
2633.93
 21
11.1337
  0
LINE
  8
0
 10
2633.93
 20
11.1337
 11
2637.11
 21
18.963
  0
LINE
  8
0
 10
2637.11
 20
18.963
 11
2639.02
 21
28.2157
  0
LINE
  8
0
 10
2639.02
 20
28.2157
 11
2639.65
 21
38.892
  0
LINE
  8
0
 10
2639.65
 20
38.892
 11
2639.65
 21
353.376
  0
LINE
  8
0
 10
2639.65
 20
353.376
 11
2638.81
 21
365.331
  0
LINE
  8
0
 10
2638.81
 20
365.331
 11
2636.26
 21
375.167
  0
LINE
  8
0
 10
2636.26
 20
375.167
 11
2632.02
 21
382.885
  0
LINE
  8
0
 10
2632.02
 20
382.885
 11
2626.09
 21
388.484
  0
LINE
  8
0
 10
2626.09
 20
388.484
 11
2618.72
 21
392.458
  0
LINE
  8
0
 10
2618.72
 20
392.458
 11
2610.16
 21
395.297
  0
LINE
  8
0
 10
2610.16
 20
395.297
 11
2600.41
 21
397
  0
LINE
  8
0
 10
2600.41
 20
397
 11
2589.47
 21
397.568
  0
LINE
  8
0
 10
2589.47
 20
397.568
 11
2564.52
 21
397.568
  0
LINE
  8
0
 10
2564.52
 20
397.568
 11
2554.03
 21
397.314
  0
LINE
  8
0
 10
2554.03
 20
397.314
 11
2545.09
 21
396.551
  0
LINE
  8
0
 10
2545.09
 20
396.551
 11
2537.69
 21
395.28
  0
LINE
  8
0
 10
2537.69
 20
395.28
 11
2531.83
 21
393.5
  0
LINE
  8
0
 10
2531.83
 20
393.5
 11
2527.08
 21
391.061
  0
LINE
  8
0
 10
2527.08
 20
391.061
 11
2522.98
 21
387.808
  0
LINE
  8
0
 10
2522.98
 20
387.808
 11
2519.55
 21
383.741
  0
LINE
  8
0
 10
2519.55
 20
383.741
 11
2516.78
 21
378.86
  0
LINE
  8
0
 10
2516.78
 20
378.86
 11
2514.25
 21
372.743
  0
LINE
  8
0
 10
2514.25
 20
372.743
 11
2511.56
 21
364.966
  0
LINE
  8
0
 10
2511.56
 20
364.966
 11
2508.69
 21
355.527
  0
LINE
  8
0
 10
2508.69
 20
355.527
 11
2505.66
 21
344.428
  0
LINE
  8
0
 10
2505.66
 20
344.428
 11
2447.88
 21
126.72
  0
LINE
  8
0
 10
2447.88
 20
126.72
 11
2390.11
 21
344.428
  0
LINE
  8
0
 10
2390.11
 20
344.428
 11
2387.07
 21
355.527
  0
LINE
  8
0
 10
2387.07
 20
355.527
 11
2384.21
 21
364.966
  0
LINE
  8
0
 10
2384.21
 20
364.966
 11
2381.51
 21
372.743
  0
LINE
  8
0
 10
2381.51
 20
372.743
 11
2378.98
 21
378.86
  0
LINE
  8
0
 10
2378.98
 20
378.86
 11
2376.21
 21
383.741
  0
LINE
  8
0
 10
2376.21
 20
383.741
 11
2372.78
 21
387.808
  0
LINE
  8
0
 10
2372.78
 20
387.808
 11
2368.69
 21
391.061
  0
LINE
  8
0
 10
2368.69
 20
391.061
 11
2363.93
 21
393.5
  0
LINE
  8
0
 10
2363.93
 20
393.5
 11
2358.07
 21
395.28
  0
LINE
  8
0
 10
2358.07
 20
395.28
 11
2350.67
 21
396.551
  0
LINE
  8
0
 10
2350.67
 20
396.551
 11
2341.73
 21
397.314
  0
LINE
  8
0
 10
2341.73
 20
397.314
 11
2331.24
 21
397.568
  0
LINE
  8
0
 10
2331.24
 20
397.568
 11
2306.29
 21
397.568
  0
LINE
  8
0
 10
2306.29
 20
397.568
 11
2295.35
 21
397
  0
LINE
  8
0
 10
2295.35
 20
397
 11
2285.6
 21
395.297
  0
LINE
  8
0
 10
2285.6
 20
395.297
 11
2277.04
 21
392.458
  0
LINE
  8
0
 10
2277.04
 20
392.458
 11
2269.67
 21
388.484
  0
LINE
  8
0
 10
2269.67
 20
388.484
 11
2263.73
 21
382.885
  0
LINE
  8
0
 10
2263.73
 20
382.885
 11
2259.5
 21
375.167
  0
LINE
  8
0
 10
2259.5
 20
375.167
 11
2256.95
 21
365.331
  0
LINE
  8
0
 10
2256.95
 20
365.331
 11
2256.11
 21
353.376
  0
LINE
  8
0
 10
2256.11
 20
353.376
 11
2256.11
 21
38.892
  0
LINE
  8
0
 10
2256.11
 20
38.892
 11
2256.75
 21
28.107
  0
LINE
  8
0
 10
2256.75
 20
28.107
 11
2258.68
 21
18.796
  0
LINE
  8
0
 10
2258.68
 20
18.796
 11
2261.9
 21
10.959
  0
LINE
  8
0
 10
2261.9
 20
10.959
 11
2266.41
 21
4.59599
  0
LINE
  8
0
 10
2266.41
 20
4.59599
 11
2271.94
 21
-0.326736
  0
LINE
  8
0
 10
2271.94
 20
-0.326736
 11
2278.21
 21
-3.84299
  0
LINE
  8
0
 10
2278.21
 20
-3.84299
 11
2285.23
 21
-5.95274
  0
LINE
  8
0
 10
2285.23
 20
-5.95274
 11
2293
 21
-6.65599
  0
LINE
  8
0
 10
2293
 20
-6.65599
 11
2300.99
 21
-5.94424
  0
LINE
  8
0
 10
2300.99
 20
-5.94424
 11
2308.15
 21
-3.80899
  0
LINE
  8
0
 10
2308.15
 20
-3.80899
 11
2314.49
 21
-0.250244
  0
LINE
  8
0
 10
2314.49
 20
-0.250244
 11
2319.99
 21
4.73199
  0
LINE
  8
0
 10
2319.99
 20
4.73199
 11
2324.44
 21
11.1397
  0
LINE
  8
0
 10
2324.44
 20
11.1397
 11
2327.62
 21
18.971
  0
LINE
  8
0
 10
2327.62
 20
18.971
 11
2329.52
 21
28.2257
  0
LINE
  8
0
 10
2329.52
 20
28.2257
 11
2330.16
 21
38.904
  0
LINE
  8
0
 10
2330.16
 20
38.904
 11
2330.16
 21
313.344
  0
LINE
  8
0
 10
2330.16
 20
313.344
 11
2393.9
 21
60.056
  0
LINE
  8
0
 10
2393.9
 20
60.056
 11
2395.52
 21
53.8775
  0
LINE
  8
0
 10
2395.52
 20
53.8775
 11
2397.12
 21
47.818
  0
LINE
  8
0
 10
2397.12
 20
47.818
 11
2398.71
 21
41.8775
  0
LINE
  8
0
 10
2398.71
 20
41.8775
 11
2400.28
 21
36.056
  0
LINE
  8
0
 10
2400.28
 20
36.056
 11
2401.98
 21
30.421
  0
LINE
  8
0
 10
2401.98
 20
30.421
 11
2403.97
 21
25.04
  0
LINE
  8
0
 10
2403.97
 20
25.04
 11
2406.25
 21
19.913
  0
LINE
  8
0
 10
2406.25
 20
19.913
 11
2408.82
 21
15.04
  0
LINE
  8
0
 10
2408.82
 20
15.04
 11
2411.81
 21
10.506
  0
LINE
  8
0
 10
2411.81
 20
10.506
 11
2415.33
 21
6.396
  0
LINE
  8
0
 10
2415.33
 20
6.396
 11
2419.4
 21
2.70999
  0
LINE
  8
0
 10
2419.4
 20
2.70999
 11
2424.01
 21
-0.551987
  0
LINE
  8
0
 10
2424.01
 20
-0.551987
 11
2429.17
 21
-3.22249
  0
LINE
  8
0
 10
2429.17
 20
-3.22249
 11
2434.86
 21
-5.12999
  0
LINE
  8
0
 10
2434.86
 20
-5.12999
 11
2441.1
 21
-6.27449
  0
LINE
  8
0
 10
2441.1
 20
-6.27449
 11
2447.88
 21
-6.65599
  0
LINE
  8
0
 10
2447.88
 20
-6.65599
 11
2456.73
 21
-6.06274
  0
LINE
  8
0
 10
2456.73
 20
-6.06274
 11
2464.56
 21
-4.28299
  0
LINE
  8
0
 10
2464.56
 20
-4.28299
 11
2471.38
 21
-1.31674
  0
LINE
  8
0
 10
2471.38
 20
-1.31674
 11
2477.18
 21
2.836
  0
LINE
  8
0
 10
2477.18
 20
2.836
 11
2482.05
 21
7.709
  0
LINE
  8
0
 10
2482.05
 20
7.709
 11
2486.1
 21
12.836
  0
LINE
  8
0
 10
2486.1
 20
12.836
 11
2489.31
 21
18.217
  0
LINE
  8
0
 10
2489.31
 20
18.217
 11
2491.69
 21
23.852
  0
LINE
  8
0
 10
2491.69
 20
23.852
 11
2493.8
 21
30.4362
  0
LINE
  8
0
 10
2493.8
 20
30.4362
 11
2496.2
 21
38.665
  0
LINE
  8
0
 10
2496.2
 20
38.665
 11
2498.89
 21
48.5382
  0
LINE
  8
0
 10
2498.89
 20
48.5382
 11
2501.86
 21
60.056
  0
LINE
  8
0
 10
2501.86
 20
60.056
 11
2565.61
 21
313.344
  0
LINE
  8
0
 10
2565.61
 20
313.344
 11
2565.61
 21
38.904
  0
LINE
  8
0
 10
2565.61
 20
38.904
 11
2566.25
 21
28.2257
  0
LINE
  8
0
 10
2566.25
 20
28.2257
 11
2568.18
 21
18.971
  0
LINE
  8
0
 10
2568.18
 20
18.971
 11
2571.4
 21
11.1397
  0
LINE
  8
0
 10
2571.4
 20
11.1397
 11
2575.91
 21
4.73199
  0
LINE
  8
0
 10
2575.91
 20
4.73199
 11
2581.42
 21
-0.250244
  0
LINE
  8
0
 10
2581.42
 20
-0.250244
 11
2587.65
 21
-3.80899
  0
LINE
  8
0
 10
2587.65
 20
-3.80899
 11
2594.58
 21
-5.94424
  0
LINE
  8
0
 10
2594.58
 20
-5.94424
 11
2602.22
 21
-6.65599
  0
LINE
  8
0
 10
2602.22
 20
-6.65599
 11
2610.33
 21
-5.94449
  0
LINE
  8
0
 10
3438.38
 20
-6.37624
 11
3443.57
 21
-5.53699
  0
LINE
  8
0
 10
3443.57
 20
-5.53699
 11
3448.41
 21
-4.13824
  0
LINE
  8
0
 10
3448.41
 20
-4.13824
 11
3452.92
 21
-2.17999
  0
LINE
  8
0
 10
3452.92
 20
-2.17999
 11
3457.03
 21
0.261246
  0
LINE
  8
0
 10
3457.03
 20
0.261246
 11
3460.69
 21
3.10899
  0
LINE
  8
0
 10
3460.69
 20
3.10899
 11
3463.88
 21
6.36324
  0
LINE
  8
0
 10
3463.88
 20
6.36324
 11
3466.62
 21
10.024
  0
LINE
  8
0
 10
3466.62
 20
10.024
 11
3468.82
 21
13.8985
  0
LINE
  8
0
 10
3468.82
 20
13.8985
 11
3470.38
 21
17.79
  0
LINE
  8
0
 10
3470.38
 20
17.79
 11
3471.33
 21
21.6985
  0
LINE
  8
0
 10
3471.33
 20
21.6985
 11
3471.64
 21
25.624
  0
LINE
  8
0
 10
3471.64
 20
25.624
 11
3471.11
 21
30.2102
  0
LINE
  8
0
 10
3471.11
 20
30.2102
 11
3469.5
 21
36.373
  0
LINE
  8
0
 10
3469.5
 20
36.373
 11
3466.83
 21
44.1122
  0
LINE
  8
0
 10
3466.83
 20
44.1122
 11
3463.1
 21
53.428
  0
LINE
  8
0
 10
3463.1
 20
53.428
 11
3458.4
 21
63.839
  0
LINE
  8
0
 10
3458.4
 20
63.839
 11
3452.86
 21
74.86
  0
LINE
  8
0
 10
3452.86
 20
74.86
 11
3446.46
 21
86.491
  0
LINE
  8
0
 10
3446.46
 20
86.491
 11
3439.22
 21
98.732
  0
LINE
  8
0
 10
3439.22
 20
98.732
 11
3431.3
 21
111.1
  0
LINE
  8
0
 10
3431.3
 20
111.1
 11
3422.85
 21
123.112
  0
LINE
  8
0
 10
3422.85
 20
123.112
 11
3413.87
 21
134.768
  0
LINE
  8
0
 10
3413.87
 20
134.768
 11
3404.37
 21
146.068
  0
LINE
  8
0
 10
3404.37
 20
146.068
 11
3394.48
 21
156.512
  0
LINE
  8
0
 10
3394.48
 20
156.512
 11
3384.36
 21
165.599
  0
LINE
  8
0
 10
3384.36
 20
165.599
 11
3374
 21
173.33
  0
LINE
  8
0
 10
3374
 20
173.33
 11
3363.41
 21
179.704
  0
LINE
  8
0
 10
3363.41
 20
179.704
 11
3387.29
 21
186.225
  0
LINE
  8
0
 10
3387.29
 20
186.225
 11
3407.93
 21
194.677
  0
LINE
  8
0
 10
3407.93
 20
194.677
 11
3425.33
 21
205.059
  0
LINE
  8
0
 10
3425.33
 20
205.059
 11
3439.5
 21
217.372
  0
LINE
  8
0
 10
3439.5
 20
217.372
 11
3450.47
 21
231.768
  0
LINE
  8
0
 10
3450.47
 20
231.768
 11
3458.31
 21
248.399
  0
LINE
  8
0
 10
3458.31
 20
248.399
 11
3463.02
 21
267.266
  0
LINE
  8
0
 10
3463.02
 20
267.266
 11
3464.59
 21
288.368
  0
LINE
  8
0
 10
3464.59
 20
288.368
 11
3464.12
 21
299.062
  0
LINE
  8
0
 10
3464.12
 20
299.062
 11
3462.72
 21
309.469
  0
LINE
  8
0
 10
3462.72
 20
309.469
 11
3460.39
 21
319.588
  0
LINE
  8
0
 10
3460.39
 20
319.588
 11
3457.13
 21
329.42
  0
LINE
  8
0
 10
3457.13
 20
329.42
 11
3452.97
 21
338.811
  0
LINE
  8
0
 10
3452.97
 20
338.811
 11
3447.94
 21
347.61
  0
LINE
  8
0
 10
3447.94
 20
347.61
 11
3442.05
 21
355.815
  0
LINE
  8
0
 10
3442.05
 20
355.815
 11
3435.29
 21
363.428
  0
LINE
  8
0
 10
3435.29
 20
363.428
 11
3427.83
 21
370.321
  0
LINE
  8
0
 10
3427.83
 20
370.321
 11
3419.83
 21
376.367
  0
LINE
  8
0
 10
3419.83
 20
376.367
 11
3411.29
 21
381.567
  0
LINE
  8
0
 10
3411.29
 20
381.567
 11
3402.2
 21
385.92
  0
LINE
  8
0
 10
3402.2
 20
385.92
 11
3394.23
 21
389.145
  0
LINE
  8
0
 10
3394.23
 20
389.145
 11
3385.79
 21
391.778
  0
LINE
  8
0
 10
3385.79
 20
391.778
 11
3376.87
 21
393.817
  0
LINE
  8
0
 10
3376.87
 20
393.817
 11
3367.48
 21
395.264
  0
LINE
  8
0
 10
3367.48
 20
395.264
 11
3357.36
 21
396.272
  0
LINE
  8
0
 10
3357.36
 20
396.272
 11
3346.25
 21
396.992
  0
LINE
  8
0
 10
3346.25
 20
396.992
 11
3334.17
 21
397.424
  0
LINE
  8
0
 10
3334.17
 20
397.424
 11
3321.1
 21
397.568
  0
LINE
  8
0
 10
3321.1
 20
397.568
 11
3190.08
 21
397.568
  0
LINE
  8
0
 10
3190.08
 20
397.568
 11
3177.96
 21
396.839
  0
LINE
  8
0
 10
3177.96
 20
396.839
 11
3167.63
 21
394.653
  0
LINE
  8
0
 10
3167.63
 20
394.653
 11
3159.11
 21
391.009
  0
LINE
  8
0
 10
3159.11
 20
391.009
 11
3152.38
 21
385.908
  0
LINE
  8
0
 10
3152.38
 20
385.908
 11
3147.27
 21
379.182
  0
LINE
  8
0
 10
3147.27
 20
379.182
 11
3143.63
 21
370.66
  0
LINE
  8
0
 10
3143.63
 20
370.66
 11
3141.44
 21
360.342
  0
LINE
  8
0
 10
3141.44
 20
360.342
 11
3140.71
 21
348.228
  0
LINE
  8
0
 10
3140.71
 20
348.228
 11
3140.71
 21
42.416
  0
LINE
  8
0
 10
3140.71
 20
42.416
 11
3141.37
 21
31.0805
  0
LINE
  8
0
 10
3141.37
 20
31.0805
 11
3143.36
 21
21.202
  0
LINE
  8
0
 10
3143.36
 20
21.202
 11
3146.66
 21
12.7805
  0
LINE
  8
0
 10
3146.66
 20
12.7805
 11
3151.29
 21
5.81599
  0
LINE
  8
0
 10
3151.29
 20
5.81599
 11
3157.12
 21
0.359497
  0
LINE
  8
0
 10
3157.12
 20
0.359497
 11
3164.04
 21
-3.53799
  0
LINE
  8
0
 10
3164.04
 20
-3.53799
 11
3172.04
 21
-5.8765
  0
LINE
  8
0
 10
3172.04
 20
-5.8765
 11
3181.13
 21
-6.65599
  0
LINE
  8
0
 10
3181.13
 20
-6.65599
 11
3189.66
 21
-5.90999
  0
LINE
  8
0
 10
3189.66
 20
-5.90999
 11
3197.34
 21
-3.672
  0
LINE
  8
0
 10
3197.34
 20
-3.672
 11
3204.17
 21
0.0579987
  0
LINE
  8
0
 10
3204.17
 20
0.0579987
 11
3210.15
 21
5.28
  0
LINE
  8
0
 10
3210.15
 20
5.28
 11
3215.02
 21
12.0807
  0
LINE
  8
0
 10
3215.02
 20
12.0807
 11
3218.49
 21
20.543
  0
LINE
  8
0
 10
3218.49
 20
20.543
 11
3220.58
 21
30.6667
  0
LINE
  8
0
 10
3220.58
 20
30.6667
 11
3221.28
 21
42.452
  0
LINE
  8
0
 10
3221.28
 20
42.452
 11
3221.28
 21
170.24
  0
LINE
  8
0
 10
3221.28
 20
170.24
 11
3249.48
 21
170.24
  0
LINE
  8
0
 10
3249.48
 20
170.24
 11
3259.74
 21
169.884
  0
LINE
  8
0
 10
3259.74
 20
169.884
 11
3269.08
 21
168.815
  0
LINE
  8
0
 10
3269.08
 20
168.815
 11
3277.51
 21
167.034
  0
LINE
  8
0
 10
3277.51
 20
167.034
 11
3285.02
 21
164.54
  0
LINE
  8
0
 10
3285.02
 20
164.54
 11
3292.04
 21
161.081
  0
LINE
  8
0
 10
3292.04
 20
161.081
 11
3299.02
 21
156.402
  0
LINE
  8
0
 10
3299.02
 20
156.402
 11
3305.95
 21
150.501
  0
LINE
  8
0
 10
3305.95
 20
150.501
 11
3312.82
 21
143.38
  0
LINE
  8
0
 10
3312.82
 20
143.38
 11
3319.9
 21
134.766
  0
LINE
  8
0
 10
3319.9
 20
134.766
 11
3327.43
 21
124.389
  0
LINE
  8
0
 10
3327.43
 20
124.389
 11
3335.43
 21
112.248
  0
LINE
  8
0
 10
3335.43
 20
112.248
 11
3343.88
 21
98.344
  0
LINE
  8
0
 10
3343.88
 20
98.344
 11
3376.16
 21
44.624
  0
LINE
  8
0
 10
3376.16
 20
44.624
 11
3381.56
 21
35.7045
  0
LINE
  8
0
 10
3381.56
 20
35.7045
 11
3386.36
 21
27.938
  0
LINE
  8
0
 10
3386.36
 20
27.938
 11
3390.58
 21
21.3245
  0
LINE
  8
0
 10
3390.58
 20
21.3245
 11
3394.2
 21
15.864
  0
LINE
  8
0
 10
3394.2
 20
15.864
 11
3397.68
 21
11.192
  0
LINE
  8
0
 10
3397.68
 20
11.192
 11
3401.49
 21
6.94398
  0
LINE
  8
0
 10
3401.49
 20
6.94398
 11
3405.61
 21
3.12
  0
LINE
  8
0
 10
3405.61
 20
3.12
 11
3410.06
 21
-0.279999
  0
LINE
  8
0
 10
3410.06
 20
-0.279999
 11
3414.95
 21
-3.06949
  0
LINE
  8
0
 10
3414.95
 20
-3.06949
 11
3420.37
 21
-5.062
  0
LINE
  8
0
 10
3420.37
 20
-5.062
 11
3426.34
 21
-6.25749
  0
LINE
  8
0
 10
3426.34
 20
-6.25749
 11
3432.85
 21
-6.65599
  0
LINE
  8
0
 10
3432.85
 20
-6.65599
 11
3438.38
 21
-6.37624
  0
LINE
  8
0
 10
3221.28
 20
227.84
 11
3221.28
 21
337.152
  0
LINE
  8
0
 10
3221.28
 20
337.152
 11
3295.6
 21
337.152
  0
LINE
  8
0
 10
3295.6
 20
337.152
 11
3314.64
 21
336.779
  0
LINE
  8
0
 10
3314.64
 20
336.779
 11
3330.25
 21
335.66
  0
LINE
  8
0
 10
3330.25
 20
335.66
 11
3342.44
 21
333.795
  0
LINE
  8
0
 10
3342.44
 20
333.795
 11
3351.2
 21
331.184
  0
LINE
  8
0
 10
3351.2
 20
331.184
 11
3358.26
 21
327.666
  0
LINE
  8
0
 10
3358.26
 20
327.666
 11
3364.5
 21
323.351
  0
LINE
  8
0
 10
3364.5
 20
323.351
 11
3369.92
 21
318.24
  0
LINE
  8
0
 10
3369.92
 20
318.24
 11
3374.53
 21
312.332
  0
LINE
  8
0
 10
3374.53
 20
312.332
 11
3378.21
 21
305.78
  0
LINE
  8
0
 10
3378.21
 20
305.78
 11
3380.84
 21
298.737
  0
LINE
  8
0
 10
3380.84
 20
298.737
 11
3382.41
 21
291.202
  0
LINE
  8
0
 10
3382.41
 20
291.202
 11
3382.94
 21
283.176
  0
LINE
  8
0
 10
3382.94
 20
283.176
 11
3382.29
 21
273.164
  0
LINE
  8
0
 10
3382.29
 20
273.164
 11
3380.33
 21
264.288
  0
LINE
  8
0
 10
3380.33
 20
264.288
 11
3377.06
 21
256.548
  0
LINE
  8
0
 10
3377.06
 20
256.548
 11
3372.5
 21
249.944
  0
LINE
  8
0
 10
3372.5
 20
249.944
 11
3366.69
 21
244.35
  0
LINE
  8
0
 10
3366.69
 20
244.35
 11
3359.71
 21
239.638
  0
LINE
  8
0
 10
3359.71
 20
239.638
 11
3351.57
 21
235.806
  0
LINE
  8
0
 10
3351.57
 20
235.806
 11
3342.25
 21
232.856
  0
LINE
  8
0
 10
3342.25
 20
232.856
 11
3331.77
 21
230.661
  0
LINE
  8
0
 10
3331.77
 20
230.661
 11
3320.15
 21
229.094
  0
LINE
  8
0
 10
3320.15
 20
229.094
 11
3307.36
 21
228.153
  0
LINE
  8
0
 10
3307.36
 20
228.153
 11
3293.43
 21
227.84
  0
LINE
  8
0
 10
3293.43
 20
227.84
 11
3221.28
 21
227.84
  0
LINE
  8
0
 10
3808.64
 20
0.550735
 11
3816.38
 21
2.20299
  0
LINE
  8
0
 10
3816.38
 20
2.20299
 11
3822.95
 21
4.95674
  0
LINE
  8
0
 10
3822.95
 20
4.95674
 11
3828.35
 21
8.812
  0
LINE
  8
0
 10
3828.35
 20
8.812
 11
3832.56
 21
13.5502
  0
LINE
  8
0
 10
3832.56
 20
13.5502
 11
3835.57
 21
18.949
  0
LINE
  8
0
 10
3835.57
 20
18.949
 11
3837.38
 21
25.0082
  0
LINE
  8
0
 10
3837.38
 20
25.0082
 11
3837.98
 21
31.728
  0
LINE
  8
0
 10
3837.98
 20
31.728
 11
3837.38
 21
38.6855
  0
LINE
  8
0
 10
3837.38
 20
38.6855
 11
3835.57
 21
44.914
  0
LINE
  8
0
 10
3835.57
 20
44.914
 11
3832.56
 21
50.4135
  0
LINE
  8
0
 10
3832.56
 20
50.4135
 11
3828.35
 21
55.184
  0
LINE
  8
0
 10
3828.35
 20
55.184
 11
3822.95
 21
59.041
  0
LINE
  8
0
 10
3822.95
 20
59.041
 11
3816.38
 21
61.796
  0
LINE
  8
0
 10
3816.38
 20
61.796
 11
3808.64
 21
63.449
  0
LINE
  8
0
 10
3808.64
 20
63.449
 11
3799.73
 21
64
  0
LINE
  8
0
 10
3799.73
 20
64
 11
3612.03
 21
64
  0
LINE
  8
0
 10
3612.03
 20
64
 11
3612.03
 21
177.152
  0
LINE
  8
0
 10
3612.03
 20
177.152
 11
3779.12
 21
177.152
  0
LINE
  8
0
 10
3779.12
 20
177.152
 11
3787.87
 21
177.685
  0
LINE
  8
0
 10
3787.87
 20
177.685
 11
3795.39
 21
179.285
  0
LINE
  8
0
 10
3795.39
 20
179.285
 11
3801.7
 21
181.951
  0
LINE
  8
0
 10
3801.7
 20
181.951
 11
3806.79
 21
185.684
  0
LINE
  8
0
 10
3806.79
 20
185.684
 11
3810.7
 21
190.263
  0
LINE
  8
0
 10
3810.7
 20
190.263
 11
3813.5
 21
195.469
  0
LINE
  8
0
 10
3813.5
 20
195.469
 11
3815.18
 21
201.301
  0
LINE
  8
0
 10
3815.18
 20
201.301
 11
3815.74
 21
207.76
  0
LINE
  8
0
 10
3815.74
 20
207.76
 11
3815.17
 21
214.2
  0
LINE
  8
0
 10
3815.17
 20
214.2
 11
3813.47
 21
219.98
  0
LINE
  8
0
 10
3813.47
 20
219.98
 11
3810.63
 21
225.1
  0
LINE
  8
0
 10
3810.63
 20
225.1
 11
3806.65
 21
229.56
  0
LINE
  8
0
 10
3806.65
 20
229.56
 11
3801.52
 21
233.175
  0
LINE
  8
0
 10
3801.52
 20
233.175
 11
3795.22
 21
235.758
  0
LINE
  8
0
 10
3795.22
 20
235.758
 11
3787.76
 21
237.307
  0
LINE
  8
0
 10
3787.76
 20
237.307
 11
3779.12
 21
237.824
  0
LINE
  8
0
 10
3779.12
 20
237.824
 11
3612.03
 21
237.824
  0
LINE
  8
0
 10
3612.03
 20
237.824
 11
3612.03
 21
335.616
  0
LINE
  8
0
 10
3612.03
 20
335.616
 11
3793.49
 21
335.616
  0
LINE
  8
0
 10
3793.49
 20
335.616
 11
3802.51
 21
336.148
  0
LINE
  8
0
 10
3802.51
 20
336.148
 11
3810.28
 21
337.746
  0
LINE
  8
0
 10
3810.28
 20
337.746
 11
3816.81
 21
340.408
  0
LINE
  8
0
 10
3816.81
 20
340.408
 11
3822.11
 21
344.136
  0
LINE
  8
0
 10
3822.11
 20
344.136
 11
3826.21
 21
348.744
  0
LINE
  8
0
 10
3826.21
 20
348.744
 11
3829.13
 21
354.046
  0
LINE
  8
0
 10
3829.13
 20
354.046
 11
3830.89
 21
360.04
  0
LINE
  8
0
 10
3830.89
 20
360.04
 11
3831.47
 21
366.728
  0
LINE
  8
0
 10
3831.47
 20
366.728
 11
3830.89
 21
373.296
  0
LINE
  8
0
 10
3830.89
 20
373.296
 11
3829.13
 21
379.205
  0
LINE
  8
0
 10
3829.13
 20
379.205
 11
3826.21
 21
384.454
  0
LINE
  8
0
 10
3826.21
 20
384.454
 11
3822.11
 21
389.044
  0
LINE
  8
0
 10
3822.11
 20
389.044
 11
3816.81
 21
392.773
  0
LINE
  8
0
 10
3816.81
 20
392.773
 11
3810.28
 21
395.437
  0
LINE
  8
0
 10
3810.28
 20
395.437
 11
3802.51
 21
397.035
  0
LINE
  8
0
 10
3802.51
 20
397.035
 11
3793.49
 21
397.568
  0
LINE
  8
0
 10
3793.49
 20
397.568
 11
3580.83
 21
397.568
  0
LINE
  8
0
 10
3580.83
 20
397.568
 11
3572.67
 21
397.254
  0
LINE
  8
0
 10
3572.67
 20
397.254
 11
3565.27
 21
396.313
  0
LINE
  8
0
 10
3565.27
 20
396.313
 11
3558.63
 21
394.744
  0
LINE
  8
0
 10
3558.63
 20
394.744
 11
3552.76
 21
392.548
  0
LINE
  8
0
 10
3552.76
 20
392.548
 11
3547.63
 21
389.667
  0
LINE
  8
0
 10
3547.63
 20
389.667
 11
3543.23
 21
386.04
  0
LINE
  8
0
 10
3543.23
 20
386.04
 11
3539.56
 21
381.667
  0
LINE
  8
0
 10
3539.56
 20
381.667
 11
3536.62
 21
376.548
  0
LINE
  8
0
 10
3536.62
 20
376.548
 11
3534.36
 21
370.659
  0
LINE
  8
0
 10
3534.36
 20
370.659
 11
3532.75
 21
363.974
  0
LINE
  8
0
 10
3532.75
 20
363.974
 11
3531.79
 21
356.491
  0
LINE
  8
0
 10
3531.79
 20
356.491
 11
3531.47
 21
348.212
  0
LINE
  8
0
 10
3531.47
 20
348.212
 11
3531.47
 21
49.356
  0
LINE
  8
0
 10
3531.47
 20
49.356
 11
3532.19
 21
37.238
  0
LINE
  8
0
 10
3532.19
 20
37.238
 11
3534.35
 21
26.916
  0
LINE
  8
0
 10
3534.35
 20
26.916
 11
3537.95
 21
18.39
  0
LINE
  8
0
 10
3537.95
 20
18.39
 11
3542.99
 21
11.66
  0
LINE
  8
0
 10
3542.99
 20
11.66
 11
3549.68
 21
6.55875
  0
LINE
  8
0
 10
3549.68
 20
6.55875
 11
3558.22
 21
2.91499
  0
LINE
  8
0
 10
3558.22
 20
2.91499
 11
3568.6
 21
0.728745
  0
LINE
  8
0
 10
3568.6
 20
0.728745
 11
3580.83
 21
0
  0
LINE
  8
0
 10
3580.83
 20
0
 11
3799.73
 21
0
  0
LINE
  8
0
 10
3799.73
 20
0
 11
3808.64
 21
0.550735
  0
ENDSEC
  0
SECTION
  2
OBJECTS
  0
DICTIONARY
  0
ENDSEC
  0
EOF
